%TF.GenerationSoftware,KiCad,Pcbnew,(5.1.9)-1*%
%TF.CreationDate,2021-02-26T14:18:10+09:00*%
%TF.ProjectId,diesel-heater-esp32,64696573-656c-42d6-9865-617465722d65,rev?*%
%TF.SameCoordinates,Original*%
%TF.FileFunction,Copper,L1,Top*%
%TF.FilePolarity,Positive*%
%FSLAX46Y46*%
G04 Gerber Fmt 4.6, Leading zero omitted, Abs format (unit mm)*
G04 Created by KiCad (PCBNEW (5.1.9)-1) date 2021-02-26 14:18:10*
%MOMM*%
%LPD*%
G01*
G04 APERTURE LIST*
%TA.AperFunction,ComponentPad*%
%ADD10O,1.700000X2.000000*%
%TD*%
%TA.AperFunction,ComponentPad*%
%ADD11O,1.700000X1.950000*%
%TD*%
%TA.AperFunction,ComponentPad*%
%ADD12O,1.950000X1.700000*%
%TD*%
%TA.AperFunction,ComponentPad*%
%ADD13R,1.600000X1.600000*%
%TD*%
%TA.AperFunction,ComponentPad*%
%ADD14C,1.600000*%
%TD*%
%TA.AperFunction,ComponentPad*%
%ADD15R,1.700000X1.700000*%
%TD*%
%TA.AperFunction,ComponentPad*%
%ADD16O,1.700000X1.700000*%
%TD*%
%TA.AperFunction,ViaPad*%
%ADD17C,0.800000*%
%TD*%
%TA.AperFunction,Conductor*%
%ADD18C,0.250000*%
%TD*%
%TA.AperFunction,Conductor*%
%ADD19C,0.254000*%
%TD*%
%TA.AperFunction,Conductor*%
%ADD20C,0.100000*%
%TD*%
G04 APERTURE END LIST*
D10*
%TO.P,J1,2*%
%TO.N,GND*%
X120520000Y-73780000D03*
%TO.P,J1,1*%
%TO.N,/5V*%
%TA.AperFunction,ComponentPad*%
G36*
G01*
X123870000Y-73030000D02*
X123870000Y-74530000D01*
G75*
G02*
X123620000Y-74780000I-250000J0D01*
G01*
X122420000Y-74780000D01*
G75*
G02*
X122170000Y-74530000I0J250000D01*
G01*
X122170000Y-73030000D01*
G75*
G02*
X122420000Y-72780000I250000J0D01*
G01*
X123620000Y-72780000D01*
G75*
G02*
X123870000Y-73030000I0J-250000D01*
G01*
G37*
%TD.AperFunction*%
%TD*%
%TO.P,J3,1*%
%TO.N,/3V3*%
%TA.AperFunction,ComponentPad*%
G36*
G01*
X137060000Y-73055000D02*
X137060000Y-74505000D01*
G75*
G02*
X136810000Y-74755000I-250000J0D01*
G01*
X135610000Y-74755000D01*
G75*
G02*
X135360000Y-74505000I0J250000D01*
G01*
X135360000Y-73055000D01*
G75*
G02*
X135610000Y-72805000I250000J0D01*
G01*
X136810000Y-72805000D01*
G75*
G02*
X137060000Y-73055000I0J-250000D01*
G01*
G37*
%TD.AperFunction*%
D11*
%TO.P,J3,2*%
%TO.N,GND*%
X133710000Y-73780000D03*
%TO.P,J3,3*%
%TO.N,/M_RUN*%
X131210000Y-73780000D03*
%TD*%
D12*
%TO.P,J4,5*%
%TO.N,/BTN3*%
X165600000Y-87000000D03*
%TO.P,J4,4*%
%TO.N,/BTN2*%
X165600000Y-89500000D03*
%TO.P,J4,3*%
%TO.N,/BTN1*%
X165600000Y-92000000D03*
%TO.P,J4,2*%
%TO.N,/BTN0*%
X165600000Y-94500000D03*
%TO.P,J4,1*%
%TO.N,GND*%
%TA.AperFunction,ComponentPad*%
G36*
G01*
X166325000Y-97850000D02*
X164875000Y-97850000D01*
G75*
G02*
X164625000Y-97600000I0J250000D01*
G01*
X164625000Y-96400000D01*
G75*
G02*
X164875000Y-96150000I250000J0D01*
G01*
X166325000Y-96150000D01*
G75*
G02*
X166575000Y-96400000I0J-250000D01*
G01*
X166575000Y-97600000D01*
G75*
G02*
X166325000Y-97850000I-250000J0D01*
G01*
G37*
%TD.AperFunction*%
%TD*%
%TO.P,J5,1*%
%TO.N,/VBAT*%
%TA.AperFunction,ComponentPad*%
G36*
G01*
X114060000Y-112500000D02*
X114060000Y-111000000D01*
G75*
G02*
X114310000Y-110750000I250000J0D01*
G01*
X115510000Y-110750000D01*
G75*
G02*
X115760000Y-111000000I0J-250000D01*
G01*
X115760000Y-112500000D01*
G75*
G02*
X115510000Y-112750000I-250000J0D01*
G01*
X114310000Y-112750000D01*
G75*
G02*
X114060000Y-112500000I0J250000D01*
G01*
G37*
%TD.AperFunction*%
D10*
%TO.P,J5,2*%
%TO.N,GND*%
X117410000Y-111750000D03*
%TD*%
%TO.P,J7,1*%
%TO.N,/3V3*%
%TA.AperFunction,ComponentPad*%
G36*
G01*
X166305000Y-112300000D02*
X164855000Y-112300000D01*
G75*
G02*
X164605000Y-112050000I0J250000D01*
G01*
X164605000Y-110850000D01*
G75*
G02*
X164855000Y-110600000I250000J0D01*
G01*
X166305000Y-110600000D01*
G75*
G02*
X166555000Y-110850000I0J-250000D01*
G01*
X166555000Y-112050000D01*
G75*
G02*
X166305000Y-112300000I-250000J0D01*
G01*
G37*
%TD.AperFunction*%
D12*
%TO.P,J7,2*%
%TO.N,GND*%
X165580000Y-108950000D03*
%TO.P,J7,3*%
%TO.N,/SDA*%
X165580000Y-106450000D03*
%TO.P,J7,4*%
%TO.N,/SCL*%
X165580000Y-103950000D03*
%TD*%
D10*
%TO.P,J8,2*%
%TO.N,/RT*%
X142710000Y-73780000D03*
%TO.P,J8,1*%
%TO.N,/3V3*%
%TA.AperFunction,ComponentPad*%
G36*
G01*
X146060000Y-73030000D02*
X146060000Y-74530000D01*
G75*
G02*
X145810000Y-74780000I-250000J0D01*
G01*
X144610000Y-74780000D01*
G75*
G02*
X144360000Y-74530000I0J250000D01*
G01*
X144360000Y-73030000D01*
G75*
G02*
X144610000Y-72780000I250000J0D01*
G01*
X145810000Y-72780000D01*
G75*
G02*
X146060000Y-73030000I0J-250000D01*
G01*
G37*
%TD.AperFunction*%
%TD*%
%TO.P,J9,1*%
%TO.N,/3V3*%
%TA.AperFunction,ComponentPad*%
G36*
G01*
X155060000Y-73030000D02*
X155060000Y-74530000D01*
G75*
G02*
X154810000Y-74780000I-250000J0D01*
G01*
X153610000Y-74780000D01*
G75*
G02*
X153360000Y-74530000I0J250000D01*
G01*
X153360000Y-73030000D01*
G75*
G02*
X153610000Y-72780000I250000J0D01*
G01*
X154810000Y-72780000D01*
G75*
G02*
X155060000Y-73030000I0J-250000D01*
G01*
G37*
%TD.AperFunction*%
%TO.P,J9,2*%
%TO.N,/OT*%
X151710000Y-73780000D03*
%TD*%
%TO.P,J10,1*%
%TO.N,/3V3*%
%TA.AperFunction,ComponentPad*%
G36*
G01*
X125270000Y-112475000D02*
X125270000Y-111025000D01*
G75*
G02*
X125520000Y-110775000I250000J0D01*
G01*
X126720000Y-110775000D01*
G75*
G02*
X126970000Y-111025000I0J-250000D01*
G01*
X126970000Y-112475000D01*
G75*
G02*
X126720000Y-112725000I-250000J0D01*
G01*
X125520000Y-112725000D01*
G75*
G02*
X125270000Y-112475000I0J250000D01*
G01*
G37*
%TD.AperFunction*%
D11*
%TO.P,J10,2*%
%TO.N,GND*%
X128620000Y-111750000D03*
%TO.P,J10,3*%
%TO.N,/M_INA*%
X131120000Y-111750000D03*
%TO.P,J10,4*%
%TO.N,GND*%
X133620000Y-111750000D03*
%TO.P,J10,5*%
%TO.N,/M_PWM*%
X136120000Y-111750000D03*
%TD*%
D10*
%TO.P,J11,2*%
%TO.N,GND*%
X145620000Y-111750000D03*
%TO.P,J11,1*%
%TO.N,/GP_SIG*%
%TA.AperFunction,ComponentPad*%
G36*
G01*
X142270000Y-112500000D02*
X142270000Y-111000000D01*
G75*
G02*
X142520000Y-110750000I250000J0D01*
G01*
X143720000Y-110750000D01*
G75*
G02*
X143970000Y-111000000I0J-250000D01*
G01*
X143970000Y-112500000D01*
G75*
G02*
X143720000Y-112750000I-250000J0D01*
G01*
X142520000Y-112750000D01*
G75*
G02*
X142270000Y-112500000I0J250000D01*
G01*
G37*
%TD.AperFunction*%
%TD*%
%TO.P,J12,1*%
%TO.N,/OP_SIG*%
%TA.AperFunction,ComponentPad*%
G36*
G01*
X152270000Y-112500000D02*
X152270000Y-111000000D01*
G75*
G02*
X152520000Y-110750000I250000J0D01*
G01*
X153720000Y-110750000D01*
G75*
G02*
X153970000Y-111000000I0J-250000D01*
G01*
X153970000Y-112500000D01*
G75*
G02*
X153720000Y-112750000I-250000J0D01*
G01*
X152520000Y-112750000D01*
G75*
G02*
X152270000Y-112500000I0J250000D01*
G01*
G37*
%TD.AperFunction*%
%TO.P,J12,2*%
%TO.N,GND*%
X155620000Y-111750000D03*
%TD*%
%TO.P,R1,2*%
%TO.N,/3V3*%
%TA.AperFunction,SMDPad,CuDef*%
G36*
G01*
X125922500Y-84505000D02*
X126397500Y-84505000D01*
G75*
G02*
X126635000Y-84742500I0J-237500D01*
G01*
X126635000Y-85242500D01*
G75*
G02*
X126397500Y-85480000I-237500J0D01*
G01*
X125922500Y-85480000D01*
G75*
G02*
X125685000Y-85242500I0J237500D01*
G01*
X125685000Y-84742500D01*
G75*
G02*
X125922500Y-84505000I237500J0D01*
G01*
G37*
%TD.AperFunction*%
%TO.P,R1,1*%
%TO.N,/BTN0*%
%TA.AperFunction,SMDPad,CuDef*%
G36*
G01*
X125922500Y-82680000D02*
X126397500Y-82680000D01*
G75*
G02*
X126635000Y-82917500I0J-237500D01*
G01*
X126635000Y-83417500D01*
G75*
G02*
X126397500Y-83655000I-237500J0D01*
G01*
X125922500Y-83655000D01*
G75*
G02*
X125685000Y-83417500I0J237500D01*
G01*
X125685000Y-82917500D01*
G75*
G02*
X125922500Y-82680000I237500J0D01*
G01*
G37*
%TD.AperFunction*%
%TD*%
%TO.P,R2,1*%
%TO.N,/BTN1*%
%TA.AperFunction,SMDPad,CuDef*%
G36*
G01*
X128462500Y-82680000D02*
X128937500Y-82680000D01*
G75*
G02*
X129175000Y-82917500I0J-237500D01*
G01*
X129175000Y-83417500D01*
G75*
G02*
X128937500Y-83655000I-237500J0D01*
G01*
X128462500Y-83655000D01*
G75*
G02*
X128225000Y-83417500I0J237500D01*
G01*
X128225000Y-82917500D01*
G75*
G02*
X128462500Y-82680000I237500J0D01*
G01*
G37*
%TD.AperFunction*%
%TO.P,R2,2*%
%TO.N,/3V3*%
%TA.AperFunction,SMDPad,CuDef*%
G36*
G01*
X128462500Y-84505000D02*
X128937500Y-84505000D01*
G75*
G02*
X129175000Y-84742500I0J-237500D01*
G01*
X129175000Y-85242500D01*
G75*
G02*
X128937500Y-85480000I-237500J0D01*
G01*
X128462500Y-85480000D01*
G75*
G02*
X128225000Y-85242500I0J237500D01*
G01*
X128225000Y-84742500D01*
G75*
G02*
X128462500Y-84505000I237500J0D01*
G01*
G37*
%TD.AperFunction*%
%TD*%
%TO.P,R3,2*%
%TO.N,/3V3*%
%TA.AperFunction,SMDPad,CuDef*%
G36*
G01*
X131002500Y-84505000D02*
X131477500Y-84505000D01*
G75*
G02*
X131715000Y-84742500I0J-237500D01*
G01*
X131715000Y-85242500D01*
G75*
G02*
X131477500Y-85480000I-237500J0D01*
G01*
X131002500Y-85480000D01*
G75*
G02*
X130765000Y-85242500I0J237500D01*
G01*
X130765000Y-84742500D01*
G75*
G02*
X131002500Y-84505000I237500J0D01*
G01*
G37*
%TD.AperFunction*%
%TO.P,R3,1*%
%TO.N,/BTN2*%
%TA.AperFunction,SMDPad,CuDef*%
G36*
G01*
X131002500Y-82680000D02*
X131477500Y-82680000D01*
G75*
G02*
X131715000Y-82917500I0J-237500D01*
G01*
X131715000Y-83417500D01*
G75*
G02*
X131477500Y-83655000I-237500J0D01*
G01*
X131002500Y-83655000D01*
G75*
G02*
X130765000Y-83417500I0J237500D01*
G01*
X130765000Y-82917500D01*
G75*
G02*
X131002500Y-82680000I237500J0D01*
G01*
G37*
%TD.AperFunction*%
%TD*%
%TO.P,R4,1*%
%TO.N,/BTN3*%
%TA.AperFunction,SMDPad,CuDef*%
G36*
G01*
X131297500Y-102300000D02*
X130822500Y-102300000D01*
G75*
G02*
X130585000Y-102062500I0J237500D01*
G01*
X130585000Y-101562500D01*
G75*
G02*
X130822500Y-101325000I237500J0D01*
G01*
X131297500Y-101325000D01*
G75*
G02*
X131535000Y-101562500I0J-237500D01*
G01*
X131535000Y-102062500D01*
G75*
G02*
X131297500Y-102300000I-237500J0D01*
G01*
G37*
%TD.AperFunction*%
%TO.P,R4,2*%
%TO.N,/3V3*%
%TA.AperFunction,SMDPad,CuDef*%
G36*
G01*
X131297500Y-100475000D02*
X130822500Y-100475000D01*
G75*
G02*
X130585000Y-100237500I0J237500D01*
G01*
X130585000Y-99737500D01*
G75*
G02*
X130822500Y-99500000I237500J0D01*
G01*
X131297500Y-99500000D01*
G75*
G02*
X131535000Y-99737500I0J-237500D01*
G01*
X131535000Y-100237500D01*
G75*
G02*
X131297500Y-100475000I-237500J0D01*
G01*
G37*
%TD.AperFunction*%
%TD*%
%TO.P,R5,2*%
%TO.N,/VPWR*%
%TA.AperFunction,SMDPad,CuDef*%
G36*
G01*
X141555000Y-84107500D02*
X141555000Y-83632500D01*
G75*
G02*
X141792500Y-83395000I237500J0D01*
G01*
X142292500Y-83395000D01*
G75*
G02*
X142530000Y-83632500I0J-237500D01*
G01*
X142530000Y-84107500D01*
G75*
G02*
X142292500Y-84345000I-237500J0D01*
G01*
X141792500Y-84345000D01*
G75*
G02*
X141555000Y-84107500I0J237500D01*
G01*
G37*
%TD.AperFunction*%
%TO.P,R5,1*%
%TO.N,/VBAT*%
%TA.AperFunction,SMDPad,CuDef*%
G36*
G01*
X139730000Y-84107500D02*
X139730000Y-83632500D01*
G75*
G02*
X139967500Y-83395000I237500J0D01*
G01*
X140467500Y-83395000D01*
G75*
G02*
X140705000Y-83632500I0J-237500D01*
G01*
X140705000Y-84107500D01*
G75*
G02*
X140467500Y-84345000I-237500J0D01*
G01*
X139967500Y-84345000D01*
G75*
G02*
X139730000Y-84107500I0J237500D01*
G01*
G37*
%TD.AperFunction*%
%TD*%
%TO.P,R6,1*%
%TO.N,/VPWR*%
%TA.AperFunction,SMDPad,CuDef*%
G36*
G01*
X142530000Y-85422500D02*
X142530000Y-85897500D01*
G75*
G02*
X142292500Y-86135000I-237500J0D01*
G01*
X141792500Y-86135000D01*
G75*
G02*
X141555000Y-85897500I0J237500D01*
G01*
X141555000Y-85422500D01*
G75*
G02*
X141792500Y-85185000I237500J0D01*
G01*
X142292500Y-85185000D01*
G75*
G02*
X142530000Y-85422500I0J-237500D01*
G01*
G37*
%TD.AperFunction*%
%TO.P,R6,2*%
%TO.N,GND*%
%TA.AperFunction,SMDPad,CuDef*%
G36*
G01*
X140705000Y-85422500D02*
X140705000Y-85897500D01*
G75*
G02*
X140467500Y-86135000I-237500J0D01*
G01*
X139967500Y-86135000D01*
G75*
G02*
X139730000Y-85897500I0J237500D01*
G01*
X139730000Y-85422500D01*
G75*
G02*
X139967500Y-85185000I237500J0D01*
G01*
X140467500Y-85185000D01*
G75*
G02*
X140705000Y-85422500I0J-237500D01*
G01*
G37*
%TD.AperFunction*%
%TD*%
%TO.P,R7,2*%
%TO.N,/SCL*%
%TA.AperFunction,SMDPad,CuDef*%
G36*
G01*
X154192500Y-101215000D02*
X154667500Y-101215000D01*
G75*
G02*
X154905000Y-101452500I0J-237500D01*
G01*
X154905000Y-101952500D01*
G75*
G02*
X154667500Y-102190000I-237500J0D01*
G01*
X154192500Y-102190000D01*
G75*
G02*
X153955000Y-101952500I0J237500D01*
G01*
X153955000Y-101452500D01*
G75*
G02*
X154192500Y-101215000I237500J0D01*
G01*
G37*
%TD.AperFunction*%
%TO.P,R7,1*%
%TO.N,/3V3*%
%TA.AperFunction,SMDPad,CuDef*%
G36*
G01*
X154192500Y-99390000D02*
X154667500Y-99390000D01*
G75*
G02*
X154905000Y-99627500I0J-237500D01*
G01*
X154905000Y-100127500D01*
G75*
G02*
X154667500Y-100365000I-237500J0D01*
G01*
X154192500Y-100365000D01*
G75*
G02*
X153955000Y-100127500I0J237500D01*
G01*
X153955000Y-99627500D01*
G75*
G02*
X154192500Y-99390000I237500J0D01*
G01*
G37*
%TD.AperFunction*%
%TD*%
%TO.P,R8,2*%
%TO.N,/SDA*%
%TA.AperFunction,SMDPad,CuDef*%
G36*
G01*
X146302500Y-101335000D02*
X146777500Y-101335000D01*
G75*
G02*
X147015000Y-101572500I0J-237500D01*
G01*
X147015000Y-102072500D01*
G75*
G02*
X146777500Y-102310000I-237500J0D01*
G01*
X146302500Y-102310000D01*
G75*
G02*
X146065000Y-102072500I0J237500D01*
G01*
X146065000Y-101572500D01*
G75*
G02*
X146302500Y-101335000I237500J0D01*
G01*
G37*
%TD.AperFunction*%
%TO.P,R8,1*%
%TO.N,/3V3*%
%TA.AperFunction,SMDPad,CuDef*%
G36*
G01*
X146302500Y-99510000D02*
X146777500Y-99510000D01*
G75*
G02*
X147015000Y-99747500I0J-237500D01*
G01*
X147015000Y-100247500D01*
G75*
G02*
X146777500Y-100485000I-237500J0D01*
G01*
X146302500Y-100485000D01*
G75*
G02*
X146065000Y-100247500I0J237500D01*
G01*
X146065000Y-99747500D01*
G75*
G02*
X146302500Y-99510000I237500J0D01*
G01*
G37*
%TD.AperFunction*%
%TD*%
%TO.P,R9,1*%
%TO.N,/RT*%
%TA.AperFunction,SMDPad,CuDef*%
G36*
G01*
X145582500Y-82760000D02*
X146057500Y-82760000D01*
G75*
G02*
X146295000Y-82997500I0J-237500D01*
G01*
X146295000Y-83497500D01*
G75*
G02*
X146057500Y-83735000I-237500J0D01*
G01*
X145582500Y-83735000D01*
G75*
G02*
X145345000Y-83497500I0J237500D01*
G01*
X145345000Y-82997500D01*
G75*
G02*
X145582500Y-82760000I237500J0D01*
G01*
G37*
%TD.AperFunction*%
%TO.P,R9,2*%
%TO.N,GND*%
%TA.AperFunction,SMDPad,CuDef*%
G36*
G01*
X145582500Y-84585000D02*
X146057500Y-84585000D01*
G75*
G02*
X146295000Y-84822500I0J-237500D01*
G01*
X146295000Y-85322500D01*
G75*
G02*
X146057500Y-85560000I-237500J0D01*
G01*
X145582500Y-85560000D01*
G75*
G02*
X145345000Y-85322500I0J237500D01*
G01*
X145345000Y-84822500D01*
G75*
G02*
X145582500Y-84585000I237500J0D01*
G01*
G37*
%TD.AperFunction*%
%TD*%
%TO.P,R10,2*%
%TO.N,GND*%
%TA.AperFunction,SMDPad,CuDef*%
G36*
G01*
X149902500Y-84585000D02*
X150377500Y-84585000D01*
G75*
G02*
X150615000Y-84822500I0J-237500D01*
G01*
X150615000Y-85322500D01*
G75*
G02*
X150377500Y-85560000I-237500J0D01*
G01*
X149902500Y-85560000D01*
G75*
G02*
X149665000Y-85322500I0J237500D01*
G01*
X149665000Y-84822500D01*
G75*
G02*
X149902500Y-84585000I237500J0D01*
G01*
G37*
%TD.AperFunction*%
%TO.P,R10,1*%
%TO.N,/OT*%
%TA.AperFunction,SMDPad,CuDef*%
G36*
G01*
X149902500Y-82760000D02*
X150377500Y-82760000D01*
G75*
G02*
X150615000Y-82997500I0J-237500D01*
G01*
X150615000Y-83497500D01*
G75*
G02*
X150377500Y-83735000I-237500J0D01*
G01*
X149902500Y-83735000D01*
G75*
G02*
X149665000Y-83497500I0J237500D01*
G01*
X149665000Y-82997500D01*
G75*
G02*
X149902500Y-82760000I237500J0D01*
G01*
G37*
%TD.AperFunction*%
%TD*%
%TO.P,R11,1*%
%TO.N,/M_INA*%
%TA.AperFunction,SMDPad,CuDef*%
G36*
G01*
X142997500Y-102450000D02*
X142522500Y-102450000D01*
G75*
G02*
X142285000Y-102212500I0J237500D01*
G01*
X142285000Y-101712500D01*
G75*
G02*
X142522500Y-101475000I237500J0D01*
G01*
X142997500Y-101475000D01*
G75*
G02*
X143235000Y-101712500I0J-237500D01*
G01*
X143235000Y-102212500D01*
G75*
G02*
X142997500Y-102450000I-237500J0D01*
G01*
G37*
%TD.AperFunction*%
%TO.P,R11,2*%
%TO.N,GND*%
%TA.AperFunction,SMDPad,CuDef*%
G36*
G01*
X142997500Y-100625000D02*
X142522500Y-100625000D01*
G75*
G02*
X142285000Y-100387500I0J237500D01*
G01*
X142285000Y-99887500D01*
G75*
G02*
X142522500Y-99650000I237500J0D01*
G01*
X142997500Y-99650000D01*
G75*
G02*
X143235000Y-99887500I0J-237500D01*
G01*
X143235000Y-100387500D01*
G75*
G02*
X142997500Y-100625000I-237500J0D01*
G01*
G37*
%TD.AperFunction*%
%TD*%
%TO.P,R12,1*%
%TO.N,/GP_SIG*%
%TA.AperFunction,SMDPad,CuDef*%
G36*
G01*
X136547500Y-102290000D02*
X136072500Y-102290000D01*
G75*
G02*
X135835000Y-102052500I0J237500D01*
G01*
X135835000Y-101552500D01*
G75*
G02*
X136072500Y-101315000I237500J0D01*
G01*
X136547500Y-101315000D01*
G75*
G02*
X136785000Y-101552500I0J-237500D01*
G01*
X136785000Y-102052500D01*
G75*
G02*
X136547500Y-102290000I-237500J0D01*
G01*
G37*
%TD.AperFunction*%
%TO.P,R12,2*%
%TO.N,GND*%
%TA.AperFunction,SMDPad,CuDef*%
G36*
G01*
X136547500Y-100465000D02*
X136072500Y-100465000D01*
G75*
G02*
X135835000Y-100227500I0J237500D01*
G01*
X135835000Y-99727500D01*
G75*
G02*
X136072500Y-99490000I237500J0D01*
G01*
X136547500Y-99490000D01*
G75*
G02*
X136785000Y-99727500I0J-237500D01*
G01*
X136785000Y-100227500D01*
G75*
G02*
X136547500Y-100465000I-237500J0D01*
G01*
G37*
%TD.AperFunction*%
%TD*%
%TO.P,R13,1*%
%TO.N,/OP_SIG*%
%TA.AperFunction,SMDPad,CuDef*%
G36*
G01*
X139607500Y-102380000D02*
X139132500Y-102380000D01*
G75*
G02*
X138895000Y-102142500I0J237500D01*
G01*
X138895000Y-101642500D01*
G75*
G02*
X139132500Y-101405000I237500J0D01*
G01*
X139607500Y-101405000D01*
G75*
G02*
X139845000Y-101642500I0J-237500D01*
G01*
X139845000Y-102142500D01*
G75*
G02*
X139607500Y-102380000I-237500J0D01*
G01*
G37*
%TD.AperFunction*%
%TO.P,R13,2*%
%TO.N,GND*%
%TA.AperFunction,SMDPad,CuDef*%
G36*
G01*
X139607500Y-100555000D02*
X139132500Y-100555000D01*
G75*
G02*
X138895000Y-100317500I0J237500D01*
G01*
X138895000Y-99817500D01*
G75*
G02*
X139132500Y-99580000I237500J0D01*
G01*
X139607500Y-99580000D01*
G75*
G02*
X139845000Y-99817500I0J-237500D01*
G01*
X139845000Y-100317500D01*
G75*
G02*
X139607500Y-100555000I-237500J0D01*
G01*
G37*
%TD.AperFunction*%
%TD*%
%TO.P,R14,2*%
%TO.N,GND*%
%TA.AperFunction,SMDPad,CuDef*%
G36*
G01*
X126457500Y-100605000D02*
X125982500Y-100605000D01*
G75*
G02*
X125745000Y-100367500I0J237500D01*
G01*
X125745000Y-99867500D01*
G75*
G02*
X125982500Y-99630000I237500J0D01*
G01*
X126457500Y-99630000D01*
G75*
G02*
X126695000Y-99867500I0J-237500D01*
G01*
X126695000Y-100367500D01*
G75*
G02*
X126457500Y-100605000I-237500J0D01*
G01*
G37*
%TD.AperFunction*%
%TO.P,R14,1*%
%TO.N,/M_PWM*%
%TA.AperFunction,SMDPad,CuDef*%
G36*
G01*
X126457500Y-102430000D02*
X125982500Y-102430000D01*
G75*
G02*
X125745000Y-102192500I0J237500D01*
G01*
X125745000Y-101692500D01*
G75*
G02*
X125982500Y-101455000I237500J0D01*
G01*
X126457500Y-101455000D01*
G75*
G02*
X126695000Y-101692500I0J-237500D01*
G01*
X126695000Y-102192500D01*
G75*
G02*
X126457500Y-102430000I-237500J0D01*
G01*
G37*
%TD.AperFunction*%
%TD*%
D13*
%TO.P,C1,1*%
%TO.N,/EN*%
X164730000Y-73970000D03*
D14*
%TO.P,C1,2*%
%TO.N,GND*%
X167230000Y-73970000D03*
%TD*%
D15*
%TO.P,J2,1*%
%TO.N,/5V*%
X121070000Y-79910000D03*
D16*
%TO.P,J2,2*%
%TO.N,GND*%
X123610000Y-79910000D03*
%TO.P,J2,3*%
%TO.N,/BTN0*%
X126150000Y-79910000D03*
%TO.P,J2,4*%
%TO.N,/BTN1*%
X128690000Y-79910000D03*
%TO.P,J2,5*%
%TO.N,/BTN2*%
X131230000Y-79910000D03*
%TO.P,J2,6*%
%TO.N,/GPIO_IN_2*%
X133770000Y-79910000D03*
%TO.P,J2,7*%
%TO.N,/GPIO_IN_1*%
X136310000Y-79910000D03*
%TO.P,J2,8*%
%TO.N,/M_RUN*%
X138850000Y-79910000D03*
%TO.P,J2,9*%
%TO.N,/ADC_RSV*%
X141390000Y-79910000D03*
%TO.P,J2,10*%
%TO.N,/VPWR*%
X143930000Y-79910000D03*
%TO.P,J2,11*%
%TO.N,/RT*%
X146470000Y-79910000D03*
%TO.P,J2,12*%
%TO.N,/OT*%
X149010000Y-79910000D03*
%TO.P,J2,13*%
%TO.N,Net-(J2-Pad13)*%
X151550000Y-79910000D03*
%TO.P,J2,14*%
%TO.N,Net-(J2-Pad14)*%
X154090000Y-79910000D03*
%TO.P,J2,15*%
%TO.N,/EN*%
X156630000Y-79910000D03*
%TD*%
%TO.P,J6,15*%
%TO.N,Net-(J6-Pad15)*%
X156630000Y-105310000D03*
%TO.P,J6,14*%
%TO.N,/SCL*%
X154090000Y-105310000D03*
%TO.P,J6,13*%
%TO.N,Net-(J6-Pad13)*%
X151550000Y-105310000D03*
%TO.P,J6,12*%
%TO.N,Net-(J6-Pad12)*%
X149010000Y-105310000D03*
%TO.P,J6,11*%
%TO.N,/SDA*%
X146470000Y-105310000D03*
%TO.P,J6,10*%
%TO.N,/M_INA*%
X143930000Y-105310000D03*
%TO.P,J6,9*%
%TO.N,/OP_SIG*%
X141390000Y-105310000D03*
%TO.P,J6,8*%
%TO.N,/GP_SIG*%
X138850000Y-105310000D03*
%TO.P,J6,7*%
%TO.N,Net-(J6-Pad7)*%
X136310000Y-105310000D03*
%TO.P,J6,6*%
%TO.N,/PWM_RSV1*%
X133770000Y-105310000D03*
%TO.P,J6,5*%
%TO.N,/BTN3*%
X131230000Y-105310000D03*
%TO.P,J6,4*%
%TO.N,Net-(J6-Pad4)*%
X128690000Y-105310000D03*
%TO.P,J6,3*%
%TO.N,/M_PWM*%
X126150000Y-105310000D03*
%TO.P,J6,2*%
%TO.N,Net-(J6-Pad2)*%
X123610000Y-105310000D03*
D15*
%TO.P,J6,1*%
%TO.N,/3V3*%
X121070000Y-105310000D03*
%TD*%
D17*
%TO.N,GND*%
X124980000Y-98660000D03*
X144100000Y-99250000D03*
X143750000Y-87040000D03*
%TO.N,/BTN2*%
X149370000Y-89970000D03*
%TO.N,/BTN1*%
X149370000Y-91080000D03*
%TO.N,/BTN0*%
X149370000Y-92200000D03*
%TO.N,/VBAT*%
X124820000Y-93640000D03*
%TD*%
D18*
%TO.N,GND*%
X126220000Y-100117500D02*
X126220000Y-99900000D01*
X126220000Y-99900000D02*
X124980000Y-98660000D01*
X139280000Y-99977500D02*
X139370000Y-100067500D01*
X136310000Y-99977500D02*
X139280000Y-99977500D01*
X142690000Y-100067500D02*
X142760000Y-100137500D01*
X139370000Y-100067500D02*
X142690000Y-100067500D01*
X142760000Y-100137500D02*
X143212500Y-100137500D01*
X143212500Y-100137500D02*
X144100000Y-99250000D01*
X150140000Y-85072500D02*
X145820000Y-85072500D01*
X140217500Y-85660000D02*
X140217500Y-86337500D01*
X140217500Y-86337500D02*
X140920000Y-87040000D01*
X140920000Y-87040000D02*
X143750000Y-87040000D01*
X145717500Y-85072500D02*
X145820000Y-85072500D01*
X143750000Y-87040000D02*
X145717500Y-85072500D01*
%TO.N,/5V*%
X121070000Y-75730000D02*
X123020000Y-73780000D01*
X121070000Y-79910000D02*
X121070000Y-75730000D01*
%TO.N,/EN*%
X162570000Y-73970000D02*
X156630000Y-79910000D01*
X164730000Y-73970000D02*
X162570000Y-73970000D01*
%TO.N,/OT*%
X150140000Y-81040000D02*
X149010000Y-79910000D01*
X150140000Y-83247500D02*
X150140000Y-81040000D01*
X151710000Y-73780000D02*
X151710000Y-76360000D01*
X151710000Y-76360000D02*
X150940000Y-77130000D01*
X150940000Y-77130000D02*
X149390000Y-77130000D01*
X149010000Y-77510000D02*
X149010000Y-79910000D01*
X149390000Y-77130000D02*
X149010000Y-77510000D01*
%TO.N,/RT*%
X145820000Y-80560000D02*
X146470000Y-79910000D01*
X145820000Y-83247500D02*
X145820000Y-80560000D01*
X142710000Y-73780000D02*
X142710000Y-75970000D01*
X142710000Y-75970000D02*
X143740000Y-77000000D01*
X143740000Y-77000000D02*
X145710000Y-77000000D01*
X146470000Y-77760000D02*
X146470000Y-79910000D01*
X145710000Y-77000000D02*
X146470000Y-77760000D01*
%TO.N,/VPWR*%
X143930000Y-81982500D02*
X142042500Y-83870000D01*
X143930000Y-79910000D02*
X143930000Y-81982500D01*
X142042500Y-83870000D02*
X142042500Y-85660000D01*
%TO.N,/M_RUN*%
X131210000Y-73780000D02*
X131210000Y-75780000D01*
X131210000Y-75780000D02*
X132490000Y-77060000D01*
X132490000Y-77060000D02*
X137990000Y-77060000D01*
X138850000Y-77920000D02*
X138850000Y-79910000D01*
X137990000Y-77060000D02*
X138850000Y-77920000D01*
%TO.N,/BTN2*%
X131230000Y-83157500D02*
X131240000Y-83167500D01*
X131230000Y-79910000D02*
X131230000Y-83157500D01*
X165130000Y-89970000D02*
X165600000Y-89500000D01*
X149370000Y-89970000D02*
X165130000Y-89970000D01*
%TO.N,/BTN1*%
X128690000Y-83157500D02*
X128700000Y-83167500D01*
X128690000Y-79910000D02*
X128690000Y-83157500D01*
X164680000Y-91080000D02*
X165600000Y-92000000D01*
X149370000Y-91080000D02*
X164680000Y-91080000D01*
%TO.N,/BTN0*%
X126150000Y-83157500D02*
X126160000Y-83167500D01*
X126150000Y-79910000D02*
X126150000Y-83157500D01*
X163300000Y-92200000D02*
X165600000Y-94500000D01*
X149370000Y-92200000D02*
X163300000Y-92200000D01*
%TO.N,/BTN3*%
X131060000Y-105140000D02*
X131230000Y-105310000D01*
X131060000Y-101812500D02*
X131060000Y-105140000D01*
%TO.N,/VBAT*%
X124820000Y-93640000D02*
X128360000Y-90100000D01*
X133987500Y-90100000D02*
X140217500Y-83870000D01*
X128360000Y-90100000D02*
X133987500Y-90100000D01*
%TO.N,/M_PWM*%
X126220000Y-105240000D02*
X126150000Y-105310000D01*
X126220000Y-101942500D02*
X126220000Y-105240000D01*
X136120000Y-111750000D02*
X136120000Y-109710000D01*
X136120000Y-109710000D02*
X134860000Y-108450000D01*
X134860000Y-108450000D02*
X127230000Y-108450000D01*
X126150000Y-107370000D02*
X126150000Y-105310000D01*
X127230000Y-108450000D02*
X126150000Y-107370000D01*
%TO.N,/GP_SIG*%
X136310000Y-102770000D02*
X138850000Y-105310000D01*
X136310000Y-101802500D02*
X136310000Y-102770000D01*
X138850000Y-107480000D02*
X143120000Y-111750000D01*
X138850000Y-105310000D02*
X138850000Y-107480000D01*
%TO.N,/OP_SIG*%
X139370000Y-103290000D02*
X141390000Y-105310000D01*
X139370000Y-101892500D02*
X139370000Y-103290000D01*
X153120000Y-111750000D02*
X153120000Y-110540000D01*
X153120000Y-110540000D02*
X151200000Y-108620000D01*
X151200000Y-108620000D02*
X142650000Y-108620000D01*
X141390000Y-107360000D02*
X141390000Y-105310000D01*
X142650000Y-108620000D02*
X141390000Y-107360000D01*
%TO.N,/M_INA*%
X142760000Y-104140000D02*
X143930000Y-105310000D01*
X142760000Y-101962500D02*
X142760000Y-104140000D01*
%TO.N,/SDA*%
X146470000Y-101892500D02*
X146540000Y-101822500D01*
X146470000Y-105310000D02*
X146470000Y-101892500D01*
X146470000Y-105310000D02*
X149030000Y-107870000D01*
X164160000Y-107870000D02*
X165580000Y-106450000D01*
X149030000Y-107870000D02*
X164160000Y-107870000D01*
%TO.N,/SCL*%
X154090000Y-102042500D02*
X154430000Y-101702500D01*
X154090000Y-105310000D02*
X154090000Y-102042500D01*
X163332500Y-101702500D02*
X165580000Y-103950000D01*
X154430000Y-101702500D02*
X163332500Y-101702500D01*
%TD*%
D19*
%TO.N,/3V3*%
X168933000Y-113773000D02*
X111187000Y-113773000D01*
X111187000Y-111000000D01*
X113421928Y-111000000D01*
X113421928Y-112500000D01*
X113438992Y-112673254D01*
X113489528Y-112839850D01*
X113571595Y-112993386D01*
X113682038Y-113127962D01*
X113816614Y-113238405D01*
X113970150Y-113320472D01*
X114136746Y-113371008D01*
X114310000Y-113388072D01*
X115510000Y-113388072D01*
X115683254Y-113371008D01*
X115849850Y-113320472D01*
X116003386Y-113238405D01*
X116137962Y-113127962D01*
X116248405Y-112993386D01*
X116302777Y-112891663D01*
X116354866Y-112955134D01*
X116580987Y-113140706D01*
X116838967Y-113278599D01*
X117118890Y-113363513D01*
X117410000Y-113392185D01*
X117701111Y-113363513D01*
X117981034Y-113278599D01*
X118239014Y-113140706D01*
X118465134Y-112955134D01*
X118650706Y-112729014D01*
X118652851Y-112725000D01*
X124631928Y-112725000D01*
X124644188Y-112849482D01*
X124680498Y-112969180D01*
X124739463Y-113079494D01*
X124818815Y-113176185D01*
X124915506Y-113255537D01*
X125025820Y-113314502D01*
X125145518Y-113350812D01*
X125270000Y-113363072D01*
X125834250Y-113360000D01*
X125993000Y-113201250D01*
X125993000Y-111877000D01*
X124793750Y-111877000D01*
X124635000Y-112035750D01*
X124631928Y-112725000D01*
X118652851Y-112725000D01*
X118788599Y-112471033D01*
X118873513Y-112191110D01*
X118895000Y-111972949D01*
X118895000Y-111527050D01*
X118873513Y-111308889D01*
X118788599Y-111028966D01*
X118652852Y-110775000D01*
X124631928Y-110775000D01*
X124635000Y-111464250D01*
X124793750Y-111623000D01*
X125993000Y-111623000D01*
X125993000Y-110298750D01*
X125834250Y-110140000D01*
X125270000Y-110136928D01*
X125145518Y-110149188D01*
X125025820Y-110185498D01*
X124915506Y-110244463D01*
X124818815Y-110323815D01*
X124739463Y-110420506D01*
X124680498Y-110530820D01*
X124644188Y-110650518D01*
X124631928Y-110775000D01*
X118652852Y-110775000D01*
X118650706Y-110770986D01*
X118465134Y-110544866D01*
X118239013Y-110359294D01*
X117981033Y-110221401D01*
X117701110Y-110136487D01*
X117410000Y-110107815D01*
X117118889Y-110136487D01*
X116838966Y-110221401D01*
X116580986Y-110359294D01*
X116354866Y-110544866D01*
X116302777Y-110608337D01*
X116248405Y-110506614D01*
X116137962Y-110372038D01*
X116003386Y-110261595D01*
X115849850Y-110179528D01*
X115683254Y-110128992D01*
X115510000Y-110111928D01*
X114310000Y-110111928D01*
X114136746Y-110128992D01*
X113970150Y-110179528D01*
X113816614Y-110261595D01*
X113682038Y-110372038D01*
X113571595Y-110506614D01*
X113489528Y-110660150D01*
X113438992Y-110826746D01*
X113421928Y-111000000D01*
X111187000Y-111000000D01*
X111187000Y-106160000D01*
X119581928Y-106160000D01*
X119594188Y-106284482D01*
X119630498Y-106404180D01*
X119689463Y-106514494D01*
X119768815Y-106611185D01*
X119865506Y-106690537D01*
X119975820Y-106749502D01*
X120095518Y-106785812D01*
X120220000Y-106798072D01*
X120784250Y-106795000D01*
X120943000Y-106636250D01*
X120943000Y-105437000D01*
X119743750Y-105437000D01*
X119585000Y-105595750D01*
X119581928Y-106160000D01*
X111187000Y-106160000D01*
X111187000Y-104460000D01*
X119581928Y-104460000D01*
X119585000Y-105024250D01*
X119743750Y-105183000D01*
X120943000Y-105183000D01*
X120943000Y-103983750D01*
X121197000Y-103983750D01*
X121197000Y-105183000D01*
X121217000Y-105183000D01*
X121217000Y-105437000D01*
X121197000Y-105437000D01*
X121197000Y-106636250D01*
X121355750Y-106795000D01*
X121920000Y-106798072D01*
X122044482Y-106785812D01*
X122164180Y-106749502D01*
X122274494Y-106690537D01*
X122371185Y-106611185D01*
X122450537Y-106514494D01*
X122509502Y-106404180D01*
X122531513Y-106331620D01*
X122663368Y-106463475D01*
X122906589Y-106625990D01*
X123176842Y-106737932D01*
X123463740Y-106795000D01*
X123756260Y-106795000D01*
X124043158Y-106737932D01*
X124313411Y-106625990D01*
X124556632Y-106463475D01*
X124763475Y-106256632D01*
X124880000Y-106082240D01*
X124996525Y-106256632D01*
X125203368Y-106463475D01*
X125390000Y-106588179D01*
X125390000Y-107332677D01*
X125386324Y-107370000D01*
X125390000Y-107407322D01*
X125390000Y-107407332D01*
X125400997Y-107518985D01*
X125434365Y-107628985D01*
X125444454Y-107662246D01*
X125515026Y-107794276D01*
X125554871Y-107842826D01*
X125609999Y-107910001D01*
X125639002Y-107933804D01*
X126666200Y-108961002D01*
X126689999Y-108990001D01*
X126805724Y-109084974D01*
X126937753Y-109155546D01*
X127081014Y-109199003D01*
X127192667Y-109210000D01*
X127192675Y-109210000D01*
X127230000Y-109213676D01*
X127267325Y-109210000D01*
X134545199Y-109210000D01*
X135360001Y-110024803D01*
X135360001Y-110347405D01*
X135290986Y-110384294D01*
X135064866Y-110569866D01*
X134879294Y-110795987D01*
X134870000Y-110813374D01*
X134860706Y-110795986D01*
X134675134Y-110569866D01*
X134449013Y-110384294D01*
X134191033Y-110246401D01*
X133911110Y-110161487D01*
X133620000Y-110132815D01*
X133328889Y-110161487D01*
X133048966Y-110246401D01*
X132790986Y-110384294D01*
X132564866Y-110569866D01*
X132379294Y-110795987D01*
X132370000Y-110813374D01*
X132360706Y-110795986D01*
X132175134Y-110569866D01*
X131949013Y-110384294D01*
X131691033Y-110246401D01*
X131411110Y-110161487D01*
X131120000Y-110132815D01*
X130828889Y-110161487D01*
X130548966Y-110246401D01*
X130290986Y-110384294D01*
X130064866Y-110569866D01*
X129879294Y-110795987D01*
X129870000Y-110813374D01*
X129860706Y-110795986D01*
X129675134Y-110569866D01*
X129449013Y-110384294D01*
X129191033Y-110246401D01*
X128911110Y-110161487D01*
X128620000Y-110132815D01*
X128328889Y-110161487D01*
X128048966Y-110246401D01*
X127790986Y-110384294D01*
X127570055Y-110565608D01*
X127559502Y-110530820D01*
X127500537Y-110420506D01*
X127421185Y-110323815D01*
X127324494Y-110244463D01*
X127214180Y-110185498D01*
X127094482Y-110149188D01*
X126970000Y-110136928D01*
X126405750Y-110140000D01*
X126247000Y-110298750D01*
X126247000Y-111623000D01*
X126267000Y-111623000D01*
X126267000Y-111877000D01*
X126247000Y-111877000D01*
X126247000Y-113201250D01*
X126405750Y-113360000D01*
X126970000Y-113363072D01*
X127094482Y-113350812D01*
X127214180Y-113314502D01*
X127324494Y-113255537D01*
X127421185Y-113176185D01*
X127500537Y-113079494D01*
X127559502Y-112969180D01*
X127570055Y-112934392D01*
X127790987Y-113115706D01*
X128048967Y-113253599D01*
X128328890Y-113338513D01*
X128620000Y-113367185D01*
X128911111Y-113338513D01*
X129191034Y-113253599D01*
X129449014Y-113115706D01*
X129675134Y-112930134D01*
X129860706Y-112704014D01*
X129870000Y-112686626D01*
X129879294Y-112704014D01*
X130064866Y-112930134D01*
X130290987Y-113115706D01*
X130548967Y-113253599D01*
X130828890Y-113338513D01*
X131120000Y-113367185D01*
X131411111Y-113338513D01*
X131691034Y-113253599D01*
X131949014Y-113115706D01*
X132175134Y-112930134D01*
X132360706Y-112704014D01*
X132370000Y-112686626D01*
X132379294Y-112704014D01*
X132564866Y-112930134D01*
X132790987Y-113115706D01*
X133048967Y-113253599D01*
X133328890Y-113338513D01*
X133620000Y-113367185D01*
X133911111Y-113338513D01*
X134191034Y-113253599D01*
X134449014Y-113115706D01*
X134675134Y-112930134D01*
X134860706Y-112704014D01*
X134870000Y-112686626D01*
X134879294Y-112704014D01*
X135064866Y-112930134D01*
X135290987Y-113115706D01*
X135548967Y-113253599D01*
X135828890Y-113338513D01*
X136120000Y-113367185D01*
X136411111Y-113338513D01*
X136691034Y-113253599D01*
X136949014Y-113115706D01*
X137175134Y-112930134D01*
X137360706Y-112704014D01*
X137498599Y-112446033D01*
X137583513Y-112166110D01*
X137605000Y-111947949D01*
X137605000Y-111552050D01*
X137583513Y-111333889D01*
X137498599Y-111053966D01*
X137360706Y-110795986D01*
X137175134Y-110569866D01*
X136949013Y-110384294D01*
X136880000Y-110347406D01*
X136880000Y-109747322D01*
X136883676Y-109709999D01*
X136880000Y-109672676D01*
X136880000Y-109672667D01*
X136869003Y-109561014D01*
X136825546Y-109417753D01*
X136776260Y-109325546D01*
X136754974Y-109285723D01*
X136683799Y-109198997D01*
X136660001Y-109169999D01*
X136631003Y-109146201D01*
X135423804Y-107939003D01*
X135400001Y-107909999D01*
X135284276Y-107815026D01*
X135152247Y-107744454D01*
X135008986Y-107700997D01*
X134897333Y-107690000D01*
X134897322Y-107690000D01*
X134860000Y-107686324D01*
X134822678Y-107690000D01*
X127544802Y-107690000D01*
X126910000Y-107055199D01*
X126910000Y-106588178D01*
X127096632Y-106463475D01*
X127303475Y-106256632D01*
X127420000Y-106082240D01*
X127536525Y-106256632D01*
X127743368Y-106463475D01*
X127986589Y-106625990D01*
X128256842Y-106737932D01*
X128543740Y-106795000D01*
X128836260Y-106795000D01*
X129123158Y-106737932D01*
X129393411Y-106625990D01*
X129636632Y-106463475D01*
X129843475Y-106256632D01*
X129960000Y-106082240D01*
X130076525Y-106256632D01*
X130283368Y-106463475D01*
X130526589Y-106625990D01*
X130796842Y-106737932D01*
X131083740Y-106795000D01*
X131376260Y-106795000D01*
X131663158Y-106737932D01*
X131933411Y-106625990D01*
X132176632Y-106463475D01*
X132383475Y-106256632D01*
X132500000Y-106082240D01*
X132616525Y-106256632D01*
X132823368Y-106463475D01*
X133066589Y-106625990D01*
X133336842Y-106737932D01*
X133623740Y-106795000D01*
X133916260Y-106795000D01*
X134203158Y-106737932D01*
X134473411Y-106625990D01*
X134716632Y-106463475D01*
X134923475Y-106256632D01*
X135040000Y-106082240D01*
X135156525Y-106256632D01*
X135363368Y-106463475D01*
X135606589Y-106625990D01*
X135876842Y-106737932D01*
X136163740Y-106795000D01*
X136456260Y-106795000D01*
X136743158Y-106737932D01*
X137013411Y-106625990D01*
X137256632Y-106463475D01*
X137463475Y-106256632D01*
X137580000Y-106082240D01*
X137696525Y-106256632D01*
X137903368Y-106463475D01*
X138090001Y-106588179D01*
X138090001Y-107442668D01*
X138086324Y-107480000D01*
X138090001Y-107517333D01*
X138100998Y-107628986D01*
X138114180Y-107672442D01*
X138144454Y-107772246D01*
X138215026Y-107904276D01*
X138281297Y-107985026D01*
X138310000Y-108020001D01*
X138338998Y-108043799D01*
X141631928Y-111336730D01*
X141631928Y-112500000D01*
X141648992Y-112673254D01*
X141699528Y-112839850D01*
X141781595Y-112993386D01*
X141892038Y-113127962D01*
X142026614Y-113238405D01*
X142180150Y-113320472D01*
X142346746Y-113371008D01*
X142520000Y-113388072D01*
X143720000Y-113388072D01*
X143893254Y-113371008D01*
X144059850Y-113320472D01*
X144213386Y-113238405D01*
X144347962Y-113127962D01*
X144458405Y-112993386D01*
X144512777Y-112891663D01*
X144564866Y-112955134D01*
X144790987Y-113140706D01*
X145048967Y-113278599D01*
X145328890Y-113363513D01*
X145620000Y-113392185D01*
X145911111Y-113363513D01*
X146191034Y-113278599D01*
X146449014Y-113140706D01*
X146675134Y-112955134D01*
X146860706Y-112729014D01*
X146998599Y-112471033D01*
X147083513Y-112191110D01*
X147105000Y-111972949D01*
X147105000Y-111527050D01*
X147083513Y-111308889D01*
X146998599Y-111028966D01*
X146860706Y-110770986D01*
X146675134Y-110544866D01*
X146449013Y-110359294D01*
X146191033Y-110221401D01*
X145911110Y-110136487D01*
X145620000Y-110107815D01*
X145328889Y-110136487D01*
X145048966Y-110221401D01*
X144790986Y-110359294D01*
X144564866Y-110544866D01*
X144512777Y-110608337D01*
X144458405Y-110506614D01*
X144347962Y-110372038D01*
X144213386Y-110261595D01*
X144059850Y-110179528D01*
X143893254Y-110128992D01*
X143720000Y-110111928D01*
X142556730Y-110111928D01*
X139610000Y-107165199D01*
X139610000Y-106588178D01*
X139796632Y-106463475D01*
X140003475Y-106256632D01*
X140120000Y-106082240D01*
X140236525Y-106256632D01*
X140443368Y-106463475D01*
X140630000Y-106588179D01*
X140630000Y-107322677D01*
X140626324Y-107360000D01*
X140630000Y-107397322D01*
X140630000Y-107397332D01*
X140640997Y-107508985D01*
X140677398Y-107628985D01*
X140684454Y-107652246D01*
X140755026Y-107784276D01*
X140780262Y-107815026D01*
X140849999Y-107900001D01*
X140879003Y-107923804D01*
X142086200Y-109131002D01*
X142109999Y-109160001D01*
X142138997Y-109183799D01*
X142225723Y-109254974D01*
X142283250Y-109285723D01*
X142357753Y-109325546D01*
X142501014Y-109369003D01*
X142612667Y-109380000D01*
X142612676Y-109380000D01*
X142649999Y-109383676D01*
X142687322Y-109380000D01*
X150885199Y-109380000D01*
X151885366Y-110380168D01*
X151781595Y-110506614D01*
X151699528Y-110660150D01*
X151648992Y-110826746D01*
X151631928Y-111000000D01*
X151631928Y-112500000D01*
X151648992Y-112673254D01*
X151699528Y-112839850D01*
X151781595Y-112993386D01*
X151892038Y-113127962D01*
X152026614Y-113238405D01*
X152180150Y-113320472D01*
X152346746Y-113371008D01*
X152520000Y-113388072D01*
X153720000Y-113388072D01*
X153893254Y-113371008D01*
X154059850Y-113320472D01*
X154213386Y-113238405D01*
X154347962Y-113127962D01*
X154458405Y-112993386D01*
X154512777Y-112891663D01*
X154564866Y-112955134D01*
X154790987Y-113140706D01*
X155048967Y-113278599D01*
X155328890Y-113363513D01*
X155620000Y-113392185D01*
X155911111Y-113363513D01*
X156191034Y-113278599D01*
X156449014Y-113140706D01*
X156675134Y-112955134D01*
X156860706Y-112729014D01*
X156998599Y-112471033D01*
X157050481Y-112300000D01*
X163966928Y-112300000D01*
X163979188Y-112424482D01*
X164015498Y-112544180D01*
X164074463Y-112654494D01*
X164153815Y-112751185D01*
X164250506Y-112830537D01*
X164360820Y-112889502D01*
X164480518Y-112925812D01*
X164605000Y-112938072D01*
X165294250Y-112935000D01*
X165453000Y-112776250D01*
X165453000Y-111577000D01*
X165707000Y-111577000D01*
X165707000Y-112776250D01*
X165865750Y-112935000D01*
X166555000Y-112938072D01*
X166679482Y-112925812D01*
X166799180Y-112889502D01*
X166909494Y-112830537D01*
X167006185Y-112751185D01*
X167085537Y-112654494D01*
X167144502Y-112544180D01*
X167180812Y-112424482D01*
X167193072Y-112300000D01*
X167190000Y-111735750D01*
X167031250Y-111577000D01*
X165707000Y-111577000D01*
X165453000Y-111577000D01*
X164128750Y-111577000D01*
X163970000Y-111735750D01*
X163966928Y-112300000D01*
X157050481Y-112300000D01*
X157083513Y-112191110D01*
X157105000Y-111972949D01*
X157105000Y-111527050D01*
X157083513Y-111308889D01*
X156998599Y-111028966D01*
X156860706Y-110770986D01*
X156675134Y-110544866D01*
X156449013Y-110359294D01*
X156191033Y-110221401D01*
X155911110Y-110136487D01*
X155620000Y-110107815D01*
X155328889Y-110136487D01*
X155048966Y-110221401D01*
X154790986Y-110359294D01*
X154564866Y-110544866D01*
X154512777Y-110608337D01*
X154458405Y-110506614D01*
X154347962Y-110372038D01*
X154213386Y-110261595D01*
X154059850Y-110179528D01*
X153893254Y-110128992D01*
X153754661Y-110115342D01*
X153683799Y-110028997D01*
X153660001Y-109999999D01*
X153631003Y-109976201D01*
X152284801Y-108630000D01*
X164000250Y-108630000D01*
X163991487Y-108658889D01*
X163962815Y-108950000D01*
X163991487Y-109241111D01*
X164076401Y-109521034D01*
X164214294Y-109779014D01*
X164395608Y-109999945D01*
X164360820Y-110010498D01*
X164250506Y-110069463D01*
X164153815Y-110148815D01*
X164074463Y-110245506D01*
X164015498Y-110355820D01*
X163979188Y-110475518D01*
X163966928Y-110600000D01*
X163970000Y-111164250D01*
X164128750Y-111323000D01*
X165453000Y-111323000D01*
X165453000Y-111303000D01*
X165707000Y-111303000D01*
X165707000Y-111323000D01*
X167031250Y-111323000D01*
X167190000Y-111164250D01*
X167193072Y-110600000D01*
X167180812Y-110475518D01*
X167144502Y-110355820D01*
X167085537Y-110245506D01*
X167006185Y-110148815D01*
X166909494Y-110069463D01*
X166799180Y-110010498D01*
X166764392Y-109999945D01*
X166945706Y-109779014D01*
X167083599Y-109521034D01*
X167168513Y-109241111D01*
X167197185Y-108950000D01*
X167168513Y-108658889D01*
X167083599Y-108378966D01*
X166945706Y-108120986D01*
X166760134Y-107894866D01*
X166534014Y-107709294D01*
X166516626Y-107700000D01*
X166534014Y-107690706D01*
X166760134Y-107505134D01*
X166945706Y-107279014D01*
X167083599Y-107021034D01*
X167168513Y-106741111D01*
X167197185Y-106450000D01*
X167168513Y-106158889D01*
X167083599Y-105878966D01*
X166945706Y-105620986D01*
X166760134Y-105394866D01*
X166534014Y-105209294D01*
X166516626Y-105200000D01*
X166534014Y-105190706D01*
X166760134Y-105005134D01*
X166945706Y-104779014D01*
X167083599Y-104521034D01*
X167168513Y-104241111D01*
X167197185Y-103950000D01*
X167168513Y-103658889D01*
X167083599Y-103378966D01*
X166945706Y-103120986D01*
X166760134Y-102894866D01*
X166534014Y-102709294D01*
X166276034Y-102571401D01*
X165996111Y-102486487D01*
X165777950Y-102465000D01*
X165382050Y-102465000D01*
X165188832Y-102484030D01*
X163896304Y-101191503D01*
X163872501Y-101162499D01*
X163756776Y-101067526D01*
X163624747Y-100996954D01*
X163481486Y-100953497D01*
X163369833Y-100942500D01*
X163369822Y-100942500D01*
X163332500Y-100938824D01*
X163295178Y-100942500D01*
X155376178Y-100942500D01*
X155306188Y-100857217D01*
X155356185Y-100816185D01*
X155435537Y-100719494D01*
X155494502Y-100609180D01*
X155530812Y-100489482D01*
X155543072Y-100365000D01*
X155540000Y-100163250D01*
X155381250Y-100004500D01*
X154557000Y-100004500D01*
X154557000Y-100024500D01*
X154303000Y-100024500D01*
X154303000Y-100004500D01*
X153478750Y-100004500D01*
X153320000Y-100163250D01*
X153316928Y-100365000D01*
X153329188Y-100489482D01*
X153365498Y-100609180D01*
X153424463Y-100719494D01*
X153503815Y-100816185D01*
X153553812Y-100857217D01*
X153464488Y-100966058D01*
X153383577Y-101117433D01*
X153333752Y-101281684D01*
X153316928Y-101452500D01*
X153316928Y-101952500D01*
X153330001Y-102085231D01*
X153330000Y-104031821D01*
X153143368Y-104156525D01*
X152936525Y-104363368D01*
X152820000Y-104537760D01*
X152703475Y-104363368D01*
X152496632Y-104156525D01*
X152253411Y-103994010D01*
X151983158Y-103882068D01*
X151696260Y-103825000D01*
X151403740Y-103825000D01*
X151116842Y-103882068D01*
X150846589Y-103994010D01*
X150603368Y-104156525D01*
X150396525Y-104363368D01*
X150280000Y-104537760D01*
X150163475Y-104363368D01*
X149956632Y-104156525D01*
X149713411Y-103994010D01*
X149443158Y-103882068D01*
X149156260Y-103825000D01*
X148863740Y-103825000D01*
X148576842Y-103882068D01*
X148306589Y-103994010D01*
X148063368Y-104156525D01*
X147856525Y-104363368D01*
X147740000Y-104537760D01*
X147623475Y-104363368D01*
X147416632Y-104156525D01*
X147230000Y-104031822D01*
X147230000Y-102818654D01*
X147263942Y-102800512D01*
X147396623Y-102691623D01*
X147505512Y-102558942D01*
X147586423Y-102407567D01*
X147636248Y-102243316D01*
X147653072Y-102072500D01*
X147653072Y-101572500D01*
X147636248Y-101401684D01*
X147586423Y-101237433D01*
X147505512Y-101086058D01*
X147416188Y-100977217D01*
X147466185Y-100936185D01*
X147545537Y-100839494D01*
X147604502Y-100729180D01*
X147640812Y-100609482D01*
X147653072Y-100485000D01*
X147650000Y-100283250D01*
X147491250Y-100124500D01*
X146667000Y-100124500D01*
X146667000Y-100144500D01*
X146413000Y-100144500D01*
X146413000Y-100124500D01*
X145588750Y-100124500D01*
X145430000Y-100283250D01*
X145426928Y-100485000D01*
X145439188Y-100609482D01*
X145475498Y-100729180D01*
X145534463Y-100839494D01*
X145613815Y-100936185D01*
X145663812Y-100977217D01*
X145574488Y-101086058D01*
X145493577Y-101237433D01*
X145443752Y-101401684D01*
X145426928Y-101572500D01*
X145426928Y-102072500D01*
X145443752Y-102243316D01*
X145493577Y-102407567D01*
X145574488Y-102558942D01*
X145683377Y-102691623D01*
X145710001Y-102713473D01*
X145710000Y-104031821D01*
X145523368Y-104156525D01*
X145316525Y-104363368D01*
X145200000Y-104537760D01*
X145083475Y-104363368D01*
X144876632Y-104156525D01*
X144633411Y-103994010D01*
X144363158Y-103882068D01*
X144076260Y-103825000D01*
X143783740Y-103825000D01*
X143563592Y-103868791D01*
X143520000Y-103825199D01*
X143520000Y-102910920D01*
X143616623Y-102831623D01*
X143725512Y-102698942D01*
X143806423Y-102547567D01*
X143856248Y-102383316D01*
X143873072Y-102212500D01*
X143873072Y-101712500D01*
X143856248Y-101541684D01*
X143806423Y-101377433D01*
X143725512Y-101226058D01*
X143616623Y-101093377D01*
X143563768Y-101050000D01*
X143616623Y-101006623D01*
X143725512Y-100873942D01*
X143806423Y-100722567D01*
X143851790Y-100573011D01*
X144139801Y-100285000D01*
X144201939Y-100285000D01*
X144401898Y-100245226D01*
X144590256Y-100167205D01*
X144759774Y-100053937D01*
X144903937Y-99909774D01*
X145017205Y-99740256D01*
X145095226Y-99551898D01*
X145103559Y-99510000D01*
X145426928Y-99510000D01*
X145430000Y-99711750D01*
X145588750Y-99870500D01*
X146413000Y-99870500D01*
X146413000Y-99033750D01*
X146667000Y-99033750D01*
X146667000Y-99870500D01*
X147491250Y-99870500D01*
X147650000Y-99711750D01*
X147653072Y-99510000D01*
X147641254Y-99390000D01*
X153316928Y-99390000D01*
X153320000Y-99591750D01*
X153478750Y-99750500D01*
X154303000Y-99750500D01*
X154303000Y-98913750D01*
X154557000Y-98913750D01*
X154557000Y-99750500D01*
X155381250Y-99750500D01*
X155540000Y-99591750D01*
X155543072Y-99390000D01*
X155530812Y-99265518D01*
X155494502Y-99145820D01*
X155435537Y-99035506D01*
X155356185Y-98938815D01*
X155259494Y-98859463D01*
X155149180Y-98800498D01*
X155029482Y-98764188D01*
X154905000Y-98751928D01*
X154715750Y-98755000D01*
X154557000Y-98913750D01*
X154303000Y-98913750D01*
X154144250Y-98755000D01*
X153955000Y-98751928D01*
X153830518Y-98764188D01*
X153710820Y-98800498D01*
X153600506Y-98859463D01*
X153503815Y-98938815D01*
X153424463Y-99035506D01*
X153365498Y-99145820D01*
X153329188Y-99265518D01*
X153316928Y-99390000D01*
X147641254Y-99390000D01*
X147640812Y-99385518D01*
X147604502Y-99265820D01*
X147545537Y-99155506D01*
X147466185Y-99058815D01*
X147369494Y-98979463D01*
X147259180Y-98920498D01*
X147139482Y-98884188D01*
X147015000Y-98871928D01*
X146825750Y-98875000D01*
X146667000Y-99033750D01*
X146413000Y-99033750D01*
X146254250Y-98875000D01*
X146065000Y-98871928D01*
X145940518Y-98884188D01*
X145820820Y-98920498D01*
X145710506Y-98979463D01*
X145613815Y-99058815D01*
X145534463Y-99155506D01*
X145475498Y-99265820D01*
X145439188Y-99385518D01*
X145426928Y-99510000D01*
X145103559Y-99510000D01*
X145135000Y-99351939D01*
X145135000Y-99148061D01*
X145095226Y-98948102D01*
X145017205Y-98759744D01*
X144903937Y-98590226D01*
X144759774Y-98446063D01*
X144590256Y-98332795D01*
X144401898Y-98254774D01*
X144201939Y-98215000D01*
X143998061Y-98215000D01*
X143798102Y-98254774D01*
X143609744Y-98332795D01*
X143440226Y-98446063D01*
X143296063Y-98590226D01*
X143182795Y-98759744D01*
X143104774Y-98948102D01*
X143090261Y-99021064D01*
X142997500Y-99011928D01*
X142522500Y-99011928D01*
X142351684Y-99028752D01*
X142187433Y-99078577D01*
X142036058Y-99159488D01*
X141903377Y-99268377D01*
X141871269Y-99307500D01*
X140316178Y-99307500D01*
X140226623Y-99198377D01*
X140093942Y-99089488D01*
X139942567Y-99008577D01*
X139778316Y-98958752D01*
X139607500Y-98941928D01*
X139132500Y-98941928D01*
X138961684Y-98958752D01*
X138797433Y-99008577D01*
X138646058Y-99089488D01*
X138513377Y-99198377D01*
X138497683Y-99217500D01*
X137256178Y-99217500D01*
X137166623Y-99108377D01*
X137033942Y-98999488D01*
X136882567Y-98918577D01*
X136718316Y-98868752D01*
X136547500Y-98851928D01*
X136072500Y-98851928D01*
X135901684Y-98868752D01*
X135737433Y-98918577D01*
X135586058Y-98999488D01*
X135453377Y-99108377D01*
X135344488Y-99241058D01*
X135263577Y-99392433D01*
X135213752Y-99556684D01*
X135196928Y-99727500D01*
X135196928Y-100227500D01*
X135213752Y-100398316D01*
X135263577Y-100562567D01*
X135344488Y-100713942D01*
X135453377Y-100846623D01*
X135506232Y-100890000D01*
X135453377Y-100933377D01*
X135344488Y-101066058D01*
X135263577Y-101217433D01*
X135213752Y-101381684D01*
X135196928Y-101552500D01*
X135196928Y-102052500D01*
X135213752Y-102223316D01*
X135263577Y-102387567D01*
X135344488Y-102538942D01*
X135453377Y-102671623D01*
X135548338Y-102749556D01*
X135546324Y-102770000D01*
X135550001Y-102807333D01*
X135560998Y-102918986D01*
X135574180Y-102962442D01*
X135604454Y-103062246D01*
X135675026Y-103194276D01*
X135746201Y-103281002D01*
X135770000Y-103310001D01*
X135798998Y-103333799D01*
X136290199Y-103825000D01*
X136163740Y-103825000D01*
X135876842Y-103882068D01*
X135606589Y-103994010D01*
X135363368Y-104156525D01*
X135156525Y-104363368D01*
X135040000Y-104537760D01*
X134923475Y-104363368D01*
X134716632Y-104156525D01*
X134473411Y-103994010D01*
X134203158Y-103882068D01*
X133916260Y-103825000D01*
X133623740Y-103825000D01*
X133336842Y-103882068D01*
X133066589Y-103994010D01*
X132823368Y-104156525D01*
X132616525Y-104363368D01*
X132500000Y-104537760D01*
X132383475Y-104363368D01*
X132176632Y-104156525D01*
X131933411Y-103994010D01*
X131820000Y-103947034D01*
X131820000Y-102760920D01*
X131916623Y-102681623D01*
X132025512Y-102548942D01*
X132106423Y-102397567D01*
X132156248Y-102233316D01*
X132173072Y-102062500D01*
X132173072Y-101562500D01*
X132156248Y-101391684D01*
X132106423Y-101227433D01*
X132025512Y-101076058D01*
X131936188Y-100967217D01*
X131986185Y-100926185D01*
X132065537Y-100829494D01*
X132124502Y-100719180D01*
X132160812Y-100599482D01*
X132173072Y-100475000D01*
X132170000Y-100273250D01*
X132011250Y-100114500D01*
X131187000Y-100114500D01*
X131187000Y-100134500D01*
X130933000Y-100134500D01*
X130933000Y-100114500D01*
X130108750Y-100114500D01*
X129950000Y-100273250D01*
X129946928Y-100475000D01*
X129959188Y-100599482D01*
X129995498Y-100719180D01*
X130054463Y-100829494D01*
X130133815Y-100926185D01*
X130183812Y-100967217D01*
X130094488Y-101076058D01*
X130013577Y-101227433D01*
X129963752Y-101391684D01*
X129946928Y-101562500D01*
X129946928Y-102062500D01*
X129963752Y-102233316D01*
X130013577Y-102397567D01*
X130094488Y-102548942D01*
X130203377Y-102681623D01*
X130300000Y-102760920D01*
X130300001Y-104145411D01*
X130283368Y-104156525D01*
X130076525Y-104363368D01*
X129960000Y-104537760D01*
X129843475Y-104363368D01*
X129636632Y-104156525D01*
X129393411Y-103994010D01*
X129123158Y-103882068D01*
X128836260Y-103825000D01*
X128543740Y-103825000D01*
X128256842Y-103882068D01*
X127986589Y-103994010D01*
X127743368Y-104156525D01*
X127536525Y-104363368D01*
X127420000Y-104537760D01*
X127303475Y-104363368D01*
X127096632Y-104156525D01*
X126980000Y-104078594D01*
X126980000Y-102890920D01*
X127076623Y-102811623D01*
X127185512Y-102678942D01*
X127266423Y-102527567D01*
X127316248Y-102363316D01*
X127333072Y-102192500D01*
X127333072Y-101692500D01*
X127316248Y-101521684D01*
X127266423Y-101357433D01*
X127185512Y-101206058D01*
X127076623Y-101073377D01*
X127023768Y-101030000D01*
X127076623Y-100986623D01*
X127185512Y-100853942D01*
X127266423Y-100702567D01*
X127316248Y-100538316D01*
X127333072Y-100367500D01*
X127333072Y-99867500D01*
X127316248Y-99696684D01*
X127266423Y-99532433D01*
X127249088Y-99500000D01*
X129946928Y-99500000D01*
X129950000Y-99701750D01*
X130108750Y-99860500D01*
X130933000Y-99860500D01*
X130933000Y-99023750D01*
X131187000Y-99023750D01*
X131187000Y-99860500D01*
X132011250Y-99860500D01*
X132170000Y-99701750D01*
X132173072Y-99500000D01*
X132160812Y-99375518D01*
X132124502Y-99255820D01*
X132065537Y-99145506D01*
X131986185Y-99048815D01*
X131889494Y-98969463D01*
X131779180Y-98910498D01*
X131659482Y-98874188D01*
X131535000Y-98861928D01*
X131345750Y-98865000D01*
X131187000Y-99023750D01*
X130933000Y-99023750D01*
X130774250Y-98865000D01*
X130585000Y-98861928D01*
X130460518Y-98874188D01*
X130340820Y-98910498D01*
X130230506Y-98969463D01*
X130133815Y-99048815D01*
X130054463Y-99145506D01*
X129995498Y-99255820D01*
X129959188Y-99375518D01*
X129946928Y-99500000D01*
X127249088Y-99500000D01*
X127185512Y-99381058D01*
X127076623Y-99248377D01*
X126943942Y-99139488D01*
X126792567Y-99058577D01*
X126628316Y-99008752D01*
X126457500Y-98991928D01*
X126386730Y-98991928D01*
X126015000Y-98620199D01*
X126015000Y-98558061D01*
X125975226Y-98358102D01*
X125897205Y-98169744D01*
X125783937Y-98000226D01*
X125639774Y-97856063D01*
X125470256Y-97742795D01*
X125281898Y-97664774D01*
X125081939Y-97625000D01*
X124878061Y-97625000D01*
X124678102Y-97664774D01*
X124489744Y-97742795D01*
X124320226Y-97856063D01*
X124176063Y-98000226D01*
X124062795Y-98169744D01*
X123984774Y-98358102D01*
X123945000Y-98558061D01*
X123945000Y-98761939D01*
X123984774Y-98961898D01*
X124062795Y-99150256D01*
X124176063Y-99319774D01*
X124320226Y-99463937D01*
X124489744Y-99577205D01*
X124678102Y-99655226D01*
X124878061Y-99695000D01*
X124940199Y-99695000D01*
X125107445Y-99862247D01*
X125106928Y-99867500D01*
X125106928Y-100367500D01*
X125123752Y-100538316D01*
X125173577Y-100702567D01*
X125254488Y-100853942D01*
X125363377Y-100986623D01*
X125416232Y-101030000D01*
X125363377Y-101073377D01*
X125254488Y-101206058D01*
X125173577Y-101357433D01*
X125123752Y-101521684D01*
X125106928Y-101692500D01*
X125106928Y-102192500D01*
X125123752Y-102363316D01*
X125173577Y-102527567D01*
X125254488Y-102678942D01*
X125363377Y-102811623D01*
X125460000Y-102890920D01*
X125460001Y-103988455D01*
X125446589Y-103994010D01*
X125203368Y-104156525D01*
X124996525Y-104363368D01*
X124880000Y-104537760D01*
X124763475Y-104363368D01*
X124556632Y-104156525D01*
X124313411Y-103994010D01*
X124043158Y-103882068D01*
X123756260Y-103825000D01*
X123463740Y-103825000D01*
X123176842Y-103882068D01*
X122906589Y-103994010D01*
X122663368Y-104156525D01*
X122531513Y-104288380D01*
X122509502Y-104215820D01*
X122450537Y-104105506D01*
X122371185Y-104008815D01*
X122274494Y-103929463D01*
X122164180Y-103870498D01*
X122044482Y-103834188D01*
X121920000Y-103821928D01*
X121355750Y-103825000D01*
X121197000Y-103983750D01*
X120943000Y-103983750D01*
X120784250Y-103825000D01*
X120220000Y-103821928D01*
X120095518Y-103834188D01*
X119975820Y-103870498D01*
X119865506Y-103929463D01*
X119768815Y-104008815D01*
X119689463Y-104105506D01*
X119630498Y-104215820D01*
X119594188Y-104335518D01*
X119581928Y-104460000D01*
X111187000Y-104460000D01*
X111187000Y-85480000D01*
X125046928Y-85480000D01*
X125059188Y-85604482D01*
X125095498Y-85724180D01*
X125154463Y-85834494D01*
X125233815Y-85931185D01*
X125330506Y-86010537D01*
X125440820Y-86069502D01*
X125560518Y-86105812D01*
X125685000Y-86118072D01*
X125874250Y-86115000D01*
X126033000Y-85956250D01*
X126033000Y-85119500D01*
X126287000Y-85119500D01*
X126287000Y-85956250D01*
X126445750Y-86115000D01*
X126635000Y-86118072D01*
X126759482Y-86105812D01*
X126879180Y-86069502D01*
X126989494Y-86010537D01*
X127086185Y-85931185D01*
X127165537Y-85834494D01*
X127224502Y-85724180D01*
X127260812Y-85604482D01*
X127273072Y-85480000D01*
X127586928Y-85480000D01*
X127599188Y-85604482D01*
X127635498Y-85724180D01*
X127694463Y-85834494D01*
X127773815Y-85931185D01*
X127870506Y-86010537D01*
X127980820Y-86069502D01*
X128100518Y-86105812D01*
X128225000Y-86118072D01*
X128414250Y-86115000D01*
X128573000Y-85956250D01*
X128573000Y-85119500D01*
X128827000Y-85119500D01*
X128827000Y-85956250D01*
X128985750Y-86115000D01*
X129175000Y-86118072D01*
X129299482Y-86105812D01*
X129419180Y-86069502D01*
X129529494Y-86010537D01*
X129626185Y-85931185D01*
X129705537Y-85834494D01*
X129764502Y-85724180D01*
X129800812Y-85604482D01*
X129813072Y-85480000D01*
X130126928Y-85480000D01*
X130139188Y-85604482D01*
X130175498Y-85724180D01*
X130234463Y-85834494D01*
X130313815Y-85931185D01*
X130410506Y-86010537D01*
X130520820Y-86069502D01*
X130640518Y-86105812D01*
X130765000Y-86118072D01*
X130954250Y-86115000D01*
X131113000Y-85956250D01*
X131113000Y-85119500D01*
X131367000Y-85119500D01*
X131367000Y-85956250D01*
X131525750Y-86115000D01*
X131715000Y-86118072D01*
X131839482Y-86105812D01*
X131959180Y-86069502D01*
X132069494Y-86010537D01*
X132166185Y-85931185D01*
X132245537Y-85834494D01*
X132304502Y-85724180D01*
X132340812Y-85604482D01*
X132353072Y-85480000D01*
X132350000Y-85278250D01*
X132191250Y-85119500D01*
X131367000Y-85119500D01*
X131113000Y-85119500D01*
X130288750Y-85119500D01*
X130130000Y-85278250D01*
X130126928Y-85480000D01*
X129813072Y-85480000D01*
X129810000Y-85278250D01*
X129651250Y-85119500D01*
X128827000Y-85119500D01*
X128573000Y-85119500D01*
X127748750Y-85119500D01*
X127590000Y-85278250D01*
X127586928Y-85480000D01*
X127273072Y-85480000D01*
X127270000Y-85278250D01*
X127111250Y-85119500D01*
X126287000Y-85119500D01*
X126033000Y-85119500D01*
X125208750Y-85119500D01*
X125050000Y-85278250D01*
X125046928Y-85480000D01*
X111187000Y-85480000D01*
X111187000Y-73557050D01*
X119035000Y-73557050D01*
X119035000Y-74002949D01*
X119056487Y-74221110D01*
X119141401Y-74501033D01*
X119279294Y-74759013D01*
X119464866Y-74985134D01*
X119690986Y-75170706D01*
X119948966Y-75308599D01*
X120228889Y-75393513D01*
X120380139Y-75408410D01*
X120364454Y-75437754D01*
X120320998Y-75581015D01*
X120306324Y-75730000D01*
X120310001Y-75767332D01*
X120310000Y-78421928D01*
X120220000Y-78421928D01*
X120095518Y-78434188D01*
X119975820Y-78470498D01*
X119865506Y-78529463D01*
X119768815Y-78608815D01*
X119689463Y-78705506D01*
X119630498Y-78815820D01*
X119594188Y-78935518D01*
X119581928Y-79060000D01*
X119581928Y-80760000D01*
X119594188Y-80884482D01*
X119630498Y-81004180D01*
X119689463Y-81114494D01*
X119768815Y-81211185D01*
X119865506Y-81290537D01*
X119975820Y-81349502D01*
X120095518Y-81385812D01*
X120220000Y-81398072D01*
X121920000Y-81398072D01*
X122044482Y-81385812D01*
X122164180Y-81349502D01*
X122274494Y-81290537D01*
X122371185Y-81211185D01*
X122450537Y-81114494D01*
X122509502Y-81004180D01*
X122531513Y-80931620D01*
X122663368Y-81063475D01*
X122906589Y-81225990D01*
X123176842Y-81337932D01*
X123463740Y-81395000D01*
X123756260Y-81395000D01*
X124043158Y-81337932D01*
X124313411Y-81225990D01*
X124556632Y-81063475D01*
X124763475Y-80856632D01*
X124880000Y-80682240D01*
X124996525Y-80856632D01*
X125203368Y-81063475D01*
X125390000Y-81188179D01*
X125390001Y-82227286D01*
X125303377Y-82298377D01*
X125194488Y-82431058D01*
X125113577Y-82582433D01*
X125063752Y-82746684D01*
X125046928Y-82917500D01*
X125046928Y-83417500D01*
X125063752Y-83588316D01*
X125113577Y-83752567D01*
X125194488Y-83903942D01*
X125283812Y-84012783D01*
X125233815Y-84053815D01*
X125154463Y-84150506D01*
X125095498Y-84260820D01*
X125059188Y-84380518D01*
X125046928Y-84505000D01*
X125050000Y-84706750D01*
X125208750Y-84865500D01*
X126033000Y-84865500D01*
X126033000Y-84845500D01*
X126287000Y-84845500D01*
X126287000Y-84865500D01*
X127111250Y-84865500D01*
X127270000Y-84706750D01*
X127273072Y-84505000D01*
X127260812Y-84380518D01*
X127224502Y-84260820D01*
X127165537Y-84150506D01*
X127086185Y-84053815D01*
X127036188Y-84012783D01*
X127125512Y-83903942D01*
X127206423Y-83752567D01*
X127256248Y-83588316D01*
X127273072Y-83417500D01*
X127273072Y-82917500D01*
X127256248Y-82746684D01*
X127206423Y-82582433D01*
X127125512Y-82431058D01*
X127016623Y-82298377D01*
X126910000Y-82210873D01*
X126910000Y-81188178D01*
X127096632Y-81063475D01*
X127303475Y-80856632D01*
X127420000Y-80682240D01*
X127536525Y-80856632D01*
X127743368Y-81063475D01*
X127930000Y-81188179D01*
X127930001Y-82227286D01*
X127843377Y-82298377D01*
X127734488Y-82431058D01*
X127653577Y-82582433D01*
X127603752Y-82746684D01*
X127586928Y-82917500D01*
X127586928Y-83417500D01*
X127603752Y-83588316D01*
X127653577Y-83752567D01*
X127734488Y-83903942D01*
X127823812Y-84012783D01*
X127773815Y-84053815D01*
X127694463Y-84150506D01*
X127635498Y-84260820D01*
X127599188Y-84380518D01*
X127586928Y-84505000D01*
X127590000Y-84706750D01*
X127748750Y-84865500D01*
X128573000Y-84865500D01*
X128573000Y-84845500D01*
X128827000Y-84845500D01*
X128827000Y-84865500D01*
X129651250Y-84865500D01*
X129810000Y-84706750D01*
X129813072Y-84505000D01*
X129800812Y-84380518D01*
X129764502Y-84260820D01*
X129705537Y-84150506D01*
X129626185Y-84053815D01*
X129576188Y-84012783D01*
X129665512Y-83903942D01*
X129746423Y-83752567D01*
X129796248Y-83588316D01*
X129813072Y-83417500D01*
X129813072Y-82917500D01*
X129796248Y-82746684D01*
X129746423Y-82582433D01*
X129665512Y-82431058D01*
X129556623Y-82298377D01*
X129450000Y-82210873D01*
X129450000Y-81188178D01*
X129636632Y-81063475D01*
X129843475Y-80856632D01*
X129960000Y-80682240D01*
X130076525Y-80856632D01*
X130283368Y-81063475D01*
X130470000Y-81188179D01*
X130470001Y-82227286D01*
X130383377Y-82298377D01*
X130274488Y-82431058D01*
X130193577Y-82582433D01*
X130143752Y-82746684D01*
X130126928Y-82917500D01*
X130126928Y-83417500D01*
X130143752Y-83588316D01*
X130193577Y-83752567D01*
X130274488Y-83903942D01*
X130363812Y-84012783D01*
X130313815Y-84053815D01*
X130234463Y-84150506D01*
X130175498Y-84260820D01*
X130139188Y-84380518D01*
X130126928Y-84505000D01*
X130130000Y-84706750D01*
X130288750Y-84865500D01*
X131113000Y-84865500D01*
X131113000Y-84845500D01*
X131367000Y-84845500D01*
X131367000Y-84865500D01*
X132191250Y-84865500D01*
X132350000Y-84706750D01*
X132353072Y-84505000D01*
X132340812Y-84380518D01*
X132304502Y-84260820D01*
X132245537Y-84150506D01*
X132166185Y-84053815D01*
X132116188Y-84012783D01*
X132205512Y-83903942D01*
X132286423Y-83752567D01*
X132336248Y-83588316D01*
X132353072Y-83417500D01*
X132353072Y-82917500D01*
X132336248Y-82746684D01*
X132286423Y-82582433D01*
X132205512Y-82431058D01*
X132096623Y-82298377D01*
X131990000Y-82210873D01*
X131990000Y-81188178D01*
X132176632Y-81063475D01*
X132383475Y-80856632D01*
X132500000Y-80682240D01*
X132616525Y-80856632D01*
X132823368Y-81063475D01*
X133066589Y-81225990D01*
X133336842Y-81337932D01*
X133623740Y-81395000D01*
X133916260Y-81395000D01*
X134203158Y-81337932D01*
X134473411Y-81225990D01*
X134716632Y-81063475D01*
X134923475Y-80856632D01*
X135040000Y-80682240D01*
X135156525Y-80856632D01*
X135363368Y-81063475D01*
X135606589Y-81225990D01*
X135876842Y-81337932D01*
X136163740Y-81395000D01*
X136456260Y-81395000D01*
X136743158Y-81337932D01*
X137013411Y-81225990D01*
X137256632Y-81063475D01*
X137463475Y-80856632D01*
X137580000Y-80682240D01*
X137696525Y-80856632D01*
X137903368Y-81063475D01*
X138146589Y-81225990D01*
X138416842Y-81337932D01*
X138703740Y-81395000D01*
X138996260Y-81395000D01*
X139283158Y-81337932D01*
X139553411Y-81225990D01*
X139796632Y-81063475D01*
X140003475Y-80856632D01*
X140120000Y-80682240D01*
X140236525Y-80856632D01*
X140443368Y-81063475D01*
X140686589Y-81225990D01*
X140956842Y-81337932D01*
X141243740Y-81395000D01*
X141536260Y-81395000D01*
X141823158Y-81337932D01*
X142093411Y-81225990D01*
X142336632Y-81063475D01*
X142543475Y-80856632D01*
X142660000Y-80682240D01*
X142776525Y-80856632D01*
X142983368Y-81063475D01*
X143170001Y-81188179D01*
X143170001Y-81667697D01*
X142080771Y-82756928D01*
X141792500Y-82756928D01*
X141621684Y-82773752D01*
X141457433Y-82823577D01*
X141306058Y-82904488D01*
X141173377Y-83013377D01*
X141130000Y-83066232D01*
X141086623Y-83013377D01*
X140953942Y-82904488D01*
X140802567Y-82823577D01*
X140638316Y-82773752D01*
X140467500Y-82756928D01*
X139967500Y-82756928D01*
X139796684Y-82773752D01*
X139632433Y-82823577D01*
X139481058Y-82904488D01*
X139348377Y-83013377D01*
X139239488Y-83146058D01*
X139158577Y-83297433D01*
X139108752Y-83461684D01*
X139091928Y-83632500D01*
X139091928Y-83920769D01*
X133672699Y-89340000D01*
X128397322Y-89340000D01*
X128359999Y-89336324D01*
X128322677Y-89340000D01*
X128322667Y-89340000D01*
X128211014Y-89350997D01*
X128067753Y-89394454D01*
X127935723Y-89465026D01*
X127852083Y-89533668D01*
X127819999Y-89559999D01*
X127796201Y-89588997D01*
X124780199Y-92605000D01*
X124718061Y-92605000D01*
X124518102Y-92644774D01*
X124329744Y-92722795D01*
X124160226Y-92836063D01*
X124016063Y-92980226D01*
X123902795Y-93149744D01*
X123824774Y-93338102D01*
X123785000Y-93538061D01*
X123785000Y-93741939D01*
X123824774Y-93941898D01*
X123902795Y-94130256D01*
X124016063Y-94299774D01*
X124160226Y-94443937D01*
X124329744Y-94557205D01*
X124518102Y-94635226D01*
X124718061Y-94675000D01*
X124921939Y-94675000D01*
X125121898Y-94635226D01*
X125310256Y-94557205D01*
X125479774Y-94443937D01*
X125623937Y-94299774D01*
X125737205Y-94130256D01*
X125815226Y-93941898D01*
X125855000Y-93741939D01*
X125855000Y-93679801D01*
X128674802Y-90860000D01*
X133950178Y-90860000D01*
X133987500Y-90863676D01*
X134024822Y-90860000D01*
X134024833Y-90860000D01*
X134136486Y-90849003D01*
X134279747Y-90805546D01*
X134411776Y-90734974D01*
X134527501Y-90640001D01*
X134551304Y-90610997D01*
X135294240Y-89868061D01*
X148335000Y-89868061D01*
X148335000Y-90071939D01*
X148374774Y-90271898D01*
X148452795Y-90460256D01*
X148496055Y-90525000D01*
X148452795Y-90589744D01*
X148374774Y-90778102D01*
X148335000Y-90978061D01*
X148335000Y-91181939D01*
X148374774Y-91381898D01*
X148452795Y-91570256D01*
X148499396Y-91640000D01*
X148452795Y-91709744D01*
X148374774Y-91898102D01*
X148335000Y-92098061D01*
X148335000Y-92301939D01*
X148374774Y-92501898D01*
X148452795Y-92690256D01*
X148566063Y-92859774D01*
X148710226Y-93003937D01*
X148879744Y-93117205D01*
X149068102Y-93195226D01*
X149268061Y-93235000D01*
X149471939Y-93235000D01*
X149671898Y-93195226D01*
X149860256Y-93117205D01*
X150029774Y-93003937D01*
X150073711Y-92960000D01*
X162985199Y-92960000D01*
X164063296Y-94038098D01*
X164011487Y-94208889D01*
X163982815Y-94500000D01*
X164011487Y-94791111D01*
X164096401Y-95071034D01*
X164234294Y-95329014D01*
X164419866Y-95555134D01*
X164483337Y-95607223D01*
X164381614Y-95661595D01*
X164247038Y-95772038D01*
X164136595Y-95906614D01*
X164054528Y-96060150D01*
X164003992Y-96226746D01*
X163986928Y-96400000D01*
X163986928Y-97600000D01*
X164003992Y-97773254D01*
X164054528Y-97939850D01*
X164136595Y-98093386D01*
X164247038Y-98227962D01*
X164381614Y-98338405D01*
X164535150Y-98420472D01*
X164701746Y-98471008D01*
X164875000Y-98488072D01*
X166325000Y-98488072D01*
X166498254Y-98471008D01*
X166664850Y-98420472D01*
X166818386Y-98338405D01*
X166952962Y-98227962D01*
X167063405Y-98093386D01*
X167145472Y-97939850D01*
X167196008Y-97773254D01*
X167213072Y-97600000D01*
X167213072Y-96400000D01*
X167196008Y-96226746D01*
X167145472Y-96060150D01*
X167063405Y-95906614D01*
X166952962Y-95772038D01*
X166818386Y-95661595D01*
X166716663Y-95607223D01*
X166780134Y-95555134D01*
X166965706Y-95329014D01*
X167103599Y-95071034D01*
X167188513Y-94791111D01*
X167217185Y-94500000D01*
X167188513Y-94208889D01*
X167103599Y-93928966D01*
X166965706Y-93670986D01*
X166780134Y-93444866D01*
X166554014Y-93259294D01*
X166536626Y-93250000D01*
X166554014Y-93240706D01*
X166780134Y-93055134D01*
X166965706Y-92829014D01*
X167103599Y-92571034D01*
X167188513Y-92291111D01*
X167217185Y-92000000D01*
X167188513Y-91708889D01*
X167103599Y-91428966D01*
X166965706Y-91170986D01*
X166780134Y-90944866D01*
X166554014Y-90759294D01*
X166536626Y-90750000D01*
X166554014Y-90740706D01*
X166780134Y-90555134D01*
X166965706Y-90329014D01*
X167103599Y-90071034D01*
X167188513Y-89791111D01*
X167217185Y-89500000D01*
X167188513Y-89208889D01*
X167103599Y-88928966D01*
X166965706Y-88670986D01*
X166780134Y-88444866D01*
X166554014Y-88259294D01*
X166536626Y-88250000D01*
X166554014Y-88240706D01*
X166780134Y-88055134D01*
X166965706Y-87829014D01*
X167103599Y-87571034D01*
X167188513Y-87291111D01*
X167217185Y-87000000D01*
X167188513Y-86708889D01*
X167103599Y-86428966D01*
X166965706Y-86170986D01*
X166780134Y-85944866D01*
X166554014Y-85759294D01*
X166296034Y-85621401D01*
X166016111Y-85536487D01*
X165797950Y-85515000D01*
X165402050Y-85515000D01*
X165183889Y-85536487D01*
X164903966Y-85621401D01*
X164645986Y-85759294D01*
X164419866Y-85944866D01*
X164234294Y-86170986D01*
X164096401Y-86428966D01*
X164011487Y-86708889D01*
X163982815Y-87000000D01*
X164011487Y-87291111D01*
X164096401Y-87571034D01*
X164234294Y-87829014D01*
X164419866Y-88055134D01*
X164645986Y-88240706D01*
X164663374Y-88250000D01*
X164645986Y-88259294D01*
X164419866Y-88444866D01*
X164234294Y-88670986D01*
X164096401Y-88928966D01*
X164011487Y-89208889D01*
X164011378Y-89210000D01*
X150073711Y-89210000D01*
X150029774Y-89166063D01*
X149860256Y-89052795D01*
X149671898Y-88974774D01*
X149471939Y-88935000D01*
X149268061Y-88935000D01*
X149068102Y-88974774D01*
X148879744Y-89052795D01*
X148710226Y-89166063D01*
X148566063Y-89310226D01*
X148452795Y-89479744D01*
X148374774Y-89668102D01*
X148335000Y-89868061D01*
X135294240Y-89868061D01*
X139107428Y-86054874D01*
X139108752Y-86068316D01*
X139158577Y-86232567D01*
X139239488Y-86383942D01*
X139348377Y-86516623D01*
X139481058Y-86625512D01*
X139521143Y-86646938D01*
X139582526Y-86761776D01*
X139653701Y-86848502D01*
X139677500Y-86877501D01*
X139706498Y-86901299D01*
X140356201Y-87551002D01*
X140379999Y-87580001D01*
X140408997Y-87603799D01*
X140495723Y-87674974D01*
X140627753Y-87745546D01*
X140771014Y-87789003D01*
X140882667Y-87800000D01*
X140882676Y-87800000D01*
X140919999Y-87803676D01*
X140957322Y-87800000D01*
X143046289Y-87800000D01*
X143090226Y-87843937D01*
X143259744Y-87957205D01*
X143448102Y-88035226D01*
X143648061Y-88075000D01*
X143851939Y-88075000D01*
X144051898Y-88035226D01*
X144240256Y-87957205D01*
X144409774Y-87843937D01*
X144553937Y-87699774D01*
X144667205Y-87530256D01*
X144745226Y-87341898D01*
X144785000Y-87141939D01*
X144785000Y-87079801D01*
X145666730Y-86198072D01*
X146057500Y-86198072D01*
X146228316Y-86181248D01*
X146392567Y-86131423D01*
X146543942Y-86050512D01*
X146676623Y-85941623D01*
X146766178Y-85832500D01*
X149193822Y-85832500D01*
X149283377Y-85941623D01*
X149416058Y-86050512D01*
X149567433Y-86131423D01*
X149731684Y-86181248D01*
X149902500Y-86198072D01*
X150377500Y-86198072D01*
X150548316Y-86181248D01*
X150712567Y-86131423D01*
X150863942Y-86050512D01*
X150996623Y-85941623D01*
X151105512Y-85808942D01*
X151186423Y-85657567D01*
X151236248Y-85493316D01*
X151253072Y-85322500D01*
X151253072Y-84822500D01*
X151236248Y-84651684D01*
X151186423Y-84487433D01*
X151105512Y-84336058D01*
X150996623Y-84203377D01*
X150943768Y-84160000D01*
X150996623Y-84116623D01*
X151105512Y-83983942D01*
X151186423Y-83832567D01*
X151236248Y-83668316D01*
X151253072Y-83497500D01*
X151253072Y-82997500D01*
X151236248Y-82826684D01*
X151186423Y-82662433D01*
X151105512Y-82511058D01*
X150996623Y-82378377D01*
X150900000Y-82299080D01*
X150900000Y-81248113D01*
X151116842Y-81337932D01*
X151403740Y-81395000D01*
X151696260Y-81395000D01*
X151983158Y-81337932D01*
X152253411Y-81225990D01*
X152496632Y-81063475D01*
X152703475Y-80856632D01*
X152820000Y-80682240D01*
X152936525Y-80856632D01*
X153143368Y-81063475D01*
X153386589Y-81225990D01*
X153656842Y-81337932D01*
X153943740Y-81395000D01*
X154236260Y-81395000D01*
X154523158Y-81337932D01*
X154793411Y-81225990D01*
X155036632Y-81063475D01*
X155243475Y-80856632D01*
X155360000Y-80682240D01*
X155476525Y-80856632D01*
X155683368Y-81063475D01*
X155926589Y-81225990D01*
X156196842Y-81337932D01*
X156483740Y-81395000D01*
X156776260Y-81395000D01*
X157063158Y-81337932D01*
X157333411Y-81225990D01*
X157576632Y-81063475D01*
X157783475Y-80856632D01*
X157945990Y-80613411D01*
X158057932Y-80343158D01*
X158115000Y-80056260D01*
X158115000Y-79763740D01*
X158071209Y-79543592D01*
X162884802Y-74730000D01*
X163291928Y-74730000D01*
X163291928Y-74770000D01*
X163304188Y-74894482D01*
X163340498Y-75014180D01*
X163399463Y-75124494D01*
X163478815Y-75221185D01*
X163575506Y-75300537D01*
X163685820Y-75359502D01*
X163805518Y-75395812D01*
X163930000Y-75408072D01*
X165530000Y-75408072D01*
X165654482Y-75395812D01*
X165774180Y-75359502D01*
X165884494Y-75300537D01*
X165981185Y-75221185D01*
X166060537Y-75124494D01*
X166119502Y-75014180D01*
X166148661Y-74918057D01*
X166315241Y-75084637D01*
X166550273Y-75241680D01*
X166811426Y-75349853D01*
X167088665Y-75405000D01*
X167371335Y-75405000D01*
X167648574Y-75349853D01*
X167909727Y-75241680D01*
X168144759Y-75084637D01*
X168344637Y-74884759D01*
X168501680Y-74649727D01*
X168609853Y-74388574D01*
X168665000Y-74111335D01*
X168665000Y-73828665D01*
X168609853Y-73551426D01*
X168501680Y-73290273D01*
X168344637Y-73055241D01*
X168144759Y-72855363D01*
X167909727Y-72698320D01*
X167648574Y-72590147D01*
X167371335Y-72535000D01*
X167088665Y-72535000D01*
X166811426Y-72590147D01*
X166550273Y-72698320D01*
X166315241Y-72855363D01*
X166148661Y-73021943D01*
X166119502Y-72925820D01*
X166060537Y-72815506D01*
X165981185Y-72718815D01*
X165884494Y-72639463D01*
X165774180Y-72580498D01*
X165654482Y-72544188D01*
X165530000Y-72531928D01*
X163930000Y-72531928D01*
X163805518Y-72544188D01*
X163685820Y-72580498D01*
X163575506Y-72639463D01*
X163478815Y-72718815D01*
X163399463Y-72815506D01*
X163340498Y-72925820D01*
X163304188Y-73045518D01*
X163291928Y-73170000D01*
X163291928Y-73210000D01*
X162607333Y-73210000D01*
X162570000Y-73206323D01*
X162532667Y-73210000D01*
X162421014Y-73220997D01*
X162277753Y-73264454D01*
X162145724Y-73335026D01*
X162029999Y-73429999D01*
X162006201Y-73458997D01*
X156996408Y-78468791D01*
X156776260Y-78425000D01*
X156483740Y-78425000D01*
X156196842Y-78482068D01*
X155926589Y-78594010D01*
X155683368Y-78756525D01*
X155476525Y-78963368D01*
X155360000Y-79137760D01*
X155243475Y-78963368D01*
X155036632Y-78756525D01*
X154793411Y-78594010D01*
X154523158Y-78482068D01*
X154236260Y-78425000D01*
X153943740Y-78425000D01*
X153656842Y-78482068D01*
X153386589Y-78594010D01*
X153143368Y-78756525D01*
X152936525Y-78963368D01*
X152820000Y-79137760D01*
X152703475Y-78963368D01*
X152496632Y-78756525D01*
X152253411Y-78594010D01*
X151983158Y-78482068D01*
X151696260Y-78425000D01*
X151403740Y-78425000D01*
X151116842Y-78482068D01*
X150846589Y-78594010D01*
X150603368Y-78756525D01*
X150396525Y-78963368D01*
X150280000Y-79137760D01*
X150163475Y-78963368D01*
X149956632Y-78756525D01*
X149770000Y-78631822D01*
X149770000Y-77890000D01*
X150902678Y-77890000D01*
X150940000Y-77893676D01*
X150977322Y-77890000D01*
X150977333Y-77890000D01*
X151088986Y-77879003D01*
X151232247Y-77835546D01*
X151364276Y-77764974D01*
X151480001Y-77670001D01*
X151503803Y-77640998D01*
X152221008Y-76923795D01*
X152250001Y-76900001D01*
X152273795Y-76871008D01*
X152273799Y-76871004D01*
X152344973Y-76784277D01*
X152353805Y-76767754D01*
X152415546Y-76652247D01*
X152459003Y-76508986D01*
X152470000Y-76397333D01*
X152470000Y-76397324D01*
X152473676Y-76360001D01*
X152470000Y-76322678D01*
X152470000Y-75207594D01*
X152539013Y-75170706D01*
X152759945Y-74989392D01*
X152770498Y-75024180D01*
X152829463Y-75134494D01*
X152908815Y-75231185D01*
X153005506Y-75310537D01*
X153115820Y-75369502D01*
X153235518Y-75405812D01*
X153360000Y-75418072D01*
X153924250Y-75415000D01*
X154083000Y-75256250D01*
X154083000Y-73907000D01*
X154337000Y-73907000D01*
X154337000Y-75256250D01*
X154495750Y-75415000D01*
X155060000Y-75418072D01*
X155184482Y-75405812D01*
X155304180Y-75369502D01*
X155414494Y-75310537D01*
X155511185Y-75231185D01*
X155590537Y-75134494D01*
X155649502Y-75024180D01*
X155685812Y-74904482D01*
X155698072Y-74780000D01*
X155695000Y-74065750D01*
X155536250Y-73907000D01*
X154337000Y-73907000D01*
X154083000Y-73907000D01*
X154063000Y-73907000D01*
X154063000Y-73653000D01*
X154083000Y-73653000D01*
X154083000Y-72303750D01*
X154337000Y-72303750D01*
X154337000Y-73653000D01*
X155536250Y-73653000D01*
X155695000Y-73494250D01*
X155698072Y-72780000D01*
X155685812Y-72655518D01*
X155649502Y-72535820D01*
X155590537Y-72425506D01*
X155511185Y-72328815D01*
X155414494Y-72249463D01*
X155304180Y-72190498D01*
X155184482Y-72154188D01*
X155060000Y-72141928D01*
X154495750Y-72145000D01*
X154337000Y-72303750D01*
X154083000Y-72303750D01*
X153924250Y-72145000D01*
X153360000Y-72141928D01*
X153235518Y-72154188D01*
X153115820Y-72190498D01*
X153005506Y-72249463D01*
X152908815Y-72328815D01*
X152829463Y-72425506D01*
X152770498Y-72535820D01*
X152759945Y-72570608D01*
X152539014Y-72389294D01*
X152281034Y-72251401D01*
X152001111Y-72166487D01*
X151710000Y-72137815D01*
X151418890Y-72166487D01*
X151138967Y-72251401D01*
X150880987Y-72389294D01*
X150654866Y-72574866D01*
X150469294Y-72800986D01*
X150331401Y-73058966D01*
X150246487Y-73338889D01*
X150225000Y-73557050D01*
X150225000Y-74002949D01*
X150246487Y-74221110D01*
X150331401Y-74501033D01*
X150469294Y-74759013D01*
X150654866Y-74985134D01*
X150880986Y-75170706D01*
X150950001Y-75207595D01*
X150950001Y-76045197D01*
X150625198Y-76370000D01*
X149427322Y-76370000D01*
X149389999Y-76366324D01*
X149352676Y-76370000D01*
X149352667Y-76370000D01*
X149241014Y-76380997D01*
X149097753Y-76424454D01*
X148965724Y-76495026D01*
X148849999Y-76589999D01*
X148826196Y-76619003D01*
X148499003Y-76946196D01*
X148469999Y-76969999D01*
X148414871Y-77037174D01*
X148375026Y-77085724D01*
X148309141Y-77208985D01*
X148304454Y-77217754D01*
X148260997Y-77361015D01*
X148250000Y-77472668D01*
X148250000Y-77472678D01*
X148246324Y-77510000D01*
X148250000Y-77547323D01*
X148250000Y-78631821D01*
X148063368Y-78756525D01*
X147856525Y-78963368D01*
X147740000Y-79137760D01*
X147623475Y-78963368D01*
X147416632Y-78756525D01*
X147230000Y-78631822D01*
X147230000Y-77797322D01*
X147233676Y-77759999D01*
X147230000Y-77722676D01*
X147230000Y-77722667D01*
X147219003Y-77611014D01*
X147175546Y-77467753D01*
X147104974Y-77335724D01*
X147010001Y-77219999D01*
X146981004Y-77196202D01*
X146273803Y-76489002D01*
X146250001Y-76459999D01*
X146134276Y-76365026D01*
X146002247Y-76294454D01*
X145858986Y-76250997D01*
X145747333Y-76240000D01*
X145747322Y-76240000D01*
X145710000Y-76236324D01*
X145672678Y-76240000D01*
X144054802Y-76240000D01*
X143470000Y-75655199D01*
X143470000Y-75207594D01*
X143539013Y-75170706D01*
X143759945Y-74989392D01*
X143770498Y-75024180D01*
X143829463Y-75134494D01*
X143908815Y-75231185D01*
X144005506Y-75310537D01*
X144115820Y-75369502D01*
X144235518Y-75405812D01*
X144360000Y-75418072D01*
X144924250Y-75415000D01*
X145083000Y-75256250D01*
X145083000Y-73907000D01*
X145337000Y-73907000D01*
X145337000Y-75256250D01*
X145495750Y-75415000D01*
X146060000Y-75418072D01*
X146184482Y-75405812D01*
X146304180Y-75369502D01*
X146414494Y-75310537D01*
X146511185Y-75231185D01*
X146590537Y-75134494D01*
X146649502Y-75024180D01*
X146685812Y-74904482D01*
X146698072Y-74780000D01*
X146695000Y-74065750D01*
X146536250Y-73907000D01*
X145337000Y-73907000D01*
X145083000Y-73907000D01*
X145063000Y-73907000D01*
X145063000Y-73653000D01*
X145083000Y-73653000D01*
X145083000Y-72303750D01*
X145337000Y-72303750D01*
X145337000Y-73653000D01*
X146536250Y-73653000D01*
X146695000Y-73494250D01*
X146698072Y-72780000D01*
X146685812Y-72655518D01*
X146649502Y-72535820D01*
X146590537Y-72425506D01*
X146511185Y-72328815D01*
X146414494Y-72249463D01*
X146304180Y-72190498D01*
X146184482Y-72154188D01*
X146060000Y-72141928D01*
X145495750Y-72145000D01*
X145337000Y-72303750D01*
X145083000Y-72303750D01*
X144924250Y-72145000D01*
X144360000Y-72141928D01*
X144235518Y-72154188D01*
X144115820Y-72190498D01*
X144005506Y-72249463D01*
X143908815Y-72328815D01*
X143829463Y-72425506D01*
X143770498Y-72535820D01*
X143759945Y-72570608D01*
X143539014Y-72389294D01*
X143281034Y-72251401D01*
X143001111Y-72166487D01*
X142710000Y-72137815D01*
X142418890Y-72166487D01*
X142138967Y-72251401D01*
X141880987Y-72389294D01*
X141654866Y-72574866D01*
X141469294Y-72800986D01*
X141331401Y-73058966D01*
X141246487Y-73338889D01*
X141225000Y-73557050D01*
X141225000Y-74002949D01*
X141246487Y-74221110D01*
X141331401Y-74501033D01*
X141469294Y-74759013D01*
X141654866Y-74985134D01*
X141880986Y-75170706D01*
X141950001Y-75207595D01*
X141950001Y-75932668D01*
X141946324Y-75970000D01*
X141950001Y-76007333D01*
X141956395Y-76072246D01*
X141960998Y-76118985D01*
X142004454Y-76262246D01*
X142075026Y-76394276D01*
X142128964Y-76459999D01*
X142170000Y-76510001D01*
X142198998Y-76533799D01*
X143176200Y-77511002D01*
X143199999Y-77540001D01*
X143228997Y-77563799D01*
X143315723Y-77634974D01*
X143427974Y-77694974D01*
X143447753Y-77705546D01*
X143591014Y-77749003D01*
X143702667Y-77760000D01*
X143702677Y-77760000D01*
X143740000Y-77763676D01*
X143777323Y-77760000D01*
X145395199Y-77760000D01*
X145710000Y-78074802D01*
X145710000Y-78631821D01*
X145523368Y-78756525D01*
X145316525Y-78963368D01*
X145200000Y-79137760D01*
X145083475Y-78963368D01*
X144876632Y-78756525D01*
X144633411Y-78594010D01*
X144363158Y-78482068D01*
X144076260Y-78425000D01*
X143783740Y-78425000D01*
X143496842Y-78482068D01*
X143226589Y-78594010D01*
X142983368Y-78756525D01*
X142776525Y-78963368D01*
X142660000Y-79137760D01*
X142543475Y-78963368D01*
X142336632Y-78756525D01*
X142093411Y-78594010D01*
X141823158Y-78482068D01*
X141536260Y-78425000D01*
X141243740Y-78425000D01*
X140956842Y-78482068D01*
X140686589Y-78594010D01*
X140443368Y-78756525D01*
X140236525Y-78963368D01*
X140120000Y-79137760D01*
X140003475Y-78963368D01*
X139796632Y-78756525D01*
X139610000Y-78631822D01*
X139610000Y-77957325D01*
X139613676Y-77920000D01*
X139610000Y-77882675D01*
X139610000Y-77882667D01*
X139599003Y-77771014D01*
X139555546Y-77627753D01*
X139484974Y-77495724D01*
X139390001Y-77379999D01*
X139361004Y-77356202D01*
X138553803Y-76549002D01*
X138530001Y-76519999D01*
X138414276Y-76425026D01*
X138282247Y-76354454D01*
X138138986Y-76310997D01*
X138027333Y-76300000D01*
X138027322Y-76300000D01*
X137990000Y-76296324D01*
X137952678Y-76300000D01*
X132804802Y-76300000D01*
X131970000Y-75465199D01*
X131970000Y-75182594D01*
X132039013Y-75145706D01*
X132265134Y-74960134D01*
X132450706Y-74734014D01*
X132460000Y-74716626D01*
X132469294Y-74734013D01*
X132654866Y-74960134D01*
X132880986Y-75145706D01*
X133138966Y-75283599D01*
X133418889Y-75368513D01*
X133710000Y-75397185D01*
X134001110Y-75368513D01*
X134281033Y-75283599D01*
X134539013Y-75145706D01*
X134759945Y-74964392D01*
X134770498Y-74999180D01*
X134829463Y-75109494D01*
X134908815Y-75206185D01*
X135005506Y-75285537D01*
X135115820Y-75344502D01*
X135235518Y-75380812D01*
X135360000Y-75393072D01*
X135924250Y-75390000D01*
X136083000Y-75231250D01*
X136083000Y-73907000D01*
X136337000Y-73907000D01*
X136337000Y-75231250D01*
X136495750Y-75390000D01*
X137060000Y-75393072D01*
X137184482Y-75380812D01*
X137304180Y-75344502D01*
X137414494Y-75285537D01*
X137511185Y-75206185D01*
X137590537Y-75109494D01*
X137649502Y-74999180D01*
X137685812Y-74879482D01*
X137698072Y-74755000D01*
X137695000Y-74065750D01*
X137536250Y-73907000D01*
X136337000Y-73907000D01*
X136083000Y-73907000D01*
X136063000Y-73907000D01*
X136063000Y-73653000D01*
X136083000Y-73653000D01*
X136083000Y-72328750D01*
X136337000Y-72328750D01*
X136337000Y-73653000D01*
X137536250Y-73653000D01*
X137695000Y-73494250D01*
X137698072Y-72805000D01*
X137685812Y-72680518D01*
X137649502Y-72560820D01*
X137590537Y-72450506D01*
X137511185Y-72353815D01*
X137414494Y-72274463D01*
X137304180Y-72215498D01*
X137184482Y-72179188D01*
X137060000Y-72166928D01*
X136495750Y-72170000D01*
X136337000Y-72328750D01*
X136083000Y-72328750D01*
X135924250Y-72170000D01*
X135360000Y-72166928D01*
X135235518Y-72179188D01*
X135115820Y-72215498D01*
X135005506Y-72274463D01*
X134908815Y-72353815D01*
X134829463Y-72450506D01*
X134770498Y-72560820D01*
X134759945Y-72595608D01*
X134539014Y-72414294D01*
X134281034Y-72276401D01*
X134001111Y-72191487D01*
X133710000Y-72162815D01*
X133418890Y-72191487D01*
X133138967Y-72276401D01*
X132880987Y-72414294D01*
X132654866Y-72599866D01*
X132469294Y-72825986D01*
X132460000Y-72843374D01*
X132450706Y-72825986D01*
X132265134Y-72599866D01*
X132039014Y-72414294D01*
X131781034Y-72276401D01*
X131501111Y-72191487D01*
X131210000Y-72162815D01*
X130918890Y-72191487D01*
X130638967Y-72276401D01*
X130380987Y-72414294D01*
X130154866Y-72599866D01*
X129969294Y-72825986D01*
X129831401Y-73083966D01*
X129746487Y-73363889D01*
X129725000Y-73582050D01*
X129725000Y-73977949D01*
X129746487Y-74196110D01*
X129831401Y-74476033D01*
X129969294Y-74734013D01*
X130154866Y-74960134D01*
X130380986Y-75145706D01*
X130450001Y-75182595D01*
X130450001Y-75742668D01*
X130446324Y-75780000D01*
X130460998Y-75928985D01*
X130504454Y-76072246D01*
X130575026Y-76204276D01*
X130628966Y-76270001D01*
X130670000Y-76320001D01*
X130698998Y-76343799D01*
X131926200Y-77571002D01*
X131949999Y-77600001D01*
X132065724Y-77694974D01*
X132197753Y-77765546D01*
X132341014Y-77809003D01*
X132452667Y-77820000D01*
X132452676Y-77820000D01*
X132489999Y-77823676D01*
X132527322Y-77820000D01*
X137675199Y-77820000D01*
X138090000Y-78234802D01*
X138090000Y-78631821D01*
X137903368Y-78756525D01*
X137696525Y-78963368D01*
X137580000Y-79137760D01*
X137463475Y-78963368D01*
X137256632Y-78756525D01*
X137013411Y-78594010D01*
X136743158Y-78482068D01*
X136456260Y-78425000D01*
X136163740Y-78425000D01*
X135876842Y-78482068D01*
X135606589Y-78594010D01*
X135363368Y-78756525D01*
X135156525Y-78963368D01*
X135040000Y-79137760D01*
X134923475Y-78963368D01*
X134716632Y-78756525D01*
X134473411Y-78594010D01*
X134203158Y-78482068D01*
X133916260Y-78425000D01*
X133623740Y-78425000D01*
X133336842Y-78482068D01*
X133066589Y-78594010D01*
X132823368Y-78756525D01*
X132616525Y-78963368D01*
X132500000Y-79137760D01*
X132383475Y-78963368D01*
X132176632Y-78756525D01*
X131933411Y-78594010D01*
X131663158Y-78482068D01*
X131376260Y-78425000D01*
X131083740Y-78425000D01*
X130796842Y-78482068D01*
X130526589Y-78594010D01*
X130283368Y-78756525D01*
X130076525Y-78963368D01*
X129960000Y-79137760D01*
X129843475Y-78963368D01*
X129636632Y-78756525D01*
X129393411Y-78594010D01*
X129123158Y-78482068D01*
X128836260Y-78425000D01*
X128543740Y-78425000D01*
X128256842Y-78482068D01*
X127986589Y-78594010D01*
X127743368Y-78756525D01*
X127536525Y-78963368D01*
X127420000Y-79137760D01*
X127303475Y-78963368D01*
X127096632Y-78756525D01*
X126853411Y-78594010D01*
X126583158Y-78482068D01*
X126296260Y-78425000D01*
X126003740Y-78425000D01*
X125716842Y-78482068D01*
X125446589Y-78594010D01*
X125203368Y-78756525D01*
X124996525Y-78963368D01*
X124880000Y-79137760D01*
X124763475Y-78963368D01*
X124556632Y-78756525D01*
X124313411Y-78594010D01*
X124043158Y-78482068D01*
X123756260Y-78425000D01*
X123463740Y-78425000D01*
X123176842Y-78482068D01*
X122906589Y-78594010D01*
X122663368Y-78756525D01*
X122531513Y-78888380D01*
X122509502Y-78815820D01*
X122450537Y-78705506D01*
X122371185Y-78608815D01*
X122274494Y-78529463D01*
X122164180Y-78470498D01*
X122044482Y-78434188D01*
X121920000Y-78421928D01*
X121830000Y-78421928D01*
X121830000Y-76044801D01*
X122456730Y-75418072D01*
X123620000Y-75418072D01*
X123793254Y-75401008D01*
X123959850Y-75350472D01*
X124113386Y-75268405D01*
X124247962Y-75157962D01*
X124358405Y-75023386D01*
X124440472Y-74869850D01*
X124491008Y-74703254D01*
X124508072Y-74530000D01*
X124508072Y-73030000D01*
X124491008Y-72856746D01*
X124440472Y-72690150D01*
X124358405Y-72536614D01*
X124247962Y-72402038D01*
X124113386Y-72291595D01*
X123959850Y-72209528D01*
X123793254Y-72158992D01*
X123620000Y-72141928D01*
X122420000Y-72141928D01*
X122246746Y-72158992D01*
X122080150Y-72209528D01*
X121926614Y-72291595D01*
X121792038Y-72402038D01*
X121681595Y-72536614D01*
X121627223Y-72638337D01*
X121575134Y-72574866D01*
X121349014Y-72389294D01*
X121091034Y-72251401D01*
X120811111Y-72166487D01*
X120520000Y-72137815D01*
X120228890Y-72166487D01*
X119948967Y-72251401D01*
X119690987Y-72389294D01*
X119464866Y-72574866D01*
X119279294Y-72800986D01*
X119141401Y-73058966D01*
X119056487Y-73338889D01*
X119035000Y-73557050D01*
X111187000Y-73557050D01*
X111187000Y-71027000D01*
X168933000Y-71027000D01*
X168933000Y-113773000D01*
%TA.AperFunction,Conductor*%
D20*
G36*
X168933000Y-113773000D02*
G01*
X111187000Y-113773000D01*
X111187000Y-111000000D01*
X113421928Y-111000000D01*
X113421928Y-112500000D01*
X113438992Y-112673254D01*
X113489528Y-112839850D01*
X113571595Y-112993386D01*
X113682038Y-113127962D01*
X113816614Y-113238405D01*
X113970150Y-113320472D01*
X114136746Y-113371008D01*
X114310000Y-113388072D01*
X115510000Y-113388072D01*
X115683254Y-113371008D01*
X115849850Y-113320472D01*
X116003386Y-113238405D01*
X116137962Y-113127962D01*
X116248405Y-112993386D01*
X116302777Y-112891663D01*
X116354866Y-112955134D01*
X116580987Y-113140706D01*
X116838967Y-113278599D01*
X117118890Y-113363513D01*
X117410000Y-113392185D01*
X117701111Y-113363513D01*
X117981034Y-113278599D01*
X118239014Y-113140706D01*
X118465134Y-112955134D01*
X118650706Y-112729014D01*
X118652851Y-112725000D01*
X124631928Y-112725000D01*
X124644188Y-112849482D01*
X124680498Y-112969180D01*
X124739463Y-113079494D01*
X124818815Y-113176185D01*
X124915506Y-113255537D01*
X125025820Y-113314502D01*
X125145518Y-113350812D01*
X125270000Y-113363072D01*
X125834250Y-113360000D01*
X125993000Y-113201250D01*
X125993000Y-111877000D01*
X124793750Y-111877000D01*
X124635000Y-112035750D01*
X124631928Y-112725000D01*
X118652851Y-112725000D01*
X118788599Y-112471033D01*
X118873513Y-112191110D01*
X118895000Y-111972949D01*
X118895000Y-111527050D01*
X118873513Y-111308889D01*
X118788599Y-111028966D01*
X118652852Y-110775000D01*
X124631928Y-110775000D01*
X124635000Y-111464250D01*
X124793750Y-111623000D01*
X125993000Y-111623000D01*
X125993000Y-110298750D01*
X125834250Y-110140000D01*
X125270000Y-110136928D01*
X125145518Y-110149188D01*
X125025820Y-110185498D01*
X124915506Y-110244463D01*
X124818815Y-110323815D01*
X124739463Y-110420506D01*
X124680498Y-110530820D01*
X124644188Y-110650518D01*
X124631928Y-110775000D01*
X118652852Y-110775000D01*
X118650706Y-110770986D01*
X118465134Y-110544866D01*
X118239013Y-110359294D01*
X117981033Y-110221401D01*
X117701110Y-110136487D01*
X117410000Y-110107815D01*
X117118889Y-110136487D01*
X116838966Y-110221401D01*
X116580986Y-110359294D01*
X116354866Y-110544866D01*
X116302777Y-110608337D01*
X116248405Y-110506614D01*
X116137962Y-110372038D01*
X116003386Y-110261595D01*
X115849850Y-110179528D01*
X115683254Y-110128992D01*
X115510000Y-110111928D01*
X114310000Y-110111928D01*
X114136746Y-110128992D01*
X113970150Y-110179528D01*
X113816614Y-110261595D01*
X113682038Y-110372038D01*
X113571595Y-110506614D01*
X113489528Y-110660150D01*
X113438992Y-110826746D01*
X113421928Y-111000000D01*
X111187000Y-111000000D01*
X111187000Y-106160000D01*
X119581928Y-106160000D01*
X119594188Y-106284482D01*
X119630498Y-106404180D01*
X119689463Y-106514494D01*
X119768815Y-106611185D01*
X119865506Y-106690537D01*
X119975820Y-106749502D01*
X120095518Y-106785812D01*
X120220000Y-106798072D01*
X120784250Y-106795000D01*
X120943000Y-106636250D01*
X120943000Y-105437000D01*
X119743750Y-105437000D01*
X119585000Y-105595750D01*
X119581928Y-106160000D01*
X111187000Y-106160000D01*
X111187000Y-104460000D01*
X119581928Y-104460000D01*
X119585000Y-105024250D01*
X119743750Y-105183000D01*
X120943000Y-105183000D01*
X120943000Y-103983750D01*
X121197000Y-103983750D01*
X121197000Y-105183000D01*
X121217000Y-105183000D01*
X121217000Y-105437000D01*
X121197000Y-105437000D01*
X121197000Y-106636250D01*
X121355750Y-106795000D01*
X121920000Y-106798072D01*
X122044482Y-106785812D01*
X122164180Y-106749502D01*
X122274494Y-106690537D01*
X122371185Y-106611185D01*
X122450537Y-106514494D01*
X122509502Y-106404180D01*
X122531513Y-106331620D01*
X122663368Y-106463475D01*
X122906589Y-106625990D01*
X123176842Y-106737932D01*
X123463740Y-106795000D01*
X123756260Y-106795000D01*
X124043158Y-106737932D01*
X124313411Y-106625990D01*
X124556632Y-106463475D01*
X124763475Y-106256632D01*
X124880000Y-106082240D01*
X124996525Y-106256632D01*
X125203368Y-106463475D01*
X125390000Y-106588179D01*
X125390000Y-107332677D01*
X125386324Y-107370000D01*
X125390000Y-107407322D01*
X125390000Y-107407332D01*
X125400997Y-107518985D01*
X125434365Y-107628985D01*
X125444454Y-107662246D01*
X125515026Y-107794276D01*
X125554871Y-107842826D01*
X125609999Y-107910001D01*
X125639002Y-107933804D01*
X126666200Y-108961002D01*
X126689999Y-108990001D01*
X126805724Y-109084974D01*
X126937753Y-109155546D01*
X127081014Y-109199003D01*
X127192667Y-109210000D01*
X127192675Y-109210000D01*
X127230000Y-109213676D01*
X127267325Y-109210000D01*
X134545199Y-109210000D01*
X135360001Y-110024803D01*
X135360001Y-110347405D01*
X135290986Y-110384294D01*
X135064866Y-110569866D01*
X134879294Y-110795987D01*
X134870000Y-110813374D01*
X134860706Y-110795986D01*
X134675134Y-110569866D01*
X134449013Y-110384294D01*
X134191033Y-110246401D01*
X133911110Y-110161487D01*
X133620000Y-110132815D01*
X133328889Y-110161487D01*
X133048966Y-110246401D01*
X132790986Y-110384294D01*
X132564866Y-110569866D01*
X132379294Y-110795987D01*
X132370000Y-110813374D01*
X132360706Y-110795986D01*
X132175134Y-110569866D01*
X131949013Y-110384294D01*
X131691033Y-110246401D01*
X131411110Y-110161487D01*
X131120000Y-110132815D01*
X130828889Y-110161487D01*
X130548966Y-110246401D01*
X130290986Y-110384294D01*
X130064866Y-110569866D01*
X129879294Y-110795987D01*
X129870000Y-110813374D01*
X129860706Y-110795986D01*
X129675134Y-110569866D01*
X129449013Y-110384294D01*
X129191033Y-110246401D01*
X128911110Y-110161487D01*
X128620000Y-110132815D01*
X128328889Y-110161487D01*
X128048966Y-110246401D01*
X127790986Y-110384294D01*
X127570055Y-110565608D01*
X127559502Y-110530820D01*
X127500537Y-110420506D01*
X127421185Y-110323815D01*
X127324494Y-110244463D01*
X127214180Y-110185498D01*
X127094482Y-110149188D01*
X126970000Y-110136928D01*
X126405750Y-110140000D01*
X126247000Y-110298750D01*
X126247000Y-111623000D01*
X126267000Y-111623000D01*
X126267000Y-111877000D01*
X126247000Y-111877000D01*
X126247000Y-113201250D01*
X126405750Y-113360000D01*
X126970000Y-113363072D01*
X127094482Y-113350812D01*
X127214180Y-113314502D01*
X127324494Y-113255537D01*
X127421185Y-113176185D01*
X127500537Y-113079494D01*
X127559502Y-112969180D01*
X127570055Y-112934392D01*
X127790987Y-113115706D01*
X128048967Y-113253599D01*
X128328890Y-113338513D01*
X128620000Y-113367185D01*
X128911111Y-113338513D01*
X129191034Y-113253599D01*
X129449014Y-113115706D01*
X129675134Y-112930134D01*
X129860706Y-112704014D01*
X129870000Y-112686626D01*
X129879294Y-112704014D01*
X130064866Y-112930134D01*
X130290987Y-113115706D01*
X130548967Y-113253599D01*
X130828890Y-113338513D01*
X131120000Y-113367185D01*
X131411111Y-113338513D01*
X131691034Y-113253599D01*
X131949014Y-113115706D01*
X132175134Y-112930134D01*
X132360706Y-112704014D01*
X132370000Y-112686626D01*
X132379294Y-112704014D01*
X132564866Y-112930134D01*
X132790987Y-113115706D01*
X133048967Y-113253599D01*
X133328890Y-113338513D01*
X133620000Y-113367185D01*
X133911111Y-113338513D01*
X134191034Y-113253599D01*
X134449014Y-113115706D01*
X134675134Y-112930134D01*
X134860706Y-112704014D01*
X134870000Y-112686626D01*
X134879294Y-112704014D01*
X135064866Y-112930134D01*
X135290987Y-113115706D01*
X135548967Y-113253599D01*
X135828890Y-113338513D01*
X136120000Y-113367185D01*
X136411111Y-113338513D01*
X136691034Y-113253599D01*
X136949014Y-113115706D01*
X137175134Y-112930134D01*
X137360706Y-112704014D01*
X137498599Y-112446033D01*
X137583513Y-112166110D01*
X137605000Y-111947949D01*
X137605000Y-111552050D01*
X137583513Y-111333889D01*
X137498599Y-111053966D01*
X137360706Y-110795986D01*
X137175134Y-110569866D01*
X136949013Y-110384294D01*
X136880000Y-110347406D01*
X136880000Y-109747322D01*
X136883676Y-109709999D01*
X136880000Y-109672676D01*
X136880000Y-109672667D01*
X136869003Y-109561014D01*
X136825546Y-109417753D01*
X136776260Y-109325546D01*
X136754974Y-109285723D01*
X136683799Y-109198997D01*
X136660001Y-109169999D01*
X136631003Y-109146201D01*
X135423804Y-107939003D01*
X135400001Y-107909999D01*
X135284276Y-107815026D01*
X135152247Y-107744454D01*
X135008986Y-107700997D01*
X134897333Y-107690000D01*
X134897322Y-107690000D01*
X134860000Y-107686324D01*
X134822678Y-107690000D01*
X127544802Y-107690000D01*
X126910000Y-107055199D01*
X126910000Y-106588178D01*
X127096632Y-106463475D01*
X127303475Y-106256632D01*
X127420000Y-106082240D01*
X127536525Y-106256632D01*
X127743368Y-106463475D01*
X127986589Y-106625990D01*
X128256842Y-106737932D01*
X128543740Y-106795000D01*
X128836260Y-106795000D01*
X129123158Y-106737932D01*
X129393411Y-106625990D01*
X129636632Y-106463475D01*
X129843475Y-106256632D01*
X129960000Y-106082240D01*
X130076525Y-106256632D01*
X130283368Y-106463475D01*
X130526589Y-106625990D01*
X130796842Y-106737932D01*
X131083740Y-106795000D01*
X131376260Y-106795000D01*
X131663158Y-106737932D01*
X131933411Y-106625990D01*
X132176632Y-106463475D01*
X132383475Y-106256632D01*
X132500000Y-106082240D01*
X132616525Y-106256632D01*
X132823368Y-106463475D01*
X133066589Y-106625990D01*
X133336842Y-106737932D01*
X133623740Y-106795000D01*
X133916260Y-106795000D01*
X134203158Y-106737932D01*
X134473411Y-106625990D01*
X134716632Y-106463475D01*
X134923475Y-106256632D01*
X135040000Y-106082240D01*
X135156525Y-106256632D01*
X135363368Y-106463475D01*
X135606589Y-106625990D01*
X135876842Y-106737932D01*
X136163740Y-106795000D01*
X136456260Y-106795000D01*
X136743158Y-106737932D01*
X137013411Y-106625990D01*
X137256632Y-106463475D01*
X137463475Y-106256632D01*
X137580000Y-106082240D01*
X137696525Y-106256632D01*
X137903368Y-106463475D01*
X138090001Y-106588179D01*
X138090001Y-107442668D01*
X138086324Y-107480000D01*
X138090001Y-107517333D01*
X138100998Y-107628986D01*
X138114180Y-107672442D01*
X138144454Y-107772246D01*
X138215026Y-107904276D01*
X138281297Y-107985026D01*
X138310000Y-108020001D01*
X138338998Y-108043799D01*
X141631928Y-111336730D01*
X141631928Y-112500000D01*
X141648992Y-112673254D01*
X141699528Y-112839850D01*
X141781595Y-112993386D01*
X141892038Y-113127962D01*
X142026614Y-113238405D01*
X142180150Y-113320472D01*
X142346746Y-113371008D01*
X142520000Y-113388072D01*
X143720000Y-113388072D01*
X143893254Y-113371008D01*
X144059850Y-113320472D01*
X144213386Y-113238405D01*
X144347962Y-113127962D01*
X144458405Y-112993386D01*
X144512777Y-112891663D01*
X144564866Y-112955134D01*
X144790987Y-113140706D01*
X145048967Y-113278599D01*
X145328890Y-113363513D01*
X145620000Y-113392185D01*
X145911111Y-113363513D01*
X146191034Y-113278599D01*
X146449014Y-113140706D01*
X146675134Y-112955134D01*
X146860706Y-112729014D01*
X146998599Y-112471033D01*
X147083513Y-112191110D01*
X147105000Y-111972949D01*
X147105000Y-111527050D01*
X147083513Y-111308889D01*
X146998599Y-111028966D01*
X146860706Y-110770986D01*
X146675134Y-110544866D01*
X146449013Y-110359294D01*
X146191033Y-110221401D01*
X145911110Y-110136487D01*
X145620000Y-110107815D01*
X145328889Y-110136487D01*
X145048966Y-110221401D01*
X144790986Y-110359294D01*
X144564866Y-110544866D01*
X144512777Y-110608337D01*
X144458405Y-110506614D01*
X144347962Y-110372038D01*
X144213386Y-110261595D01*
X144059850Y-110179528D01*
X143893254Y-110128992D01*
X143720000Y-110111928D01*
X142556730Y-110111928D01*
X139610000Y-107165199D01*
X139610000Y-106588178D01*
X139796632Y-106463475D01*
X140003475Y-106256632D01*
X140120000Y-106082240D01*
X140236525Y-106256632D01*
X140443368Y-106463475D01*
X140630000Y-106588179D01*
X140630000Y-107322677D01*
X140626324Y-107360000D01*
X140630000Y-107397322D01*
X140630000Y-107397332D01*
X140640997Y-107508985D01*
X140677398Y-107628985D01*
X140684454Y-107652246D01*
X140755026Y-107784276D01*
X140780262Y-107815026D01*
X140849999Y-107900001D01*
X140879003Y-107923804D01*
X142086200Y-109131002D01*
X142109999Y-109160001D01*
X142138997Y-109183799D01*
X142225723Y-109254974D01*
X142283250Y-109285723D01*
X142357753Y-109325546D01*
X142501014Y-109369003D01*
X142612667Y-109380000D01*
X142612676Y-109380000D01*
X142649999Y-109383676D01*
X142687322Y-109380000D01*
X150885199Y-109380000D01*
X151885366Y-110380168D01*
X151781595Y-110506614D01*
X151699528Y-110660150D01*
X151648992Y-110826746D01*
X151631928Y-111000000D01*
X151631928Y-112500000D01*
X151648992Y-112673254D01*
X151699528Y-112839850D01*
X151781595Y-112993386D01*
X151892038Y-113127962D01*
X152026614Y-113238405D01*
X152180150Y-113320472D01*
X152346746Y-113371008D01*
X152520000Y-113388072D01*
X153720000Y-113388072D01*
X153893254Y-113371008D01*
X154059850Y-113320472D01*
X154213386Y-113238405D01*
X154347962Y-113127962D01*
X154458405Y-112993386D01*
X154512777Y-112891663D01*
X154564866Y-112955134D01*
X154790987Y-113140706D01*
X155048967Y-113278599D01*
X155328890Y-113363513D01*
X155620000Y-113392185D01*
X155911111Y-113363513D01*
X156191034Y-113278599D01*
X156449014Y-113140706D01*
X156675134Y-112955134D01*
X156860706Y-112729014D01*
X156998599Y-112471033D01*
X157050481Y-112300000D01*
X163966928Y-112300000D01*
X163979188Y-112424482D01*
X164015498Y-112544180D01*
X164074463Y-112654494D01*
X164153815Y-112751185D01*
X164250506Y-112830537D01*
X164360820Y-112889502D01*
X164480518Y-112925812D01*
X164605000Y-112938072D01*
X165294250Y-112935000D01*
X165453000Y-112776250D01*
X165453000Y-111577000D01*
X165707000Y-111577000D01*
X165707000Y-112776250D01*
X165865750Y-112935000D01*
X166555000Y-112938072D01*
X166679482Y-112925812D01*
X166799180Y-112889502D01*
X166909494Y-112830537D01*
X167006185Y-112751185D01*
X167085537Y-112654494D01*
X167144502Y-112544180D01*
X167180812Y-112424482D01*
X167193072Y-112300000D01*
X167190000Y-111735750D01*
X167031250Y-111577000D01*
X165707000Y-111577000D01*
X165453000Y-111577000D01*
X164128750Y-111577000D01*
X163970000Y-111735750D01*
X163966928Y-112300000D01*
X157050481Y-112300000D01*
X157083513Y-112191110D01*
X157105000Y-111972949D01*
X157105000Y-111527050D01*
X157083513Y-111308889D01*
X156998599Y-111028966D01*
X156860706Y-110770986D01*
X156675134Y-110544866D01*
X156449013Y-110359294D01*
X156191033Y-110221401D01*
X155911110Y-110136487D01*
X155620000Y-110107815D01*
X155328889Y-110136487D01*
X155048966Y-110221401D01*
X154790986Y-110359294D01*
X154564866Y-110544866D01*
X154512777Y-110608337D01*
X154458405Y-110506614D01*
X154347962Y-110372038D01*
X154213386Y-110261595D01*
X154059850Y-110179528D01*
X153893254Y-110128992D01*
X153754661Y-110115342D01*
X153683799Y-110028997D01*
X153660001Y-109999999D01*
X153631003Y-109976201D01*
X152284801Y-108630000D01*
X164000250Y-108630000D01*
X163991487Y-108658889D01*
X163962815Y-108950000D01*
X163991487Y-109241111D01*
X164076401Y-109521034D01*
X164214294Y-109779014D01*
X164395608Y-109999945D01*
X164360820Y-110010498D01*
X164250506Y-110069463D01*
X164153815Y-110148815D01*
X164074463Y-110245506D01*
X164015498Y-110355820D01*
X163979188Y-110475518D01*
X163966928Y-110600000D01*
X163970000Y-111164250D01*
X164128750Y-111323000D01*
X165453000Y-111323000D01*
X165453000Y-111303000D01*
X165707000Y-111303000D01*
X165707000Y-111323000D01*
X167031250Y-111323000D01*
X167190000Y-111164250D01*
X167193072Y-110600000D01*
X167180812Y-110475518D01*
X167144502Y-110355820D01*
X167085537Y-110245506D01*
X167006185Y-110148815D01*
X166909494Y-110069463D01*
X166799180Y-110010498D01*
X166764392Y-109999945D01*
X166945706Y-109779014D01*
X167083599Y-109521034D01*
X167168513Y-109241111D01*
X167197185Y-108950000D01*
X167168513Y-108658889D01*
X167083599Y-108378966D01*
X166945706Y-108120986D01*
X166760134Y-107894866D01*
X166534014Y-107709294D01*
X166516626Y-107700000D01*
X166534014Y-107690706D01*
X166760134Y-107505134D01*
X166945706Y-107279014D01*
X167083599Y-107021034D01*
X167168513Y-106741111D01*
X167197185Y-106450000D01*
X167168513Y-106158889D01*
X167083599Y-105878966D01*
X166945706Y-105620986D01*
X166760134Y-105394866D01*
X166534014Y-105209294D01*
X166516626Y-105200000D01*
X166534014Y-105190706D01*
X166760134Y-105005134D01*
X166945706Y-104779014D01*
X167083599Y-104521034D01*
X167168513Y-104241111D01*
X167197185Y-103950000D01*
X167168513Y-103658889D01*
X167083599Y-103378966D01*
X166945706Y-103120986D01*
X166760134Y-102894866D01*
X166534014Y-102709294D01*
X166276034Y-102571401D01*
X165996111Y-102486487D01*
X165777950Y-102465000D01*
X165382050Y-102465000D01*
X165188832Y-102484030D01*
X163896304Y-101191503D01*
X163872501Y-101162499D01*
X163756776Y-101067526D01*
X163624747Y-100996954D01*
X163481486Y-100953497D01*
X163369833Y-100942500D01*
X163369822Y-100942500D01*
X163332500Y-100938824D01*
X163295178Y-100942500D01*
X155376178Y-100942500D01*
X155306188Y-100857217D01*
X155356185Y-100816185D01*
X155435537Y-100719494D01*
X155494502Y-100609180D01*
X155530812Y-100489482D01*
X155543072Y-100365000D01*
X155540000Y-100163250D01*
X155381250Y-100004500D01*
X154557000Y-100004500D01*
X154557000Y-100024500D01*
X154303000Y-100024500D01*
X154303000Y-100004500D01*
X153478750Y-100004500D01*
X153320000Y-100163250D01*
X153316928Y-100365000D01*
X153329188Y-100489482D01*
X153365498Y-100609180D01*
X153424463Y-100719494D01*
X153503815Y-100816185D01*
X153553812Y-100857217D01*
X153464488Y-100966058D01*
X153383577Y-101117433D01*
X153333752Y-101281684D01*
X153316928Y-101452500D01*
X153316928Y-101952500D01*
X153330001Y-102085231D01*
X153330000Y-104031821D01*
X153143368Y-104156525D01*
X152936525Y-104363368D01*
X152820000Y-104537760D01*
X152703475Y-104363368D01*
X152496632Y-104156525D01*
X152253411Y-103994010D01*
X151983158Y-103882068D01*
X151696260Y-103825000D01*
X151403740Y-103825000D01*
X151116842Y-103882068D01*
X150846589Y-103994010D01*
X150603368Y-104156525D01*
X150396525Y-104363368D01*
X150280000Y-104537760D01*
X150163475Y-104363368D01*
X149956632Y-104156525D01*
X149713411Y-103994010D01*
X149443158Y-103882068D01*
X149156260Y-103825000D01*
X148863740Y-103825000D01*
X148576842Y-103882068D01*
X148306589Y-103994010D01*
X148063368Y-104156525D01*
X147856525Y-104363368D01*
X147740000Y-104537760D01*
X147623475Y-104363368D01*
X147416632Y-104156525D01*
X147230000Y-104031822D01*
X147230000Y-102818654D01*
X147263942Y-102800512D01*
X147396623Y-102691623D01*
X147505512Y-102558942D01*
X147586423Y-102407567D01*
X147636248Y-102243316D01*
X147653072Y-102072500D01*
X147653072Y-101572500D01*
X147636248Y-101401684D01*
X147586423Y-101237433D01*
X147505512Y-101086058D01*
X147416188Y-100977217D01*
X147466185Y-100936185D01*
X147545537Y-100839494D01*
X147604502Y-100729180D01*
X147640812Y-100609482D01*
X147653072Y-100485000D01*
X147650000Y-100283250D01*
X147491250Y-100124500D01*
X146667000Y-100124500D01*
X146667000Y-100144500D01*
X146413000Y-100144500D01*
X146413000Y-100124500D01*
X145588750Y-100124500D01*
X145430000Y-100283250D01*
X145426928Y-100485000D01*
X145439188Y-100609482D01*
X145475498Y-100729180D01*
X145534463Y-100839494D01*
X145613815Y-100936185D01*
X145663812Y-100977217D01*
X145574488Y-101086058D01*
X145493577Y-101237433D01*
X145443752Y-101401684D01*
X145426928Y-101572500D01*
X145426928Y-102072500D01*
X145443752Y-102243316D01*
X145493577Y-102407567D01*
X145574488Y-102558942D01*
X145683377Y-102691623D01*
X145710001Y-102713473D01*
X145710000Y-104031821D01*
X145523368Y-104156525D01*
X145316525Y-104363368D01*
X145200000Y-104537760D01*
X145083475Y-104363368D01*
X144876632Y-104156525D01*
X144633411Y-103994010D01*
X144363158Y-103882068D01*
X144076260Y-103825000D01*
X143783740Y-103825000D01*
X143563592Y-103868791D01*
X143520000Y-103825199D01*
X143520000Y-102910920D01*
X143616623Y-102831623D01*
X143725512Y-102698942D01*
X143806423Y-102547567D01*
X143856248Y-102383316D01*
X143873072Y-102212500D01*
X143873072Y-101712500D01*
X143856248Y-101541684D01*
X143806423Y-101377433D01*
X143725512Y-101226058D01*
X143616623Y-101093377D01*
X143563768Y-101050000D01*
X143616623Y-101006623D01*
X143725512Y-100873942D01*
X143806423Y-100722567D01*
X143851790Y-100573011D01*
X144139801Y-100285000D01*
X144201939Y-100285000D01*
X144401898Y-100245226D01*
X144590256Y-100167205D01*
X144759774Y-100053937D01*
X144903937Y-99909774D01*
X145017205Y-99740256D01*
X145095226Y-99551898D01*
X145103559Y-99510000D01*
X145426928Y-99510000D01*
X145430000Y-99711750D01*
X145588750Y-99870500D01*
X146413000Y-99870500D01*
X146413000Y-99033750D01*
X146667000Y-99033750D01*
X146667000Y-99870500D01*
X147491250Y-99870500D01*
X147650000Y-99711750D01*
X147653072Y-99510000D01*
X147641254Y-99390000D01*
X153316928Y-99390000D01*
X153320000Y-99591750D01*
X153478750Y-99750500D01*
X154303000Y-99750500D01*
X154303000Y-98913750D01*
X154557000Y-98913750D01*
X154557000Y-99750500D01*
X155381250Y-99750500D01*
X155540000Y-99591750D01*
X155543072Y-99390000D01*
X155530812Y-99265518D01*
X155494502Y-99145820D01*
X155435537Y-99035506D01*
X155356185Y-98938815D01*
X155259494Y-98859463D01*
X155149180Y-98800498D01*
X155029482Y-98764188D01*
X154905000Y-98751928D01*
X154715750Y-98755000D01*
X154557000Y-98913750D01*
X154303000Y-98913750D01*
X154144250Y-98755000D01*
X153955000Y-98751928D01*
X153830518Y-98764188D01*
X153710820Y-98800498D01*
X153600506Y-98859463D01*
X153503815Y-98938815D01*
X153424463Y-99035506D01*
X153365498Y-99145820D01*
X153329188Y-99265518D01*
X153316928Y-99390000D01*
X147641254Y-99390000D01*
X147640812Y-99385518D01*
X147604502Y-99265820D01*
X147545537Y-99155506D01*
X147466185Y-99058815D01*
X147369494Y-98979463D01*
X147259180Y-98920498D01*
X147139482Y-98884188D01*
X147015000Y-98871928D01*
X146825750Y-98875000D01*
X146667000Y-99033750D01*
X146413000Y-99033750D01*
X146254250Y-98875000D01*
X146065000Y-98871928D01*
X145940518Y-98884188D01*
X145820820Y-98920498D01*
X145710506Y-98979463D01*
X145613815Y-99058815D01*
X145534463Y-99155506D01*
X145475498Y-99265820D01*
X145439188Y-99385518D01*
X145426928Y-99510000D01*
X145103559Y-99510000D01*
X145135000Y-99351939D01*
X145135000Y-99148061D01*
X145095226Y-98948102D01*
X145017205Y-98759744D01*
X144903937Y-98590226D01*
X144759774Y-98446063D01*
X144590256Y-98332795D01*
X144401898Y-98254774D01*
X144201939Y-98215000D01*
X143998061Y-98215000D01*
X143798102Y-98254774D01*
X143609744Y-98332795D01*
X143440226Y-98446063D01*
X143296063Y-98590226D01*
X143182795Y-98759744D01*
X143104774Y-98948102D01*
X143090261Y-99021064D01*
X142997500Y-99011928D01*
X142522500Y-99011928D01*
X142351684Y-99028752D01*
X142187433Y-99078577D01*
X142036058Y-99159488D01*
X141903377Y-99268377D01*
X141871269Y-99307500D01*
X140316178Y-99307500D01*
X140226623Y-99198377D01*
X140093942Y-99089488D01*
X139942567Y-99008577D01*
X139778316Y-98958752D01*
X139607500Y-98941928D01*
X139132500Y-98941928D01*
X138961684Y-98958752D01*
X138797433Y-99008577D01*
X138646058Y-99089488D01*
X138513377Y-99198377D01*
X138497683Y-99217500D01*
X137256178Y-99217500D01*
X137166623Y-99108377D01*
X137033942Y-98999488D01*
X136882567Y-98918577D01*
X136718316Y-98868752D01*
X136547500Y-98851928D01*
X136072500Y-98851928D01*
X135901684Y-98868752D01*
X135737433Y-98918577D01*
X135586058Y-98999488D01*
X135453377Y-99108377D01*
X135344488Y-99241058D01*
X135263577Y-99392433D01*
X135213752Y-99556684D01*
X135196928Y-99727500D01*
X135196928Y-100227500D01*
X135213752Y-100398316D01*
X135263577Y-100562567D01*
X135344488Y-100713942D01*
X135453377Y-100846623D01*
X135506232Y-100890000D01*
X135453377Y-100933377D01*
X135344488Y-101066058D01*
X135263577Y-101217433D01*
X135213752Y-101381684D01*
X135196928Y-101552500D01*
X135196928Y-102052500D01*
X135213752Y-102223316D01*
X135263577Y-102387567D01*
X135344488Y-102538942D01*
X135453377Y-102671623D01*
X135548338Y-102749556D01*
X135546324Y-102770000D01*
X135550001Y-102807333D01*
X135560998Y-102918986D01*
X135574180Y-102962442D01*
X135604454Y-103062246D01*
X135675026Y-103194276D01*
X135746201Y-103281002D01*
X135770000Y-103310001D01*
X135798998Y-103333799D01*
X136290199Y-103825000D01*
X136163740Y-103825000D01*
X135876842Y-103882068D01*
X135606589Y-103994010D01*
X135363368Y-104156525D01*
X135156525Y-104363368D01*
X135040000Y-104537760D01*
X134923475Y-104363368D01*
X134716632Y-104156525D01*
X134473411Y-103994010D01*
X134203158Y-103882068D01*
X133916260Y-103825000D01*
X133623740Y-103825000D01*
X133336842Y-103882068D01*
X133066589Y-103994010D01*
X132823368Y-104156525D01*
X132616525Y-104363368D01*
X132500000Y-104537760D01*
X132383475Y-104363368D01*
X132176632Y-104156525D01*
X131933411Y-103994010D01*
X131820000Y-103947034D01*
X131820000Y-102760920D01*
X131916623Y-102681623D01*
X132025512Y-102548942D01*
X132106423Y-102397567D01*
X132156248Y-102233316D01*
X132173072Y-102062500D01*
X132173072Y-101562500D01*
X132156248Y-101391684D01*
X132106423Y-101227433D01*
X132025512Y-101076058D01*
X131936188Y-100967217D01*
X131986185Y-100926185D01*
X132065537Y-100829494D01*
X132124502Y-100719180D01*
X132160812Y-100599482D01*
X132173072Y-100475000D01*
X132170000Y-100273250D01*
X132011250Y-100114500D01*
X131187000Y-100114500D01*
X131187000Y-100134500D01*
X130933000Y-100134500D01*
X130933000Y-100114500D01*
X130108750Y-100114500D01*
X129950000Y-100273250D01*
X129946928Y-100475000D01*
X129959188Y-100599482D01*
X129995498Y-100719180D01*
X130054463Y-100829494D01*
X130133815Y-100926185D01*
X130183812Y-100967217D01*
X130094488Y-101076058D01*
X130013577Y-101227433D01*
X129963752Y-101391684D01*
X129946928Y-101562500D01*
X129946928Y-102062500D01*
X129963752Y-102233316D01*
X130013577Y-102397567D01*
X130094488Y-102548942D01*
X130203377Y-102681623D01*
X130300000Y-102760920D01*
X130300001Y-104145411D01*
X130283368Y-104156525D01*
X130076525Y-104363368D01*
X129960000Y-104537760D01*
X129843475Y-104363368D01*
X129636632Y-104156525D01*
X129393411Y-103994010D01*
X129123158Y-103882068D01*
X128836260Y-103825000D01*
X128543740Y-103825000D01*
X128256842Y-103882068D01*
X127986589Y-103994010D01*
X127743368Y-104156525D01*
X127536525Y-104363368D01*
X127420000Y-104537760D01*
X127303475Y-104363368D01*
X127096632Y-104156525D01*
X126980000Y-104078594D01*
X126980000Y-102890920D01*
X127076623Y-102811623D01*
X127185512Y-102678942D01*
X127266423Y-102527567D01*
X127316248Y-102363316D01*
X127333072Y-102192500D01*
X127333072Y-101692500D01*
X127316248Y-101521684D01*
X127266423Y-101357433D01*
X127185512Y-101206058D01*
X127076623Y-101073377D01*
X127023768Y-101030000D01*
X127076623Y-100986623D01*
X127185512Y-100853942D01*
X127266423Y-100702567D01*
X127316248Y-100538316D01*
X127333072Y-100367500D01*
X127333072Y-99867500D01*
X127316248Y-99696684D01*
X127266423Y-99532433D01*
X127249088Y-99500000D01*
X129946928Y-99500000D01*
X129950000Y-99701750D01*
X130108750Y-99860500D01*
X130933000Y-99860500D01*
X130933000Y-99023750D01*
X131187000Y-99023750D01*
X131187000Y-99860500D01*
X132011250Y-99860500D01*
X132170000Y-99701750D01*
X132173072Y-99500000D01*
X132160812Y-99375518D01*
X132124502Y-99255820D01*
X132065537Y-99145506D01*
X131986185Y-99048815D01*
X131889494Y-98969463D01*
X131779180Y-98910498D01*
X131659482Y-98874188D01*
X131535000Y-98861928D01*
X131345750Y-98865000D01*
X131187000Y-99023750D01*
X130933000Y-99023750D01*
X130774250Y-98865000D01*
X130585000Y-98861928D01*
X130460518Y-98874188D01*
X130340820Y-98910498D01*
X130230506Y-98969463D01*
X130133815Y-99048815D01*
X130054463Y-99145506D01*
X129995498Y-99255820D01*
X129959188Y-99375518D01*
X129946928Y-99500000D01*
X127249088Y-99500000D01*
X127185512Y-99381058D01*
X127076623Y-99248377D01*
X126943942Y-99139488D01*
X126792567Y-99058577D01*
X126628316Y-99008752D01*
X126457500Y-98991928D01*
X126386730Y-98991928D01*
X126015000Y-98620199D01*
X126015000Y-98558061D01*
X125975226Y-98358102D01*
X125897205Y-98169744D01*
X125783937Y-98000226D01*
X125639774Y-97856063D01*
X125470256Y-97742795D01*
X125281898Y-97664774D01*
X125081939Y-97625000D01*
X124878061Y-97625000D01*
X124678102Y-97664774D01*
X124489744Y-97742795D01*
X124320226Y-97856063D01*
X124176063Y-98000226D01*
X124062795Y-98169744D01*
X123984774Y-98358102D01*
X123945000Y-98558061D01*
X123945000Y-98761939D01*
X123984774Y-98961898D01*
X124062795Y-99150256D01*
X124176063Y-99319774D01*
X124320226Y-99463937D01*
X124489744Y-99577205D01*
X124678102Y-99655226D01*
X124878061Y-99695000D01*
X124940199Y-99695000D01*
X125107445Y-99862247D01*
X125106928Y-99867500D01*
X125106928Y-100367500D01*
X125123752Y-100538316D01*
X125173577Y-100702567D01*
X125254488Y-100853942D01*
X125363377Y-100986623D01*
X125416232Y-101030000D01*
X125363377Y-101073377D01*
X125254488Y-101206058D01*
X125173577Y-101357433D01*
X125123752Y-101521684D01*
X125106928Y-101692500D01*
X125106928Y-102192500D01*
X125123752Y-102363316D01*
X125173577Y-102527567D01*
X125254488Y-102678942D01*
X125363377Y-102811623D01*
X125460000Y-102890920D01*
X125460001Y-103988455D01*
X125446589Y-103994010D01*
X125203368Y-104156525D01*
X124996525Y-104363368D01*
X124880000Y-104537760D01*
X124763475Y-104363368D01*
X124556632Y-104156525D01*
X124313411Y-103994010D01*
X124043158Y-103882068D01*
X123756260Y-103825000D01*
X123463740Y-103825000D01*
X123176842Y-103882068D01*
X122906589Y-103994010D01*
X122663368Y-104156525D01*
X122531513Y-104288380D01*
X122509502Y-104215820D01*
X122450537Y-104105506D01*
X122371185Y-104008815D01*
X122274494Y-103929463D01*
X122164180Y-103870498D01*
X122044482Y-103834188D01*
X121920000Y-103821928D01*
X121355750Y-103825000D01*
X121197000Y-103983750D01*
X120943000Y-103983750D01*
X120784250Y-103825000D01*
X120220000Y-103821928D01*
X120095518Y-103834188D01*
X119975820Y-103870498D01*
X119865506Y-103929463D01*
X119768815Y-104008815D01*
X119689463Y-104105506D01*
X119630498Y-104215820D01*
X119594188Y-104335518D01*
X119581928Y-104460000D01*
X111187000Y-104460000D01*
X111187000Y-85480000D01*
X125046928Y-85480000D01*
X125059188Y-85604482D01*
X125095498Y-85724180D01*
X125154463Y-85834494D01*
X125233815Y-85931185D01*
X125330506Y-86010537D01*
X125440820Y-86069502D01*
X125560518Y-86105812D01*
X125685000Y-86118072D01*
X125874250Y-86115000D01*
X126033000Y-85956250D01*
X126033000Y-85119500D01*
X126287000Y-85119500D01*
X126287000Y-85956250D01*
X126445750Y-86115000D01*
X126635000Y-86118072D01*
X126759482Y-86105812D01*
X126879180Y-86069502D01*
X126989494Y-86010537D01*
X127086185Y-85931185D01*
X127165537Y-85834494D01*
X127224502Y-85724180D01*
X127260812Y-85604482D01*
X127273072Y-85480000D01*
X127586928Y-85480000D01*
X127599188Y-85604482D01*
X127635498Y-85724180D01*
X127694463Y-85834494D01*
X127773815Y-85931185D01*
X127870506Y-86010537D01*
X127980820Y-86069502D01*
X128100518Y-86105812D01*
X128225000Y-86118072D01*
X128414250Y-86115000D01*
X128573000Y-85956250D01*
X128573000Y-85119500D01*
X128827000Y-85119500D01*
X128827000Y-85956250D01*
X128985750Y-86115000D01*
X129175000Y-86118072D01*
X129299482Y-86105812D01*
X129419180Y-86069502D01*
X129529494Y-86010537D01*
X129626185Y-85931185D01*
X129705537Y-85834494D01*
X129764502Y-85724180D01*
X129800812Y-85604482D01*
X129813072Y-85480000D01*
X130126928Y-85480000D01*
X130139188Y-85604482D01*
X130175498Y-85724180D01*
X130234463Y-85834494D01*
X130313815Y-85931185D01*
X130410506Y-86010537D01*
X130520820Y-86069502D01*
X130640518Y-86105812D01*
X130765000Y-86118072D01*
X130954250Y-86115000D01*
X131113000Y-85956250D01*
X131113000Y-85119500D01*
X131367000Y-85119500D01*
X131367000Y-85956250D01*
X131525750Y-86115000D01*
X131715000Y-86118072D01*
X131839482Y-86105812D01*
X131959180Y-86069502D01*
X132069494Y-86010537D01*
X132166185Y-85931185D01*
X132245537Y-85834494D01*
X132304502Y-85724180D01*
X132340812Y-85604482D01*
X132353072Y-85480000D01*
X132350000Y-85278250D01*
X132191250Y-85119500D01*
X131367000Y-85119500D01*
X131113000Y-85119500D01*
X130288750Y-85119500D01*
X130130000Y-85278250D01*
X130126928Y-85480000D01*
X129813072Y-85480000D01*
X129810000Y-85278250D01*
X129651250Y-85119500D01*
X128827000Y-85119500D01*
X128573000Y-85119500D01*
X127748750Y-85119500D01*
X127590000Y-85278250D01*
X127586928Y-85480000D01*
X127273072Y-85480000D01*
X127270000Y-85278250D01*
X127111250Y-85119500D01*
X126287000Y-85119500D01*
X126033000Y-85119500D01*
X125208750Y-85119500D01*
X125050000Y-85278250D01*
X125046928Y-85480000D01*
X111187000Y-85480000D01*
X111187000Y-73557050D01*
X119035000Y-73557050D01*
X119035000Y-74002949D01*
X119056487Y-74221110D01*
X119141401Y-74501033D01*
X119279294Y-74759013D01*
X119464866Y-74985134D01*
X119690986Y-75170706D01*
X119948966Y-75308599D01*
X120228889Y-75393513D01*
X120380139Y-75408410D01*
X120364454Y-75437754D01*
X120320998Y-75581015D01*
X120306324Y-75730000D01*
X120310001Y-75767332D01*
X120310000Y-78421928D01*
X120220000Y-78421928D01*
X120095518Y-78434188D01*
X119975820Y-78470498D01*
X119865506Y-78529463D01*
X119768815Y-78608815D01*
X119689463Y-78705506D01*
X119630498Y-78815820D01*
X119594188Y-78935518D01*
X119581928Y-79060000D01*
X119581928Y-80760000D01*
X119594188Y-80884482D01*
X119630498Y-81004180D01*
X119689463Y-81114494D01*
X119768815Y-81211185D01*
X119865506Y-81290537D01*
X119975820Y-81349502D01*
X120095518Y-81385812D01*
X120220000Y-81398072D01*
X121920000Y-81398072D01*
X122044482Y-81385812D01*
X122164180Y-81349502D01*
X122274494Y-81290537D01*
X122371185Y-81211185D01*
X122450537Y-81114494D01*
X122509502Y-81004180D01*
X122531513Y-80931620D01*
X122663368Y-81063475D01*
X122906589Y-81225990D01*
X123176842Y-81337932D01*
X123463740Y-81395000D01*
X123756260Y-81395000D01*
X124043158Y-81337932D01*
X124313411Y-81225990D01*
X124556632Y-81063475D01*
X124763475Y-80856632D01*
X124880000Y-80682240D01*
X124996525Y-80856632D01*
X125203368Y-81063475D01*
X125390000Y-81188179D01*
X125390001Y-82227286D01*
X125303377Y-82298377D01*
X125194488Y-82431058D01*
X125113577Y-82582433D01*
X125063752Y-82746684D01*
X125046928Y-82917500D01*
X125046928Y-83417500D01*
X125063752Y-83588316D01*
X125113577Y-83752567D01*
X125194488Y-83903942D01*
X125283812Y-84012783D01*
X125233815Y-84053815D01*
X125154463Y-84150506D01*
X125095498Y-84260820D01*
X125059188Y-84380518D01*
X125046928Y-84505000D01*
X125050000Y-84706750D01*
X125208750Y-84865500D01*
X126033000Y-84865500D01*
X126033000Y-84845500D01*
X126287000Y-84845500D01*
X126287000Y-84865500D01*
X127111250Y-84865500D01*
X127270000Y-84706750D01*
X127273072Y-84505000D01*
X127260812Y-84380518D01*
X127224502Y-84260820D01*
X127165537Y-84150506D01*
X127086185Y-84053815D01*
X127036188Y-84012783D01*
X127125512Y-83903942D01*
X127206423Y-83752567D01*
X127256248Y-83588316D01*
X127273072Y-83417500D01*
X127273072Y-82917500D01*
X127256248Y-82746684D01*
X127206423Y-82582433D01*
X127125512Y-82431058D01*
X127016623Y-82298377D01*
X126910000Y-82210873D01*
X126910000Y-81188178D01*
X127096632Y-81063475D01*
X127303475Y-80856632D01*
X127420000Y-80682240D01*
X127536525Y-80856632D01*
X127743368Y-81063475D01*
X127930000Y-81188179D01*
X127930001Y-82227286D01*
X127843377Y-82298377D01*
X127734488Y-82431058D01*
X127653577Y-82582433D01*
X127603752Y-82746684D01*
X127586928Y-82917500D01*
X127586928Y-83417500D01*
X127603752Y-83588316D01*
X127653577Y-83752567D01*
X127734488Y-83903942D01*
X127823812Y-84012783D01*
X127773815Y-84053815D01*
X127694463Y-84150506D01*
X127635498Y-84260820D01*
X127599188Y-84380518D01*
X127586928Y-84505000D01*
X127590000Y-84706750D01*
X127748750Y-84865500D01*
X128573000Y-84865500D01*
X128573000Y-84845500D01*
X128827000Y-84845500D01*
X128827000Y-84865500D01*
X129651250Y-84865500D01*
X129810000Y-84706750D01*
X129813072Y-84505000D01*
X129800812Y-84380518D01*
X129764502Y-84260820D01*
X129705537Y-84150506D01*
X129626185Y-84053815D01*
X129576188Y-84012783D01*
X129665512Y-83903942D01*
X129746423Y-83752567D01*
X129796248Y-83588316D01*
X129813072Y-83417500D01*
X129813072Y-82917500D01*
X129796248Y-82746684D01*
X129746423Y-82582433D01*
X129665512Y-82431058D01*
X129556623Y-82298377D01*
X129450000Y-82210873D01*
X129450000Y-81188178D01*
X129636632Y-81063475D01*
X129843475Y-80856632D01*
X129960000Y-80682240D01*
X130076525Y-80856632D01*
X130283368Y-81063475D01*
X130470000Y-81188179D01*
X130470001Y-82227286D01*
X130383377Y-82298377D01*
X130274488Y-82431058D01*
X130193577Y-82582433D01*
X130143752Y-82746684D01*
X130126928Y-82917500D01*
X130126928Y-83417500D01*
X130143752Y-83588316D01*
X130193577Y-83752567D01*
X130274488Y-83903942D01*
X130363812Y-84012783D01*
X130313815Y-84053815D01*
X130234463Y-84150506D01*
X130175498Y-84260820D01*
X130139188Y-84380518D01*
X130126928Y-84505000D01*
X130130000Y-84706750D01*
X130288750Y-84865500D01*
X131113000Y-84865500D01*
X131113000Y-84845500D01*
X131367000Y-84845500D01*
X131367000Y-84865500D01*
X132191250Y-84865500D01*
X132350000Y-84706750D01*
X132353072Y-84505000D01*
X132340812Y-84380518D01*
X132304502Y-84260820D01*
X132245537Y-84150506D01*
X132166185Y-84053815D01*
X132116188Y-84012783D01*
X132205512Y-83903942D01*
X132286423Y-83752567D01*
X132336248Y-83588316D01*
X132353072Y-83417500D01*
X132353072Y-82917500D01*
X132336248Y-82746684D01*
X132286423Y-82582433D01*
X132205512Y-82431058D01*
X132096623Y-82298377D01*
X131990000Y-82210873D01*
X131990000Y-81188178D01*
X132176632Y-81063475D01*
X132383475Y-80856632D01*
X132500000Y-80682240D01*
X132616525Y-80856632D01*
X132823368Y-81063475D01*
X133066589Y-81225990D01*
X133336842Y-81337932D01*
X133623740Y-81395000D01*
X133916260Y-81395000D01*
X134203158Y-81337932D01*
X134473411Y-81225990D01*
X134716632Y-81063475D01*
X134923475Y-80856632D01*
X135040000Y-80682240D01*
X135156525Y-80856632D01*
X135363368Y-81063475D01*
X135606589Y-81225990D01*
X135876842Y-81337932D01*
X136163740Y-81395000D01*
X136456260Y-81395000D01*
X136743158Y-81337932D01*
X137013411Y-81225990D01*
X137256632Y-81063475D01*
X137463475Y-80856632D01*
X137580000Y-80682240D01*
X137696525Y-80856632D01*
X137903368Y-81063475D01*
X138146589Y-81225990D01*
X138416842Y-81337932D01*
X138703740Y-81395000D01*
X138996260Y-81395000D01*
X139283158Y-81337932D01*
X139553411Y-81225990D01*
X139796632Y-81063475D01*
X140003475Y-80856632D01*
X140120000Y-80682240D01*
X140236525Y-80856632D01*
X140443368Y-81063475D01*
X140686589Y-81225990D01*
X140956842Y-81337932D01*
X141243740Y-81395000D01*
X141536260Y-81395000D01*
X141823158Y-81337932D01*
X142093411Y-81225990D01*
X142336632Y-81063475D01*
X142543475Y-80856632D01*
X142660000Y-80682240D01*
X142776525Y-80856632D01*
X142983368Y-81063475D01*
X143170001Y-81188179D01*
X143170001Y-81667697D01*
X142080771Y-82756928D01*
X141792500Y-82756928D01*
X141621684Y-82773752D01*
X141457433Y-82823577D01*
X141306058Y-82904488D01*
X141173377Y-83013377D01*
X141130000Y-83066232D01*
X141086623Y-83013377D01*
X140953942Y-82904488D01*
X140802567Y-82823577D01*
X140638316Y-82773752D01*
X140467500Y-82756928D01*
X139967500Y-82756928D01*
X139796684Y-82773752D01*
X139632433Y-82823577D01*
X139481058Y-82904488D01*
X139348377Y-83013377D01*
X139239488Y-83146058D01*
X139158577Y-83297433D01*
X139108752Y-83461684D01*
X139091928Y-83632500D01*
X139091928Y-83920769D01*
X133672699Y-89340000D01*
X128397322Y-89340000D01*
X128359999Y-89336324D01*
X128322677Y-89340000D01*
X128322667Y-89340000D01*
X128211014Y-89350997D01*
X128067753Y-89394454D01*
X127935723Y-89465026D01*
X127852083Y-89533668D01*
X127819999Y-89559999D01*
X127796201Y-89588997D01*
X124780199Y-92605000D01*
X124718061Y-92605000D01*
X124518102Y-92644774D01*
X124329744Y-92722795D01*
X124160226Y-92836063D01*
X124016063Y-92980226D01*
X123902795Y-93149744D01*
X123824774Y-93338102D01*
X123785000Y-93538061D01*
X123785000Y-93741939D01*
X123824774Y-93941898D01*
X123902795Y-94130256D01*
X124016063Y-94299774D01*
X124160226Y-94443937D01*
X124329744Y-94557205D01*
X124518102Y-94635226D01*
X124718061Y-94675000D01*
X124921939Y-94675000D01*
X125121898Y-94635226D01*
X125310256Y-94557205D01*
X125479774Y-94443937D01*
X125623937Y-94299774D01*
X125737205Y-94130256D01*
X125815226Y-93941898D01*
X125855000Y-93741939D01*
X125855000Y-93679801D01*
X128674802Y-90860000D01*
X133950178Y-90860000D01*
X133987500Y-90863676D01*
X134024822Y-90860000D01*
X134024833Y-90860000D01*
X134136486Y-90849003D01*
X134279747Y-90805546D01*
X134411776Y-90734974D01*
X134527501Y-90640001D01*
X134551304Y-90610997D01*
X135294240Y-89868061D01*
X148335000Y-89868061D01*
X148335000Y-90071939D01*
X148374774Y-90271898D01*
X148452795Y-90460256D01*
X148496055Y-90525000D01*
X148452795Y-90589744D01*
X148374774Y-90778102D01*
X148335000Y-90978061D01*
X148335000Y-91181939D01*
X148374774Y-91381898D01*
X148452795Y-91570256D01*
X148499396Y-91640000D01*
X148452795Y-91709744D01*
X148374774Y-91898102D01*
X148335000Y-92098061D01*
X148335000Y-92301939D01*
X148374774Y-92501898D01*
X148452795Y-92690256D01*
X148566063Y-92859774D01*
X148710226Y-93003937D01*
X148879744Y-93117205D01*
X149068102Y-93195226D01*
X149268061Y-93235000D01*
X149471939Y-93235000D01*
X149671898Y-93195226D01*
X149860256Y-93117205D01*
X150029774Y-93003937D01*
X150073711Y-92960000D01*
X162985199Y-92960000D01*
X164063296Y-94038098D01*
X164011487Y-94208889D01*
X163982815Y-94500000D01*
X164011487Y-94791111D01*
X164096401Y-95071034D01*
X164234294Y-95329014D01*
X164419866Y-95555134D01*
X164483337Y-95607223D01*
X164381614Y-95661595D01*
X164247038Y-95772038D01*
X164136595Y-95906614D01*
X164054528Y-96060150D01*
X164003992Y-96226746D01*
X163986928Y-96400000D01*
X163986928Y-97600000D01*
X164003992Y-97773254D01*
X164054528Y-97939850D01*
X164136595Y-98093386D01*
X164247038Y-98227962D01*
X164381614Y-98338405D01*
X164535150Y-98420472D01*
X164701746Y-98471008D01*
X164875000Y-98488072D01*
X166325000Y-98488072D01*
X166498254Y-98471008D01*
X166664850Y-98420472D01*
X166818386Y-98338405D01*
X166952962Y-98227962D01*
X167063405Y-98093386D01*
X167145472Y-97939850D01*
X167196008Y-97773254D01*
X167213072Y-97600000D01*
X167213072Y-96400000D01*
X167196008Y-96226746D01*
X167145472Y-96060150D01*
X167063405Y-95906614D01*
X166952962Y-95772038D01*
X166818386Y-95661595D01*
X166716663Y-95607223D01*
X166780134Y-95555134D01*
X166965706Y-95329014D01*
X167103599Y-95071034D01*
X167188513Y-94791111D01*
X167217185Y-94500000D01*
X167188513Y-94208889D01*
X167103599Y-93928966D01*
X166965706Y-93670986D01*
X166780134Y-93444866D01*
X166554014Y-93259294D01*
X166536626Y-93250000D01*
X166554014Y-93240706D01*
X166780134Y-93055134D01*
X166965706Y-92829014D01*
X167103599Y-92571034D01*
X167188513Y-92291111D01*
X167217185Y-92000000D01*
X167188513Y-91708889D01*
X167103599Y-91428966D01*
X166965706Y-91170986D01*
X166780134Y-90944866D01*
X166554014Y-90759294D01*
X166536626Y-90750000D01*
X166554014Y-90740706D01*
X166780134Y-90555134D01*
X166965706Y-90329014D01*
X167103599Y-90071034D01*
X167188513Y-89791111D01*
X167217185Y-89500000D01*
X167188513Y-89208889D01*
X167103599Y-88928966D01*
X166965706Y-88670986D01*
X166780134Y-88444866D01*
X166554014Y-88259294D01*
X166536626Y-88250000D01*
X166554014Y-88240706D01*
X166780134Y-88055134D01*
X166965706Y-87829014D01*
X167103599Y-87571034D01*
X167188513Y-87291111D01*
X167217185Y-87000000D01*
X167188513Y-86708889D01*
X167103599Y-86428966D01*
X166965706Y-86170986D01*
X166780134Y-85944866D01*
X166554014Y-85759294D01*
X166296034Y-85621401D01*
X166016111Y-85536487D01*
X165797950Y-85515000D01*
X165402050Y-85515000D01*
X165183889Y-85536487D01*
X164903966Y-85621401D01*
X164645986Y-85759294D01*
X164419866Y-85944866D01*
X164234294Y-86170986D01*
X164096401Y-86428966D01*
X164011487Y-86708889D01*
X163982815Y-87000000D01*
X164011487Y-87291111D01*
X164096401Y-87571034D01*
X164234294Y-87829014D01*
X164419866Y-88055134D01*
X164645986Y-88240706D01*
X164663374Y-88250000D01*
X164645986Y-88259294D01*
X164419866Y-88444866D01*
X164234294Y-88670986D01*
X164096401Y-88928966D01*
X164011487Y-89208889D01*
X164011378Y-89210000D01*
X150073711Y-89210000D01*
X150029774Y-89166063D01*
X149860256Y-89052795D01*
X149671898Y-88974774D01*
X149471939Y-88935000D01*
X149268061Y-88935000D01*
X149068102Y-88974774D01*
X148879744Y-89052795D01*
X148710226Y-89166063D01*
X148566063Y-89310226D01*
X148452795Y-89479744D01*
X148374774Y-89668102D01*
X148335000Y-89868061D01*
X135294240Y-89868061D01*
X139107428Y-86054874D01*
X139108752Y-86068316D01*
X139158577Y-86232567D01*
X139239488Y-86383942D01*
X139348377Y-86516623D01*
X139481058Y-86625512D01*
X139521143Y-86646938D01*
X139582526Y-86761776D01*
X139653701Y-86848502D01*
X139677500Y-86877501D01*
X139706498Y-86901299D01*
X140356201Y-87551002D01*
X140379999Y-87580001D01*
X140408997Y-87603799D01*
X140495723Y-87674974D01*
X140627753Y-87745546D01*
X140771014Y-87789003D01*
X140882667Y-87800000D01*
X140882676Y-87800000D01*
X140919999Y-87803676D01*
X140957322Y-87800000D01*
X143046289Y-87800000D01*
X143090226Y-87843937D01*
X143259744Y-87957205D01*
X143448102Y-88035226D01*
X143648061Y-88075000D01*
X143851939Y-88075000D01*
X144051898Y-88035226D01*
X144240256Y-87957205D01*
X144409774Y-87843937D01*
X144553937Y-87699774D01*
X144667205Y-87530256D01*
X144745226Y-87341898D01*
X144785000Y-87141939D01*
X144785000Y-87079801D01*
X145666730Y-86198072D01*
X146057500Y-86198072D01*
X146228316Y-86181248D01*
X146392567Y-86131423D01*
X146543942Y-86050512D01*
X146676623Y-85941623D01*
X146766178Y-85832500D01*
X149193822Y-85832500D01*
X149283377Y-85941623D01*
X149416058Y-86050512D01*
X149567433Y-86131423D01*
X149731684Y-86181248D01*
X149902500Y-86198072D01*
X150377500Y-86198072D01*
X150548316Y-86181248D01*
X150712567Y-86131423D01*
X150863942Y-86050512D01*
X150996623Y-85941623D01*
X151105512Y-85808942D01*
X151186423Y-85657567D01*
X151236248Y-85493316D01*
X151253072Y-85322500D01*
X151253072Y-84822500D01*
X151236248Y-84651684D01*
X151186423Y-84487433D01*
X151105512Y-84336058D01*
X150996623Y-84203377D01*
X150943768Y-84160000D01*
X150996623Y-84116623D01*
X151105512Y-83983942D01*
X151186423Y-83832567D01*
X151236248Y-83668316D01*
X151253072Y-83497500D01*
X151253072Y-82997500D01*
X151236248Y-82826684D01*
X151186423Y-82662433D01*
X151105512Y-82511058D01*
X150996623Y-82378377D01*
X150900000Y-82299080D01*
X150900000Y-81248113D01*
X151116842Y-81337932D01*
X151403740Y-81395000D01*
X151696260Y-81395000D01*
X151983158Y-81337932D01*
X152253411Y-81225990D01*
X152496632Y-81063475D01*
X152703475Y-80856632D01*
X152820000Y-80682240D01*
X152936525Y-80856632D01*
X153143368Y-81063475D01*
X153386589Y-81225990D01*
X153656842Y-81337932D01*
X153943740Y-81395000D01*
X154236260Y-81395000D01*
X154523158Y-81337932D01*
X154793411Y-81225990D01*
X155036632Y-81063475D01*
X155243475Y-80856632D01*
X155360000Y-80682240D01*
X155476525Y-80856632D01*
X155683368Y-81063475D01*
X155926589Y-81225990D01*
X156196842Y-81337932D01*
X156483740Y-81395000D01*
X156776260Y-81395000D01*
X157063158Y-81337932D01*
X157333411Y-81225990D01*
X157576632Y-81063475D01*
X157783475Y-80856632D01*
X157945990Y-80613411D01*
X158057932Y-80343158D01*
X158115000Y-80056260D01*
X158115000Y-79763740D01*
X158071209Y-79543592D01*
X162884802Y-74730000D01*
X163291928Y-74730000D01*
X163291928Y-74770000D01*
X163304188Y-74894482D01*
X163340498Y-75014180D01*
X163399463Y-75124494D01*
X163478815Y-75221185D01*
X163575506Y-75300537D01*
X163685820Y-75359502D01*
X163805518Y-75395812D01*
X163930000Y-75408072D01*
X165530000Y-75408072D01*
X165654482Y-75395812D01*
X165774180Y-75359502D01*
X165884494Y-75300537D01*
X165981185Y-75221185D01*
X166060537Y-75124494D01*
X166119502Y-75014180D01*
X166148661Y-74918057D01*
X166315241Y-75084637D01*
X166550273Y-75241680D01*
X166811426Y-75349853D01*
X167088665Y-75405000D01*
X167371335Y-75405000D01*
X167648574Y-75349853D01*
X167909727Y-75241680D01*
X168144759Y-75084637D01*
X168344637Y-74884759D01*
X168501680Y-74649727D01*
X168609853Y-74388574D01*
X168665000Y-74111335D01*
X168665000Y-73828665D01*
X168609853Y-73551426D01*
X168501680Y-73290273D01*
X168344637Y-73055241D01*
X168144759Y-72855363D01*
X167909727Y-72698320D01*
X167648574Y-72590147D01*
X167371335Y-72535000D01*
X167088665Y-72535000D01*
X166811426Y-72590147D01*
X166550273Y-72698320D01*
X166315241Y-72855363D01*
X166148661Y-73021943D01*
X166119502Y-72925820D01*
X166060537Y-72815506D01*
X165981185Y-72718815D01*
X165884494Y-72639463D01*
X165774180Y-72580498D01*
X165654482Y-72544188D01*
X165530000Y-72531928D01*
X163930000Y-72531928D01*
X163805518Y-72544188D01*
X163685820Y-72580498D01*
X163575506Y-72639463D01*
X163478815Y-72718815D01*
X163399463Y-72815506D01*
X163340498Y-72925820D01*
X163304188Y-73045518D01*
X163291928Y-73170000D01*
X163291928Y-73210000D01*
X162607333Y-73210000D01*
X162570000Y-73206323D01*
X162532667Y-73210000D01*
X162421014Y-73220997D01*
X162277753Y-73264454D01*
X162145724Y-73335026D01*
X162029999Y-73429999D01*
X162006201Y-73458997D01*
X156996408Y-78468791D01*
X156776260Y-78425000D01*
X156483740Y-78425000D01*
X156196842Y-78482068D01*
X155926589Y-78594010D01*
X155683368Y-78756525D01*
X155476525Y-78963368D01*
X155360000Y-79137760D01*
X155243475Y-78963368D01*
X155036632Y-78756525D01*
X154793411Y-78594010D01*
X154523158Y-78482068D01*
X154236260Y-78425000D01*
X153943740Y-78425000D01*
X153656842Y-78482068D01*
X153386589Y-78594010D01*
X153143368Y-78756525D01*
X152936525Y-78963368D01*
X152820000Y-79137760D01*
X152703475Y-78963368D01*
X152496632Y-78756525D01*
X152253411Y-78594010D01*
X151983158Y-78482068D01*
X151696260Y-78425000D01*
X151403740Y-78425000D01*
X151116842Y-78482068D01*
X150846589Y-78594010D01*
X150603368Y-78756525D01*
X150396525Y-78963368D01*
X150280000Y-79137760D01*
X150163475Y-78963368D01*
X149956632Y-78756525D01*
X149770000Y-78631822D01*
X149770000Y-77890000D01*
X150902678Y-77890000D01*
X150940000Y-77893676D01*
X150977322Y-77890000D01*
X150977333Y-77890000D01*
X151088986Y-77879003D01*
X151232247Y-77835546D01*
X151364276Y-77764974D01*
X151480001Y-77670001D01*
X151503803Y-77640998D01*
X152221008Y-76923795D01*
X152250001Y-76900001D01*
X152273795Y-76871008D01*
X152273799Y-76871004D01*
X152344973Y-76784277D01*
X152353805Y-76767754D01*
X152415546Y-76652247D01*
X152459003Y-76508986D01*
X152470000Y-76397333D01*
X152470000Y-76397324D01*
X152473676Y-76360001D01*
X152470000Y-76322678D01*
X152470000Y-75207594D01*
X152539013Y-75170706D01*
X152759945Y-74989392D01*
X152770498Y-75024180D01*
X152829463Y-75134494D01*
X152908815Y-75231185D01*
X153005506Y-75310537D01*
X153115820Y-75369502D01*
X153235518Y-75405812D01*
X153360000Y-75418072D01*
X153924250Y-75415000D01*
X154083000Y-75256250D01*
X154083000Y-73907000D01*
X154337000Y-73907000D01*
X154337000Y-75256250D01*
X154495750Y-75415000D01*
X155060000Y-75418072D01*
X155184482Y-75405812D01*
X155304180Y-75369502D01*
X155414494Y-75310537D01*
X155511185Y-75231185D01*
X155590537Y-75134494D01*
X155649502Y-75024180D01*
X155685812Y-74904482D01*
X155698072Y-74780000D01*
X155695000Y-74065750D01*
X155536250Y-73907000D01*
X154337000Y-73907000D01*
X154083000Y-73907000D01*
X154063000Y-73907000D01*
X154063000Y-73653000D01*
X154083000Y-73653000D01*
X154083000Y-72303750D01*
X154337000Y-72303750D01*
X154337000Y-73653000D01*
X155536250Y-73653000D01*
X155695000Y-73494250D01*
X155698072Y-72780000D01*
X155685812Y-72655518D01*
X155649502Y-72535820D01*
X155590537Y-72425506D01*
X155511185Y-72328815D01*
X155414494Y-72249463D01*
X155304180Y-72190498D01*
X155184482Y-72154188D01*
X155060000Y-72141928D01*
X154495750Y-72145000D01*
X154337000Y-72303750D01*
X154083000Y-72303750D01*
X153924250Y-72145000D01*
X153360000Y-72141928D01*
X153235518Y-72154188D01*
X153115820Y-72190498D01*
X153005506Y-72249463D01*
X152908815Y-72328815D01*
X152829463Y-72425506D01*
X152770498Y-72535820D01*
X152759945Y-72570608D01*
X152539014Y-72389294D01*
X152281034Y-72251401D01*
X152001111Y-72166487D01*
X151710000Y-72137815D01*
X151418890Y-72166487D01*
X151138967Y-72251401D01*
X150880987Y-72389294D01*
X150654866Y-72574866D01*
X150469294Y-72800986D01*
X150331401Y-73058966D01*
X150246487Y-73338889D01*
X150225000Y-73557050D01*
X150225000Y-74002949D01*
X150246487Y-74221110D01*
X150331401Y-74501033D01*
X150469294Y-74759013D01*
X150654866Y-74985134D01*
X150880986Y-75170706D01*
X150950001Y-75207595D01*
X150950001Y-76045197D01*
X150625198Y-76370000D01*
X149427322Y-76370000D01*
X149389999Y-76366324D01*
X149352676Y-76370000D01*
X149352667Y-76370000D01*
X149241014Y-76380997D01*
X149097753Y-76424454D01*
X148965724Y-76495026D01*
X148849999Y-76589999D01*
X148826196Y-76619003D01*
X148499003Y-76946196D01*
X148469999Y-76969999D01*
X148414871Y-77037174D01*
X148375026Y-77085724D01*
X148309141Y-77208985D01*
X148304454Y-77217754D01*
X148260997Y-77361015D01*
X148250000Y-77472668D01*
X148250000Y-77472678D01*
X148246324Y-77510000D01*
X148250000Y-77547323D01*
X148250000Y-78631821D01*
X148063368Y-78756525D01*
X147856525Y-78963368D01*
X147740000Y-79137760D01*
X147623475Y-78963368D01*
X147416632Y-78756525D01*
X147230000Y-78631822D01*
X147230000Y-77797322D01*
X147233676Y-77759999D01*
X147230000Y-77722676D01*
X147230000Y-77722667D01*
X147219003Y-77611014D01*
X147175546Y-77467753D01*
X147104974Y-77335724D01*
X147010001Y-77219999D01*
X146981004Y-77196202D01*
X146273803Y-76489002D01*
X146250001Y-76459999D01*
X146134276Y-76365026D01*
X146002247Y-76294454D01*
X145858986Y-76250997D01*
X145747333Y-76240000D01*
X145747322Y-76240000D01*
X145710000Y-76236324D01*
X145672678Y-76240000D01*
X144054802Y-76240000D01*
X143470000Y-75655199D01*
X143470000Y-75207594D01*
X143539013Y-75170706D01*
X143759945Y-74989392D01*
X143770498Y-75024180D01*
X143829463Y-75134494D01*
X143908815Y-75231185D01*
X144005506Y-75310537D01*
X144115820Y-75369502D01*
X144235518Y-75405812D01*
X144360000Y-75418072D01*
X144924250Y-75415000D01*
X145083000Y-75256250D01*
X145083000Y-73907000D01*
X145337000Y-73907000D01*
X145337000Y-75256250D01*
X145495750Y-75415000D01*
X146060000Y-75418072D01*
X146184482Y-75405812D01*
X146304180Y-75369502D01*
X146414494Y-75310537D01*
X146511185Y-75231185D01*
X146590537Y-75134494D01*
X146649502Y-75024180D01*
X146685812Y-74904482D01*
X146698072Y-74780000D01*
X146695000Y-74065750D01*
X146536250Y-73907000D01*
X145337000Y-73907000D01*
X145083000Y-73907000D01*
X145063000Y-73907000D01*
X145063000Y-73653000D01*
X145083000Y-73653000D01*
X145083000Y-72303750D01*
X145337000Y-72303750D01*
X145337000Y-73653000D01*
X146536250Y-73653000D01*
X146695000Y-73494250D01*
X146698072Y-72780000D01*
X146685812Y-72655518D01*
X146649502Y-72535820D01*
X146590537Y-72425506D01*
X146511185Y-72328815D01*
X146414494Y-72249463D01*
X146304180Y-72190498D01*
X146184482Y-72154188D01*
X146060000Y-72141928D01*
X145495750Y-72145000D01*
X145337000Y-72303750D01*
X145083000Y-72303750D01*
X144924250Y-72145000D01*
X144360000Y-72141928D01*
X144235518Y-72154188D01*
X144115820Y-72190498D01*
X144005506Y-72249463D01*
X143908815Y-72328815D01*
X143829463Y-72425506D01*
X143770498Y-72535820D01*
X143759945Y-72570608D01*
X143539014Y-72389294D01*
X143281034Y-72251401D01*
X143001111Y-72166487D01*
X142710000Y-72137815D01*
X142418890Y-72166487D01*
X142138967Y-72251401D01*
X141880987Y-72389294D01*
X141654866Y-72574866D01*
X141469294Y-72800986D01*
X141331401Y-73058966D01*
X141246487Y-73338889D01*
X141225000Y-73557050D01*
X141225000Y-74002949D01*
X141246487Y-74221110D01*
X141331401Y-74501033D01*
X141469294Y-74759013D01*
X141654866Y-74985134D01*
X141880986Y-75170706D01*
X141950001Y-75207595D01*
X141950001Y-75932668D01*
X141946324Y-75970000D01*
X141950001Y-76007333D01*
X141956395Y-76072246D01*
X141960998Y-76118985D01*
X142004454Y-76262246D01*
X142075026Y-76394276D01*
X142128964Y-76459999D01*
X142170000Y-76510001D01*
X142198998Y-76533799D01*
X143176200Y-77511002D01*
X143199999Y-77540001D01*
X143228997Y-77563799D01*
X143315723Y-77634974D01*
X143427974Y-77694974D01*
X143447753Y-77705546D01*
X143591014Y-77749003D01*
X143702667Y-77760000D01*
X143702677Y-77760000D01*
X143740000Y-77763676D01*
X143777323Y-77760000D01*
X145395199Y-77760000D01*
X145710000Y-78074802D01*
X145710000Y-78631821D01*
X145523368Y-78756525D01*
X145316525Y-78963368D01*
X145200000Y-79137760D01*
X145083475Y-78963368D01*
X144876632Y-78756525D01*
X144633411Y-78594010D01*
X144363158Y-78482068D01*
X144076260Y-78425000D01*
X143783740Y-78425000D01*
X143496842Y-78482068D01*
X143226589Y-78594010D01*
X142983368Y-78756525D01*
X142776525Y-78963368D01*
X142660000Y-79137760D01*
X142543475Y-78963368D01*
X142336632Y-78756525D01*
X142093411Y-78594010D01*
X141823158Y-78482068D01*
X141536260Y-78425000D01*
X141243740Y-78425000D01*
X140956842Y-78482068D01*
X140686589Y-78594010D01*
X140443368Y-78756525D01*
X140236525Y-78963368D01*
X140120000Y-79137760D01*
X140003475Y-78963368D01*
X139796632Y-78756525D01*
X139610000Y-78631822D01*
X139610000Y-77957325D01*
X139613676Y-77920000D01*
X139610000Y-77882675D01*
X139610000Y-77882667D01*
X139599003Y-77771014D01*
X139555546Y-77627753D01*
X139484974Y-77495724D01*
X139390001Y-77379999D01*
X139361004Y-77356202D01*
X138553803Y-76549002D01*
X138530001Y-76519999D01*
X138414276Y-76425026D01*
X138282247Y-76354454D01*
X138138986Y-76310997D01*
X138027333Y-76300000D01*
X138027322Y-76300000D01*
X137990000Y-76296324D01*
X137952678Y-76300000D01*
X132804802Y-76300000D01*
X131970000Y-75465199D01*
X131970000Y-75182594D01*
X132039013Y-75145706D01*
X132265134Y-74960134D01*
X132450706Y-74734014D01*
X132460000Y-74716626D01*
X132469294Y-74734013D01*
X132654866Y-74960134D01*
X132880986Y-75145706D01*
X133138966Y-75283599D01*
X133418889Y-75368513D01*
X133710000Y-75397185D01*
X134001110Y-75368513D01*
X134281033Y-75283599D01*
X134539013Y-75145706D01*
X134759945Y-74964392D01*
X134770498Y-74999180D01*
X134829463Y-75109494D01*
X134908815Y-75206185D01*
X135005506Y-75285537D01*
X135115820Y-75344502D01*
X135235518Y-75380812D01*
X135360000Y-75393072D01*
X135924250Y-75390000D01*
X136083000Y-75231250D01*
X136083000Y-73907000D01*
X136337000Y-73907000D01*
X136337000Y-75231250D01*
X136495750Y-75390000D01*
X137060000Y-75393072D01*
X137184482Y-75380812D01*
X137304180Y-75344502D01*
X137414494Y-75285537D01*
X137511185Y-75206185D01*
X137590537Y-75109494D01*
X137649502Y-74999180D01*
X137685812Y-74879482D01*
X137698072Y-74755000D01*
X137695000Y-74065750D01*
X137536250Y-73907000D01*
X136337000Y-73907000D01*
X136083000Y-73907000D01*
X136063000Y-73907000D01*
X136063000Y-73653000D01*
X136083000Y-73653000D01*
X136083000Y-72328750D01*
X136337000Y-72328750D01*
X136337000Y-73653000D01*
X137536250Y-73653000D01*
X137695000Y-73494250D01*
X137698072Y-72805000D01*
X137685812Y-72680518D01*
X137649502Y-72560820D01*
X137590537Y-72450506D01*
X137511185Y-72353815D01*
X137414494Y-72274463D01*
X137304180Y-72215498D01*
X137184482Y-72179188D01*
X137060000Y-72166928D01*
X136495750Y-72170000D01*
X136337000Y-72328750D01*
X136083000Y-72328750D01*
X135924250Y-72170000D01*
X135360000Y-72166928D01*
X135235518Y-72179188D01*
X135115820Y-72215498D01*
X135005506Y-72274463D01*
X134908815Y-72353815D01*
X134829463Y-72450506D01*
X134770498Y-72560820D01*
X134759945Y-72595608D01*
X134539014Y-72414294D01*
X134281034Y-72276401D01*
X134001111Y-72191487D01*
X133710000Y-72162815D01*
X133418890Y-72191487D01*
X133138967Y-72276401D01*
X132880987Y-72414294D01*
X132654866Y-72599866D01*
X132469294Y-72825986D01*
X132460000Y-72843374D01*
X132450706Y-72825986D01*
X132265134Y-72599866D01*
X132039014Y-72414294D01*
X131781034Y-72276401D01*
X131501111Y-72191487D01*
X131210000Y-72162815D01*
X130918890Y-72191487D01*
X130638967Y-72276401D01*
X130380987Y-72414294D01*
X130154866Y-72599866D01*
X129969294Y-72825986D01*
X129831401Y-73083966D01*
X129746487Y-73363889D01*
X129725000Y-73582050D01*
X129725000Y-73977949D01*
X129746487Y-74196110D01*
X129831401Y-74476033D01*
X129969294Y-74734013D01*
X130154866Y-74960134D01*
X130380986Y-75145706D01*
X130450001Y-75182595D01*
X130450001Y-75742668D01*
X130446324Y-75780000D01*
X130460998Y-75928985D01*
X130504454Y-76072246D01*
X130575026Y-76204276D01*
X130628966Y-76270001D01*
X130670000Y-76320001D01*
X130698998Y-76343799D01*
X131926200Y-77571002D01*
X131949999Y-77600001D01*
X132065724Y-77694974D01*
X132197753Y-77765546D01*
X132341014Y-77809003D01*
X132452667Y-77820000D01*
X132452676Y-77820000D01*
X132489999Y-77823676D01*
X132527322Y-77820000D01*
X137675199Y-77820000D01*
X138090000Y-78234802D01*
X138090000Y-78631821D01*
X137903368Y-78756525D01*
X137696525Y-78963368D01*
X137580000Y-79137760D01*
X137463475Y-78963368D01*
X137256632Y-78756525D01*
X137013411Y-78594010D01*
X136743158Y-78482068D01*
X136456260Y-78425000D01*
X136163740Y-78425000D01*
X135876842Y-78482068D01*
X135606589Y-78594010D01*
X135363368Y-78756525D01*
X135156525Y-78963368D01*
X135040000Y-79137760D01*
X134923475Y-78963368D01*
X134716632Y-78756525D01*
X134473411Y-78594010D01*
X134203158Y-78482068D01*
X133916260Y-78425000D01*
X133623740Y-78425000D01*
X133336842Y-78482068D01*
X133066589Y-78594010D01*
X132823368Y-78756525D01*
X132616525Y-78963368D01*
X132500000Y-79137760D01*
X132383475Y-78963368D01*
X132176632Y-78756525D01*
X131933411Y-78594010D01*
X131663158Y-78482068D01*
X131376260Y-78425000D01*
X131083740Y-78425000D01*
X130796842Y-78482068D01*
X130526589Y-78594010D01*
X130283368Y-78756525D01*
X130076525Y-78963368D01*
X129960000Y-79137760D01*
X129843475Y-78963368D01*
X129636632Y-78756525D01*
X129393411Y-78594010D01*
X129123158Y-78482068D01*
X128836260Y-78425000D01*
X128543740Y-78425000D01*
X128256842Y-78482068D01*
X127986589Y-78594010D01*
X127743368Y-78756525D01*
X127536525Y-78963368D01*
X127420000Y-79137760D01*
X127303475Y-78963368D01*
X127096632Y-78756525D01*
X126853411Y-78594010D01*
X126583158Y-78482068D01*
X126296260Y-78425000D01*
X126003740Y-78425000D01*
X125716842Y-78482068D01*
X125446589Y-78594010D01*
X125203368Y-78756525D01*
X124996525Y-78963368D01*
X124880000Y-79137760D01*
X124763475Y-78963368D01*
X124556632Y-78756525D01*
X124313411Y-78594010D01*
X124043158Y-78482068D01*
X123756260Y-78425000D01*
X123463740Y-78425000D01*
X123176842Y-78482068D01*
X122906589Y-78594010D01*
X122663368Y-78756525D01*
X122531513Y-78888380D01*
X122509502Y-78815820D01*
X122450537Y-78705506D01*
X122371185Y-78608815D01*
X122274494Y-78529463D01*
X122164180Y-78470498D01*
X122044482Y-78434188D01*
X121920000Y-78421928D01*
X121830000Y-78421928D01*
X121830000Y-76044801D01*
X122456730Y-75418072D01*
X123620000Y-75418072D01*
X123793254Y-75401008D01*
X123959850Y-75350472D01*
X124113386Y-75268405D01*
X124247962Y-75157962D01*
X124358405Y-75023386D01*
X124440472Y-74869850D01*
X124491008Y-74703254D01*
X124508072Y-74530000D01*
X124508072Y-73030000D01*
X124491008Y-72856746D01*
X124440472Y-72690150D01*
X124358405Y-72536614D01*
X124247962Y-72402038D01*
X124113386Y-72291595D01*
X123959850Y-72209528D01*
X123793254Y-72158992D01*
X123620000Y-72141928D01*
X122420000Y-72141928D01*
X122246746Y-72158992D01*
X122080150Y-72209528D01*
X121926614Y-72291595D01*
X121792038Y-72402038D01*
X121681595Y-72536614D01*
X121627223Y-72638337D01*
X121575134Y-72574866D01*
X121349014Y-72389294D01*
X121091034Y-72251401D01*
X120811111Y-72166487D01*
X120520000Y-72137815D01*
X120228890Y-72166487D01*
X119948967Y-72251401D01*
X119690987Y-72389294D01*
X119464866Y-72574866D01*
X119279294Y-72800986D01*
X119141401Y-73058966D01*
X119056487Y-73338889D01*
X119035000Y-73557050D01*
X111187000Y-73557050D01*
X111187000Y-71027000D01*
X168933000Y-71027000D01*
X168933000Y-113773000D01*
G37*
%TD.AperFunction*%
%TD*%
M02*
