%TF.GenerationSoftware,KiCad,Pcbnew,(5.1.9)-1*%
%TF.CreationDate,2021-02-26T14:18:11+09:00*%
%TF.ProjectId,diesel-heater-esp32,64696573-656c-42d6-9865-617465722d65,rev?*%
%TF.SameCoordinates,Original*%
%TF.FileFunction,Legend,Top*%
%TF.FilePolarity,Positive*%
%FSLAX46Y46*%
G04 Gerber Fmt 4.6, Leading zero omitted, Abs format (unit mm)*
G04 Created by KiCad (PCBNEW (5.1.9)-1) date 2021-02-26 14:18:11*
%MOMM*%
%LPD*%
G01*
G04 APERTURE LIST*
%ADD10C,0.250000*%
%ADD11C,0.150000*%
%ADD12C,0.120000*%
G04 APERTURE END LIST*
D10*
X121942380Y-94705014D02*
X122751904Y-94806205D01*
X122847142Y-94770491D01*
X122894761Y-94728824D01*
X122942380Y-94639538D01*
X122942380Y-94449062D01*
X122894761Y-94347872D01*
X122847142Y-94294300D01*
X122751904Y-94234776D01*
X121942380Y-94133586D01*
X122894761Y-93824062D02*
X122942380Y-93687157D01*
X122942380Y-93449062D01*
X122894761Y-93347872D01*
X122847142Y-93294300D01*
X122751904Y-93234776D01*
X122656666Y-93222872D01*
X122561428Y-93258586D01*
X122513809Y-93300252D01*
X122466190Y-93389538D01*
X122418571Y-93574062D01*
X122370952Y-93663348D01*
X122323333Y-93705014D01*
X122228095Y-93740729D01*
X122132857Y-93728824D01*
X122037619Y-93669300D01*
X121990000Y-93615729D01*
X121942380Y-93514538D01*
X121942380Y-93276443D01*
X121990000Y-93139538D01*
X122418571Y-92431205D02*
X122466190Y-92294300D01*
X122513809Y-92252633D01*
X122609047Y-92216919D01*
X122751904Y-92234776D01*
X122847142Y-92294300D01*
X122894761Y-92347872D01*
X122942380Y-92449062D01*
X122942380Y-92830014D01*
X121942380Y-92705014D01*
X121942380Y-92371681D01*
X121990000Y-92282395D01*
X122037619Y-92240729D01*
X122132857Y-92205014D01*
X122228095Y-92216919D01*
X122323333Y-92276443D01*
X122370952Y-92330014D01*
X122418571Y-92431205D01*
X122418571Y-92764538D01*
X135864508Y-93368571D02*
X136197842Y-93368571D01*
X136275223Y-93892380D02*
X135799032Y-93892380D01*
X135924032Y-92892380D01*
X136400223Y-92892380D01*
X136662127Y-93844761D02*
X136799032Y-93892380D01*
X137037127Y-93892380D01*
X137138318Y-93844761D01*
X137191889Y-93797142D01*
X137251413Y-93701904D01*
X137263318Y-93606666D01*
X137227604Y-93511428D01*
X137185937Y-93463809D01*
X137096651Y-93416190D01*
X136912127Y-93368571D01*
X136822842Y-93320952D01*
X136781175Y-93273333D01*
X136745461Y-93178095D01*
X136757366Y-93082857D01*
X136816889Y-92987619D01*
X136870461Y-92940000D01*
X136971651Y-92892380D01*
X137209747Y-92892380D01*
X137346651Y-92940000D01*
X137656175Y-93892380D02*
X137781175Y-92892380D01*
X138162127Y-92892380D01*
X138251413Y-92940000D01*
X138293080Y-92987619D01*
X138328794Y-93082857D01*
X138310937Y-93225714D01*
X138251413Y-93320952D01*
X138197842Y-93368571D01*
X138096651Y-93416190D01*
X137715699Y-93416190D01*
X138685937Y-92892380D02*
X139304985Y-92892380D01*
X138924032Y-93273333D01*
X139066889Y-93273333D01*
X139156175Y-93320952D01*
X139197842Y-93368571D01*
X139233556Y-93463809D01*
X139203794Y-93701904D01*
X139144270Y-93797142D01*
X139090699Y-93844761D01*
X138989508Y-93892380D01*
X138703794Y-93892380D01*
X138614508Y-93844761D01*
X138572842Y-93797142D01*
X139674032Y-92987619D02*
X139727604Y-92940000D01*
X139828794Y-92892380D01*
X140066889Y-92892380D01*
X140156175Y-92940000D01*
X140197842Y-92987619D01*
X140233556Y-93082857D01*
X140221651Y-93178095D01*
X140156175Y-93320952D01*
X139513318Y-93892380D01*
X140132366Y-93892380D01*
D11*
X128400000Y-89222142D02*
X128352380Y-89269761D01*
X128209523Y-89317380D01*
X128114285Y-89317380D01*
X127971428Y-89269761D01*
X127876190Y-89174523D01*
X127828571Y-89079285D01*
X127780952Y-88888809D01*
X127780952Y-88745952D01*
X127828571Y-88555476D01*
X127876190Y-88460238D01*
X127971428Y-88365000D01*
X128114285Y-88317380D01*
X128209523Y-88317380D01*
X128352380Y-88365000D01*
X128400000Y-88412619D01*
X128828571Y-89317380D02*
X128828571Y-88317380D01*
X129257142Y-89317380D02*
X129257142Y-88793571D01*
X129209523Y-88698333D01*
X129114285Y-88650714D01*
X128971428Y-88650714D01*
X128876190Y-88698333D01*
X128828571Y-88745952D01*
X129733333Y-89317380D02*
X129733333Y-88650714D01*
X129733333Y-88317380D02*
X129685714Y-88365000D01*
X129733333Y-88412619D01*
X129780952Y-88365000D01*
X129733333Y-88317380D01*
X129733333Y-88412619D01*
X130209523Y-88650714D02*
X130209523Y-89317380D01*
X130209523Y-88745952D02*
X130257142Y-88698333D01*
X130352380Y-88650714D01*
X130495238Y-88650714D01*
X130590476Y-88698333D01*
X130638095Y-88793571D01*
X130638095Y-89317380D01*
X131495238Y-89269761D02*
X131400000Y-89317380D01*
X131209523Y-89317380D01*
X131114285Y-89269761D01*
X131066666Y-89174523D01*
X131066666Y-88793571D01*
X131114285Y-88698333D01*
X131209523Y-88650714D01*
X131400000Y-88650714D01*
X131495238Y-88698333D01*
X131542857Y-88793571D01*
X131542857Y-88888809D01*
X131066666Y-88984047D01*
X131923809Y-89269761D02*
X132019047Y-89317380D01*
X132209523Y-89317380D01*
X132304761Y-89269761D01*
X132352380Y-89174523D01*
X132352380Y-89126904D01*
X132304761Y-89031666D01*
X132209523Y-88984047D01*
X132066666Y-88984047D01*
X131971428Y-88936428D01*
X131923809Y-88841190D01*
X131923809Y-88793571D01*
X131971428Y-88698333D01*
X132066666Y-88650714D01*
X132209523Y-88650714D01*
X132304761Y-88698333D01*
X133161904Y-89269761D02*
X133066666Y-89317380D01*
X132876190Y-89317380D01*
X132780952Y-89269761D01*
X132733333Y-89174523D01*
X132733333Y-88793571D01*
X132780952Y-88698333D01*
X132876190Y-88650714D01*
X133066666Y-88650714D01*
X133161904Y-88698333D01*
X133209523Y-88793571D01*
X133209523Y-88888809D01*
X132733333Y-88984047D01*
X134400000Y-89317380D02*
X134400000Y-88317380D01*
X134638095Y-88317380D01*
X134780952Y-88365000D01*
X134876190Y-88460238D01*
X134923809Y-88555476D01*
X134971428Y-88745952D01*
X134971428Y-88888809D01*
X134923809Y-89079285D01*
X134876190Y-89174523D01*
X134780952Y-89269761D01*
X134638095Y-89317380D01*
X134400000Y-89317380D01*
X135400000Y-89317380D02*
X135400000Y-88650714D01*
X135400000Y-88317380D02*
X135352380Y-88365000D01*
X135400000Y-88412619D01*
X135447619Y-88365000D01*
X135400000Y-88317380D01*
X135400000Y-88412619D01*
X136257142Y-89269761D02*
X136161904Y-89317380D01*
X135971428Y-89317380D01*
X135876190Y-89269761D01*
X135828571Y-89174523D01*
X135828571Y-88793571D01*
X135876190Y-88698333D01*
X135971428Y-88650714D01*
X136161904Y-88650714D01*
X136257142Y-88698333D01*
X136304761Y-88793571D01*
X136304761Y-88888809D01*
X135828571Y-88984047D01*
X136685714Y-89269761D02*
X136780952Y-89317380D01*
X136971428Y-89317380D01*
X137066666Y-89269761D01*
X137114285Y-89174523D01*
X137114285Y-89126904D01*
X137066666Y-89031666D01*
X136971428Y-88984047D01*
X136828571Y-88984047D01*
X136733333Y-88936428D01*
X136685714Y-88841190D01*
X136685714Y-88793571D01*
X136733333Y-88698333D01*
X136828571Y-88650714D01*
X136971428Y-88650714D01*
X137066666Y-88698333D01*
X137923809Y-89269761D02*
X137828571Y-89317380D01*
X137638095Y-89317380D01*
X137542857Y-89269761D01*
X137495238Y-89174523D01*
X137495238Y-88793571D01*
X137542857Y-88698333D01*
X137638095Y-88650714D01*
X137828571Y-88650714D01*
X137923809Y-88698333D01*
X137971428Y-88793571D01*
X137971428Y-88888809D01*
X137495238Y-88984047D01*
X138542857Y-89317380D02*
X138447619Y-89269761D01*
X138400000Y-89174523D01*
X138400000Y-88317380D01*
X139685714Y-89317380D02*
X139685714Y-88317380D01*
X139685714Y-88793571D02*
X140257142Y-88793571D01*
X140257142Y-89317380D02*
X140257142Y-88317380D01*
X141114285Y-89269761D02*
X141019047Y-89317380D01*
X140828571Y-89317380D01*
X140733333Y-89269761D01*
X140685714Y-89174523D01*
X140685714Y-88793571D01*
X140733333Y-88698333D01*
X140828571Y-88650714D01*
X141019047Y-88650714D01*
X141114285Y-88698333D01*
X141161904Y-88793571D01*
X141161904Y-88888809D01*
X140685714Y-88984047D01*
X142019047Y-89317380D02*
X142019047Y-88793571D01*
X141971428Y-88698333D01*
X141876190Y-88650714D01*
X141685714Y-88650714D01*
X141590476Y-88698333D01*
X142019047Y-89269761D02*
X141923809Y-89317380D01*
X141685714Y-89317380D01*
X141590476Y-89269761D01*
X141542857Y-89174523D01*
X141542857Y-89079285D01*
X141590476Y-88984047D01*
X141685714Y-88936428D01*
X141923809Y-88936428D01*
X142019047Y-88888809D01*
X142352380Y-88650714D02*
X142733333Y-88650714D01*
X142495238Y-88317380D02*
X142495238Y-89174523D01*
X142542857Y-89269761D01*
X142638095Y-89317380D01*
X142733333Y-89317380D01*
X143447619Y-89269761D02*
X143352380Y-89317380D01*
X143161904Y-89317380D01*
X143066666Y-89269761D01*
X143019047Y-89174523D01*
X143019047Y-88793571D01*
X143066666Y-88698333D01*
X143161904Y-88650714D01*
X143352380Y-88650714D01*
X143447619Y-88698333D01*
X143495238Y-88793571D01*
X143495238Y-88888809D01*
X143019047Y-88984047D01*
X143923809Y-89317380D02*
X143923809Y-88650714D01*
X143923809Y-88841190D02*
X143971428Y-88745952D01*
X144019047Y-88698333D01*
X144114285Y-88650714D01*
X144209523Y-88650714D01*
X145209523Y-88650714D02*
X145447619Y-89317380D01*
X145685714Y-88650714D01*
X146257142Y-88317380D02*
X146352380Y-88317380D01*
X146447619Y-88365000D01*
X146495238Y-88412619D01*
X146542857Y-88507857D01*
X146590476Y-88698333D01*
X146590476Y-88936428D01*
X146542857Y-89126904D01*
X146495238Y-89222142D01*
X146447619Y-89269761D01*
X146352380Y-89317380D01*
X146257142Y-89317380D01*
X146161904Y-89269761D01*
X146114285Y-89222142D01*
X146066666Y-89126904D01*
X146019047Y-88936428D01*
X146019047Y-88698333D01*
X146066666Y-88507857D01*
X146114285Y-88412619D01*
X146161904Y-88365000D01*
X146257142Y-88317380D01*
X147019047Y-89222142D02*
X147066666Y-89269761D01*
X147019047Y-89317380D01*
X146971428Y-89269761D01*
X147019047Y-89222142D01*
X147019047Y-89317380D01*
X148019047Y-89317380D02*
X147447619Y-89317380D01*
X147733333Y-89317380D02*
X147733333Y-88317380D01*
X147638095Y-88460238D01*
X147542857Y-88555476D01*
X147447619Y-88603095D01*
X133447619Y-90967380D02*
X133447619Y-89967380D01*
X133447619Y-90443571D02*
X134019047Y-90443571D01*
X134019047Y-90967380D02*
X134019047Y-89967380D01*
X134495238Y-90872142D02*
X134542857Y-90919761D01*
X134495238Y-90967380D01*
X134447619Y-90919761D01*
X134495238Y-90872142D01*
X134495238Y-90967380D01*
X134971428Y-90967380D02*
X134971428Y-89967380D01*
X135542857Y-90967380D02*
X135114285Y-90395952D01*
X135542857Y-89967380D02*
X134971428Y-90538809D01*
X135971428Y-90967380D02*
X135971428Y-90300714D01*
X135971428Y-89967380D02*
X135923809Y-90015000D01*
X135971428Y-90062619D01*
X136019047Y-90015000D01*
X135971428Y-89967380D01*
X135971428Y-90062619D01*
X136447619Y-90967380D02*
X136447619Y-90300714D01*
X136447619Y-90395952D02*
X136495238Y-90348333D01*
X136590476Y-90300714D01*
X136733333Y-90300714D01*
X136828571Y-90348333D01*
X136876190Y-90443571D01*
X136876190Y-90967380D01*
X136876190Y-90443571D02*
X136923809Y-90348333D01*
X137019047Y-90300714D01*
X137161904Y-90300714D01*
X137257142Y-90348333D01*
X137304761Y-90443571D01*
X137304761Y-90967380D01*
X137828571Y-90919761D02*
X137828571Y-90967380D01*
X137780952Y-91062619D01*
X137733333Y-91110238D01*
X138971428Y-90062619D02*
X139019047Y-90015000D01*
X139114285Y-89967380D01*
X139352380Y-89967380D01*
X139447619Y-90015000D01*
X139495238Y-90062619D01*
X139542857Y-90157857D01*
X139542857Y-90253095D01*
X139495238Y-90395952D01*
X138923809Y-90967380D01*
X139542857Y-90967380D01*
X140161904Y-89967380D02*
X140257142Y-89967380D01*
X140352380Y-90015000D01*
X140400000Y-90062619D01*
X140447619Y-90157857D01*
X140495238Y-90348333D01*
X140495238Y-90586428D01*
X140447619Y-90776904D01*
X140400000Y-90872142D01*
X140352380Y-90919761D01*
X140257142Y-90967380D01*
X140161904Y-90967380D01*
X140066666Y-90919761D01*
X140019047Y-90872142D01*
X139971428Y-90776904D01*
X139923809Y-90586428D01*
X139923809Y-90348333D01*
X139971428Y-90157857D01*
X140019047Y-90062619D01*
X140066666Y-90015000D01*
X140161904Y-89967380D01*
X140876190Y-90062619D02*
X140923809Y-90015000D01*
X141019047Y-89967380D01*
X141257142Y-89967380D01*
X141352380Y-90015000D01*
X141400000Y-90062619D01*
X141447619Y-90157857D01*
X141447619Y-90253095D01*
X141400000Y-90395952D01*
X140828571Y-90967380D01*
X141447619Y-90967380D01*
X142400000Y-90967380D02*
X141828571Y-90967380D01*
X142114285Y-90967380D02*
X142114285Y-89967380D01*
X142019047Y-90110238D01*
X141923809Y-90205476D01*
X141828571Y-90253095D01*
X127288095Y-77252380D02*
X127288095Y-76252380D01*
X127621428Y-76966666D01*
X127954761Y-76252380D01*
X127954761Y-77252380D01*
X128192857Y-77347619D02*
X128954761Y-77347619D01*
X129764285Y-77252380D02*
X129430952Y-76776190D01*
X129192857Y-77252380D02*
X129192857Y-76252380D01*
X129573809Y-76252380D01*
X129669047Y-76300000D01*
X129716666Y-76347619D01*
X129764285Y-76442857D01*
X129764285Y-76585714D01*
X129716666Y-76680952D01*
X129669047Y-76728571D01*
X129573809Y-76776190D01*
X129192857Y-76776190D01*
X130192857Y-76252380D02*
X130192857Y-77061904D01*
X130240476Y-77157142D01*
X130288095Y-77204761D01*
X130383333Y-77252380D01*
X130573809Y-77252380D01*
X130669047Y-77204761D01*
X130716666Y-77157142D01*
X130764285Y-77061904D01*
X130764285Y-76252380D01*
X131240476Y-77252380D02*
X131240476Y-76252380D01*
X131811904Y-77252380D01*
X131811904Y-76252380D01*
X133138095Y-76290000D02*
X133042857Y-76242380D01*
X132900000Y-76242380D01*
X132757142Y-76290000D01*
X132661904Y-76385238D01*
X132614285Y-76480476D01*
X132566666Y-76670952D01*
X132566666Y-76813809D01*
X132614285Y-77004285D01*
X132661904Y-77099523D01*
X132757142Y-77194761D01*
X132900000Y-77242380D01*
X132995238Y-77242380D01*
X133138095Y-77194761D01*
X133185714Y-77147142D01*
X133185714Y-76813809D01*
X132995238Y-76813809D01*
X133614285Y-77242380D02*
X133614285Y-76242380D01*
X134185714Y-77242380D01*
X134185714Y-76242380D01*
X134661904Y-77242380D02*
X134661904Y-76242380D01*
X134900000Y-76242380D01*
X135042857Y-76290000D01*
X135138095Y-76385238D01*
X135185714Y-76480476D01*
X135233333Y-76670952D01*
X135233333Y-76813809D01*
X135185714Y-77004285D01*
X135138095Y-77099523D01*
X135042857Y-77194761D01*
X134900000Y-77242380D01*
X134661904Y-77242380D01*
X135971904Y-76232380D02*
X136590952Y-76232380D01*
X136257619Y-76613333D01*
X136400476Y-76613333D01*
X136495714Y-76660952D01*
X136543333Y-76708571D01*
X136590952Y-76803809D01*
X136590952Y-77041904D01*
X136543333Y-77137142D01*
X136495714Y-77184761D01*
X136400476Y-77232380D01*
X136114761Y-77232380D01*
X136019523Y-77184761D01*
X135971904Y-77137142D01*
X136876666Y-76232380D02*
X137210000Y-77232380D01*
X137543333Y-76232380D01*
X137781428Y-76232380D02*
X138400476Y-76232380D01*
X138067142Y-76613333D01*
X138210000Y-76613333D01*
X138305238Y-76660952D01*
X138352857Y-76708571D01*
X138400476Y-76803809D01*
X138400476Y-77041904D01*
X138352857Y-77137142D01*
X138305238Y-77184761D01*
X138210000Y-77232380D01*
X137924285Y-77232380D01*
X137829047Y-77184761D01*
X137781428Y-77137142D01*
X141678571Y-77232380D02*
X141345238Y-76756190D01*
X141107142Y-77232380D02*
X141107142Y-76232380D01*
X141488095Y-76232380D01*
X141583333Y-76280000D01*
X141630952Y-76327619D01*
X141678571Y-76422857D01*
X141678571Y-76565714D01*
X141630952Y-76660952D01*
X141583333Y-76708571D01*
X141488095Y-76756190D01*
X141107142Y-76756190D01*
X141964285Y-76232380D02*
X142535714Y-76232380D01*
X142250000Y-77232380D02*
X142250000Y-76232380D01*
X151343809Y-76252380D02*
X151534285Y-76252380D01*
X151629523Y-76300000D01*
X151724761Y-76395238D01*
X151772380Y-76585714D01*
X151772380Y-76919047D01*
X151724761Y-77109523D01*
X151629523Y-77204761D01*
X151534285Y-77252380D01*
X151343809Y-77252380D01*
X151248571Y-77204761D01*
X151153333Y-77109523D01*
X151105714Y-76919047D01*
X151105714Y-76585714D01*
X151153333Y-76395238D01*
X151248571Y-76300000D01*
X151343809Y-76252380D01*
X152058095Y-76252380D02*
X152629523Y-76252380D01*
X152343809Y-77252380D02*
X152343809Y-76252380D01*
X145771904Y-76242380D02*
X146390952Y-76242380D01*
X146057619Y-76623333D01*
X146200476Y-76623333D01*
X146295714Y-76670952D01*
X146343333Y-76718571D01*
X146390952Y-76813809D01*
X146390952Y-77051904D01*
X146343333Y-77147142D01*
X146295714Y-77194761D01*
X146200476Y-77242380D01*
X145914761Y-77242380D01*
X145819523Y-77194761D01*
X145771904Y-77147142D01*
X146676666Y-76242380D02*
X147010000Y-77242380D01*
X147343333Y-76242380D01*
X147581428Y-76242380D02*
X148200476Y-76242380D01*
X147867142Y-76623333D01*
X148010000Y-76623333D01*
X148105238Y-76670952D01*
X148152857Y-76718571D01*
X148200476Y-76813809D01*
X148200476Y-77051904D01*
X148152857Y-77147142D01*
X148105238Y-77194761D01*
X148010000Y-77242380D01*
X147724285Y-77242380D01*
X147629047Y-77194761D01*
X147581428Y-77147142D01*
X154591904Y-76232380D02*
X155210952Y-76232380D01*
X154877619Y-76613333D01*
X155020476Y-76613333D01*
X155115714Y-76660952D01*
X155163333Y-76708571D01*
X155210952Y-76803809D01*
X155210952Y-77041904D01*
X155163333Y-77137142D01*
X155115714Y-77184761D01*
X155020476Y-77232380D01*
X154734761Y-77232380D01*
X154639523Y-77184761D01*
X154591904Y-77137142D01*
X155496666Y-76232380D02*
X155830000Y-77232380D01*
X156163333Y-76232380D01*
X156401428Y-76232380D02*
X157020476Y-76232380D01*
X156687142Y-76613333D01*
X156830000Y-76613333D01*
X156925238Y-76660952D01*
X156972857Y-76708571D01*
X157020476Y-76803809D01*
X157020476Y-77041904D01*
X156972857Y-77137142D01*
X156925238Y-77184761D01*
X156830000Y-77232380D01*
X156544285Y-77232380D01*
X156449047Y-77184761D01*
X156401428Y-77137142D01*
X162728571Y-87584761D02*
X162776190Y-87441904D01*
X162823809Y-87394285D01*
X162919047Y-87346666D01*
X163061904Y-87346666D01*
X163157142Y-87394285D01*
X163204761Y-87441904D01*
X163252380Y-87537142D01*
X163252380Y-87918095D01*
X162252380Y-87918095D01*
X162252380Y-87584761D01*
X162300000Y-87489523D01*
X162347619Y-87441904D01*
X162442857Y-87394285D01*
X162538095Y-87394285D01*
X162633333Y-87441904D01*
X162680952Y-87489523D01*
X162728571Y-87584761D01*
X162728571Y-87918095D01*
X162252380Y-87013333D02*
X162252380Y-86394285D01*
X162633333Y-86727619D01*
X162633333Y-86584761D01*
X162680952Y-86489523D01*
X162728571Y-86441904D01*
X162823809Y-86394285D01*
X163061904Y-86394285D01*
X163157142Y-86441904D01*
X163204761Y-86489523D01*
X163252380Y-86584761D01*
X163252380Y-86870476D01*
X163204761Y-86965714D01*
X163157142Y-87013333D01*
X162728571Y-89924761D02*
X162776190Y-89781904D01*
X162823809Y-89734285D01*
X162919047Y-89686666D01*
X163061904Y-89686666D01*
X163157142Y-89734285D01*
X163204761Y-89781904D01*
X163252380Y-89877142D01*
X163252380Y-90258095D01*
X162252380Y-90258095D01*
X162252380Y-89924761D01*
X162300000Y-89829523D01*
X162347619Y-89781904D01*
X162442857Y-89734285D01*
X162538095Y-89734285D01*
X162633333Y-89781904D01*
X162680952Y-89829523D01*
X162728571Y-89924761D01*
X162728571Y-90258095D01*
X162347619Y-89305714D02*
X162300000Y-89258095D01*
X162252380Y-89162857D01*
X162252380Y-88924761D01*
X162300000Y-88829523D01*
X162347619Y-88781904D01*
X162442857Y-88734285D01*
X162538095Y-88734285D01*
X162680952Y-88781904D01*
X163252380Y-89353333D01*
X163252380Y-88734285D01*
X162738571Y-92664761D02*
X162786190Y-92521904D01*
X162833809Y-92474285D01*
X162929047Y-92426666D01*
X163071904Y-92426666D01*
X163167142Y-92474285D01*
X163214761Y-92521904D01*
X163262380Y-92617142D01*
X163262380Y-92998095D01*
X162262380Y-92998095D01*
X162262380Y-92664761D01*
X162310000Y-92569523D01*
X162357619Y-92521904D01*
X162452857Y-92474285D01*
X162548095Y-92474285D01*
X162643333Y-92521904D01*
X162690952Y-92569523D01*
X162738571Y-92664761D01*
X162738571Y-92998095D01*
X163262380Y-91474285D02*
X163262380Y-92045714D01*
X163262380Y-91760000D02*
X162262380Y-91760000D01*
X162405238Y-91855238D01*
X162500476Y-91950476D01*
X162548095Y-92045714D01*
X162728571Y-95364761D02*
X162776190Y-95221904D01*
X162823809Y-95174285D01*
X162919047Y-95126666D01*
X163061904Y-95126666D01*
X163157142Y-95174285D01*
X163204761Y-95221904D01*
X163252380Y-95317142D01*
X163252380Y-95698095D01*
X162252380Y-95698095D01*
X162252380Y-95364761D01*
X162300000Y-95269523D01*
X162347619Y-95221904D01*
X162442857Y-95174285D01*
X162538095Y-95174285D01*
X162633333Y-95221904D01*
X162680952Y-95269523D01*
X162728571Y-95364761D01*
X162728571Y-95698095D01*
X162252380Y-94507619D02*
X162252380Y-94412380D01*
X162300000Y-94317142D01*
X162347619Y-94269523D01*
X162442857Y-94221904D01*
X162633333Y-94174285D01*
X162871428Y-94174285D01*
X163061904Y-94221904D01*
X163157142Y-94269523D01*
X163204761Y-94317142D01*
X163252380Y-94412380D01*
X163252380Y-94507619D01*
X163204761Y-94602857D01*
X163157142Y-94650476D01*
X163061904Y-94698095D01*
X162871428Y-94745714D01*
X162633333Y-94745714D01*
X162442857Y-94698095D01*
X162347619Y-94650476D01*
X162300000Y-94602857D01*
X162252380Y-94507619D01*
X162280000Y-98851904D02*
X162232380Y-98947142D01*
X162232380Y-99090000D01*
X162280000Y-99232857D01*
X162375238Y-99328095D01*
X162470476Y-99375714D01*
X162660952Y-99423333D01*
X162803809Y-99423333D01*
X162994285Y-99375714D01*
X163089523Y-99328095D01*
X163184761Y-99232857D01*
X163232380Y-99090000D01*
X163232380Y-98994761D01*
X163184761Y-98851904D01*
X163137142Y-98804285D01*
X162803809Y-98804285D01*
X162803809Y-98994761D01*
X163232380Y-98375714D02*
X162232380Y-98375714D01*
X163232380Y-97804285D01*
X162232380Y-97804285D01*
X163232380Y-97328095D02*
X162232380Y-97328095D01*
X162232380Y-97090000D01*
X162280000Y-96947142D01*
X162375238Y-96851904D01*
X162470476Y-96804285D01*
X162660952Y-96756666D01*
X162803809Y-96756666D01*
X162994285Y-96804285D01*
X163089523Y-96851904D01*
X163184761Y-96947142D01*
X163232380Y-97090000D01*
X163232380Y-97328095D01*
X163204761Y-103760476D02*
X163252380Y-103617619D01*
X163252380Y-103379523D01*
X163204761Y-103284285D01*
X163157142Y-103236666D01*
X163061904Y-103189047D01*
X162966666Y-103189047D01*
X162871428Y-103236666D01*
X162823809Y-103284285D01*
X162776190Y-103379523D01*
X162728571Y-103570000D01*
X162680952Y-103665238D01*
X162633333Y-103712857D01*
X162538095Y-103760476D01*
X162442857Y-103760476D01*
X162347619Y-103712857D01*
X162300000Y-103665238D01*
X162252380Y-103570000D01*
X162252380Y-103331904D01*
X162300000Y-103189047D01*
X163157142Y-102189047D02*
X163204761Y-102236666D01*
X163252380Y-102379523D01*
X163252380Y-102474761D01*
X163204761Y-102617619D01*
X163109523Y-102712857D01*
X163014285Y-102760476D01*
X162823809Y-102808095D01*
X162680952Y-102808095D01*
X162490476Y-102760476D01*
X162395238Y-102712857D01*
X162300000Y-102617619D01*
X162252380Y-102474761D01*
X162252380Y-102379523D01*
X162300000Y-102236666D01*
X162347619Y-102189047D01*
X163252380Y-101284285D02*
X163252380Y-101760476D01*
X162252380Y-101760476D01*
X163194761Y-107134285D02*
X163242380Y-106991428D01*
X163242380Y-106753333D01*
X163194761Y-106658095D01*
X163147142Y-106610476D01*
X163051904Y-106562857D01*
X162956666Y-106562857D01*
X162861428Y-106610476D01*
X162813809Y-106658095D01*
X162766190Y-106753333D01*
X162718571Y-106943809D01*
X162670952Y-107039047D01*
X162623333Y-107086666D01*
X162528095Y-107134285D01*
X162432857Y-107134285D01*
X162337619Y-107086666D01*
X162290000Y-107039047D01*
X162242380Y-106943809D01*
X162242380Y-106705714D01*
X162290000Y-106562857D01*
X163242380Y-106134285D02*
X162242380Y-106134285D01*
X162242380Y-105896190D01*
X162290000Y-105753333D01*
X162385238Y-105658095D01*
X162480476Y-105610476D01*
X162670952Y-105562857D01*
X162813809Y-105562857D01*
X163004285Y-105610476D01*
X163099523Y-105658095D01*
X163194761Y-105753333D01*
X163242380Y-105896190D01*
X163242380Y-106134285D01*
X162956666Y-105181904D02*
X162956666Y-104705714D01*
X163242380Y-105277142D02*
X162242380Y-104943809D01*
X163242380Y-104610476D01*
X162222380Y-114038095D02*
X162222380Y-113419047D01*
X162603333Y-113752380D01*
X162603333Y-113609523D01*
X162650952Y-113514285D01*
X162698571Y-113466666D01*
X162793809Y-113419047D01*
X163031904Y-113419047D01*
X163127142Y-113466666D01*
X163174761Y-113514285D01*
X163222380Y-113609523D01*
X163222380Y-113895238D01*
X163174761Y-113990476D01*
X163127142Y-114038095D01*
X162222380Y-113133333D02*
X163222380Y-112800000D01*
X162222380Y-112466666D01*
X162222380Y-112228571D02*
X162222380Y-111609523D01*
X162603333Y-111942857D01*
X162603333Y-111800000D01*
X162650952Y-111704761D01*
X162698571Y-111657142D01*
X162793809Y-111609523D01*
X163031904Y-111609523D01*
X163127142Y-111657142D01*
X163174761Y-111704761D01*
X163222380Y-111800000D01*
X163222380Y-112085714D01*
X163174761Y-112180952D01*
X163127142Y-112228571D01*
X162270000Y-110071904D02*
X162222380Y-110167142D01*
X162222380Y-110310000D01*
X162270000Y-110452857D01*
X162365238Y-110548095D01*
X162460476Y-110595714D01*
X162650952Y-110643333D01*
X162793809Y-110643333D01*
X162984285Y-110595714D01*
X163079523Y-110548095D01*
X163174761Y-110452857D01*
X163222380Y-110310000D01*
X163222380Y-110214761D01*
X163174761Y-110071904D01*
X163127142Y-110024285D01*
X162793809Y-110024285D01*
X162793809Y-110214761D01*
X163222380Y-109595714D02*
X162222380Y-109595714D01*
X163222380Y-109024285D01*
X162222380Y-109024285D01*
X163222380Y-108548095D02*
X162222380Y-108548095D01*
X162222380Y-108310000D01*
X162270000Y-108167142D01*
X162365238Y-108071904D01*
X162460476Y-108024285D01*
X162650952Y-107976666D01*
X162793809Y-107976666D01*
X162984285Y-108024285D01*
X163079523Y-108071904D01*
X163174761Y-108167142D01*
X163222380Y-108310000D01*
X163222380Y-108548095D01*
X141511904Y-108390000D02*
X141416666Y-108342380D01*
X141273809Y-108342380D01*
X141130952Y-108390000D01*
X141035714Y-108485238D01*
X140988095Y-108580476D01*
X140940476Y-108770952D01*
X140940476Y-108913809D01*
X140988095Y-109104285D01*
X141035714Y-109199523D01*
X141130952Y-109294761D01*
X141273809Y-109342380D01*
X141369047Y-109342380D01*
X141511904Y-109294761D01*
X141559523Y-109247142D01*
X141559523Y-108913809D01*
X141369047Y-108913809D01*
X141988095Y-109342380D02*
X141988095Y-108342380D01*
X142369047Y-108342380D01*
X142464285Y-108390000D01*
X142511904Y-108437619D01*
X142559523Y-108532857D01*
X142559523Y-108675714D01*
X142511904Y-108770952D01*
X142464285Y-108818571D01*
X142369047Y-108866190D01*
X141988095Y-108866190D01*
X150794761Y-108352380D02*
X150985238Y-108352380D01*
X151080476Y-108400000D01*
X151175714Y-108495238D01*
X151223333Y-108685714D01*
X151223333Y-109019047D01*
X151175714Y-109209523D01*
X151080476Y-109304761D01*
X150985238Y-109352380D01*
X150794761Y-109352380D01*
X150699523Y-109304761D01*
X150604285Y-109209523D01*
X150556666Y-109019047D01*
X150556666Y-108685714D01*
X150604285Y-108495238D01*
X150699523Y-108400000D01*
X150794761Y-108352380D01*
X151651904Y-109352380D02*
X151651904Y-108352380D01*
X152032857Y-108352380D01*
X152128095Y-108400000D01*
X152175714Y-108447619D01*
X152223333Y-108542857D01*
X152223333Y-108685714D01*
X152175714Y-108780952D01*
X152128095Y-108828571D01*
X152032857Y-108876190D01*
X151651904Y-108876190D01*
X157078095Y-108410000D02*
X156982857Y-108362380D01*
X156840000Y-108362380D01*
X156697142Y-108410000D01*
X156601904Y-108505238D01*
X156554285Y-108600476D01*
X156506666Y-108790952D01*
X156506666Y-108933809D01*
X156554285Y-109124285D01*
X156601904Y-109219523D01*
X156697142Y-109314761D01*
X156840000Y-109362380D01*
X156935238Y-109362380D01*
X157078095Y-109314761D01*
X157125714Y-109267142D01*
X157125714Y-108933809D01*
X156935238Y-108933809D01*
X157554285Y-109362380D02*
X157554285Y-108362380D01*
X158125714Y-109362380D01*
X158125714Y-108362380D01*
X158601904Y-109362380D02*
X158601904Y-108362380D01*
X158840000Y-108362380D01*
X158982857Y-108410000D01*
X159078095Y-108505238D01*
X159125714Y-108600476D01*
X159173333Y-108790952D01*
X159173333Y-108933809D01*
X159125714Y-109124285D01*
X159078095Y-109219523D01*
X158982857Y-109314761D01*
X158840000Y-109362380D01*
X158601904Y-109362380D01*
X146938095Y-108390000D02*
X146842857Y-108342380D01*
X146700000Y-108342380D01*
X146557142Y-108390000D01*
X146461904Y-108485238D01*
X146414285Y-108580476D01*
X146366666Y-108770952D01*
X146366666Y-108913809D01*
X146414285Y-109104285D01*
X146461904Y-109199523D01*
X146557142Y-109294761D01*
X146700000Y-109342380D01*
X146795238Y-109342380D01*
X146938095Y-109294761D01*
X146985714Y-109247142D01*
X146985714Y-108913809D01*
X146795238Y-108913809D01*
X147414285Y-109342380D02*
X147414285Y-108342380D01*
X147985714Y-109342380D01*
X147985714Y-108342380D01*
X148461904Y-109342380D02*
X148461904Y-108342380D01*
X148700000Y-108342380D01*
X148842857Y-108390000D01*
X148938095Y-108485238D01*
X148985714Y-108580476D01*
X149033333Y-108770952D01*
X149033333Y-108913809D01*
X148985714Y-109104285D01*
X148938095Y-109199523D01*
X148842857Y-109294761D01*
X148700000Y-109342380D01*
X148461904Y-109342380D01*
X135775238Y-109342380D02*
X135775238Y-108342380D01*
X136156190Y-108342380D01*
X136251428Y-108390000D01*
X136299047Y-108437619D01*
X136346666Y-108532857D01*
X136346666Y-108675714D01*
X136299047Y-108770952D01*
X136251428Y-108818571D01*
X136156190Y-108866190D01*
X135775238Y-108866190D01*
X136680000Y-108342380D02*
X136918095Y-109342380D01*
X137108571Y-108628095D01*
X137299047Y-109342380D01*
X137537142Y-108342380D01*
X137918095Y-109342380D02*
X137918095Y-108342380D01*
X138251428Y-109056666D01*
X138584761Y-108342380D01*
X138584761Y-109342380D01*
X132956190Y-109342380D02*
X132956190Y-108342380D01*
X133432380Y-109342380D02*
X133432380Y-108342380D01*
X134003809Y-109342380D01*
X134003809Y-108342380D01*
X134813333Y-108818571D02*
X134956190Y-108866190D01*
X135003809Y-108913809D01*
X135051428Y-109009047D01*
X135051428Y-109151904D01*
X135003809Y-109247142D01*
X134956190Y-109294761D01*
X134860952Y-109342380D01*
X134480000Y-109342380D01*
X134480000Y-108342380D01*
X134813333Y-108342380D01*
X134908571Y-108390000D01*
X134956190Y-108437619D01*
X135003809Y-108532857D01*
X135003809Y-108628095D01*
X134956190Y-108723333D01*
X134908571Y-108770952D01*
X134813333Y-108818571D01*
X134480000Y-108818571D01*
X130207619Y-109352380D02*
X130207619Y-108352380D01*
X130683809Y-109352380D02*
X130683809Y-108352380D01*
X131255238Y-109352380D01*
X131255238Y-108352380D01*
X131683809Y-109066666D02*
X132160000Y-109066666D01*
X131588571Y-109352380D02*
X131921904Y-108352380D01*
X132255238Y-109352380D01*
X127398095Y-108390000D02*
X127302857Y-108342380D01*
X127160000Y-108342380D01*
X127017142Y-108390000D01*
X126921904Y-108485238D01*
X126874285Y-108580476D01*
X126826666Y-108770952D01*
X126826666Y-108913809D01*
X126874285Y-109104285D01*
X126921904Y-109199523D01*
X127017142Y-109294761D01*
X127160000Y-109342380D01*
X127255238Y-109342380D01*
X127398095Y-109294761D01*
X127445714Y-109247142D01*
X127445714Y-108913809D01*
X127255238Y-108913809D01*
X127874285Y-109342380D02*
X127874285Y-108342380D01*
X128445714Y-109342380D01*
X128445714Y-108342380D01*
X128921904Y-109342380D02*
X128921904Y-108342380D01*
X129160000Y-108342380D01*
X129302857Y-108390000D01*
X129398095Y-108485238D01*
X129445714Y-108580476D01*
X129493333Y-108770952D01*
X129493333Y-108913809D01*
X129445714Y-109104285D01*
X129398095Y-109199523D01*
X129302857Y-109294761D01*
X129160000Y-109342380D01*
X128921904Y-109342380D01*
X123781904Y-108342380D02*
X124400952Y-108342380D01*
X124067619Y-108723333D01*
X124210476Y-108723333D01*
X124305714Y-108770952D01*
X124353333Y-108818571D01*
X124400952Y-108913809D01*
X124400952Y-109151904D01*
X124353333Y-109247142D01*
X124305714Y-109294761D01*
X124210476Y-109342380D01*
X123924761Y-109342380D01*
X123829523Y-109294761D01*
X123781904Y-109247142D01*
X124686666Y-108342380D02*
X125020000Y-109342380D01*
X125353333Y-108342380D01*
X125591428Y-108342380D02*
X126210476Y-108342380D01*
X125877142Y-108723333D01*
X126020000Y-108723333D01*
X126115238Y-108770952D01*
X126162857Y-108818571D01*
X126210476Y-108913809D01*
X126210476Y-109151904D01*
X126162857Y-109247142D01*
X126115238Y-109294761D01*
X126020000Y-109342380D01*
X125734285Y-109342380D01*
X125639047Y-109294761D01*
X125591428Y-109247142D01*
X112667142Y-108342380D02*
X113000476Y-109342380D01*
X113333809Y-108342380D01*
X114000476Y-108818571D02*
X114143333Y-108866190D01*
X114190952Y-108913809D01*
X114238571Y-109009047D01*
X114238571Y-109151904D01*
X114190952Y-109247142D01*
X114143333Y-109294761D01*
X114048095Y-109342380D01*
X113667142Y-109342380D01*
X113667142Y-108342380D01*
X114000476Y-108342380D01*
X114095714Y-108390000D01*
X114143333Y-108437619D01*
X114190952Y-108532857D01*
X114190952Y-108628095D01*
X114143333Y-108723333D01*
X114095714Y-108770952D01*
X114000476Y-108818571D01*
X113667142Y-108818571D01*
X114619523Y-109056666D02*
X115095714Y-109056666D01*
X114524285Y-109342380D02*
X114857619Y-108342380D01*
X115190952Y-109342380D01*
X115381428Y-108342380D02*
X115952857Y-108342380D01*
X115667142Y-109342380D02*
X115667142Y-108342380D01*
X117348095Y-108390000D02*
X117252857Y-108342380D01*
X117110000Y-108342380D01*
X116967142Y-108390000D01*
X116871904Y-108485238D01*
X116824285Y-108580476D01*
X116776666Y-108770952D01*
X116776666Y-108913809D01*
X116824285Y-109104285D01*
X116871904Y-109199523D01*
X116967142Y-109294761D01*
X117110000Y-109342380D01*
X117205238Y-109342380D01*
X117348095Y-109294761D01*
X117395714Y-109247142D01*
X117395714Y-108913809D01*
X117205238Y-108913809D01*
X117824285Y-109342380D02*
X117824285Y-108342380D01*
X118395714Y-109342380D01*
X118395714Y-108342380D01*
X118871904Y-109342380D02*
X118871904Y-108342380D01*
X119110000Y-108342380D01*
X119252857Y-108390000D01*
X119348095Y-108485238D01*
X119395714Y-108580476D01*
X119443333Y-108770952D01*
X119443333Y-108913809D01*
X119395714Y-109104285D01*
X119348095Y-109199523D01*
X119252857Y-109294761D01*
X119110000Y-109342380D01*
X118871904Y-109342380D01*
X123179523Y-76252380D02*
X122703333Y-76252380D01*
X122655714Y-76728571D01*
X122703333Y-76680952D01*
X122798571Y-76633333D01*
X123036666Y-76633333D01*
X123131904Y-76680952D01*
X123179523Y-76728571D01*
X123227142Y-76823809D01*
X123227142Y-77061904D01*
X123179523Y-77157142D01*
X123131904Y-77204761D01*
X123036666Y-77252380D01*
X122798571Y-77252380D01*
X122703333Y-77204761D01*
X122655714Y-77157142D01*
X123512857Y-76252380D02*
X123846190Y-77252380D01*
X124179523Y-76252380D01*
X118288095Y-76300000D02*
X118192857Y-76252380D01*
X118050000Y-76252380D01*
X117907142Y-76300000D01*
X117811904Y-76395238D01*
X117764285Y-76490476D01*
X117716666Y-76680952D01*
X117716666Y-76823809D01*
X117764285Y-77014285D01*
X117811904Y-77109523D01*
X117907142Y-77204761D01*
X118050000Y-77252380D01*
X118145238Y-77252380D01*
X118288095Y-77204761D01*
X118335714Y-77157142D01*
X118335714Y-76823809D01*
X118145238Y-76823809D01*
X118764285Y-77252380D02*
X118764285Y-76252380D01*
X119335714Y-77252380D01*
X119335714Y-76252380D01*
X119811904Y-77252380D02*
X119811904Y-76252380D01*
X120050000Y-76252380D01*
X120192857Y-76300000D01*
X120288095Y-76395238D01*
X120335714Y-76490476D01*
X120383333Y-76680952D01*
X120383333Y-76823809D01*
X120335714Y-77014285D01*
X120288095Y-77109523D01*
X120192857Y-77204761D01*
X120050000Y-77252380D01*
X119811904Y-77252380D01*
D12*
%TO.C,J1*%
X125630000Y-75490000D02*
X125630000Y-71470000D01*
X125630000Y-71470000D02*
X117910000Y-71470000D01*
X117910000Y-71470000D02*
X117910000Y-75490000D01*
X117910000Y-75490000D02*
X125630000Y-75490000D01*
X125630000Y-73780000D02*
X125130000Y-73780000D01*
X125130000Y-73780000D02*
X125130000Y-74990000D01*
X125130000Y-74990000D02*
X118410000Y-74990000D01*
X118410000Y-74990000D02*
X118410000Y-73780000D01*
X118410000Y-73780000D02*
X117910000Y-73780000D01*
X125630000Y-72970000D02*
X124630000Y-72970000D01*
X124630000Y-72970000D02*
X124630000Y-71470000D01*
X117910000Y-72970000D02*
X118910000Y-72970000D01*
X118910000Y-72970000D02*
X118910000Y-71470000D01*
X125930000Y-73670000D02*
X125930000Y-71170000D01*
X125930000Y-71170000D02*
X123430000Y-71170000D01*
%TO.C,J3*%
X139120000Y-71170000D02*
X136620000Y-71170000D01*
X139120000Y-73670000D02*
X139120000Y-71170000D01*
X129600000Y-72970000D02*
X129600000Y-71470000D01*
X128600000Y-72970000D02*
X129600000Y-72970000D01*
X137820000Y-72970000D02*
X137820000Y-71470000D01*
X138820000Y-72970000D02*
X137820000Y-72970000D01*
X129100000Y-73780000D02*
X128600000Y-73780000D01*
X129100000Y-74990000D02*
X129100000Y-73780000D01*
X138320000Y-74990000D02*
X129100000Y-74990000D01*
X138320000Y-73780000D02*
X138320000Y-74990000D01*
X138820000Y-73780000D02*
X138320000Y-73780000D01*
X128600000Y-75490000D02*
X138820000Y-75490000D01*
X128600000Y-71470000D02*
X128600000Y-75490000D01*
X138820000Y-71470000D02*
X128600000Y-71470000D01*
X138820000Y-75490000D02*
X138820000Y-71470000D01*
%TO.C,J4*%
X163890000Y-99610000D02*
X167910000Y-99610000D01*
X167910000Y-99610000D02*
X167910000Y-84390000D01*
X167910000Y-84390000D02*
X163890000Y-84390000D01*
X163890000Y-84390000D02*
X163890000Y-99610000D01*
X165600000Y-99610000D02*
X165600000Y-99110000D01*
X165600000Y-99110000D02*
X164390000Y-99110000D01*
X164390000Y-99110000D02*
X164390000Y-84890000D01*
X164390000Y-84890000D02*
X165600000Y-84890000D01*
X165600000Y-84890000D02*
X165600000Y-84390000D01*
X166410000Y-99610000D02*
X166410000Y-98610000D01*
X166410000Y-98610000D02*
X167910000Y-98610000D01*
X166410000Y-84390000D02*
X166410000Y-85390000D01*
X166410000Y-85390000D02*
X167910000Y-85390000D01*
X165710000Y-99910000D02*
X168210000Y-99910000D01*
X168210000Y-99910000D02*
X168210000Y-97410000D01*
%TO.C,J5*%
X112000000Y-114360000D02*
X114500000Y-114360000D01*
X112000000Y-111860000D02*
X112000000Y-114360000D01*
X119020000Y-112560000D02*
X119020000Y-114060000D01*
X120020000Y-112560000D02*
X119020000Y-112560000D01*
X113300000Y-112560000D02*
X113300000Y-114060000D01*
X112300000Y-112560000D02*
X113300000Y-112560000D01*
X119520000Y-111750000D02*
X120020000Y-111750000D01*
X119520000Y-110540000D02*
X119520000Y-111750000D01*
X112800000Y-110540000D02*
X119520000Y-110540000D01*
X112800000Y-111750000D02*
X112800000Y-110540000D01*
X112300000Y-111750000D02*
X112800000Y-111750000D01*
X120020000Y-110040000D02*
X112300000Y-110040000D01*
X120020000Y-114060000D02*
X120020000Y-110040000D01*
X112300000Y-114060000D02*
X120020000Y-114060000D01*
X112300000Y-110040000D02*
X112300000Y-114060000D01*
%TO.C,J7*%
X168190000Y-114360000D02*
X168190000Y-111860000D01*
X165690000Y-114360000D02*
X168190000Y-114360000D01*
X166390000Y-102340000D02*
X167890000Y-102340000D01*
X166390000Y-101340000D02*
X166390000Y-102340000D01*
X166390000Y-113060000D02*
X167890000Y-113060000D01*
X166390000Y-114060000D02*
X166390000Y-113060000D01*
X165580000Y-101840000D02*
X165580000Y-101340000D01*
X164370000Y-101840000D02*
X165580000Y-101840000D01*
X164370000Y-113560000D02*
X164370000Y-101840000D01*
X165580000Y-113560000D02*
X164370000Y-113560000D01*
X165580000Y-114060000D02*
X165580000Y-113560000D01*
X163870000Y-101340000D02*
X163870000Y-114060000D01*
X167890000Y-101340000D02*
X163870000Y-101340000D01*
X167890000Y-114060000D02*
X167890000Y-101340000D01*
X163870000Y-114060000D02*
X167890000Y-114060000D01*
%TO.C,J8*%
X147820000Y-75490000D02*
X147820000Y-71470000D01*
X147820000Y-71470000D02*
X140100000Y-71470000D01*
X140100000Y-71470000D02*
X140100000Y-75490000D01*
X140100000Y-75490000D02*
X147820000Y-75490000D01*
X147820000Y-73780000D02*
X147320000Y-73780000D01*
X147320000Y-73780000D02*
X147320000Y-74990000D01*
X147320000Y-74990000D02*
X140600000Y-74990000D01*
X140600000Y-74990000D02*
X140600000Y-73780000D01*
X140600000Y-73780000D02*
X140100000Y-73780000D01*
X147820000Y-72970000D02*
X146820000Y-72970000D01*
X146820000Y-72970000D02*
X146820000Y-71470000D01*
X140100000Y-72970000D02*
X141100000Y-72970000D01*
X141100000Y-72970000D02*
X141100000Y-71470000D01*
X148120000Y-73670000D02*
X148120000Y-71170000D01*
X148120000Y-71170000D02*
X145620000Y-71170000D01*
%TO.C,J9*%
X157120000Y-71170000D02*
X154620000Y-71170000D01*
X157120000Y-73670000D02*
X157120000Y-71170000D01*
X150100000Y-72970000D02*
X150100000Y-71470000D01*
X149100000Y-72970000D02*
X150100000Y-72970000D01*
X155820000Y-72970000D02*
X155820000Y-71470000D01*
X156820000Y-72970000D02*
X155820000Y-72970000D01*
X149600000Y-73780000D02*
X149100000Y-73780000D01*
X149600000Y-74990000D02*
X149600000Y-73780000D01*
X156320000Y-74990000D02*
X149600000Y-74990000D01*
X156320000Y-73780000D02*
X156320000Y-74990000D01*
X156820000Y-73780000D02*
X156320000Y-73780000D01*
X149100000Y-75490000D02*
X156820000Y-75490000D01*
X149100000Y-71470000D02*
X149100000Y-75490000D01*
X156820000Y-71470000D02*
X149100000Y-71470000D01*
X156820000Y-75490000D02*
X156820000Y-71470000D01*
%TO.C,J10*%
X123210000Y-114360000D02*
X125710000Y-114360000D01*
X123210000Y-111860000D02*
X123210000Y-114360000D01*
X137730000Y-112560000D02*
X137730000Y-114060000D01*
X138730000Y-112560000D02*
X137730000Y-112560000D01*
X124510000Y-112560000D02*
X124510000Y-114060000D01*
X123510000Y-112560000D02*
X124510000Y-112560000D01*
X138230000Y-111750000D02*
X138730000Y-111750000D01*
X138230000Y-110540000D02*
X138230000Y-111750000D01*
X124010000Y-110540000D02*
X138230000Y-110540000D01*
X124010000Y-111750000D02*
X124010000Y-110540000D01*
X123510000Y-111750000D02*
X124010000Y-111750000D01*
X138730000Y-110040000D02*
X123510000Y-110040000D01*
X138730000Y-114060000D02*
X138730000Y-110040000D01*
X123510000Y-114060000D02*
X138730000Y-114060000D01*
X123510000Y-110040000D02*
X123510000Y-114060000D01*
%TO.C,J11*%
X140510000Y-110040000D02*
X140510000Y-114060000D01*
X140510000Y-114060000D02*
X148230000Y-114060000D01*
X148230000Y-114060000D02*
X148230000Y-110040000D01*
X148230000Y-110040000D02*
X140510000Y-110040000D01*
X140510000Y-111750000D02*
X141010000Y-111750000D01*
X141010000Y-111750000D02*
X141010000Y-110540000D01*
X141010000Y-110540000D02*
X147730000Y-110540000D01*
X147730000Y-110540000D02*
X147730000Y-111750000D01*
X147730000Y-111750000D02*
X148230000Y-111750000D01*
X140510000Y-112560000D02*
X141510000Y-112560000D01*
X141510000Y-112560000D02*
X141510000Y-114060000D01*
X148230000Y-112560000D02*
X147230000Y-112560000D01*
X147230000Y-112560000D02*
X147230000Y-114060000D01*
X140210000Y-111860000D02*
X140210000Y-114360000D01*
X140210000Y-114360000D02*
X142710000Y-114360000D01*
%TO.C,J12*%
X150210000Y-114360000D02*
X152710000Y-114360000D01*
X150210000Y-111860000D02*
X150210000Y-114360000D01*
X157230000Y-112560000D02*
X157230000Y-114060000D01*
X158230000Y-112560000D02*
X157230000Y-112560000D01*
X151510000Y-112560000D02*
X151510000Y-114060000D01*
X150510000Y-112560000D02*
X151510000Y-112560000D01*
X157730000Y-111750000D02*
X158230000Y-111750000D01*
X157730000Y-110540000D02*
X157730000Y-111750000D01*
X151010000Y-110540000D02*
X157730000Y-110540000D01*
X151010000Y-111750000D02*
X151010000Y-110540000D01*
X150510000Y-111750000D02*
X151010000Y-111750000D01*
X158230000Y-110040000D02*
X150510000Y-110040000D01*
X158230000Y-114060000D02*
X158230000Y-110040000D01*
X150510000Y-114060000D02*
X158230000Y-114060000D01*
X150510000Y-110040000D02*
X150510000Y-114060000D01*
%TO.C,R1*%
X126682500Y-83825276D02*
X126682500Y-84334724D01*
X125637500Y-83825276D02*
X125637500Y-84334724D01*
%TO.C,R2*%
X128177500Y-83825276D02*
X128177500Y-84334724D01*
X129222500Y-83825276D02*
X129222500Y-84334724D01*
%TO.C,R3*%
X131762500Y-83825276D02*
X131762500Y-84334724D01*
X130717500Y-83825276D02*
X130717500Y-84334724D01*
%TO.C,R4*%
X131582500Y-101154724D02*
X131582500Y-100645276D01*
X130537500Y-101154724D02*
X130537500Y-100645276D01*
%TO.C,R5*%
X140875276Y-83347500D02*
X141384724Y-83347500D01*
X140875276Y-84392500D02*
X141384724Y-84392500D01*
%TO.C,R6*%
X141384724Y-85137500D02*
X140875276Y-85137500D01*
X141384724Y-86182500D02*
X140875276Y-86182500D01*
%TO.C,R7*%
X154952500Y-100535276D02*
X154952500Y-101044724D01*
X153907500Y-100535276D02*
X153907500Y-101044724D01*
%TO.C,R8*%
X147062500Y-100655276D02*
X147062500Y-101164724D01*
X146017500Y-100655276D02*
X146017500Y-101164724D01*
%TO.C,R9*%
X145297500Y-83905276D02*
X145297500Y-84414724D01*
X146342500Y-83905276D02*
X146342500Y-84414724D01*
%TO.C,R10*%
X150662500Y-83905276D02*
X150662500Y-84414724D01*
X149617500Y-83905276D02*
X149617500Y-84414724D01*
%TO.C,R11*%
X143282500Y-101304724D02*
X143282500Y-100795276D01*
X142237500Y-101304724D02*
X142237500Y-100795276D01*
%TO.C,R12*%
X136832500Y-101144724D02*
X136832500Y-100635276D01*
X135787500Y-101144724D02*
X135787500Y-100635276D01*
%TO.C,R13*%
X139892500Y-101234724D02*
X139892500Y-100725276D01*
X138847500Y-101234724D02*
X138847500Y-100725276D01*
%TO.C,R14*%
X125697500Y-101284724D02*
X125697500Y-100775276D01*
X126742500Y-101284724D02*
X126742500Y-100775276D01*
%TO.C,C1*%
X169850000Y-73970000D02*
G75*
G03*
X169850000Y-73970000I-3870000J0D01*
G01*
X165980000Y-70140000D02*
X165980000Y-77800000D01*
X166020000Y-70140000D02*
X166020000Y-77800000D01*
X166060000Y-70140000D02*
X166060000Y-77800000D01*
X166100000Y-70141000D02*
X166100000Y-77799000D01*
X166140000Y-70143000D02*
X166140000Y-77797000D01*
X166180000Y-70145000D02*
X166180000Y-77795000D01*
X166220000Y-70147000D02*
X166220000Y-72930000D01*
X166220000Y-75010000D02*
X166220000Y-77793000D01*
X166260000Y-70150000D02*
X166260000Y-72930000D01*
X166260000Y-75010000D02*
X166260000Y-77790000D01*
X166300000Y-70153000D02*
X166300000Y-72930000D01*
X166300000Y-75010000D02*
X166300000Y-77787000D01*
X166340000Y-70156000D02*
X166340000Y-72930000D01*
X166340000Y-75010000D02*
X166340000Y-77784000D01*
X166380000Y-70160000D02*
X166380000Y-72930000D01*
X166380000Y-75010000D02*
X166380000Y-77780000D01*
X166420000Y-70165000D02*
X166420000Y-72930000D01*
X166420000Y-75010000D02*
X166420000Y-77775000D01*
X166460000Y-70169000D02*
X166460000Y-72930000D01*
X166460000Y-75010000D02*
X166460000Y-77771000D01*
X166500000Y-70175000D02*
X166500000Y-72930000D01*
X166500000Y-75010000D02*
X166500000Y-77765000D01*
X166540000Y-70180000D02*
X166540000Y-72930000D01*
X166540000Y-75010000D02*
X166540000Y-77760000D01*
X166580000Y-70186000D02*
X166580000Y-72930000D01*
X166580000Y-75010000D02*
X166580000Y-77754000D01*
X166620000Y-70193000D02*
X166620000Y-72930000D01*
X166620000Y-75010000D02*
X166620000Y-77747000D01*
X166660000Y-70200000D02*
X166660000Y-72930000D01*
X166660000Y-75010000D02*
X166660000Y-77740000D01*
X166701000Y-70207000D02*
X166701000Y-72930000D01*
X166701000Y-75010000D02*
X166701000Y-77733000D01*
X166741000Y-70215000D02*
X166741000Y-72930000D01*
X166741000Y-75010000D02*
X166741000Y-77725000D01*
X166781000Y-70223000D02*
X166781000Y-72930000D01*
X166781000Y-75010000D02*
X166781000Y-77717000D01*
X166821000Y-70232000D02*
X166821000Y-72930000D01*
X166821000Y-75010000D02*
X166821000Y-77708000D01*
X166861000Y-70241000D02*
X166861000Y-72930000D01*
X166861000Y-75010000D02*
X166861000Y-77699000D01*
X166901000Y-70250000D02*
X166901000Y-72930000D01*
X166901000Y-75010000D02*
X166901000Y-77690000D01*
X166941000Y-70260000D02*
X166941000Y-72930000D01*
X166941000Y-75010000D02*
X166941000Y-77680000D01*
X166981000Y-70271000D02*
X166981000Y-72930000D01*
X166981000Y-75010000D02*
X166981000Y-77669000D01*
X167021000Y-70282000D02*
X167021000Y-72930000D01*
X167021000Y-75010000D02*
X167021000Y-77658000D01*
X167061000Y-70293000D02*
X167061000Y-72930000D01*
X167061000Y-75010000D02*
X167061000Y-77647000D01*
X167101000Y-70305000D02*
X167101000Y-72930000D01*
X167101000Y-75010000D02*
X167101000Y-77635000D01*
X167141000Y-70317000D02*
X167141000Y-72930000D01*
X167141000Y-75010000D02*
X167141000Y-77623000D01*
X167181000Y-70330000D02*
X167181000Y-72930000D01*
X167181000Y-75010000D02*
X167181000Y-77610000D01*
X167221000Y-70344000D02*
X167221000Y-72930000D01*
X167221000Y-75010000D02*
X167221000Y-77596000D01*
X167261000Y-70357000D02*
X167261000Y-72930000D01*
X167261000Y-75010000D02*
X167261000Y-77583000D01*
X167301000Y-70372000D02*
X167301000Y-72930000D01*
X167301000Y-75010000D02*
X167301000Y-77568000D01*
X167341000Y-70386000D02*
X167341000Y-72930000D01*
X167341000Y-75010000D02*
X167341000Y-77554000D01*
X167381000Y-70402000D02*
X167381000Y-72930000D01*
X167381000Y-75010000D02*
X167381000Y-77538000D01*
X167421000Y-70417000D02*
X167421000Y-72930000D01*
X167421000Y-75010000D02*
X167421000Y-77523000D01*
X167461000Y-70434000D02*
X167461000Y-72930000D01*
X167461000Y-75010000D02*
X167461000Y-77506000D01*
X167501000Y-70450000D02*
X167501000Y-72930000D01*
X167501000Y-75010000D02*
X167501000Y-77490000D01*
X167541000Y-70468000D02*
X167541000Y-72930000D01*
X167541000Y-75010000D02*
X167541000Y-77472000D01*
X167581000Y-70486000D02*
X167581000Y-72930000D01*
X167581000Y-75010000D02*
X167581000Y-77454000D01*
X167621000Y-70504000D02*
X167621000Y-72930000D01*
X167621000Y-75010000D02*
X167621000Y-77436000D01*
X167661000Y-70523000D02*
X167661000Y-72930000D01*
X167661000Y-75010000D02*
X167661000Y-77417000D01*
X167701000Y-70543000D02*
X167701000Y-72930000D01*
X167701000Y-75010000D02*
X167701000Y-77397000D01*
X167741000Y-70563000D02*
X167741000Y-72930000D01*
X167741000Y-75010000D02*
X167741000Y-77377000D01*
X167781000Y-70584000D02*
X167781000Y-72930000D01*
X167781000Y-75010000D02*
X167781000Y-77356000D01*
X167821000Y-70605000D02*
X167821000Y-72930000D01*
X167821000Y-75010000D02*
X167821000Y-77335000D01*
X167861000Y-70627000D02*
X167861000Y-72930000D01*
X167861000Y-75010000D02*
X167861000Y-77313000D01*
X167901000Y-70649000D02*
X167901000Y-72930000D01*
X167901000Y-75010000D02*
X167901000Y-77291000D01*
X167941000Y-70673000D02*
X167941000Y-72930000D01*
X167941000Y-75010000D02*
X167941000Y-77267000D01*
X167981000Y-70696000D02*
X167981000Y-72930000D01*
X167981000Y-75010000D02*
X167981000Y-77244000D01*
X168021000Y-70721000D02*
X168021000Y-72930000D01*
X168021000Y-75010000D02*
X168021000Y-77219000D01*
X168061000Y-70746000D02*
X168061000Y-72930000D01*
X168061000Y-75010000D02*
X168061000Y-77194000D01*
X168101000Y-70772000D02*
X168101000Y-72930000D01*
X168101000Y-75010000D02*
X168101000Y-77168000D01*
X168141000Y-70798000D02*
X168141000Y-72930000D01*
X168141000Y-75010000D02*
X168141000Y-77142000D01*
X168181000Y-70826000D02*
X168181000Y-72930000D01*
X168181000Y-75010000D02*
X168181000Y-77114000D01*
X168221000Y-70854000D02*
X168221000Y-72930000D01*
X168221000Y-75010000D02*
X168221000Y-77086000D01*
X168261000Y-70882000D02*
X168261000Y-72930000D01*
X168261000Y-75010000D02*
X168261000Y-77058000D01*
X168301000Y-70912000D02*
X168301000Y-77028000D01*
X168341000Y-70942000D02*
X168341000Y-76998000D01*
X168381000Y-70974000D02*
X168381000Y-76966000D01*
X168421000Y-71006000D02*
X168421000Y-76934000D01*
X168461000Y-71039000D02*
X168461000Y-76901000D01*
X168501000Y-71072000D02*
X168501000Y-76868000D01*
X168541000Y-71107000D02*
X168541000Y-76833000D01*
X168581000Y-71143000D02*
X168581000Y-76797000D01*
X168621000Y-71180000D02*
X168621000Y-76760000D01*
X168661000Y-71218000D02*
X168661000Y-76722000D01*
X168701000Y-71257000D02*
X168701000Y-76683000D01*
X168741000Y-71297000D02*
X168741000Y-76643000D01*
X168781000Y-71338000D02*
X168781000Y-76602000D01*
X168821000Y-71381000D02*
X168821000Y-76559000D01*
X168861000Y-71424000D02*
X168861000Y-76516000D01*
X168901000Y-71470000D02*
X168901000Y-76470000D01*
X168941000Y-71516000D02*
X168941000Y-76424000D01*
X168981000Y-71565000D02*
X168981000Y-76375000D01*
X169021000Y-71615000D02*
X169021000Y-76325000D01*
X169061000Y-71666000D02*
X169061000Y-76274000D01*
X169101000Y-71720000D02*
X169101000Y-76220000D01*
X169141000Y-71775000D02*
X169141000Y-76165000D01*
X169181000Y-71833000D02*
X169181000Y-76107000D01*
X169221000Y-71893000D02*
X169221000Y-76047000D01*
X169261000Y-71956000D02*
X169261000Y-75984000D01*
X169301000Y-72021000D02*
X169301000Y-75919000D01*
X169341000Y-72089000D02*
X169341000Y-75851000D01*
X169381000Y-72161000D02*
X169381000Y-75779000D01*
X169421000Y-72237000D02*
X169421000Y-75703000D01*
X169461000Y-72316000D02*
X169461000Y-75624000D01*
X169501000Y-72401000D02*
X169501000Y-75539000D01*
X169541000Y-72492000D02*
X169541000Y-75448000D01*
X169581000Y-72589000D02*
X169581000Y-75351000D01*
X169621000Y-72695000D02*
X169621000Y-75245000D01*
X169661000Y-72812000D02*
X169661000Y-75128000D01*
X169701000Y-72942000D02*
X169701000Y-74998000D01*
X169741000Y-73093000D02*
X169741000Y-74847000D01*
X169781000Y-73277000D02*
X169781000Y-74663000D01*
X169821000Y-73529000D02*
X169821000Y-74411000D01*
X161837789Y-71795000D02*
X162587789Y-71795000D01*
X162212789Y-71420000D02*
X162212789Y-72170000D01*
%TO.C,J2*%
X122340000Y-81240000D02*
X122340000Y-78580000D01*
X122340000Y-81240000D02*
X157960000Y-81240000D01*
X157960000Y-81240000D02*
X157960000Y-78580000D01*
X122340000Y-78580000D02*
X157960000Y-78580000D01*
X119740000Y-78580000D02*
X121070000Y-78580000D01*
X119740000Y-79910000D02*
X119740000Y-78580000D01*
%TO.C,J6*%
X119740000Y-105310000D02*
X119740000Y-103980000D01*
X119740000Y-103980000D02*
X121070000Y-103980000D01*
X122340000Y-103980000D02*
X157960000Y-103980000D01*
X157960000Y-106640000D02*
X157960000Y-103980000D01*
X122340000Y-106640000D02*
X157960000Y-106640000D01*
X122340000Y-106640000D02*
X122340000Y-103980000D01*
%TO.C,J1*%
D11*
X116376666Y-73322380D02*
X116376666Y-74036666D01*
X116329047Y-74179523D01*
X116233809Y-74274761D01*
X116090952Y-74322380D01*
X115995714Y-74322380D01*
X117376666Y-74322380D02*
X116805238Y-74322380D01*
X117090952Y-74322380D02*
X117090952Y-73322380D01*
X116995714Y-73465238D01*
X116900476Y-73560476D01*
X116805238Y-73608095D01*
%TO.C,J3*%
X126856666Y-73232380D02*
X126856666Y-73946666D01*
X126809047Y-74089523D01*
X126713809Y-74184761D01*
X126570952Y-74232380D01*
X126475714Y-74232380D01*
X127237619Y-73232380D02*
X127856666Y-73232380D01*
X127523333Y-73613333D01*
X127666190Y-73613333D01*
X127761428Y-73660952D01*
X127809047Y-73708571D01*
X127856666Y-73803809D01*
X127856666Y-74041904D01*
X127809047Y-74137142D01*
X127761428Y-74184761D01*
X127666190Y-74232380D01*
X127380476Y-74232380D01*
X127285238Y-74184761D01*
X127237619Y-74137142D01*
%TO.C,J4*%
X160672380Y-92543333D02*
X161386666Y-92543333D01*
X161529523Y-92590952D01*
X161624761Y-92686190D01*
X161672380Y-92829047D01*
X161672380Y-92924285D01*
X161005714Y-91638571D02*
X161672380Y-91638571D01*
X160624761Y-91876666D02*
X161339047Y-92114761D01*
X161339047Y-91495714D01*
%TO.C,J5*%
X110716666Y-111292380D02*
X110716666Y-112006666D01*
X110669047Y-112149523D01*
X110573809Y-112244761D01*
X110430952Y-112292380D01*
X110335714Y-112292380D01*
X111669047Y-111292380D02*
X111192857Y-111292380D01*
X111145238Y-111768571D01*
X111192857Y-111720952D01*
X111288095Y-111673333D01*
X111526190Y-111673333D01*
X111621428Y-111720952D01*
X111669047Y-111768571D01*
X111716666Y-111863809D01*
X111716666Y-112101904D01*
X111669047Y-112197142D01*
X111621428Y-112244761D01*
X111526190Y-112292380D01*
X111288095Y-112292380D01*
X111192857Y-112244761D01*
X111145238Y-112197142D01*
%TO.C,J7*%
X160892380Y-107183333D02*
X161606666Y-107183333D01*
X161749523Y-107230952D01*
X161844761Y-107326190D01*
X161892380Y-107469047D01*
X161892380Y-107564285D01*
X160892380Y-106802380D02*
X160892380Y-106135714D01*
X161892380Y-106564285D01*
%TO.C,J8*%
X143616666Y-76232380D02*
X143616666Y-76946666D01*
X143569047Y-77089523D01*
X143473809Y-77184761D01*
X143330952Y-77232380D01*
X143235714Y-77232380D01*
X144235714Y-76660952D02*
X144140476Y-76613333D01*
X144092857Y-76565714D01*
X144045238Y-76470476D01*
X144045238Y-76422857D01*
X144092857Y-76327619D01*
X144140476Y-76280000D01*
X144235714Y-76232380D01*
X144426190Y-76232380D01*
X144521428Y-76280000D01*
X144569047Y-76327619D01*
X144616666Y-76422857D01*
X144616666Y-76470476D01*
X144569047Y-76565714D01*
X144521428Y-76613333D01*
X144426190Y-76660952D01*
X144235714Y-76660952D01*
X144140476Y-76708571D01*
X144092857Y-76756190D01*
X144045238Y-76851428D01*
X144045238Y-77041904D01*
X144092857Y-77137142D01*
X144140476Y-77184761D01*
X144235714Y-77232380D01*
X144426190Y-77232380D01*
X144521428Y-77184761D01*
X144569047Y-77137142D01*
X144616666Y-77041904D01*
X144616666Y-76851428D01*
X144569047Y-76756190D01*
X144521428Y-76708571D01*
X144426190Y-76660952D01*
%TO.C,J9*%
X157786666Y-73172380D02*
X157786666Y-73886666D01*
X157739047Y-74029523D01*
X157643809Y-74124761D01*
X157500952Y-74172380D01*
X157405714Y-74172380D01*
X158310476Y-74172380D02*
X158500952Y-74172380D01*
X158596190Y-74124761D01*
X158643809Y-74077142D01*
X158739047Y-73934285D01*
X158786666Y-73743809D01*
X158786666Y-73362857D01*
X158739047Y-73267619D01*
X158691428Y-73220000D01*
X158596190Y-73172380D01*
X158405714Y-73172380D01*
X158310476Y-73220000D01*
X158262857Y-73267619D01*
X158215238Y-73362857D01*
X158215238Y-73600952D01*
X158262857Y-73696190D01*
X158310476Y-73743809D01*
X158405714Y-73791428D01*
X158596190Y-73791428D01*
X158691428Y-73743809D01*
X158739047Y-73696190D01*
X158786666Y-73600952D01*
%TO.C,J10*%
X120980476Y-111322380D02*
X120980476Y-112036666D01*
X120932857Y-112179523D01*
X120837619Y-112274761D01*
X120694761Y-112322380D01*
X120599523Y-112322380D01*
X121980476Y-112322380D02*
X121409047Y-112322380D01*
X121694761Y-112322380D02*
X121694761Y-111322380D01*
X121599523Y-111465238D01*
X121504285Y-111560476D01*
X121409047Y-111608095D01*
X122599523Y-111322380D02*
X122694761Y-111322380D01*
X122790000Y-111370000D01*
X122837619Y-111417619D01*
X122885238Y-111512857D01*
X122932857Y-111703333D01*
X122932857Y-111941428D01*
X122885238Y-112131904D01*
X122837619Y-112227142D01*
X122790000Y-112274761D01*
X122694761Y-112322380D01*
X122599523Y-112322380D01*
X122504285Y-112274761D01*
X122456666Y-112227142D01*
X122409047Y-112131904D01*
X122361428Y-111941428D01*
X122361428Y-111703333D01*
X122409047Y-111512857D01*
X122456666Y-111417619D01*
X122504285Y-111370000D01*
X122599523Y-111322380D01*
%TO.C,J11*%
X143560476Y-108402380D02*
X143560476Y-109116666D01*
X143512857Y-109259523D01*
X143417619Y-109354761D01*
X143274761Y-109402380D01*
X143179523Y-109402380D01*
X144560476Y-109402380D02*
X143989047Y-109402380D01*
X144274761Y-109402380D02*
X144274761Y-108402380D01*
X144179523Y-108545238D01*
X144084285Y-108640476D01*
X143989047Y-108688095D01*
X145512857Y-109402380D02*
X144941428Y-109402380D01*
X145227142Y-109402380D02*
X145227142Y-108402380D01*
X145131904Y-108545238D01*
X145036666Y-108640476D01*
X144941428Y-108688095D01*
%TO.C,J12*%
X153560476Y-108402380D02*
X153560476Y-109116666D01*
X153512857Y-109259523D01*
X153417619Y-109354761D01*
X153274761Y-109402380D01*
X153179523Y-109402380D01*
X154560476Y-109402380D02*
X153989047Y-109402380D01*
X154274761Y-109402380D02*
X154274761Y-108402380D01*
X154179523Y-108545238D01*
X154084285Y-108640476D01*
X153989047Y-108688095D01*
X154941428Y-108497619D02*
X154989047Y-108450000D01*
X155084285Y-108402380D01*
X155322380Y-108402380D01*
X155417619Y-108450000D01*
X155465238Y-108497619D01*
X155512857Y-108592857D01*
X155512857Y-108688095D01*
X155465238Y-108830952D01*
X154893809Y-109402380D01*
X155512857Y-109402380D01*
%TO.C,R1*%
X126542380Y-86766666D02*
X126066190Y-87100000D01*
X126542380Y-87338095D02*
X125542380Y-87338095D01*
X125542380Y-86957142D01*
X125590000Y-86861904D01*
X125637619Y-86814285D01*
X125732857Y-86766666D01*
X125875714Y-86766666D01*
X125970952Y-86814285D01*
X126018571Y-86861904D01*
X126066190Y-86957142D01*
X126066190Y-87338095D01*
X126542380Y-85814285D02*
X126542380Y-86385714D01*
X126542380Y-86100000D02*
X125542380Y-86100000D01*
X125685238Y-86195238D01*
X125780476Y-86290476D01*
X125828095Y-86385714D01*
%TO.C,R2*%
X129212380Y-86816666D02*
X128736190Y-87150000D01*
X129212380Y-87388095D02*
X128212380Y-87388095D01*
X128212380Y-87007142D01*
X128260000Y-86911904D01*
X128307619Y-86864285D01*
X128402857Y-86816666D01*
X128545714Y-86816666D01*
X128640952Y-86864285D01*
X128688571Y-86911904D01*
X128736190Y-87007142D01*
X128736190Y-87388095D01*
X128307619Y-86435714D02*
X128260000Y-86388095D01*
X128212380Y-86292857D01*
X128212380Y-86054761D01*
X128260000Y-85959523D01*
X128307619Y-85911904D01*
X128402857Y-85864285D01*
X128498095Y-85864285D01*
X128640952Y-85911904D01*
X129212380Y-86483333D01*
X129212380Y-85864285D01*
%TO.C,R3*%
X131792380Y-86796666D02*
X131316190Y-87130000D01*
X131792380Y-87368095D02*
X130792380Y-87368095D01*
X130792380Y-86987142D01*
X130840000Y-86891904D01*
X130887619Y-86844285D01*
X130982857Y-86796666D01*
X131125714Y-86796666D01*
X131220952Y-86844285D01*
X131268571Y-86891904D01*
X131316190Y-86987142D01*
X131316190Y-87368095D01*
X130792380Y-86463333D02*
X130792380Y-85844285D01*
X131173333Y-86177619D01*
X131173333Y-86034761D01*
X131220952Y-85939523D01*
X131268571Y-85891904D01*
X131363809Y-85844285D01*
X131601904Y-85844285D01*
X131697142Y-85891904D01*
X131744761Y-85939523D01*
X131792380Y-86034761D01*
X131792380Y-86320476D01*
X131744761Y-86415714D01*
X131697142Y-86463333D01*
%TO.C,R4*%
X130082380Y-101066666D02*
X129606190Y-101400000D01*
X130082380Y-101638095D02*
X129082380Y-101638095D01*
X129082380Y-101257142D01*
X129130000Y-101161904D01*
X129177619Y-101114285D01*
X129272857Y-101066666D01*
X129415714Y-101066666D01*
X129510952Y-101114285D01*
X129558571Y-101161904D01*
X129606190Y-101257142D01*
X129606190Y-101638095D01*
X129415714Y-100209523D02*
X130082380Y-100209523D01*
X129034761Y-100447619D02*
X129749047Y-100685714D01*
X129749047Y-100066666D01*
%TO.C,R5*%
X140963333Y-82892380D02*
X140630000Y-82416190D01*
X140391904Y-82892380D02*
X140391904Y-81892380D01*
X140772857Y-81892380D01*
X140868095Y-81940000D01*
X140915714Y-81987619D01*
X140963333Y-82082857D01*
X140963333Y-82225714D01*
X140915714Y-82320952D01*
X140868095Y-82368571D01*
X140772857Y-82416190D01*
X140391904Y-82416190D01*
X141868095Y-81892380D02*
X141391904Y-81892380D01*
X141344285Y-82368571D01*
X141391904Y-82320952D01*
X141487142Y-82273333D01*
X141725238Y-82273333D01*
X141820476Y-82320952D01*
X141868095Y-82368571D01*
X141915714Y-82463809D01*
X141915714Y-82701904D01*
X141868095Y-82797142D01*
X141820476Y-82844761D01*
X141725238Y-82892380D01*
X141487142Y-82892380D01*
X141391904Y-82844761D01*
X141344285Y-82797142D01*
%TO.C,R6*%
X140963333Y-87542380D02*
X140630000Y-87066190D01*
X140391904Y-87542380D02*
X140391904Y-86542380D01*
X140772857Y-86542380D01*
X140868095Y-86590000D01*
X140915714Y-86637619D01*
X140963333Y-86732857D01*
X140963333Y-86875714D01*
X140915714Y-86970952D01*
X140868095Y-87018571D01*
X140772857Y-87066190D01*
X140391904Y-87066190D01*
X141820476Y-86542380D02*
X141630000Y-86542380D01*
X141534761Y-86590000D01*
X141487142Y-86637619D01*
X141391904Y-86780476D01*
X141344285Y-86970952D01*
X141344285Y-87351904D01*
X141391904Y-87447142D01*
X141439523Y-87494761D01*
X141534761Y-87542380D01*
X141725238Y-87542380D01*
X141820476Y-87494761D01*
X141868095Y-87447142D01*
X141915714Y-87351904D01*
X141915714Y-87113809D01*
X141868095Y-87018571D01*
X141820476Y-86970952D01*
X141725238Y-86923333D01*
X141534761Y-86923333D01*
X141439523Y-86970952D01*
X141391904Y-87018571D01*
X141344285Y-87113809D01*
%TO.C,R7*%
X156312380Y-100956666D02*
X155836190Y-101290000D01*
X156312380Y-101528095D02*
X155312380Y-101528095D01*
X155312380Y-101147142D01*
X155360000Y-101051904D01*
X155407619Y-101004285D01*
X155502857Y-100956666D01*
X155645714Y-100956666D01*
X155740952Y-101004285D01*
X155788571Y-101051904D01*
X155836190Y-101147142D01*
X155836190Y-101528095D01*
X155312380Y-100623333D02*
X155312380Y-99956666D01*
X156312380Y-100385238D01*
%TO.C,R8*%
X148422380Y-101076666D02*
X147946190Y-101410000D01*
X148422380Y-101648095D02*
X147422380Y-101648095D01*
X147422380Y-101267142D01*
X147470000Y-101171904D01*
X147517619Y-101124285D01*
X147612857Y-101076666D01*
X147755714Y-101076666D01*
X147850952Y-101124285D01*
X147898571Y-101171904D01*
X147946190Y-101267142D01*
X147946190Y-101648095D01*
X147850952Y-100505238D02*
X147803333Y-100600476D01*
X147755714Y-100648095D01*
X147660476Y-100695714D01*
X147612857Y-100695714D01*
X147517619Y-100648095D01*
X147470000Y-100600476D01*
X147422380Y-100505238D01*
X147422380Y-100314761D01*
X147470000Y-100219523D01*
X147517619Y-100171904D01*
X147612857Y-100124285D01*
X147660476Y-100124285D01*
X147755714Y-100171904D01*
X147803333Y-100219523D01*
X147850952Y-100314761D01*
X147850952Y-100505238D01*
X147898571Y-100600476D01*
X147946190Y-100648095D01*
X148041428Y-100695714D01*
X148231904Y-100695714D01*
X148327142Y-100648095D01*
X148374761Y-100600476D01*
X148422380Y-100505238D01*
X148422380Y-100314761D01*
X148374761Y-100219523D01*
X148327142Y-100171904D01*
X148231904Y-100124285D01*
X148041428Y-100124285D01*
X147946190Y-100171904D01*
X147898571Y-100219523D01*
X147850952Y-100314761D01*
%TO.C,R9*%
X147702380Y-84326666D02*
X147226190Y-84660000D01*
X147702380Y-84898095D02*
X146702380Y-84898095D01*
X146702380Y-84517142D01*
X146750000Y-84421904D01*
X146797619Y-84374285D01*
X146892857Y-84326666D01*
X147035714Y-84326666D01*
X147130952Y-84374285D01*
X147178571Y-84421904D01*
X147226190Y-84517142D01*
X147226190Y-84898095D01*
X147702380Y-83850476D02*
X147702380Y-83660000D01*
X147654761Y-83564761D01*
X147607142Y-83517142D01*
X147464285Y-83421904D01*
X147273809Y-83374285D01*
X146892857Y-83374285D01*
X146797619Y-83421904D01*
X146750000Y-83469523D01*
X146702380Y-83564761D01*
X146702380Y-83755238D01*
X146750000Y-83850476D01*
X146797619Y-83898095D01*
X146892857Y-83945714D01*
X147130952Y-83945714D01*
X147226190Y-83898095D01*
X147273809Y-83850476D01*
X147321428Y-83755238D01*
X147321428Y-83564761D01*
X147273809Y-83469523D01*
X147226190Y-83421904D01*
X147130952Y-83374285D01*
%TO.C,R10*%
X152022380Y-84802857D02*
X151546190Y-85136190D01*
X152022380Y-85374285D02*
X151022380Y-85374285D01*
X151022380Y-84993333D01*
X151070000Y-84898095D01*
X151117619Y-84850476D01*
X151212857Y-84802857D01*
X151355714Y-84802857D01*
X151450952Y-84850476D01*
X151498571Y-84898095D01*
X151546190Y-84993333D01*
X151546190Y-85374285D01*
X152022380Y-83850476D02*
X152022380Y-84421904D01*
X152022380Y-84136190D02*
X151022380Y-84136190D01*
X151165238Y-84231428D01*
X151260476Y-84326666D01*
X151308095Y-84421904D01*
X151022380Y-83231428D02*
X151022380Y-83136190D01*
X151070000Y-83040952D01*
X151117619Y-82993333D01*
X151212857Y-82945714D01*
X151403333Y-82898095D01*
X151641428Y-82898095D01*
X151831904Y-82945714D01*
X151927142Y-82993333D01*
X151974761Y-83040952D01*
X152022380Y-83136190D01*
X152022380Y-83231428D01*
X151974761Y-83326666D01*
X151927142Y-83374285D01*
X151831904Y-83421904D01*
X151641428Y-83469523D01*
X151403333Y-83469523D01*
X151212857Y-83421904D01*
X151117619Y-83374285D01*
X151070000Y-83326666D01*
X151022380Y-83231428D01*
%TO.C,R11*%
X141782380Y-101692857D02*
X141306190Y-102026190D01*
X141782380Y-102264285D02*
X140782380Y-102264285D01*
X140782380Y-101883333D01*
X140830000Y-101788095D01*
X140877619Y-101740476D01*
X140972857Y-101692857D01*
X141115714Y-101692857D01*
X141210952Y-101740476D01*
X141258571Y-101788095D01*
X141306190Y-101883333D01*
X141306190Y-102264285D01*
X141782380Y-100740476D02*
X141782380Y-101311904D01*
X141782380Y-101026190D02*
X140782380Y-101026190D01*
X140925238Y-101121428D01*
X141020476Y-101216666D01*
X141068095Y-101311904D01*
X141782380Y-99788095D02*
X141782380Y-100359523D01*
X141782380Y-100073809D02*
X140782380Y-100073809D01*
X140925238Y-100169047D01*
X141020476Y-100264285D01*
X141068095Y-100359523D01*
%TO.C,R12*%
X135332380Y-101532857D02*
X134856190Y-101866190D01*
X135332380Y-102104285D02*
X134332380Y-102104285D01*
X134332380Y-101723333D01*
X134380000Y-101628095D01*
X134427619Y-101580476D01*
X134522857Y-101532857D01*
X134665714Y-101532857D01*
X134760952Y-101580476D01*
X134808571Y-101628095D01*
X134856190Y-101723333D01*
X134856190Y-102104285D01*
X135332380Y-100580476D02*
X135332380Y-101151904D01*
X135332380Y-100866190D02*
X134332380Y-100866190D01*
X134475238Y-100961428D01*
X134570476Y-101056666D01*
X134618095Y-101151904D01*
X134427619Y-100199523D02*
X134380000Y-100151904D01*
X134332380Y-100056666D01*
X134332380Y-99818571D01*
X134380000Y-99723333D01*
X134427619Y-99675714D01*
X134522857Y-99628095D01*
X134618095Y-99628095D01*
X134760952Y-99675714D01*
X135332380Y-100247142D01*
X135332380Y-99628095D01*
%TO.C,R13*%
X138392380Y-101622857D02*
X137916190Y-101956190D01*
X138392380Y-102194285D02*
X137392380Y-102194285D01*
X137392380Y-101813333D01*
X137440000Y-101718095D01*
X137487619Y-101670476D01*
X137582857Y-101622857D01*
X137725714Y-101622857D01*
X137820952Y-101670476D01*
X137868571Y-101718095D01*
X137916190Y-101813333D01*
X137916190Y-102194285D01*
X138392380Y-100670476D02*
X138392380Y-101241904D01*
X138392380Y-100956190D02*
X137392380Y-100956190D01*
X137535238Y-101051428D01*
X137630476Y-101146666D01*
X137678095Y-101241904D01*
X137392380Y-100337142D02*
X137392380Y-99718095D01*
X137773333Y-100051428D01*
X137773333Y-99908571D01*
X137820952Y-99813333D01*
X137868571Y-99765714D01*
X137963809Y-99718095D01*
X138201904Y-99718095D01*
X138297142Y-99765714D01*
X138344761Y-99813333D01*
X138392380Y-99908571D01*
X138392380Y-100194285D01*
X138344761Y-100289523D01*
X138297142Y-100337142D01*
%TO.C,R14*%
X125242380Y-101672857D02*
X124766190Y-102006190D01*
X125242380Y-102244285D02*
X124242380Y-102244285D01*
X124242380Y-101863333D01*
X124290000Y-101768095D01*
X124337619Y-101720476D01*
X124432857Y-101672857D01*
X124575714Y-101672857D01*
X124670952Y-101720476D01*
X124718571Y-101768095D01*
X124766190Y-101863333D01*
X124766190Y-102244285D01*
X125242380Y-100720476D02*
X125242380Y-101291904D01*
X125242380Y-101006190D02*
X124242380Y-101006190D01*
X124385238Y-101101428D01*
X124480476Y-101196666D01*
X124528095Y-101291904D01*
X124575714Y-99863333D02*
X125242380Y-99863333D01*
X124194761Y-100101428D02*
X124909047Y-100339523D01*
X124909047Y-99720476D01*
%TO.C,C1*%
X160823333Y-74337142D02*
X160775714Y-74384761D01*
X160632857Y-74432380D01*
X160537619Y-74432380D01*
X160394761Y-74384761D01*
X160299523Y-74289523D01*
X160251904Y-74194285D01*
X160204285Y-74003809D01*
X160204285Y-73860952D01*
X160251904Y-73670476D01*
X160299523Y-73575238D01*
X160394761Y-73480000D01*
X160537619Y-73432380D01*
X160632857Y-73432380D01*
X160775714Y-73480000D01*
X160823333Y-73527619D01*
X161775714Y-74432380D02*
X161204285Y-74432380D01*
X161490000Y-74432380D02*
X161490000Y-73432380D01*
X161394761Y-73575238D01*
X161299523Y-73670476D01*
X161204285Y-73718095D01*
%TO.C,J2*%
X117752380Y-80243333D02*
X118466666Y-80243333D01*
X118609523Y-80290952D01*
X118704761Y-80386190D01*
X118752380Y-80529047D01*
X118752380Y-80624285D01*
X117847619Y-79814761D02*
X117800000Y-79767142D01*
X117752380Y-79671904D01*
X117752380Y-79433809D01*
X117800000Y-79338571D01*
X117847619Y-79290952D01*
X117942857Y-79243333D01*
X118038095Y-79243333D01*
X118180952Y-79290952D01*
X118752380Y-79862380D01*
X118752380Y-79243333D01*
%TO.C,J6*%
X117752380Y-105643333D02*
X118466666Y-105643333D01*
X118609523Y-105690952D01*
X118704761Y-105786190D01*
X118752380Y-105929047D01*
X118752380Y-106024285D01*
X117752380Y-104738571D02*
X117752380Y-104929047D01*
X117800000Y-105024285D01*
X117847619Y-105071904D01*
X117990476Y-105167142D01*
X118180952Y-105214761D01*
X118561904Y-105214761D01*
X118657142Y-105167142D01*
X118704761Y-105119523D01*
X118752380Y-105024285D01*
X118752380Y-104833809D01*
X118704761Y-104738571D01*
X118657142Y-104690952D01*
X118561904Y-104643333D01*
X118323809Y-104643333D01*
X118228571Y-104690952D01*
X118180952Y-104738571D01*
X118133333Y-104833809D01*
X118133333Y-105024285D01*
X118180952Y-105119523D01*
X118228571Y-105167142D01*
X118323809Y-105214761D01*
%TD*%
M02*
