%TF.GenerationSoftware,KiCad,Pcbnew,(5.1.9)-1*%
%TF.CreationDate,2021-02-26T14:18:11+09:00*%
%TF.ProjectId,diesel-heater-esp32,64696573-656c-42d6-9865-617465722d65,rev?*%
%TF.SameCoordinates,Original*%
%TF.FileFunction,Legend,Bot*%
%TF.FilePolarity,Positive*%
%FSLAX46Y46*%
G04 Gerber Fmt 4.6, Leading zero omitted, Abs format (unit mm)*
G04 Created by KiCad (PCBNEW (5.1.9)-1) date 2021-02-26 14:18:11*
%MOMM*%
%LPD*%
G01*
G04 APERTURE LIST*
%ADD10C,0.010000*%
G04 APERTURE END LIST*
D10*
%TO.C,REF\u002A\u002A*%
G36*
X118819036Y-87398576D02*
G01*
X118743487Y-87799322D01*
X118185959Y-88029154D01*
X117851535Y-87801748D01*
X117757878Y-87738431D01*
X117673218Y-87681896D01*
X117601505Y-87634727D01*
X117546689Y-87599502D01*
X117512720Y-87578805D01*
X117503470Y-87574342D01*
X117486805Y-87585820D01*
X117451194Y-87617551D01*
X117400629Y-87665483D01*
X117339100Y-87725562D01*
X117270601Y-87793733D01*
X117199121Y-87865945D01*
X117128653Y-87938142D01*
X117063189Y-88006273D01*
X117006720Y-88066283D01*
X116963237Y-88114119D01*
X116936732Y-88145727D01*
X116930395Y-88156305D01*
X116939514Y-88175806D01*
X116965080Y-88218531D01*
X117004403Y-88280298D01*
X117054797Y-88356931D01*
X117113573Y-88444248D01*
X117147632Y-88494052D01*
X117209711Y-88584993D01*
X117264874Y-88667059D01*
X117310446Y-88736163D01*
X117343750Y-88788222D01*
X117362110Y-88819150D01*
X117364869Y-88825650D01*
X117358615Y-88844121D01*
X117341566Y-88887172D01*
X117316297Y-88948749D01*
X117285378Y-89022799D01*
X117251382Y-89103270D01*
X117216882Y-89184107D01*
X117184449Y-89259258D01*
X117156657Y-89322671D01*
X117136077Y-89368293D01*
X117125281Y-89390069D01*
X117124644Y-89390926D01*
X117107693Y-89395084D01*
X117062549Y-89404361D01*
X116993890Y-89417844D01*
X116906398Y-89434621D01*
X116804750Y-89453781D01*
X116745444Y-89464830D01*
X116636828Y-89485510D01*
X116538723Y-89505189D01*
X116456091Y-89522789D01*
X116393896Y-89537233D01*
X116357101Y-89547446D01*
X116349704Y-89550686D01*
X116342460Y-89572617D01*
X116336615Y-89622147D01*
X116332165Y-89693485D01*
X116329107Y-89780839D01*
X116327435Y-89878417D01*
X116327147Y-89980426D01*
X116328239Y-90081075D01*
X116330706Y-90174572D01*
X116334544Y-90255125D01*
X116339750Y-90316942D01*
X116346319Y-90354230D01*
X116350259Y-90361993D01*
X116373812Y-90371298D01*
X116423718Y-90384600D01*
X116493377Y-90400337D01*
X116576187Y-90416946D01*
X116605095Y-90422319D01*
X116744469Y-90447848D01*
X116854564Y-90468408D01*
X116939018Y-90484815D01*
X117001470Y-90497887D01*
X117045556Y-90508441D01*
X117074915Y-90517294D01*
X117093185Y-90525263D01*
X117104002Y-90533165D01*
X117105515Y-90534727D01*
X117120623Y-90559886D01*
X117143671Y-90608850D01*
X117172356Y-90675621D01*
X117204378Y-90754205D01*
X117237435Y-90838607D01*
X117269227Y-90922830D01*
X117297451Y-91000879D01*
X117319807Y-91066759D01*
X117333993Y-91114473D01*
X117337707Y-91138027D01*
X117337398Y-91138852D01*
X117324811Y-91158104D01*
X117296256Y-91200463D01*
X117254733Y-91261521D01*
X117203244Y-91336868D01*
X117144789Y-91422096D01*
X117128142Y-91446315D01*
X117068785Y-91534123D01*
X117016553Y-91614238D01*
X116974292Y-91682062D01*
X116944847Y-91732993D01*
X116931063Y-91762431D01*
X116930395Y-91766048D01*
X116941976Y-91785057D01*
X116973976Y-91822714D01*
X117022282Y-91874973D01*
X117082780Y-91937786D01*
X117151356Y-92007106D01*
X117223896Y-92078885D01*
X117296288Y-92149077D01*
X117364416Y-92213635D01*
X117424168Y-92268510D01*
X117471429Y-92309656D01*
X117502087Y-92333026D01*
X117510568Y-92336842D01*
X117530309Y-92327855D01*
X117570726Y-92303616D01*
X117625237Y-92268209D01*
X117667177Y-92239711D01*
X117743171Y-92187418D01*
X117833166Y-92125845D01*
X117923436Y-92064370D01*
X117971968Y-92031469D01*
X118136238Y-91920359D01*
X118274131Y-91994916D01*
X118336951Y-92027578D01*
X118390371Y-92052966D01*
X118426516Y-92067446D01*
X118435716Y-92069460D01*
X118446779Y-92054584D01*
X118468606Y-92012547D01*
X118499566Y-91947227D01*
X118538030Y-91862500D01*
X118582368Y-91762245D01*
X118630953Y-91650339D01*
X118682154Y-91530659D01*
X118734341Y-91407084D01*
X118785887Y-91283491D01*
X118835160Y-91163757D01*
X118880533Y-91051759D01*
X118920375Y-90951377D01*
X118953058Y-90866486D01*
X118976951Y-90800965D01*
X118990426Y-90758690D01*
X118992594Y-90744172D01*
X118975417Y-90725653D01*
X118937810Y-90695590D01*
X118887634Y-90660232D01*
X118883422Y-90657434D01*
X118753736Y-90553625D01*
X118649166Y-90432515D01*
X118570619Y-90297976D01*
X118519001Y-90153882D01*
X118495218Y-90004105D01*
X118500177Y-89852517D01*
X118534783Y-89702992D01*
X118599943Y-89559400D01*
X118619114Y-89527984D01*
X118718826Y-89401125D01*
X118836623Y-89299255D01*
X118968429Y-89222904D01*
X119110167Y-89172602D01*
X119257758Y-89148879D01*
X119407127Y-89152265D01*
X119554197Y-89183288D01*
X119694889Y-89242480D01*
X119825127Y-89330369D01*
X119865414Y-89366042D01*
X119967945Y-89477706D01*
X120042659Y-89595257D01*
X120093910Y-89727020D01*
X120122454Y-89857507D01*
X120129500Y-90004216D01*
X120106004Y-90151653D01*
X120054351Y-90294834D01*
X119976929Y-90428777D01*
X119876125Y-90548498D01*
X119754324Y-90649014D01*
X119738316Y-90659609D01*
X119687602Y-90694306D01*
X119649050Y-90724370D01*
X119630619Y-90743565D01*
X119630351Y-90744172D01*
X119634308Y-90764936D01*
X119649993Y-90812062D01*
X119675778Y-90881673D01*
X119710031Y-90969893D01*
X119751123Y-91072844D01*
X119797424Y-91186650D01*
X119847304Y-91307435D01*
X119899133Y-91431321D01*
X119951281Y-91554432D01*
X120002118Y-91672891D01*
X120050013Y-91782823D01*
X120093338Y-91880349D01*
X120130462Y-91961593D01*
X120159756Y-92022679D01*
X120179588Y-92059730D01*
X120187574Y-92069460D01*
X120211979Y-92061883D01*
X120257642Y-92041560D01*
X120316690Y-92012125D01*
X120349160Y-91994916D01*
X120487053Y-91920359D01*
X120651323Y-92031469D01*
X120735179Y-92088390D01*
X120826987Y-92151030D01*
X120913020Y-92210011D01*
X120956113Y-92239711D01*
X121016723Y-92280410D01*
X121068045Y-92312663D01*
X121103385Y-92332384D01*
X121114863Y-92336554D01*
X121131570Y-92325307D01*
X121168546Y-92293911D01*
X121222205Y-92245624D01*
X121288962Y-92183708D01*
X121365234Y-92111421D01*
X121413473Y-92065008D01*
X121497867Y-91982087D01*
X121570803Y-91907920D01*
X121629331Y-91845680D01*
X121670503Y-91798541D01*
X121691372Y-91769673D01*
X121693374Y-91763815D01*
X121684083Y-91741532D01*
X121658409Y-91696477D01*
X121619200Y-91633211D01*
X121569303Y-91556295D01*
X121511567Y-91470292D01*
X121495149Y-91446315D01*
X121435323Y-91359170D01*
X121381650Y-91280710D01*
X121337130Y-91215345D01*
X121304765Y-91167484D01*
X121287555Y-91141535D01*
X121285893Y-91138852D01*
X121288379Y-91118172D01*
X121301577Y-91072704D01*
X121323186Y-91008444D01*
X121350904Y-90931387D01*
X121382430Y-90847529D01*
X121415463Y-90762866D01*
X121447701Y-90683392D01*
X121476843Y-90615104D01*
X121500588Y-90563997D01*
X121516635Y-90536067D01*
X121517775Y-90534727D01*
X121527588Y-90526745D01*
X121544161Y-90518851D01*
X121571132Y-90510229D01*
X121612139Y-90500062D01*
X121670820Y-90487531D01*
X121750813Y-90471821D01*
X121855755Y-90452113D01*
X121989285Y-90427592D01*
X122018196Y-90422319D01*
X122103882Y-90405764D01*
X122178582Y-90389569D01*
X122235694Y-90375296D01*
X122268617Y-90364508D01*
X122273031Y-90361993D01*
X122280306Y-90339696D01*
X122286219Y-90289869D01*
X122290766Y-90218304D01*
X122293945Y-90130793D01*
X122295749Y-90033128D01*
X122296177Y-89931101D01*
X122295223Y-89830503D01*
X122292884Y-89737127D01*
X122289156Y-89656765D01*
X122284034Y-89595209D01*
X122277516Y-89558250D01*
X122273586Y-89550686D01*
X122251708Y-89543056D01*
X122201891Y-89530642D01*
X122129097Y-89514522D01*
X122038289Y-89495773D01*
X121934431Y-89475471D01*
X121877846Y-89464830D01*
X121770486Y-89444760D01*
X121674746Y-89426580D01*
X121595306Y-89411199D01*
X121536846Y-89399531D01*
X121504045Y-89392488D01*
X121498646Y-89390926D01*
X121489522Y-89373322D01*
X121470235Y-89330918D01*
X121443355Y-89269772D01*
X121411454Y-89195943D01*
X121377102Y-89115489D01*
X121342871Y-89034468D01*
X121311331Y-88958937D01*
X121285054Y-88894955D01*
X121266611Y-88848580D01*
X121258571Y-88825869D01*
X121258422Y-88824876D01*
X121267535Y-88806961D01*
X121293086Y-88765733D01*
X121332388Y-88705291D01*
X121382757Y-88629731D01*
X121441506Y-88543152D01*
X121475658Y-88493421D01*
X121537890Y-88402236D01*
X121593164Y-88319449D01*
X121638782Y-88249249D01*
X121672048Y-88195824D01*
X121690264Y-88163361D01*
X121692895Y-88156083D01*
X121681586Y-88139145D01*
X121650319Y-88102978D01*
X121603090Y-88051635D01*
X121543892Y-87989167D01*
X121476719Y-87919626D01*
X121405566Y-87847065D01*
X121334426Y-87775535D01*
X121267293Y-87709087D01*
X121208161Y-87651774D01*
X121161025Y-87607647D01*
X121129877Y-87580759D01*
X121119457Y-87574342D01*
X121102491Y-87583365D01*
X121061911Y-87608715D01*
X121001663Y-87647810D01*
X120925693Y-87698071D01*
X120837946Y-87756917D01*
X120771756Y-87801748D01*
X120437332Y-88029154D01*
X120158567Y-87914238D01*
X119879803Y-87799322D01*
X119804254Y-87398576D01*
X119728706Y-86997829D01*
X118894585Y-86997829D01*
X118819036Y-87398576D01*
G37*
X118819036Y-87398576D02*
X118743487Y-87799322D01*
X118185959Y-88029154D01*
X117851535Y-87801748D01*
X117757878Y-87738431D01*
X117673218Y-87681896D01*
X117601505Y-87634727D01*
X117546689Y-87599502D01*
X117512720Y-87578805D01*
X117503470Y-87574342D01*
X117486805Y-87585820D01*
X117451194Y-87617551D01*
X117400629Y-87665483D01*
X117339100Y-87725562D01*
X117270601Y-87793733D01*
X117199121Y-87865945D01*
X117128653Y-87938142D01*
X117063189Y-88006273D01*
X117006720Y-88066283D01*
X116963237Y-88114119D01*
X116936732Y-88145727D01*
X116930395Y-88156305D01*
X116939514Y-88175806D01*
X116965080Y-88218531D01*
X117004403Y-88280298D01*
X117054797Y-88356931D01*
X117113573Y-88444248D01*
X117147632Y-88494052D01*
X117209711Y-88584993D01*
X117264874Y-88667059D01*
X117310446Y-88736163D01*
X117343750Y-88788222D01*
X117362110Y-88819150D01*
X117364869Y-88825650D01*
X117358615Y-88844121D01*
X117341566Y-88887172D01*
X117316297Y-88948749D01*
X117285378Y-89022799D01*
X117251382Y-89103270D01*
X117216882Y-89184107D01*
X117184449Y-89259258D01*
X117156657Y-89322671D01*
X117136077Y-89368293D01*
X117125281Y-89390069D01*
X117124644Y-89390926D01*
X117107693Y-89395084D01*
X117062549Y-89404361D01*
X116993890Y-89417844D01*
X116906398Y-89434621D01*
X116804750Y-89453781D01*
X116745444Y-89464830D01*
X116636828Y-89485510D01*
X116538723Y-89505189D01*
X116456091Y-89522789D01*
X116393896Y-89537233D01*
X116357101Y-89547446D01*
X116349704Y-89550686D01*
X116342460Y-89572617D01*
X116336615Y-89622147D01*
X116332165Y-89693485D01*
X116329107Y-89780839D01*
X116327435Y-89878417D01*
X116327147Y-89980426D01*
X116328239Y-90081075D01*
X116330706Y-90174572D01*
X116334544Y-90255125D01*
X116339750Y-90316942D01*
X116346319Y-90354230D01*
X116350259Y-90361993D01*
X116373812Y-90371298D01*
X116423718Y-90384600D01*
X116493377Y-90400337D01*
X116576187Y-90416946D01*
X116605095Y-90422319D01*
X116744469Y-90447848D01*
X116854564Y-90468408D01*
X116939018Y-90484815D01*
X117001470Y-90497887D01*
X117045556Y-90508441D01*
X117074915Y-90517294D01*
X117093185Y-90525263D01*
X117104002Y-90533165D01*
X117105515Y-90534727D01*
X117120623Y-90559886D01*
X117143671Y-90608850D01*
X117172356Y-90675621D01*
X117204378Y-90754205D01*
X117237435Y-90838607D01*
X117269227Y-90922830D01*
X117297451Y-91000879D01*
X117319807Y-91066759D01*
X117333993Y-91114473D01*
X117337707Y-91138027D01*
X117337398Y-91138852D01*
X117324811Y-91158104D01*
X117296256Y-91200463D01*
X117254733Y-91261521D01*
X117203244Y-91336868D01*
X117144789Y-91422096D01*
X117128142Y-91446315D01*
X117068785Y-91534123D01*
X117016553Y-91614238D01*
X116974292Y-91682062D01*
X116944847Y-91732993D01*
X116931063Y-91762431D01*
X116930395Y-91766048D01*
X116941976Y-91785057D01*
X116973976Y-91822714D01*
X117022282Y-91874973D01*
X117082780Y-91937786D01*
X117151356Y-92007106D01*
X117223896Y-92078885D01*
X117296288Y-92149077D01*
X117364416Y-92213635D01*
X117424168Y-92268510D01*
X117471429Y-92309656D01*
X117502087Y-92333026D01*
X117510568Y-92336842D01*
X117530309Y-92327855D01*
X117570726Y-92303616D01*
X117625237Y-92268209D01*
X117667177Y-92239711D01*
X117743171Y-92187418D01*
X117833166Y-92125845D01*
X117923436Y-92064370D01*
X117971968Y-92031469D01*
X118136238Y-91920359D01*
X118274131Y-91994916D01*
X118336951Y-92027578D01*
X118390371Y-92052966D01*
X118426516Y-92067446D01*
X118435716Y-92069460D01*
X118446779Y-92054584D01*
X118468606Y-92012547D01*
X118499566Y-91947227D01*
X118538030Y-91862500D01*
X118582368Y-91762245D01*
X118630953Y-91650339D01*
X118682154Y-91530659D01*
X118734341Y-91407084D01*
X118785887Y-91283491D01*
X118835160Y-91163757D01*
X118880533Y-91051759D01*
X118920375Y-90951377D01*
X118953058Y-90866486D01*
X118976951Y-90800965D01*
X118990426Y-90758690D01*
X118992594Y-90744172D01*
X118975417Y-90725653D01*
X118937810Y-90695590D01*
X118887634Y-90660232D01*
X118883422Y-90657434D01*
X118753736Y-90553625D01*
X118649166Y-90432515D01*
X118570619Y-90297976D01*
X118519001Y-90153882D01*
X118495218Y-90004105D01*
X118500177Y-89852517D01*
X118534783Y-89702992D01*
X118599943Y-89559400D01*
X118619114Y-89527984D01*
X118718826Y-89401125D01*
X118836623Y-89299255D01*
X118968429Y-89222904D01*
X119110167Y-89172602D01*
X119257758Y-89148879D01*
X119407127Y-89152265D01*
X119554197Y-89183288D01*
X119694889Y-89242480D01*
X119825127Y-89330369D01*
X119865414Y-89366042D01*
X119967945Y-89477706D01*
X120042659Y-89595257D01*
X120093910Y-89727020D01*
X120122454Y-89857507D01*
X120129500Y-90004216D01*
X120106004Y-90151653D01*
X120054351Y-90294834D01*
X119976929Y-90428777D01*
X119876125Y-90548498D01*
X119754324Y-90649014D01*
X119738316Y-90659609D01*
X119687602Y-90694306D01*
X119649050Y-90724370D01*
X119630619Y-90743565D01*
X119630351Y-90744172D01*
X119634308Y-90764936D01*
X119649993Y-90812062D01*
X119675778Y-90881673D01*
X119710031Y-90969893D01*
X119751123Y-91072844D01*
X119797424Y-91186650D01*
X119847304Y-91307435D01*
X119899133Y-91431321D01*
X119951281Y-91554432D01*
X120002118Y-91672891D01*
X120050013Y-91782823D01*
X120093338Y-91880349D01*
X120130462Y-91961593D01*
X120159756Y-92022679D01*
X120179588Y-92059730D01*
X120187574Y-92069460D01*
X120211979Y-92061883D01*
X120257642Y-92041560D01*
X120316690Y-92012125D01*
X120349160Y-91994916D01*
X120487053Y-91920359D01*
X120651323Y-92031469D01*
X120735179Y-92088390D01*
X120826987Y-92151030D01*
X120913020Y-92210011D01*
X120956113Y-92239711D01*
X121016723Y-92280410D01*
X121068045Y-92312663D01*
X121103385Y-92332384D01*
X121114863Y-92336554D01*
X121131570Y-92325307D01*
X121168546Y-92293911D01*
X121222205Y-92245624D01*
X121288962Y-92183708D01*
X121365234Y-92111421D01*
X121413473Y-92065008D01*
X121497867Y-91982087D01*
X121570803Y-91907920D01*
X121629331Y-91845680D01*
X121670503Y-91798541D01*
X121691372Y-91769673D01*
X121693374Y-91763815D01*
X121684083Y-91741532D01*
X121658409Y-91696477D01*
X121619200Y-91633211D01*
X121569303Y-91556295D01*
X121511567Y-91470292D01*
X121495149Y-91446315D01*
X121435323Y-91359170D01*
X121381650Y-91280710D01*
X121337130Y-91215345D01*
X121304765Y-91167484D01*
X121287555Y-91141535D01*
X121285893Y-91138852D01*
X121288379Y-91118172D01*
X121301577Y-91072704D01*
X121323186Y-91008444D01*
X121350904Y-90931387D01*
X121382430Y-90847529D01*
X121415463Y-90762866D01*
X121447701Y-90683392D01*
X121476843Y-90615104D01*
X121500588Y-90563997D01*
X121516635Y-90536067D01*
X121517775Y-90534727D01*
X121527588Y-90526745D01*
X121544161Y-90518851D01*
X121571132Y-90510229D01*
X121612139Y-90500062D01*
X121670820Y-90487531D01*
X121750813Y-90471821D01*
X121855755Y-90452113D01*
X121989285Y-90427592D01*
X122018196Y-90422319D01*
X122103882Y-90405764D01*
X122178582Y-90389569D01*
X122235694Y-90375296D01*
X122268617Y-90364508D01*
X122273031Y-90361993D01*
X122280306Y-90339696D01*
X122286219Y-90289869D01*
X122290766Y-90218304D01*
X122293945Y-90130793D01*
X122295749Y-90033128D01*
X122296177Y-89931101D01*
X122295223Y-89830503D01*
X122292884Y-89737127D01*
X122289156Y-89656765D01*
X122284034Y-89595209D01*
X122277516Y-89558250D01*
X122273586Y-89550686D01*
X122251708Y-89543056D01*
X122201891Y-89530642D01*
X122129097Y-89514522D01*
X122038289Y-89495773D01*
X121934431Y-89475471D01*
X121877846Y-89464830D01*
X121770486Y-89444760D01*
X121674746Y-89426580D01*
X121595306Y-89411199D01*
X121536846Y-89399531D01*
X121504045Y-89392488D01*
X121498646Y-89390926D01*
X121489522Y-89373322D01*
X121470235Y-89330918D01*
X121443355Y-89269772D01*
X121411454Y-89195943D01*
X121377102Y-89115489D01*
X121342871Y-89034468D01*
X121311331Y-88958937D01*
X121285054Y-88894955D01*
X121266611Y-88848580D01*
X121258571Y-88825869D01*
X121258422Y-88824876D01*
X121267535Y-88806961D01*
X121293086Y-88765733D01*
X121332388Y-88705291D01*
X121382757Y-88629731D01*
X121441506Y-88543152D01*
X121475658Y-88493421D01*
X121537890Y-88402236D01*
X121593164Y-88319449D01*
X121638782Y-88249249D01*
X121672048Y-88195824D01*
X121690264Y-88163361D01*
X121692895Y-88156083D01*
X121681586Y-88139145D01*
X121650319Y-88102978D01*
X121603090Y-88051635D01*
X121543892Y-87989167D01*
X121476719Y-87919626D01*
X121405566Y-87847065D01*
X121334426Y-87775535D01*
X121267293Y-87709087D01*
X121208161Y-87651774D01*
X121161025Y-87607647D01*
X121129877Y-87580759D01*
X121119457Y-87574342D01*
X121102491Y-87583365D01*
X121061911Y-87608715D01*
X121001663Y-87647810D01*
X120925693Y-87698071D01*
X120837946Y-87756917D01*
X120771756Y-87801748D01*
X120437332Y-88029154D01*
X120158567Y-87914238D01*
X119879803Y-87799322D01*
X119804254Y-87398576D01*
X119728706Y-86997829D01*
X118894585Y-86997829D01*
X118819036Y-87398576D01*
G36*
X116928612Y-92937645D02*
G01*
X116871135Y-92955206D01*
X116834128Y-92977395D01*
X116822073Y-92994942D01*
X116825391Y-93015742D01*
X116846921Y-93048419D01*
X116865126Y-93071562D01*
X116902656Y-93113402D01*
X116930852Y-93131005D01*
X116954889Y-93129856D01*
X117026192Y-93111710D01*
X117078558Y-93112534D01*
X117121082Y-93133098D01*
X117135358Y-93145134D01*
X117181053Y-93187483D01*
X117181053Y-93740526D01*
X117364869Y-93740526D01*
X117364869Y-92938421D01*
X117272961Y-92938421D01*
X117217781Y-92940603D01*
X117189312Y-92948351D01*
X117181057Y-92963468D01*
X117181053Y-92963916D01*
X117177155Y-92979749D01*
X117159526Y-92977684D01*
X117135099Y-92966261D01*
X117084650Y-92945005D01*
X117043684Y-92932216D01*
X116990972Y-92928938D01*
X116928612Y-92937645D01*
G37*
X116928612Y-92937645D02*
X116871135Y-92955206D01*
X116834128Y-92977395D01*
X116822073Y-92994942D01*
X116825391Y-93015742D01*
X116846921Y-93048419D01*
X116865126Y-93071562D01*
X116902656Y-93113402D01*
X116930852Y-93131005D01*
X116954889Y-93129856D01*
X117026192Y-93111710D01*
X117078558Y-93112534D01*
X117121082Y-93133098D01*
X117135358Y-93145134D01*
X117181053Y-93187483D01*
X117181053Y-93740526D01*
X117364869Y-93740526D01*
X117364869Y-92938421D01*
X117272961Y-92938421D01*
X117217781Y-92940603D01*
X117189312Y-92948351D01*
X117181057Y-92963468D01*
X117181053Y-92963916D01*
X117177155Y-92979749D01*
X117159526Y-92977684D01*
X117135099Y-92966261D01*
X117084650Y-92945005D01*
X117043684Y-92932216D01*
X116990972Y-92928938D01*
X116928612Y-92937645D01*
G36*
X120322043Y-92952226D02*
G01*
X120280454Y-92972090D01*
X120240175Y-93000784D01*
X120209490Y-93033809D01*
X120187139Y-93075931D01*
X120171864Y-93131915D01*
X120162408Y-93206528D01*
X120157513Y-93304535D01*
X120155919Y-93430702D01*
X120155894Y-93443914D01*
X120155527Y-93740526D01*
X120339343Y-93740526D01*
X120339343Y-93467081D01*
X120339473Y-93365777D01*
X120340379Y-93292353D01*
X120342827Y-93241271D01*
X120347586Y-93206990D01*
X120355426Y-93183971D01*
X120367115Y-93166673D01*
X120383398Y-93149581D01*
X120440366Y-93112857D01*
X120502555Y-93106042D01*
X120561801Y-93129261D01*
X120582405Y-93146543D01*
X120597530Y-93162791D01*
X120608390Y-93180191D01*
X120615690Y-93204212D01*
X120620137Y-93240322D01*
X120622436Y-93293988D01*
X120623296Y-93370680D01*
X120623422Y-93464043D01*
X120623422Y-93740526D01*
X120807237Y-93740526D01*
X120807237Y-92938421D01*
X120715329Y-92938421D01*
X120660149Y-92940603D01*
X120631680Y-92948351D01*
X120623425Y-92963468D01*
X120623422Y-92963916D01*
X120619592Y-92978720D01*
X120602699Y-92977040D01*
X120569112Y-92960773D01*
X120492937Y-92936840D01*
X120405800Y-92934178D01*
X120322043Y-92952226D01*
G37*
X120322043Y-92952226D02*
X120280454Y-92972090D01*
X120240175Y-93000784D01*
X120209490Y-93033809D01*
X120187139Y-93075931D01*
X120171864Y-93131915D01*
X120162408Y-93206528D01*
X120157513Y-93304535D01*
X120155919Y-93430702D01*
X120155894Y-93443914D01*
X120155527Y-93740526D01*
X120339343Y-93740526D01*
X120339343Y-93467081D01*
X120339473Y-93365777D01*
X120340379Y-93292353D01*
X120342827Y-93241271D01*
X120347586Y-93206990D01*
X120355426Y-93183971D01*
X120367115Y-93166673D01*
X120383398Y-93149581D01*
X120440366Y-93112857D01*
X120502555Y-93106042D01*
X120561801Y-93129261D01*
X120582405Y-93146543D01*
X120597530Y-93162791D01*
X120608390Y-93180191D01*
X120615690Y-93204212D01*
X120620137Y-93240322D01*
X120622436Y-93293988D01*
X120623296Y-93370680D01*
X120623422Y-93464043D01*
X120623422Y-93740526D01*
X120807237Y-93740526D01*
X120807237Y-92938421D01*
X120715329Y-92938421D01*
X120660149Y-92940603D01*
X120631680Y-92948351D01*
X120623425Y-92963468D01*
X120623422Y-92963916D01*
X120619592Y-92978720D01*
X120602699Y-92977040D01*
X120569112Y-92960773D01*
X120492937Y-92936840D01*
X120405800Y-92934178D01*
X120322043Y-92952226D01*
G36*
X115761216Y-92935554D02*
G01*
X115718426Y-92945949D01*
X115636391Y-92984013D01*
X115566243Y-93042149D01*
X115517695Y-93111852D01*
X115511025Y-93127502D01*
X115501876Y-93168496D01*
X115495471Y-93229138D01*
X115493290Y-93290430D01*
X115493290Y-93406316D01*
X115735593Y-93406316D01*
X115835529Y-93406693D01*
X115905931Y-93408987D01*
X115950687Y-93414938D01*
X115973685Y-93426285D01*
X115978811Y-93444771D01*
X115969952Y-93472136D01*
X115954083Y-93504155D01*
X115909816Y-93557592D01*
X115848301Y-93584215D01*
X115773115Y-93583347D01*
X115687947Y-93554371D01*
X115614341Y-93518611D01*
X115553266Y-93566904D01*
X115492190Y-93615197D01*
X115549649Y-93668285D01*
X115626359Y-93718445D01*
X115720698Y-93748688D01*
X115822173Y-93757151D01*
X115920289Y-93741974D01*
X115936119Y-93736824D01*
X116022353Y-93691791D01*
X116086499Y-93624652D01*
X116129909Y-93533405D01*
X116153936Y-93416044D01*
X116154216Y-93413529D01*
X116156367Y-93285627D01*
X116147671Y-93239997D01*
X115977895Y-93239997D01*
X115962303Y-93247013D01*
X115919971Y-93252388D01*
X115857566Y-93255457D01*
X115818019Y-93255921D01*
X115744272Y-93255630D01*
X115698160Y-93253783D01*
X115673900Y-93248912D01*
X115665706Y-93239555D01*
X115667794Y-93224245D01*
X115669545Y-93218322D01*
X115699440Y-93162668D01*
X115746458Y-93117815D01*
X115787951Y-93098105D01*
X115843074Y-93099295D01*
X115898932Y-93123875D01*
X115945788Y-93164570D01*
X115973906Y-93214108D01*
X115977895Y-93239997D01*
X116147671Y-93239997D01*
X116134926Y-93173133D01*
X116092389Y-93078727D01*
X116031253Y-93005088D01*
X115954015Y-92954893D01*
X115863170Y-92930822D01*
X115761216Y-92935554D01*
G37*
X115761216Y-92935554D02*
X115718426Y-92945949D01*
X115636391Y-92984013D01*
X115566243Y-93042149D01*
X115517695Y-93111852D01*
X115511025Y-93127502D01*
X115501876Y-93168496D01*
X115495471Y-93229138D01*
X115493290Y-93290430D01*
X115493290Y-93406316D01*
X115735593Y-93406316D01*
X115835529Y-93406693D01*
X115905931Y-93408987D01*
X115950687Y-93414938D01*
X115973685Y-93426285D01*
X115978811Y-93444771D01*
X115969952Y-93472136D01*
X115954083Y-93504155D01*
X115909816Y-93557592D01*
X115848301Y-93584215D01*
X115773115Y-93583347D01*
X115687947Y-93554371D01*
X115614341Y-93518611D01*
X115553266Y-93566904D01*
X115492190Y-93615197D01*
X115549649Y-93668285D01*
X115626359Y-93718445D01*
X115720698Y-93748688D01*
X115822173Y-93757151D01*
X115920289Y-93741974D01*
X115936119Y-93736824D01*
X116022353Y-93691791D01*
X116086499Y-93624652D01*
X116129909Y-93533405D01*
X116153936Y-93416044D01*
X116154216Y-93413529D01*
X116156367Y-93285627D01*
X116147671Y-93239997D01*
X115977895Y-93239997D01*
X115962303Y-93247013D01*
X115919971Y-93252388D01*
X115857566Y-93255457D01*
X115818019Y-93255921D01*
X115744272Y-93255630D01*
X115698160Y-93253783D01*
X115673900Y-93248912D01*
X115665706Y-93239555D01*
X115667794Y-93224245D01*
X115669545Y-93218322D01*
X115699440Y-93162668D01*
X115746458Y-93117815D01*
X115787951Y-93098105D01*
X115843074Y-93099295D01*
X115898932Y-93123875D01*
X115945788Y-93164570D01*
X115973906Y-93214108D01*
X115977895Y-93239997D01*
X116147671Y-93239997D01*
X116134926Y-93173133D01*
X116092389Y-93078727D01*
X116031253Y-93005088D01*
X115954015Y-92954893D01*
X115863170Y-92930822D01*
X115761216Y-92935554D01*
G36*
X116373424Y-92945419D02*
G01*
X116276605Y-92986549D01*
X116246110Y-93006571D01*
X116207135Y-93037340D01*
X116182669Y-93061533D01*
X116178422Y-93069413D01*
X116190416Y-93086899D01*
X116221113Y-93116570D01*
X116245688Y-93137279D01*
X116312954Y-93191336D01*
X116366070Y-93146642D01*
X116407116Y-93117789D01*
X116447137Y-93107829D01*
X116492941Y-93110261D01*
X116565676Y-93128345D01*
X116615744Y-93165881D01*
X116646171Y-93226562D01*
X116659983Y-93314081D01*
X116659987Y-93314136D01*
X116658792Y-93411958D01*
X116640228Y-93483730D01*
X116603196Y-93532595D01*
X116577950Y-93549143D01*
X116510903Y-93569749D01*
X116439291Y-93569762D01*
X116376985Y-93549768D01*
X116362237Y-93540000D01*
X116325250Y-93515047D01*
X116296332Y-93510958D01*
X116265144Y-93529530D01*
X116230664Y-93562887D01*
X116176088Y-93619196D01*
X116236682Y-93669142D01*
X116330302Y-93725513D01*
X116435875Y-93753293D01*
X116546202Y-93751282D01*
X116618657Y-93732862D01*
X116703344Y-93687310D01*
X116771073Y-93615650D01*
X116801843Y-93565066D01*
X116826764Y-93492488D01*
X116839234Y-93400569D01*
X116839330Y-93300948D01*
X116827130Y-93205267D01*
X116802710Y-93125169D01*
X116798864Y-93116956D01*
X116741907Y-93036413D01*
X116664791Y-92977771D01*
X116573610Y-92942247D01*
X116474457Y-92931057D01*
X116373424Y-92945419D01*
G37*
X116373424Y-92945419D02*
X116276605Y-92986549D01*
X116246110Y-93006571D01*
X116207135Y-93037340D01*
X116182669Y-93061533D01*
X116178422Y-93069413D01*
X116190416Y-93086899D01*
X116221113Y-93116570D01*
X116245688Y-93137279D01*
X116312954Y-93191336D01*
X116366070Y-93146642D01*
X116407116Y-93117789D01*
X116447137Y-93107829D01*
X116492941Y-93110261D01*
X116565676Y-93128345D01*
X116615744Y-93165881D01*
X116646171Y-93226562D01*
X116659983Y-93314081D01*
X116659987Y-93314136D01*
X116658792Y-93411958D01*
X116640228Y-93483730D01*
X116603196Y-93532595D01*
X116577950Y-93549143D01*
X116510903Y-93569749D01*
X116439291Y-93569762D01*
X116376985Y-93549768D01*
X116362237Y-93540000D01*
X116325250Y-93515047D01*
X116296332Y-93510958D01*
X116265144Y-93529530D01*
X116230664Y-93562887D01*
X116176088Y-93619196D01*
X116236682Y-93669142D01*
X116330302Y-93725513D01*
X116435875Y-93753293D01*
X116546202Y-93751282D01*
X116618657Y-93732862D01*
X116703344Y-93687310D01*
X116771073Y-93615650D01*
X116801843Y-93565066D01*
X116826764Y-93492488D01*
X116839234Y-93400569D01*
X116839330Y-93300948D01*
X116827130Y-93205267D01*
X116802710Y-93125169D01*
X116798864Y-93116956D01*
X116741907Y-93036413D01*
X116664791Y-92977771D01*
X116573610Y-92942247D01*
X116474457Y-92931057D01*
X116373424Y-92945419D01*
G36*
X117999869Y-93198533D02*
G01*
X117998290Y-93321089D01*
X117992519Y-93414179D01*
X117981009Y-93481651D01*
X117962210Y-93527355D01*
X117934574Y-93555139D01*
X117896552Y-93568854D01*
X117849474Y-93572358D01*
X117800168Y-93568432D01*
X117762717Y-93554089D01*
X117735572Y-93525478D01*
X117717185Y-93478751D01*
X117706007Y-93410058D01*
X117700489Y-93315550D01*
X117699079Y-93198533D01*
X117699079Y-92938421D01*
X117515264Y-92938421D01*
X117515264Y-93740526D01*
X117607172Y-93740526D01*
X117662578Y-93738281D01*
X117691109Y-93730396D01*
X117699079Y-93715428D01*
X117703880Y-93702097D01*
X117722986Y-93704917D01*
X117761496Y-93723783D01*
X117849761Y-93752887D01*
X117943377Y-93750825D01*
X118033079Y-93719221D01*
X118075796Y-93694257D01*
X118108379Y-93667226D01*
X118132183Y-93633405D01*
X118148561Y-93588068D01*
X118158869Y-93526489D01*
X118164459Y-93443943D01*
X118166688Y-93335705D01*
X118166974Y-93252004D01*
X118166974Y-92938421D01*
X117999869Y-92938421D01*
X117999869Y-93198533D01*
G37*
X117999869Y-93198533D02*
X117998290Y-93321089D01*
X117992519Y-93414179D01*
X117981009Y-93481651D01*
X117962210Y-93527355D01*
X117934574Y-93555139D01*
X117896552Y-93568854D01*
X117849474Y-93572358D01*
X117800168Y-93568432D01*
X117762717Y-93554089D01*
X117735572Y-93525478D01*
X117717185Y-93478751D01*
X117706007Y-93410058D01*
X117700489Y-93315550D01*
X117699079Y-93198533D01*
X117699079Y-92938421D01*
X117515264Y-92938421D01*
X117515264Y-93740526D01*
X117607172Y-93740526D01*
X117662578Y-93738281D01*
X117691109Y-93730396D01*
X117699079Y-93715428D01*
X117703880Y-93702097D01*
X117722986Y-93704917D01*
X117761496Y-93723783D01*
X117849761Y-93752887D01*
X117943377Y-93750825D01*
X118033079Y-93719221D01*
X118075796Y-93694257D01*
X118108379Y-93667226D01*
X118132183Y-93633405D01*
X118148561Y-93588068D01*
X118158869Y-93526489D01*
X118164459Y-93443943D01*
X118166688Y-93335705D01*
X118166974Y-93252004D01*
X118166974Y-92938421D01*
X117999869Y-92938421D01*
X117999869Y-93198533D01*
G36*
X118508331Y-92948310D02*
G01*
X118423808Y-92994340D01*
X118357679Y-93067006D01*
X118326522Y-93126106D01*
X118313145Y-93178305D01*
X118304478Y-93252719D01*
X118300763Y-93338442D01*
X118302246Y-93424569D01*
X118309169Y-93500193D01*
X118317255Y-93540584D01*
X118344535Y-93595840D01*
X118391780Y-93654530D01*
X118448718Y-93705852D01*
X118505076Y-93739005D01*
X118506450Y-93739531D01*
X118576384Y-93754018D01*
X118659263Y-93754377D01*
X118738023Y-93741188D01*
X118768434Y-93730617D01*
X118846761Y-93686201D01*
X118902857Y-93628007D01*
X118939714Y-93550965D01*
X118960320Y-93450001D01*
X118964982Y-93397116D01*
X118964387Y-93330663D01*
X118785264Y-93330663D01*
X118779230Y-93427630D01*
X118761862Y-93501523D01*
X118734260Y-93548736D01*
X118714596Y-93562237D01*
X118664213Y-93571651D01*
X118604327Y-93568864D01*
X118552551Y-93555316D01*
X118538973Y-93547862D01*
X118503151Y-93504451D01*
X118479507Y-93438014D01*
X118469442Y-93357161D01*
X118474358Y-93270502D01*
X118485345Y-93218349D01*
X118516891Y-93157951D01*
X118566689Y-93120197D01*
X118626663Y-93107143D01*
X118688736Y-93120849D01*
X118736418Y-93154372D01*
X118761475Y-93182031D01*
X118776100Y-93209294D01*
X118783071Y-93246190D01*
X118785167Y-93302750D01*
X118785264Y-93330663D01*
X118964387Y-93330663D01*
X118963718Y-93255994D01*
X118940735Y-93140271D01*
X118896028Y-93049941D01*
X118829595Y-92985000D01*
X118741435Y-92945445D01*
X118722505Y-92940858D01*
X118608734Y-92930090D01*
X118508331Y-92948310D01*
G37*
X118508331Y-92948310D02*
X118423808Y-92994340D01*
X118357679Y-93067006D01*
X118326522Y-93126106D01*
X118313145Y-93178305D01*
X118304478Y-93252719D01*
X118300763Y-93338442D01*
X118302246Y-93424569D01*
X118309169Y-93500193D01*
X118317255Y-93540584D01*
X118344535Y-93595840D01*
X118391780Y-93654530D01*
X118448718Y-93705852D01*
X118505076Y-93739005D01*
X118506450Y-93739531D01*
X118576384Y-93754018D01*
X118659263Y-93754377D01*
X118738023Y-93741188D01*
X118768434Y-93730617D01*
X118846761Y-93686201D01*
X118902857Y-93628007D01*
X118939714Y-93550965D01*
X118960320Y-93450001D01*
X118964982Y-93397116D01*
X118964387Y-93330663D01*
X118785264Y-93330663D01*
X118779230Y-93427630D01*
X118761862Y-93501523D01*
X118734260Y-93548736D01*
X118714596Y-93562237D01*
X118664213Y-93571651D01*
X118604327Y-93568864D01*
X118552551Y-93555316D01*
X118538973Y-93547862D01*
X118503151Y-93504451D01*
X118479507Y-93438014D01*
X118469442Y-93357161D01*
X118474358Y-93270502D01*
X118485345Y-93218349D01*
X118516891Y-93157951D01*
X118566689Y-93120197D01*
X118626663Y-93107143D01*
X118688736Y-93120849D01*
X118736418Y-93154372D01*
X118761475Y-93182031D01*
X118776100Y-93209294D01*
X118783071Y-93246190D01*
X118785167Y-93302750D01*
X118785264Y-93330663D01*
X118964387Y-93330663D01*
X118963718Y-93255994D01*
X118940735Y-93140271D01*
X118896028Y-93049941D01*
X118829595Y-92985000D01*
X118741435Y-92945445D01*
X118722505Y-92940858D01*
X118608734Y-92930090D01*
X118508331Y-92948310D01*
G36*
X119301372Y-92935547D02*
G01*
X119238092Y-92947548D01*
X119172443Y-92972648D01*
X119165428Y-92975848D01*
X119115644Y-93002026D01*
X119081166Y-93026353D01*
X119070022Y-93041937D01*
X119080634Y-93067353D01*
X119106412Y-93104853D01*
X119117854Y-93118852D01*
X119165008Y-93173954D01*
X119225799Y-93138086D01*
X119283653Y-93114192D01*
X119350500Y-93101420D01*
X119414606Y-93100613D01*
X119464236Y-93112615D01*
X119476146Y-93120105D01*
X119498828Y-93154450D01*
X119501584Y-93194013D01*
X119484612Y-93224920D01*
X119474573Y-93230913D01*
X119444490Y-93238357D01*
X119391611Y-93247106D01*
X119326425Y-93255467D01*
X119314400Y-93256778D01*
X119209703Y-93274888D01*
X119133768Y-93305651D01*
X119083408Y-93351907D01*
X119055436Y-93416497D01*
X119046722Y-93495387D01*
X119058760Y-93585065D01*
X119097849Y-93655486D01*
X119164145Y-93706777D01*
X119257806Y-93739067D01*
X119361777Y-93751807D01*
X119446562Y-93751654D01*
X119515335Y-93740083D01*
X119562303Y-93724109D01*
X119621650Y-93696275D01*
X119676494Y-93663973D01*
X119695987Y-93649755D01*
X119746119Y-93608835D01*
X119625197Y-93486477D01*
X119556457Y-93531967D01*
X119487512Y-93566133D01*
X119413889Y-93584004D01*
X119343117Y-93585889D01*
X119282726Y-93572101D01*
X119240243Y-93542949D01*
X119226526Y-93518352D01*
X119228583Y-93478904D01*
X119262670Y-93448737D01*
X119328692Y-93427906D01*
X119401026Y-93418279D01*
X119512348Y-93399910D01*
X119595048Y-93365254D01*
X119650235Y-93313297D01*
X119679012Y-93243023D01*
X119682999Y-93159707D01*
X119663307Y-93072681D01*
X119618411Y-93006902D01*
X119547909Y-92962068D01*
X119451399Y-92937879D01*
X119379900Y-92933137D01*
X119301372Y-92935547D01*
G37*
X119301372Y-92935547D02*
X119238092Y-92947548D01*
X119172443Y-92972648D01*
X119165428Y-92975848D01*
X119115644Y-93002026D01*
X119081166Y-93026353D01*
X119070022Y-93041937D01*
X119080634Y-93067353D01*
X119106412Y-93104853D01*
X119117854Y-93118852D01*
X119165008Y-93173954D01*
X119225799Y-93138086D01*
X119283653Y-93114192D01*
X119350500Y-93101420D01*
X119414606Y-93100613D01*
X119464236Y-93112615D01*
X119476146Y-93120105D01*
X119498828Y-93154450D01*
X119501584Y-93194013D01*
X119484612Y-93224920D01*
X119474573Y-93230913D01*
X119444490Y-93238357D01*
X119391611Y-93247106D01*
X119326425Y-93255467D01*
X119314400Y-93256778D01*
X119209703Y-93274888D01*
X119133768Y-93305651D01*
X119083408Y-93351907D01*
X119055436Y-93416497D01*
X119046722Y-93495387D01*
X119058760Y-93585065D01*
X119097849Y-93655486D01*
X119164145Y-93706777D01*
X119257806Y-93739067D01*
X119361777Y-93751807D01*
X119446562Y-93751654D01*
X119515335Y-93740083D01*
X119562303Y-93724109D01*
X119621650Y-93696275D01*
X119676494Y-93663973D01*
X119695987Y-93649755D01*
X119746119Y-93608835D01*
X119625197Y-93486477D01*
X119556457Y-93531967D01*
X119487512Y-93566133D01*
X119413889Y-93584004D01*
X119343117Y-93585889D01*
X119282726Y-93572101D01*
X119240243Y-93542949D01*
X119226526Y-93518352D01*
X119228583Y-93478904D01*
X119262670Y-93448737D01*
X119328692Y-93427906D01*
X119401026Y-93418279D01*
X119512348Y-93399910D01*
X119595048Y-93365254D01*
X119650235Y-93313297D01*
X119679012Y-93243023D01*
X119682999Y-93159707D01*
X119663307Y-93072681D01*
X119618411Y-93006902D01*
X119547909Y-92962068D01*
X119451399Y-92937879D01*
X119379900Y-92933137D01*
X119301372Y-92935547D01*
G36*
X121122982Y-92957027D02*
G01*
X121106330Y-92964866D01*
X121048695Y-93007086D01*
X120994195Y-93068700D01*
X120953501Y-93136543D01*
X120941926Y-93167734D01*
X120931366Y-93223449D01*
X120925069Y-93290781D01*
X120924304Y-93318585D01*
X120924211Y-93406316D01*
X121429150Y-93406316D01*
X121418387Y-93452270D01*
X121391967Y-93506620D01*
X121345778Y-93553591D01*
X121290828Y-93583848D01*
X121255811Y-93590131D01*
X121208323Y-93582506D01*
X121151665Y-93563383D01*
X121132418Y-93554584D01*
X121061241Y-93519036D01*
X121000498Y-93565367D01*
X120965448Y-93596703D01*
X120946798Y-93622567D01*
X120945853Y-93630158D01*
X120962515Y-93648556D01*
X120999030Y-93676515D01*
X121032172Y-93698327D01*
X121121607Y-93737537D01*
X121221871Y-93755285D01*
X121321246Y-93750670D01*
X121400461Y-93726551D01*
X121482120Y-93674884D01*
X121540151Y-93606856D01*
X121576454Y-93518843D01*
X121592928Y-93407216D01*
X121594389Y-93356138D01*
X121588543Y-93239091D01*
X121587825Y-93235686D01*
X121420511Y-93235686D01*
X121415903Y-93246662D01*
X121396964Y-93252715D01*
X121357902Y-93255310D01*
X121292923Y-93255910D01*
X121267903Y-93255921D01*
X121191779Y-93255014D01*
X121143504Y-93251720D01*
X121117540Y-93245181D01*
X121108352Y-93234537D01*
X121108027Y-93231119D01*
X121118513Y-93203956D01*
X121144758Y-93165903D01*
X121156041Y-93152579D01*
X121197928Y-93114896D01*
X121241591Y-93100080D01*
X121265115Y-93098842D01*
X121328757Y-93114329D01*
X121382127Y-93155930D01*
X121415981Y-93216353D01*
X121416581Y-93218322D01*
X121420511Y-93235686D01*
X121587825Y-93235686D01*
X121569101Y-93146928D01*
X121534078Y-93073190D01*
X121491244Y-93020848D01*
X121412052Y-92964092D01*
X121318960Y-92933762D01*
X121219945Y-92931021D01*
X121122982Y-92957027D01*
G37*
X121122982Y-92957027D02*
X121106330Y-92964866D01*
X121048695Y-93007086D01*
X120994195Y-93068700D01*
X120953501Y-93136543D01*
X120941926Y-93167734D01*
X120931366Y-93223449D01*
X120925069Y-93290781D01*
X120924304Y-93318585D01*
X120924211Y-93406316D01*
X121429150Y-93406316D01*
X121418387Y-93452270D01*
X121391967Y-93506620D01*
X121345778Y-93553591D01*
X121290828Y-93583848D01*
X121255811Y-93590131D01*
X121208323Y-93582506D01*
X121151665Y-93563383D01*
X121132418Y-93554584D01*
X121061241Y-93519036D01*
X121000498Y-93565367D01*
X120965448Y-93596703D01*
X120946798Y-93622567D01*
X120945853Y-93630158D01*
X120962515Y-93648556D01*
X120999030Y-93676515D01*
X121032172Y-93698327D01*
X121121607Y-93737537D01*
X121221871Y-93755285D01*
X121321246Y-93750670D01*
X121400461Y-93726551D01*
X121482120Y-93674884D01*
X121540151Y-93606856D01*
X121576454Y-93518843D01*
X121592928Y-93407216D01*
X121594389Y-93356138D01*
X121588543Y-93239091D01*
X121587825Y-93235686D01*
X121420511Y-93235686D01*
X121415903Y-93246662D01*
X121396964Y-93252715D01*
X121357902Y-93255310D01*
X121292923Y-93255910D01*
X121267903Y-93255921D01*
X121191779Y-93255014D01*
X121143504Y-93251720D01*
X121117540Y-93245181D01*
X121108352Y-93234537D01*
X121108027Y-93231119D01*
X121118513Y-93203956D01*
X121144758Y-93165903D01*
X121156041Y-93152579D01*
X121197928Y-93114896D01*
X121241591Y-93100080D01*
X121265115Y-93098842D01*
X121328757Y-93114329D01*
X121382127Y-93155930D01*
X121415981Y-93216353D01*
X121416581Y-93218322D01*
X121420511Y-93235686D01*
X121587825Y-93235686D01*
X121569101Y-93146928D01*
X121534078Y-93073190D01*
X121491244Y-93020848D01*
X121412052Y-92964092D01*
X121318960Y-92933762D01*
X121219945Y-92931021D01*
X121122982Y-92957027D01*
G36*
X122693216Y-92947104D02*
G01*
X122605795Y-92985754D01*
X122539430Y-93050290D01*
X122494024Y-93140812D01*
X122469482Y-93257418D01*
X122467723Y-93275624D01*
X122466344Y-93403984D01*
X122484216Y-93516496D01*
X122520250Y-93607688D01*
X122539545Y-93637022D01*
X122606755Y-93699106D01*
X122692350Y-93739316D01*
X122788110Y-93756003D01*
X122885813Y-93747517D01*
X122960083Y-93721380D01*
X123023953Y-93677335D01*
X123076154Y-93619587D01*
X123077057Y-93618236D01*
X123098256Y-93582593D01*
X123112033Y-93546752D01*
X123120376Y-93501519D01*
X123125273Y-93437701D01*
X123127431Y-93385368D01*
X123128329Y-93337910D01*
X122961257Y-93337910D01*
X122959624Y-93385154D01*
X122953696Y-93448046D01*
X122943239Y-93488407D01*
X122924381Y-93517122D01*
X122906719Y-93533896D01*
X122844106Y-93569016D01*
X122778592Y-93573710D01*
X122717579Y-93548440D01*
X122687072Y-93520124D01*
X122665089Y-93491589D01*
X122652231Y-93464284D01*
X122646588Y-93428750D01*
X122646249Y-93375524D01*
X122647988Y-93326506D01*
X122651729Y-93256482D01*
X122657659Y-93211064D01*
X122668347Y-93181440D01*
X122686361Y-93158797D01*
X122700637Y-93145855D01*
X122760349Y-93111860D01*
X122824766Y-93110165D01*
X122878781Y-93130301D01*
X122924860Y-93172352D01*
X122952311Y-93241428D01*
X122961257Y-93337910D01*
X123128329Y-93337910D01*
X123129401Y-93281299D01*
X123126036Y-93203468D01*
X123115955Y-93144930D01*
X123097774Y-93098737D01*
X123070110Y-93057942D01*
X123059854Y-93045828D01*
X122995722Y-92985474D01*
X122926934Y-92950220D01*
X122842811Y-92935450D01*
X122801791Y-92934243D01*
X122693216Y-92947104D01*
G37*
X122693216Y-92947104D02*
X122605795Y-92985754D01*
X122539430Y-93050290D01*
X122494024Y-93140812D01*
X122469482Y-93257418D01*
X122467723Y-93275624D01*
X122466344Y-93403984D01*
X122484216Y-93516496D01*
X122520250Y-93607688D01*
X122539545Y-93637022D01*
X122606755Y-93699106D01*
X122692350Y-93739316D01*
X122788110Y-93756003D01*
X122885813Y-93747517D01*
X122960083Y-93721380D01*
X123023953Y-93677335D01*
X123076154Y-93619587D01*
X123077057Y-93618236D01*
X123098256Y-93582593D01*
X123112033Y-93546752D01*
X123120376Y-93501519D01*
X123125273Y-93437701D01*
X123127431Y-93385368D01*
X123128329Y-93337910D01*
X122961257Y-93337910D01*
X122959624Y-93385154D01*
X122953696Y-93448046D01*
X122943239Y-93488407D01*
X122924381Y-93517122D01*
X122906719Y-93533896D01*
X122844106Y-93569016D01*
X122778592Y-93573710D01*
X122717579Y-93548440D01*
X122687072Y-93520124D01*
X122665089Y-93491589D01*
X122652231Y-93464284D01*
X122646588Y-93428750D01*
X122646249Y-93375524D01*
X122647988Y-93326506D01*
X122651729Y-93256482D01*
X122657659Y-93211064D01*
X122668347Y-93181440D01*
X122686361Y-93158797D01*
X122700637Y-93145855D01*
X122760349Y-93111860D01*
X122824766Y-93110165D01*
X122878781Y-93130301D01*
X122924860Y-93172352D01*
X122952311Y-93241428D01*
X122961257Y-93337910D01*
X123128329Y-93337910D01*
X123129401Y-93281299D01*
X123126036Y-93203468D01*
X123115955Y-93144930D01*
X123097774Y-93098737D01*
X123070110Y-93057942D01*
X123059854Y-93045828D01*
X122995722Y-92985474D01*
X122926934Y-92950220D01*
X122842811Y-92935450D01*
X122801791Y-92934243D01*
X122693216Y-92947104D01*
G36*
X116618807Y-94196078D02*
G01*
X116538932Y-94216845D01*
X116472038Y-94259705D01*
X116439649Y-94291723D01*
X116386555Y-94367413D01*
X116356127Y-94455216D01*
X116345673Y-94563150D01*
X116345620Y-94571875D01*
X116345527Y-94659605D01*
X116850466Y-94659605D01*
X116839702Y-94705559D01*
X116820268Y-94747178D01*
X116786255Y-94790544D01*
X116779140Y-94797467D01*
X116717997Y-94834935D01*
X116648271Y-94841289D01*
X116568013Y-94816638D01*
X116554408Y-94810000D01*
X116512681Y-94789819D01*
X116484732Y-94778321D01*
X116479855Y-94777258D01*
X116462832Y-94787583D01*
X116430367Y-94812845D01*
X116413886Y-94826650D01*
X116379736Y-94858361D01*
X116368522Y-94879299D01*
X116376305Y-94898560D01*
X116380465Y-94903827D01*
X116408643Y-94926878D01*
X116455138Y-94954892D01*
X116487566Y-94971246D01*
X116579615Y-95000059D01*
X116681524Y-95009395D01*
X116778037Y-94998332D01*
X116805066Y-94990412D01*
X116888724Y-94945581D01*
X116950734Y-94876598D01*
X116991455Y-94782794D01*
X117011245Y-94663498D01*
X117013418Y-94601118D01*
X117007074Y-94510298D01*
X116846843Y-94510298D01*
X116831345Y-94517012D01*
X116789688Y-94522280D01*
X116729124Y-94525389D01*
X116688093Y-94525921D01*
X116614289Y-94525408D01*
X116567707Y-94523006D01*
X116542152Y-94517422D01*
X116531431Y-94507361D01*
X116529343Y-94492763D01*
X116543669Y-94447796D01*
X116579738Y-94403353D01*
X116627185Y-94369242D01*
X116674651Y-94355288D01*
X116739121Y-94367666D01*
X116794930Y-94403452D01*
X116833626Y-94455033D01*
X116846843Y-94510298D01*
X117007074Y-94510298D01*
X117004179Y-94468866D01*
X116975664Y-94363498D01*
X116927271Y-94284178D01*
X116858396Y-94230071D01*
X116768435Y-94200343D01*
X116719700Y-94194618D01*
X116618807Y-94196078D01*
G37*
X116618807Y-94196078D02*
X116538932Y-94216845D01*
X116472038Y-94259705D01*
X116439649Y-94291723D01*
X116386555Y-94367413D01*
X116356127Y-94455216D01*
X116345673Y-94563150D01*
X116345620Y-94571875D01*
X116345527Y-94659605D01*
X116850466Y-94659605D01*
X116839702Y-94705559D01*
X116820268Y-94747178D01*
X116786255Y-94790544D01*
X116779140Y-94797467D01*
X116717997Y-94834935D01*
X116648271Y-94841289D01*
X116568013Y-94816638D01*
X116554408Y-94810000D01*
X116512681Y-94789819D01*
X116484732Y-94778321D01*
X116479855Y-94777258D01*
X116462832Y-94787583D01*
X116430367Y-94812845D01*
X116413886Y-94826650D01*
X116379736Y-94858361D01*
X116368522Y-94879299D01*
X116376305Y-94898560D01*
X116380465Y-94903827D01*
X116408643Y-94926878D01*
X116455138Y-94954892D01*
X116487566Y-94971246D01*
X116579615Y-95000059D01*
X116681524Y-95009395D01*
X116778037Y-94998332D01*
X116805066Y-94990412D01*
X116888724Y-94945581D01*
X116950734Y-94876598D01*
X116991455Y-94782794D01*
X117011245Y-94663498D01*
X117013418Y-94601118D01*
X117007074Y-94510298D01*
X116846843Y-94510298D01*
X116831345Y-94517012D01*
X116789688Y-94522280D01*
X116729124Y-94525389D01*
X116688093Y-94525921D01*
X116614289Y-94525408D01*
X116567707Y-94523006D01*
X116542152Y-94517422D01*
X116531431Y-94507361D01*
X116529343Y-94492763D01*
X116543669Y-94447796D01*
X116579738Y-94403353D01*
X116627185Y-94369242D01*
X116674651Y-94355288D01*
X116739121Y-94367666D01*
X116794930Y-94403452D01*
X116833626Y-94455033D01*
X116846843Y-94510298D01*
X117007074Y-94510298D01*
X117004179Y-94468866D01*
X116975664Y-94363498D01*
X116927271Y-94284178D01*
X116858396Y-94230071D01*
X116768435Y-94200343D01*
X116719700Y-94194618D01*
X116618807Y-94196078D01*
G36*
X117146833Y-94191447D02*
G01*
X117082592Y-94204112D01*
X117046020Y-94222864D01*
X117007547Y-94254017D01*
X117062283Y-94323127D01*
X117096031Y-94364979D01*
X117118947Y-94385398D01*
X117141721Y-94388517D01*
X117175044Y-94378472D01*
X117190686Y-94372789D01*
X117254458Y-94364404D01*
X117312860Y-94382378D01*
X117355736Y-94422982D01*
X117362701Y-94435929D01*
X117370287Y-94470224D01*
X117376141Y-94533427D01*
X117379989Y-94621060D01*
X117381557Y-94728640D01*
X117381579Y-94743944D01*
X117381579Y-95010526D01*
X117565395Y-95010526D01*
X117565395Y-94191710D01*
X117473487Y-94191710D01*
X117420493Y-94193094D01*
X117392885Y-94199252D01*
X117382676Y-94213194D01*
X117381579Y-94226344D01*
X117381579Y-94260978D01*
X117337550Y-94226344D01*
X117287063Y-94202716D01*
X117219240Y-94191033D01*
X117146833Y-94191447D01*
G37*
X117146833Y-94191447D02*
X117082592Y-94204112D01*
X117046020Y-94222864D01*
X117007547Y-94254017D01*
X117062283Y-94323127D01*
X117096031Y-94364979D01*
X117118947Y-94385398D01*
X117141721Y-94388517D01*
X117175044Y-94378472D01*
X117190686Y-94372789D01*
X117254458Y-94364404D01*
X117312860Y-94382378D01*
X117355736Y-94422982D01*
X117362701Y-94435929D01*
X117370287Y-94470224D01*
X117376141Y-94533427D01*
X117379989Y-94621060D01*
X117381557Y-94728640D01*
X117381579Y-94743944D01*
X117381579Y-95010526D01*
X117565395Y-95010526D01*
X117565395Y-94191710D01*
X117473487Y-94191710D01*
X117420493Y-94193094D01*
X117392885Y-94199252D01*
X117382676Y-94213194D01*
X117381579Y-94226344D01*
X117381579Y-94260978D01*
X117337550Y-94226344D01*
X117287063Y-94202716D01*
X117219240Y-94191033D01*
X117146833Y-94191447D01*
G36*
X117940008Y-94196673D02*
G01*
X117869573Y-94213780D01*
X117849213Y-94222844D01*
X117809747Y-94246583D01*
X117779459Y-94273321D01*
X117757048Y-94307699D01*
X117741214Y-94354360D01*
X117730657Y-94417946D01*
X117724076Y-94503099D01*
X117720172Y-94614462D01*
X117718690Y-94688849D01*
X117713235Y-95010526D01*
X117806420Y-95010526D01*
X117862953Y-95008156D01*
X117892078Y-95000055D01*
X117899606Y-94986451D01*
X117903580Y-94971741D01*
X117921348Y-94974554D01*
X117945560Y-94986348D01*
X118006172Y-95004427D01*
X118084071Y-95009299D01*
X118166005Y-95001330D01*
X118238719Y-94980889D01*
X118245241Y-94978051D01*
X118311698Y-94931365D01*
X118355509Y-94866464D01*
X118375668Y-94790600D01*
X118374128Y-94763344D01*
X118209655Y-94763344D01*
X118195163Y-94800024D01*
X118152195Y-94826309D01*
X118082871Y-94840417D01*
X118045823Y-94842290D01*
X117984081Y-94837494D01*
X117943040Y-94818858D01*
X117933027Y-94810000D01*
X117905900Y-94761806D01*
X117899606Y-94718092D01*
X117899606Y-94659605D01*
X117981070Y-94659605D01*
X118075766Y-94664432D01*
X118142187Y-94679613D01*
X118184154Y-94706200D01*
X118193551Y-94718052D01*
X118209655Y-94763344D01*
X118374128Y-94763344D01*
X118371171Y-94711026D01*
X118341015Y-94634995D01*
X118299869Y-94583612D01*
X118274948Y-94561397D01*
X118250552Y-94546798D01*
X118218809Y-94537897D01*
X118171848Y-94532775D01*
X118101796Y-94529515D01*
X118074010Y-94528577D01*
X117899606Y-94522879D01*
X117899862Y-94470091D01*
X117906616Y-94414603D01*
X117931036Y-94381052D01*
X117980370Y-94359618D01*
X117981694Y-94359236D01*
X118051640Y-94350808D01*
X118120086Y-94361816D01*
X118170953Y-94388585D01*
X118191363Y-94401803D01*
X118213346Y-94399974D01*
X118247174Y-94380824D01*
X118267039Y-94367308D01*
X118305894Y-94338432D01*
X118329962Y-94316786D01*
X118333824Y-94310589D01*
X118317921Y-94278519D01*
X118270935Y-94240219D01*
X118250527Y-94227297D01*
X118191857Y-94205041D01*
X118112788Y-94192432D01*
X118024959Y-94189600D01*
X117940008Y-94196673D01*
G37*
X117940008Y-94196673D02*
X117869573Y-94213780D01*
X117849213Y-94222844D01*
X117809747Y-94246583D01*
X117779459Y-94273321D01*
X117757048Y-94307699D01*
X117741214Y-94354360D01*
X117730657Y-94417946D01*
X117724076Y-94503099D01*
X117720172Y-94614462D01*
X117718690Y-94688849D01*
X117713235Y-95010526D01*
X117806420Y-95010526D01*
X117862953Y-95008156D01*
X117892078Y-95000055D01*
X117899606Y-94986451D01*
X117903580Y-94971741D01*
X117921348Y-94974554D01*
X117945560Y-94986348D01*
X118006172Y-95004427D01*
X118084071Y-95009299D01*
X118166005Y-95001330D01*
X118238719Y-94980889D01*
X118245241Y-94978051D01*
X118311698Y-94931365D01*
X118355509Y-94866464D01*
X118375668Y-94790600D01*
X118374128Y-94763344D01*
X118209655Y-94763344D01*
X118195163Y-94800024D01*
X118152195Y-94826309D01*
X118082871Y-94840417D01*
X118045823Y-94842290D01*
X117984081Y-94837494D01*
X117943040Y-94818858D01*
X117933027Y-94810000D01*
X117905900Y-94761806D01*
X117899606Y-94718092D01*
X117899606Y-94659605D01*
X117981070Y-94659605D01*
X118075766Y-94664432D01*
X118142187Y-94679613D01*
X118184154Y-94706200D01*
X118193551Y-94718052D01*
X118209655Y-94763344D01*
X118374128Y-94763344D01*
X118371171Y-94711026D01*
X118341015Y-94634995D01*
X118299869Y-94583612D01*
X118274948Y-94561397D01*
X118250552Y-94546798D01*
X118218809Y-94537897D01*
X118171848Y-94532775D01*
X118101796Y-94529515D01*
X118074010Y-94528577D01*
X117899606Y-94522879D01*
X117899862Y-94470091D01*
X117906616Y-94414603D01*
X117931036Y-94381052D01*
X117980370Y-94359618D01*
X117981694Y-94359236D01*
X118051640Y-94350808D01*
X118120086Y-94361816D01*
X118170953Y-94388585D01*
X118191363Y-94401803D01*
X118213346Y-94399974D01*
X118247174Y-94380824D01*
X118267039Y-94367308D01*
X118305894Y-94338432D01*
X118329962Y-94316786D01*
X118333824Y-94310589D01*
X118317921Y-94278519D01*
X118270935Y-94240219D01*
X118250527Y-94227297D01*
X118191857Y-94205041D01*
X118112788Y-94192432D01*
X118024959Y-94189600D01*
X117940008Y-94196673D01*
G36*
X118945870Y-94195104D02*
G01*
X118879780Y-94200066D01*
X118793374Y-94459079D01*
X118706969Y-94718092D01*
X118679876Y-94626184D01*
X118663572Y-94569384D01*
X118642125Y-94492625D01*
X118618965Y-94408251D01*
X118606720Y-94362993D01*
X118560656Y-94191710D01*
X118370613Y-94191710D01*
X118427418Y-94371349D01*
X118455393Y-94459704D01*
X118489187Y-94566281D01*
X118524480Y-94677454D01*
X118555987Y-94776579D01*
X118627750Y-95002171D01*
X118782714Y-95012253D01*
X118824730Y-94873528D01*
X118850641Y-94787351D01*
X118878917Y-94692347D01*
X118903631Y-94608441D01*
X118904606Y-94605102D01*
X118923065Y-94548248D01*
X118939351Y-94509456D01*
X118950758Y-94494787D01*
X118953102Y-94496483D01*
X118961329Y-94519225D01*
X118976962Y-94567940D01*
X118998096Y-94636502D01*
X119022830Y-94718785D01*
X119036213Y-94764046D01*
X119108689Y-95010526D01*
X119262505Y-95010526D01*
X119385469Y-94622006D01*
X119420012Y-94513022D01*
X119451479Y-94414048D01*
X119478384Y-94329736D01*
X119499241Y-94264734D01*
X119512562Y-94223692D01*
X119516612Y-94211701D01*
X119513406Y-94199423D01*
X119488235Y-94194046D01*
X119435854Y-94194584D01*
X119427655Y-94194990D01*
X119330518Y-94200066D01*
X119266900Y-94434013D01*
X119243516Y-94519333D01*
X119222619Y-94594335D01*
X119206049Y-94652507D01*
X119195646Y-94687337D01*
X119193724Y-94693016D01*
X119185759Y-94686486D01*
X119169696Y-94652654D01*
X119147379Y-94596127D01*
X119120655Y-94521510D01*
X119098063Y-94454107D01*
X119011959Y-94190143D01*
X118945870Y-94195104D01*
G37*
X118945870Y-94195104D02*
X118879780Y-94200066D01*
X118793374Y-94459079D01*
X118706969Y-94718092D01*
X118679876Y-94626184D01*
X118663572Y-94569384D01*
X118642125Y-94492625D01*
X118618965Y-94408251D01*
X118606720Y-94362993D01*
X118560656Y-94191710D01*
X118370613Y-94191710D01*
X118427418Y-94371349D01*
X118455393Y-94459704D01*
X118489187Y-94566281D01*
X118524480Y-94677454D01*
X118555987Y-94776579D01*
X118627750Y-95002171D01*
X118782714Y-95012253D01*
X118824730Y-94873528D01*
X118850641Y-94787351D01*
X118878917Y-94692347D01*
X118903631Y-94608441D01*
X118904606Y-94605102D01*
X118923065Y-94548248D01*
X118939351Y-94509456D01*
X118950758Y-94494787D01*
X118953102Y-94496483D01*
X118961329Y-94519225D01*
X118976962Y-94567940D01*
X118998096Y-94636502D01*
X119022830Y-94718785D01*
X119036213Y-94764046D01*
X119108689Y-95010526D01*
X119262505Y-95010526D01*
X119385469Y-94622006D01*
X119420012Y-94513022D01*
X119451479Y-94414048D01*
X119478384Y-94329736D01*
X119499241Y-94264734D01*
X119512562Y-94223692D01*
X119516612Y-94211701D01*
X119513406Y-94199423D01*
X119488235Y-94194046D01*
X119435854Y-94194584D01*
X119427655Y-94194990D01*
X119330518Y-94200066D01*
X119266900Y-94434013D01*
X119243516Y-94519333D01*
X119222619Y-94594335D01*
X119206049Y-94652507D01*
X119195646Y-94687337D01*
X119193724Y-94693016D01*
X119185759Y-94686486D01*
X119169696Y-94652654D01*
X119147379Y-94596127D01*
X119120655Y-94521510D01*
X119098063Y-94454107D01*
X119011959Y-94190143D01*
X118945870Y-94195104D01*
G36*
X119587369Y-95010526D02*
G01*
X119679277Y-95010526D01*
X119732623Y-95008962D01*
X119760407Y-95002485D01*
X119770410Y-94988418D01*
X119771185Y-94978906D01*
X119772872Y-94959832D01*
X119783510Y-94956174D01*
X119811465Y-94967932D01*
X119833205Y-94978906D01*
X119916668Y-95004911D01*
X120007396Y-95006416D01*
X120081158Y-94987021D01*
X120149846Y-94940165D01*
X120202206Y-94871004D01*
X120230878Y-94789427D01*
X120231608Y-94784866D01*
X120235868Y-94735101D01*
X120237986Y-94663659D01*
X120237816Y-94609626D01*
X120055280Y-94609626D01*
X120051051Y-94681441D01*
X120041432Y-94740634D01*
X120028410Y-94774060D01*
X119979144Y-94819740D01*
X119920650Y-94836115D01*
X119860329Y-94822873D01*
X119808783Y-94783373D01*
X119789262Y-94756807D01*
X119777848Y-94725106D01*
X119772502Y-94678832D01*
X119771185Y-94609328D01*
X119773542Y-94540499D01*
X119779767Y-94480026D01*
X119788592Y-94439556D01*
X119790063Y-94435929D01*
X119825653Y-94392802D01*
X119877600Y-94369124D01*
X119935722Y-94365301D01*
X119989840Y-94381738D01*
X120029774Y-94418840D01*
X120033917Y-94426222D01*
X120046884Y-94471239D01*
X120053948Y-94535967D01*
X120055280Y-94609626D01*
X120237816Y-94609626D01*
X120237729Y-94582230D01*
X120236528Y-94538405D01*
X120228355Y-94429988D01*
X120211370Y-94348588D01*
X120183113Y-94288412D01*
X120141128Y-94243666D01*
X120100368Y-94217400D01*
X120043419Y-94198935D01*
X119972589Y-94192602D01*
X119900059Y-94197760D01*
X119838014Y-94213769D01*
X119805232Y-94232920D01*
X119771185Y-94263732D01*
X119771185Y-93874210D01*
X119587369Y-93874210D01*
X119587369Y-95010526D01*
G37*
X119587369Y-95010526D02*
X119679277Y-95010526D01*
X119732623Y-95008962D01*
X119760407Y-95002485D01*
X119770410Y-94988418D01*
X119771185Y-94978906D01*
X119772872Y-94959832D01*
X119783510Y-94956174D01*
X119811465Y-94967932D01*
X119833205Y-94978906D01*
X119916668Y-95004911D01*
X120007396Y-95006416D01*
X120081158Y-94987021D01*
X120149846Y-94940165D01*
X120202206Y-94871004D01*
X120230878Y-94789427D01*
X120231608Y-94784866D01*
X120235868Y-94735101D01*
X120237986Y-94663659D01*
X120237816Y-94609626D01*
X120055280Y-94609626D01*
X120051051Y-94681441D01*
X120041432Y-94740634D01*
X120028410Y-94774060D01*
X119979144Y-94819740D01*
X119920650Y-94836115D01*
X119860329Y-94822873D01*
X119808783Y-94783373D01*
X119789262Y-94756807D01*
X119777848Y-94725106D01*
X119772502Y-94678832D01*
X119771185Y-94609328D01*
X119773542Y-94540499D01*
X119779767Y-94480026D01*
X119788592Y-94439556D01*
X119790063Y-94435929D01*
X119825653Y-94392802D01*
X119877600Y-94369124D01*
X119935722Y-94365301D01*
X119989840Y-94381738D01*
X120029774Y-94418840D01*
X120033917Y-94426222D01*
X120046884Y-94471239D01*
X120053948Y-94535967D01*
X120055280Y-94609626D01*
X120237816Y-94609626D01*
X120237729Y-94582230D01*
X120236528Y-94538405D01*
X120228355Y-94429988D01*
X120211370Y-94348588D01*
X120183113Y-94288412D01*
X120141128Y-94243666D01*
X120100368Y-94217400D01*
X120043419Y-94198935D01*
X119972589Y-94192602D01*
X119900059Y-94197760D01*
X119838014Y-94213769D01*
X119805232Y-94232920D01*
X119771185Y-94263732D01*
X119771185Y-93874210D01*
X119587369Y-93874210D01*
X119587369Y-95010526D01*
G36*
X120640119Y-94193486D02*
G01*
X120615112Y-94200982D01*
X120607050Y-94217451D01*
X120606711Y-94224886D01*
X120605264Y-94245594D01*
X120595302Y-94248845D01*
X120568388Y-94234648D01*
X120552402Y-94224948D01*
X120501967Y-94204175D01*
X120441728Y-94193904D01*
X120378566Y-94193114D01*
X120319363Y-94200786D01*
X120270998Y-94215898D01*
X120240354Y-94237432D01*
X120234311Y-94264366D01*
X120237361Y-94271660D01*
X120259594Y-94301937D01*
X120294070Y-94339175D01*
X120300306Y-94345195D01*
X120333167Y-94372875D01*
X120361520Y-94381818D01*
X120401173Y-94375576D01*
X120417058Y-94371429D01*
X120466491Y-94361467D01*
X120501248Y-94365947D01*
X120530600Y-94381746D01*
X120557487Y-94402949D01*
X120577290Y-94429614D01*
X120591052Y-94466827D01*
X120599816Y-94519673D01*
X120604626Y-94593237D01*
X120606526Y-94692605D01*
X120606711Y-94752601D01*
X120606711Y-95010526D01*
X120773816Y-95010526D01*
X120773816Y-94191710D01*
X120690264Y-94191710D01*
X120640119Y-94193486D01*
G37*
X120640119Y-94193486D02*
X120615112Y-94200982D01*
X120607050Y-94217451D01*
X120606711Y-94224886D01*
X120605264Y-94245594D01*
X120595302Y-94248845D01*
X120568388Y-94234648D01*
X120552402Y-94224948D01*
X120501967Y-94204175D01*
X120441728Y-94193904D01*
X120378566Y-94193114D01*
X120319363Y-94200786D01*
X120270998Y-94215898D01*
X120240354Y-94237432D01*
X120234311Y-94264366D01*
X120237361Y-94271660D01*
X120259594Y-94301937D01*
X120294070Y-94339175D01*
X120300306Y-94345195D01*
X120333167Y-94372875D01*
X120361520Y-94381818D01*
X120401173Y-94375576D01*
X120417058Y-94371429D01*
X120466491Y-94361467D01*
X120501248Y-94365947D01*
X120530600Y-94381746D01*
X120557487Y-94402949D01*
X120577290Y-94429614D01*
X120591052Y-94466827D01*
X120599816Y-94519673D01*
X120604626Y-94593237D01*
X120606526Y-94692605D01*
X120606711Y-94752601D01*
X120606711Y-95010526D01*
X120773816Y-95010526D01*
X120773816Y-94191710D01*
X120690264Y-94191710D01*
X120640119Y-94193486D01*
G36*
X121159543Y-94198184D02*
G01*
X121080930Y-94219160D01*
X121021084Y-94257180D01*
X120978853Y-94306978D01*
X120965725Y-94328230D01*
X120956032Y-94350492D01*
X120949256Y-94378970D01*
X120944877Y-94418871D01*
X120942376Y-94475401D01*
X120941232Y-94553767D01*
X120940928Y-94659176D01*
X120940922Y-94687142D01*
X120940922Y-95010526D01*
X121021132Y-95010526D01*
X121072294Y-95006943D01*
X121110123Y-94997866D01*
X121119601Y-94992268D01*
X121145512Y-94982606D01*
X121171976Y-94992268D01*
X121215548Y-95004330D01*
X121278840Y-95009185D01*
X121348990Y-95007078D01*
X121413140Y-94998256D01*
X121450593Y-94986937D01*
X121523067Y-94940412D01*
X121568360Y-94875846D01*
X121588722Y-94790000D01*
X121588912Y-94787796D01*
X121587125Y-94749713D01*
X121425527Y-94749713D01*
X121411399Y-94793030D01*
X121388388Y-94817408D01*
X121342196Y-94835845D01*
X121281225Y-94843205D01*
X121219051Y-94839583D01*
X121169249Y-94825074D01*
X121155297Y-94815765D01*
X121130915Y-94772753D01*
X121124737Y-94723857D01*
X121124737Y-94659605D01*
X121217182Y-94659605D01*
X121305005Y-94666366D01*
X121371582Y-94685520D01*
X121412998Y-94715376D01*
X121425527Y-94749713D01*
X121587125Y-94749713D01*
X121584510Y-94694004D01*
X121553576Y-94619847D01*
X121495419Y-94563767D01*
X121487380Y-94558665D01*
X121452837Y-94542055D01*
X121410082Y-94531996D01*
X121350314Y-94527107D01*
X121279310Y-94525983D01*
X121124737Y-94525921D01*
X121124737Y-94461125D01*
X121131294Y-94410850D01*
X121148025Y-94377169D01*
X121149984Y-94375376D01*
X121187217Y-94360642D01*
X121243420Y-94354931D01*
X121305533Y-94357737D01*
X121360490Y-94368556D01*
X121393101Y-94384782D01*
X121410772Y-94397780D01*
X121429431Y-94400262D01*
X121455181Y-94389613D01*
X121494127Y-94363218D01*
X121552370Y-94318465D01*
X121557716Y-94314273D01*
X121554977Y-94298760D01*
X121532124Y-94272960D01*
X121497391Y-94244289D01*
X121459010Y-94220166D01*
X121446952Y-94214470D01*
X121402966Y-94203103D01*
X121338513Y-94194995D01*
X121266503Y-94191743D01*
X121263136Y-94191736D01*
X121159543Y-94198184D01*
G37*
X121159543Y-94198184D02*
X121080930Y-94219160D01*
X121021084Y-94257180D01*
X120978853Y-94306978D01*
X120965725Y-94328230D01*
X120956032Y-94350492D01*
X120949256Y-94378970D01*
X120944877Y-94418871D01*
X120942376Y-94475401D01*
X120941232Y-94553767D01*
X120940928Y-94659176D01*
X120940922Y-94687142D01*
X120940922Y-95010526D01*
X121021132Y-95010526D01*
X121072294Y-95006943D01*
X121110123Y-94997866D01*
X121119601Y-94992268D01*
X121145512Y-94982606D01*
X121171976Y-94992268D01*
X121215548Y-95004330D01*
X121278840Y-95009185D01*
X121348990Y-95007078D01*
X121413140Y-94998256D01*
X121450593Y-94986937D01*
X121523067Y-94940412D01*
X121568360Y-94875846D01*
X121588722Y-94790000D01*
X121588912Y-94787796D01*
X121587125Y-94749713D01*
X121425527Y-94749713D01*
X121411399Y-94793030D01*
X121388388Y-94817408D01*
X121342196Y-94835845D01*
X121281225Y-94843205D01*
X121219051Y-94839583D01*
X121169249Y-94825074D01*
X121155297Y-94815765D01*
X121130915Y-94772753D01*
X121124737Y-94723857D01*
X121124737Y-94659605D01*
X121217182Y-94659605D01*
X121305005Y-94666366D01*
X121371582Y-94685520D01*
X121412998Y-94715376D01*
X121425527Y-94749713D01*
X121587125Y-94749713D01*
X121584510Y-94694004D01*
X121553576Y-94619847D01*
X121495419Y-94563767D01*
X121487380Y-94558665D01*
X121452837Y-94542055D01*
X121410082Y-94531996D01*
X121350314Y-94527107D01*
X121279310Y-94525983D01*
X121124737Y-94525921D01*
X121124737Y-94461125D01*
X121131294Y-94410850D01*
X121148025Y-94377169D01*
X121149984Y-94375376D01*
X121187217Y-94360642D01*
X121243420Y-94354931D01*
X121305533Y-94357737D01*
X121360490Y-94368556D01*
X121393101Y-94384782D01*
X121410772Y-94397780D01*
X121429431Y-94400262D01*
X121455181Y-94389613D01*
X121494127Y-94363218D01*
X121552370Y-94318465D01*
X121557716Y-94314273D01*
X121554977Y-94298760D01*
X121532124Y-94272960D01*
X121497391Y-94244289D01*
X121459010Y-94220166D01*
X121446952Y-94214470D01*
X121402966Y-94203103D01*
X121338513Y-94194995D01*
X121266503Y-94191743D01*
X121263136Y-94191736D01*
X121159543Y-94198184D01*
G36*
X121856640Y-92952468D02*
G01*
X121821408Y-92969874D01*
X121777960Y-93000206D01*
X121746294Y-93033283D01*
X121724606Y-93074817D01*
X121711097Y-93130522D01*
X121703962Y-93206111D01*
X121701400Y-93307296D01*
X121701250Y-93350797D01*
X121701688Y-93446135D01*
X121703504Y-93514271D01*
X121707455Y-93561418D01*
X121714298Y-93593790D01*
X121724789Y-93617600D01*
X121735704Y-93633843D01*
X121805381Y-93702952D01*
X121887434Y-93744521D01*
X121975950Y-93757023D01*
X122065019Y-93738934D01*
X122093237Y-93726142D01*
X122160790Y-93690931D01*
X122160790Y-94242700D01*
X122111488Y-94217205D01*
X122046527Y-94197480D01*
X121966680Y-94192427D01*
X121886948Y-94201756D01*
X121826735Y-94222714D01*
X121776792Y-94262627D01*
X121734119Y-94319741D01*
X121730910Y-94325605D01*
X121717378Y-94353227D01*
X121707495Y-94381068D01*
X121700691Y-94414794D01*
X121696399Y-94460071D01*
X121694049Y-94522562D01*
X121693072Y-94607935D01*
X121692895Y-94704010D01*
X121692895Y-95010526D01*
X121876711Y-95010526D01*
X121876711Y-94445339D01*
X121928125Y-94402077D01*
X121981534Y-94367472D01*
X122032112Y-94361180D01*
X122082970Y-94377372D01*
X122110075Y-94393227D01*
X122130249Y-94415810D01*
X122144597Y-94449940D01*
X122154224Y-94500434D01*
X122160237Y-94572111D01*
X122163740Y-94669788D01*
X122164974Y-94734802D01*
X122169145Y-95002171D01*
X122256875Y-95007222D01*
X122344606Y-95012273D01*
X122344606Y-93353101D01*
X122160790Y-93353101D01*
X122156104Y-93445600D01*
X122140312Y-93509809D01*
X122110817Y-93549759D01*
X122065020Y-93569480D01*
X122018750Y-93573421D01*
X121966372Y-93568892D01*
X121931610Y-93551069D01*
X121909872Y-93527519D01*
X121892760Y-93502189D01*
X121882573Y-93473969D01*
X121878040Y-93434431D01*
X121877891Y-93375142D01*
X121879416Y-93325498D01*
X121882919Y-93250710D01*
X121888133Y-93201611D01*
X121896913Y-93170467D01*
X121911114Y-93149545D01*
X121924516Y-93137452D01*
X121980513Y-93111081D01*
X122046789Y-93106822D01*
X122084844Y-93115906D01*
X122122523Y-93148196D01*
X122147481Y-93211006D01*
X122159578Y-93303894D01*
X122160790Y-93353101D01*
X122344606Y-93353101D01*
X122344606Y-92938421D01*
X122252698Y-92938421D01*
X122197517Y-92940603D01*
X122169048Y-92948351D01*
X122160794Y-92963468D01*
X122160790Y-92963916D01*
X122156960Y-92978720D01*
X122140067Y-92977039D01*
X122106481Y-92960772D01*
X122028222Y-92935887D01*
X121940173Y-92933271D01*
X121856640Y-92952468D01*
G37*
X121856640Y-92952468D02*
X121821408Y-92969874D01*
X121777960Y-93000206D01*
X121746294Y-93033283D01*
X121724606Y-93074817D01*
X121711097Y-93130522D01*
X121703962Y-93206111D01*
X121701400Y-93307296D01*
X121701250Y-93350797D01*
X121701688Y-93446135D01*
X121703504Y-93514271D01*
X121707455Y-93561418D01*
X121714298Y-93593790D01*
X121724789Y-93617600D01*
X121735704Y-93633843D01*
X121805381Y-93702952D01*
X121887434Y-93744521D01*
X121975950Y-93757023D01*
X122065019Y-93738934D01*
X122093237Y-93726142D01*
X122160790Y-93690931D01*
X122160790Y-94242700D01*
X122111488Y-94217205D01*
X122046527Y-94197480D01*
X121966680Y-94192427D01*
X121886948Y-94201756D01*
X121826735Y-94222714D01*
X121776792Y-94262627D01*
X121734119Y-94319741D01*
X121730910Y-94325605D01*
X121717378Y-94353227D01*
X121707495Y-94381068D01*
X121700691Y-94414794D01*
X121696399Y-94460071D01*
X121694049Y-94522562D01*
X121693072Y-94607935D01*
X121692895Y-94704010D01*
X121692895Y-95010526D01*
X121876711Y-95010526D01*
X121876711Y-94445339D01*
X121928125Y-94402077D01*
X121981534Y-94367472D01*
X122032112Y-94361180D01*
X122082970Y-94377372D01*
X122110075Y-94393227D01*
X122130249Y-94415810D01*
X122144597Y-94449940D01*
X122154224Y-94500434D01*
X122160237Y-94572111D01*
X122163740Y-94669788D01*
X122164974Y-94734802D01*
X122169145Y-95002171D01*
X122256875Y-95007222D01*
X122344606Y-95012273D01*
X122344606Y-93353101D01*
X122160790Y-93353101D01*
X122156104Y-93445600D01*
X122140312Y-93509809D01*
X122110817Y-93549759D01*
X122065020Y-93569480D01*
X122018750Y-93573421D01*
X121966372Y-93568892D01*
X121931610Y-93551069D01*
X121909872Y-93527519D01*
X121892760Y-93502189D01*
X121882573Y-93473969D01*
X121878040Y-93434431D01*
X121877891Y-93375142D01*
X121879416Y-93325498D01*
X121882919Y-93250710D01*
X121888133Y-93201611D01*
X121896913Y-93170467D01*
X121911114Y-93149545D01*
X121924516Y-93137452D01*
X121980513Y-93111081D01*
X122046789Y-93106822D01*
X122084844Y-93115906D01*
X122122523Y-93148196D01*
X122147481Y-93211006D01*
X122159578Y-93303894D01*
X122160790Y-93353101D01*
X122344606Y-93353101D01*
X122344606Y-92938421D01*
X122252698Y-92938421D01*
X122197517Y-92940603D01*
X122169048Y-92948351D01*
X122160794Y-92963468D01*
X122160790Y-92963916D01*
X122156960Y-92978720D01*
X122140067Y-92977039D01*
X122106481Y-92960772D01*
X122028222Y-92935887D01*
X121940173Y-92933271D01*
X121856640Y-92952468D01*
G36*
X126891718Y-97928097D02*
G01*
X126828681Y-97972781D01*
X126773015Y-98028447D01*
X126773015Y-98650080D01*
X126773161Y-98834659D01*
X126773850Y-98979383D01*
X126775463Y-99089755D01*
X126778380Y-99171276D01*
X126782978Y-99229449D01*
X126789639Y-99269777D01*
X126798742Y-99297760D01*
X126810666Y-99318903D01*
X126820019Y-99331468D01*
X126881755Y-99380835D01*
X126952643Y-99386193D01*
X127017434Y-99355919D01*
X127038843Y-99338046D01*
X127053154Y-99314305D01*
X127061786Y-99276075D01*
X127066158Y-99214733D01*
X127067690Y-99121660D01*
X127067837Y-99049758D01*
X127067837Y-98778902D01*
X128065694Y-98778902D01*
X128065694Y-99025307D01*
X128066726Y-99137982D01*
X128070854Y-99215418D01*
X128079629Y-99267708D01*
X128094598Y-99304944D01*
X128112697Y-99331468D01*
X128174779Y-99380696D01*
X128244988Y-99386525D01*
X128312201Y-99351535D01*
X128330552Y-99333193D01*
X128343512Y-99308877D01*
X128352061Y-99271001D01*
X128357175Y-99211978D01*
X128359831Y-99124222D01*
X128361009Y-99000146D01*
X128361146Y-98971669D01*
X128362118Y-98737892D01*
X128362619Y-98545228D01*
X128362456Y-98389435D01*
X128361435Y-98266271D01*
X128359363Y-98171493D01*
X128356047Y-98100859D01*
X128351293Y-98050126D01*
X128344909Y-98015052D01*
X128336700Y-97991393D01*
X128326473Y-97974909D01*
X128315158Y-97962473D01*
X128251151Y-97922694D01*
X128184397Y-97928097D01*
X128121360Y-97972781D01*
X128095851Y-98001610D01*
X128079591Y-98033455D01*
X128070519Y-98078808D01*
X128066574Y-98148166D01*
X128065695Y-98252022D01*
X128065694Y-98256264D01*
X128065694Y-98484080D01*
X127067837Y-98484080D01*
X127067837Y-98245955D01*
X127066819Y-98136251D01*
X127062729Y-98062176D01*
X127054015Y-98014027D01*
X127039125Y-97982101D01*
X127022480Y-97962473D01*
X126958473Y-97922694D01*
X126891718Y-97928097D01*
G37*
X126891718Y-97928097D02*
X126828681Y-97972781D01*
X126773015Y-98028447D01*
X126773015Y-98650080D01*
X126773161Y-98834659D01*
X126773850Y-98979383D01*
X126775463Y-99089755D01*
X126778380Y-99171276D01*
X126782978Y-99229449D01*
X126789639Y-99269777D01*
X126798742Y-99297760D01*
X126810666Y-99318903D01*
X126820019Y-99331468D01*
X126881755Y-99380835D01*
X126952643Y-99386193D01*
X127017434Y-99355919D01*
X127038843Y-99338046D01*
X127053154Y-99314305D01*
X127061786Y-99276075D01*
X127066158Y-99214733D01*
X127067690Y-99121660D01*
X127067837Y-99049758D01*
X127067837Y-98778902D01*
X128065694Y-98778902D01*
X128065694Y-99025307D01*
X128066726Y-99137982D01*
X128070854Y-99215418D01*
X128079629Y-99267708D01*
X128094598Y-99304944D01*
X128112697Y-99331468D01*
X128174779Y-99380696D01*
X128244988Y-99386525D01*
X128312201Y-99351535D01*
X128330552Y-99333193D01*
X128343512Y-99308877D01*
X128352061Y-99271001D01*
X128357175Y-99211978D01*
X128359831Y-99124222D01*
X128361009Y-99000146D01*
X128361146Y-98971669D01*
X128362118Y-98737892D01*
X128362619Y-98545228D01*
X128362456Y-98389435D01*
X128361435Y-98266271D01*
X128359363Y-98171493D01*
X128356047Y-98100859D01*
X128351293Y-98050126D01*
X128344909Y-98015052D01*
X128336700Y-97991393D01*
X128326473Y-97974909D01*
X128315158Y-97962473D01*
X128251151Y-97922694D01*
X128184397Y-97928097D01*
X128121360Y-97972781D01*
X128095851Y-98001610D01*
X128079591Y-98033455D01*
X128070519Y-98078808D01*
X128066574Y-98148166D01*
X128065695Y-98252022D01*
X128065694Y-98256264D01*
X128065694Y-98484080D01*
X127067837Y-98484080D01*
X127067837Y-98245955D01*
X127066819Y-98136251D01*
X127062729Y-98062176D01*
X127054015Y-98014027D01*
X127039125Y-97982101D01*
X127022480Y-97962473D01*
X126958473Y-97922694D01*
X126891718Y-97928097D01*
G36*
X129434537Y-97917310D02*
G01*
X129276419Y-97918070D01*
X129153692Y-97919660D01*
X129061374Y-97922345D01*
X128994481Y-97926390D01*
X128948032Y-97932060D01*
X128917043Y-97939620D01*
X128896532Y-97949335D01*
X128886606Y-97956803D01*
X128835089Y-98022165D01*
X128828857Y-98090028D01*
X128860693Y-98151677D01*
X128881512Y-98176312D01*
X128903915Y-98193110D01*
X128936383Y-98203570D01*
X128987394Y-98209195D01*
X129065430Y-98211483D01*
X129178970Y-98211935D01*
X129201269Y-98211937D01*
X129494444Y-98211937D01*
X129494444Y-98756223D01*
X129494637Y-98927782D01*
X129495514Y-99059789D01*
X129497522Y-99158045D01*
X129501106Y-99228356D01*
X129506713Y-99276523D01*
X129514789Y-99308351D01*
X129525782Y-99329642D01*
X129539801Y-99345866D01*
X129605961Y-99385734D01*
X129675026Y-99382592D01*
X129737660Y-99337105D01*
X129742262Y-99331468D01*
X129757243Y-99310158D01*
X129768657Y-99285225D01*
X129776986Y-99250609D01*
X129782713Y-99200253D01*
X129786321Y-99128098D01*
X129788294Y-99028086D01*
X129789114Y-98894158D01*
X129789265Y-98741825D01*
X129789265Y-98211937D01*
X130069233Y-98211937D01*
X130189378Y-98211124D01*
X130272555Y-98207956D01*
X130327137Y-98201339D01*
X130361494Y-98190179D01*
X130384000Y-98173384D01*
X130386733Y-98170464D01*
X130419594Y-98103690D01*
X130416688Y-98028200D01*
X130378908Y-97962473D01*
X130364298Y-97949724D01*
X130345460Y-97939615D01*
X130317372Y-97931840D01*
X130275010Y-97926095D01*
X130213350Y-97922074D01*
X130127368Y-97919472D01*
X130012042Y-97917982D01*
X129862348Y-97917299D01*
X129673262Y-97917119D01*
X129633028Y-97917116D01*
X129434537Y-97917310D01*
G37*
X129434537Y-97917310D02*
X129276419Y-97918070D01*
X129153692Y-97919660D01*
X129061374Y-97922345D01*
X128994481Y-97926390D01*
X128948032Y-97932060D01*
X128917043Y-97939620D01*
X128896532Y-97949335D01*
X128886606Y-97956803D01*
X128835089Y-98022165D01*
X128828857Y-98090028D01*
X128860693Y-98151677D01*
X128881512Y-98176312D01*
X128903915Y-98193110D01*
X128936383Y-98203570D01*
X128987394Y-98209195D01*
X129065430Y-98211483D01*
X129178970Y-98211935D01*
X129201269Y-98211937D01*
X129494444Y-98211937D01*
X129494444Y-98756223D01*
X129494637Y-98927782D01*
X129495514Y-99059789D01*
X129497522Y-99158045D01*
X129501106Y-99228356D01*
X129506713Y-99276523D01*
X129514789Y-99308351D01*
X129525782Y-99329642D01*
X129539801Y-99345866D01*
X129605961Y-99385734D01*
X129675026Y-99382592D01*
X129737660Y-99337105D01*
X129742262Y-99331468D01*
X129757243Y-99310158D01*
X129768657Y-99285225D01*
X129776986Y-99250609D01*
X129782713Y-99200253D01*
X129786321Y-99128098D01*
X129788294Y-99028086D01*
X129789114Y-98894158D01*
X129789265Y-98741825D01*
X129789265Y-98211937D01*
X130069233Y-98211937D01*
X130189378Y-98211124D01*
X130272555Y-98207956D01*
X130327137Y-98201339D01*
X130361494Y-98190179D01*
X130384000Y-98173384D01*
X130386733Y-98170464D01*
X130419594Y-98103690D01*
X130416688Y-98028200D01*
X130378908Y-97962473D01*
X130364298Y-97949724D01*
X130345460Y-97939615D01*
X130317372Y-97931840D01*
X130275010Y-97926095D01*
X130213350Y-97922074D01*
X130127368Y-97919472D01*
X130012042Y-97917982D01*
X129862348Y-97917299D01*
X129673262Y-97917119D01*
X129633028Y-97917116D01*
X129434537Y-97917310D01*
G36*
X130990353Y-97930797D02*
G01*
X130942715Y-97960469D01*
X130889176Y-98003823D01*
X130889176Y-98649785D01*
X130889347Y-98838738D01*
X130890077Y-98987604D01*
X130891695Y-99101655D01*
X130894529Y-99186159D01*
X130898908Y-99246386D01*
X130905159Y-99287608D01*
X130913611Y-99315093D01*
X130924592Y-99334113D01*
X130932379Y-99343485D01*
X130995537Y-99384654D01*
X131067457Y-99382975D01*
X131130458Y-99347870D01*
X131183998Y-99304516D01*
X131183998Y-98003823D01*
X131130458Y-97960469D01*
X131078785Y-97928933D01*
X131036587Y-97917116D01*
X130990353Y-97930797D01*
G37*
X130990353Y-97930797D02*
X130942715Y-97960469D01*
X130889176Y-98003823D01*
X130889176Y-98649785D01*
X130889347Y-98838738D01*
X130890077Y-98987604D01*
X130891695Y-99101655D01*
X130894529Y-99186159D01*
X130898908Y-99246386D01*
X130905159Y-99287608D01*
X130913611Y-99315093D01*
X130924592Y-99334113D01*
X130932379Y-99343485D01*
X130995537Y-99384654D01*
X131067457Y-99382975D01*
X131130458Y-99347870D01*
X131183998Y-99304516D01*
X131183998Y-98003823D01*
X131130458Y-97960469D01*
X131078785Y-97928933D01*
X131036587Y-97917116D01*
X130990353Y-97930797D01*
G36*
X131882215Y-97921068D02*
G01*
X131842861Y-97935132D01*
X131841342Y-97935820D01*
X131787900Y-97976604D01*
X131758455Y-98018555D01*
X131752693Y-98038224D01*
X131752978Y-98064360D01*
X131761085Y-98101591D01*
X131778792Y-98154551D01*
X131807876Y-98227868D01*
X131850113Y-98326174D01*
X131907280Y-98454099D01*
X131981154Y-98616275D01*
X132021816Y-98704916D01*
X132095241Y-98863158D01*
X132164169Y-99008680D01*
X132225968Y-99136160D01*
X132278009Y-99240279D01*
X132317659Y-99315716D01*
X132342289Y-99357151D01*
X132347163Y-99362875D01*
X132409522Y-99388125D01*
X132479960Y-99384743D01*
X132536452Y-99354033D01*
X132538754Y-99351535D01*
X132561226Y-99317515D01*
X132598922Y-99251251D01*
X132647194Y-99161272D01*
X132701392Y-99056109D01*
X132720870Y-99017356D01*
X132867898Y-98722863D01*
X133028157Y-99042772D01*
X133085359Y-99153306D01*
X133138429Y-99249167D01*
X133183031Y-99323016D01*
X133214830Y-99367516D01*
X133225607Y-99376952D01*
X133309374Y-99389732D01*
X133378496Y-99362875D01*
X133398829Y-99334172D01*
X133434014Y-99270381D01*
X133481181Y-99177779D01*
X133537460Y-99062643D01*
X133599981Y-98931249D01*
X133665873Y-98789875D01*
X133732266Y-98644797D01*
X133796290Y-98502293D01*
X133855074Y-98368640D01*
X133905748Y-98250114D01*
X133945442Y-98152992D01*
X133971285Y-98083552D01*
X133980408Y-98048070D01*
X133980315Y-98046785D01*
X133958119Y-98002137D01*
X133913754Y-97956663D01*
X133911141Y-97954685D01*
X133856614Y-97923863D01*
X133806179Y-97924161D01*
X133787276Y-97929972D01*
X133764241Y-97942530D01*
X133739780Y-97967234D01*
X133710958Y-98009207D01*
X133674840Y-98073575D01*
X133628492Y-98165463D01*
X133568981Y-98289994D01*
X133515313Y-98404946D01*
X133453568Y-98538195D01*
X133398240Y-98658023D01*
X133352203Y-98758171D01*
X133318330Y-98832378D01*
X133299498Y-98874384D01*
X133296751Y-98880955D01*
X133284398Y-98870213D01*
X133256007Y-98825236D01*
X133215355Y-98752588D01*
X133166221Y-98658834D01*
X133146669Y-98620152D01*
X133080435Y-98489535D01*
X133029356Y-98394411D01*
X132989240Y-98329252D01*
X132955896Y-98288525D01*
X132925131Y-98266701D01*
X132892755Y-98258249D01*
X132871656Y-98257294D01*
X132834438Y-98260592D01*
X132801824Y-98274232D01*
X132769418Y-98303834D01*
X132732824Y-98355016D01*
X132687646Y-98433398D01*
X132629488Y-98544600D01*
X132597400Y-98607858D01*
X132545352Y-98708675D01*
X132499956Y-98792280D01*
X132465220Y-98851620D01*
X132445147Y-98879639D01*
X132442417Y-98880806D01*
X132429454Y-98858754D01*
X132400431Y-98801493D01*
X132358255Y-98715016D01*
X132305832Y-98605316D01*
X132246069Y-98478386D01*
X132216671Y-98415339D01*
X132140192Y-98252630D01*
X132078608Y-98127429D01*
X132028722Y-98035651D01*
X131987337Y-97973210D01*
X131951256Y-97936023D01*
X131917281Y-97920004D01*
X131882215Y-97921068D01*
G37*
X131882215Y-97921068D02*
X131842861Y-97935132D01*
X131841342Y-97935820D01*
X131787900Y-97976604D01*
X131758455Y-98018555D01*
X131752693Y-98038224D01*
X131752978Y-98064360D01*
X131761085Y-98101591D01*
X131778792Y-98154551D01*
X131807876Y-98227868D01*
X131850113Y-98326174D01*
X131907280Y-98454099D01*
X131981154Y-98616275D01*
X132021816Y-98704916D01*
X132095241Y-98863158D01*
X132164169Y-99008680D01*
X132225968Y-99136160D01*
X132278009Y-99240279D01*
X132317659Y-99315716D01*
X132342289Y-99357151D01*
X132347163Y-99362875D01*
X132409522Y-99388125D01*
X132479960Y-99384743D01*
X132536452Y-99354033D01*
X132538754Y-99351535D01*
X132561226Y-99317515D01*
X132598922Y-99251251D01*
X132647194Y-99161272D01*
X132701392Y-99056109D01*
X132720870Y-99017356D01*
X132867898Y-98722863D01*
X133028157Y-99042772D01*
X133085359Y-99153306D01*
X133138429Y-99249167D01*
X133183031Y-99323016D01*
X133214830Y-99367516D01*
X133225607Y-99376952D01*
X133309374Y-99389732D01*
X133378496Y-99362875D01*
X133398829Y-99334172D01*
X133434014Y-99270381D01*
X133481181Y-99177779D01*
X133537460Y-99062643D01*
X133599981Y-98931249D01*
X133665873Y-98789875D01*
X133732266Y-98644797D01*
X133796290Y-98502293D01*
X133855074Y-98368640D01*
X133905748Y-98250114D01*
X133945442Y-98152992D01*
X133971285Y-98083552D01*
X133980408Y-98048070D01*
X133980315Y-98046785D01*
X133958119Y-98002137D01*
X133913754Y-97956663D01*
X133911141Y-97954685D01*
X133856614Y-97923863D01*
X133806179Y-97924161D01*
X133787276Y-97929972D01*
X133764241Y-97942530D01*
X133739780Y-97967234D01*
X133710958Y-98009207D01*
X133674840Y-98073575D01*
X133628492Y-98165463D01*
X133568981Y-98289994D01*
X133515313Y-98404946D01*
X133453568Y-98538195D01*
X133398240Y-98658023D01*
X133352203Y-98758171D01*
X133318330Y-98832378D01*
X133299498Y-98874384D01*
X133296751Y-98880955D01*
X133284398Y-98870213D01*
X133256007Y-98825236D01*
X133215355Y-98752588D01*
X133166221Y-98658834D01*
X133146669Y-98620152D01*
X133080435Y-98489535D01*
X133029356Y-98394411D01*
X132989240Y-98329252D01*
X132955896Y-98288525D01*
X132925131Y-98266701D01*
X132892755Y-98258249D01*
X132871656Y-98257294D01*
X132834438Y-98260592D01*
X132801824Y-98274232D01*
X132769418Y-98303834D01*
X132732824Y-98355016D01*
X132687646Y-98433398D01*
X132629488Y-98544600D01*
X132597400Y-98607858D01*
X132545352Y-98708675D01*
X132499956Y-98792280D01*
X132465220Y-98851620D01*
X132445147Y-98879639D01*
X132442417Y-98880806D01*
X132429454Y-98858754D01*
X132400431Y-98801493D01*
X132358255Y-98715016D01*
X132305832Y-98605316D01*
X132246069Y-98478386D01*
X132216671Y-98415339D01*
X132140192Y-98252630D01*
X132078608Y-98127429D01*
X132028722Y-98035651D01*
X131987337Y-97973210D01*
X131951256Y-97936023D01*
X131917281Y-97920004D01*
X131882215Y-97921068D01*
G36*
X137359270Y-97917534D02*
G01*
X137100159Y-97926295D01*
X136879774Y-97952863D01*
X136694481Y-97998828D01*
X136540645Y-98065783D01*
X136414634Y-98155316D01*
X136312813Y-98269019D01*
X136231549Y-98408482D01*
X136229950Y-98411883D01*
X136181451Y-98536702D01*
X136164171Y-98647246D01*
X136178175Y-98758497D01*
X136223532Y-98885433D01*
X136232134Y-98904749D01*
X136290794Y-99017806D01*
X136356720Y-99105165D01*
X136441806Y-99179427D01*
X136557946Y-99253191D01*
X136564693Y-99257042D01*
X136665796Y-99305608D01*
X136780071Y-99341879D01*
X136914859Y-99367106D01*
X137077505Y-99382539D01*
X137275351Y-99389431D01*
X137345253Y-99390030D01*
X137678116Y-99391223D01*
X137725119Y-99331468D01*
X137739062Y-99311819D01*
X137749939Y-99288873D01*
X137758129Y-99257129D01*
X137764013Y-99211082D01*
X137767969Y-99145233D01*
X137769259Y-99096402D01*
X137454623Y-99096402D01*
X137266020Y-99096402D01*
X137155655Y-99093174D01*
X137042359Y-99084681D01*
X136949375Y-99072703D01*
X136943762Y-99071694D01*
X136778610Y-99027388D01*
X136650510Y-98960822D01*
X136555410Y-98868907D01*
X136489257Y-98748555D01*
X136477753Y-98716658D01*
X136466478Y-98666980D01*
X136471360Y-98617900D01*
X136495113Y-98552607D01*
X136509431Y-98520532D01*
X136556318Y-98435297D01*
X136612809Y-98375499D01*
X136674965Y-98333857D01*
X136799468Y-98279668D01*
X136958806Y-98240415D01*
X137144427Y-98217812D01*
X137278864Y-98212837D01*
X137454623Y-98211937D01*
X137454623Y-99096402D01*
X137769259Y-99096402D01*
X137770378Y-99054078D01*
X137771619Y-98932115D01*
X137772072Y-98773841D01*
X137772123Y-98650080D01*
X137772123Y-98028447D01*
X137716457Y-97972781D01*
X137691752Y-97950218D01*
X137665039Y-97934766D01*
X137627736Y-97925098D01*
X137571257Y-97919887D01*
X137487022Y-97917805D01*
X137366445Y-97917524D01*
X137359270Y-97917534D01*
G37*
X137359270Y-97917534D02*
X137100159Y-97926295D01*
X136879774Y-97952863D01*
X136694481Y-97998828D01*
X136540645Y-98065783D01*
X136414634Y-98155316D01*
X136312813Y-98269019D01*
X136231549Y-98408482D01*
X136229950Y-98411883D01*
X136181451Y-98536702D01*
X136164171Y-98647246D01*
X136178175Y-98758497D01*
X136223532Y-98885433D01*
X136232134Y-98904749D01*
X136290794Y-99017806D01*
X136356720Y-99105165D01*
X136441806Y-99179427D01*
X136557946Y-99253191D01*
X136564693Y-99257042D01*
X136665796Y-99305608D01*
X136780071Y-99341879D01*
X136914859Y-99367106D01*
X137077505Y-99382539D01*
X137275351Y-99389431D01*
X137345253Y-99390030D01*
X137678116Y-99391223D01*
X137725119Y-99331468D01*
X137739062Y-99311819D01*
X137749939Y-99288873D01*
X137758129Y-99257129D01*
X137764013Y-99211082D01*
X137767969Y-99145233D01*
X137769259Y-99096402D01*
X137454623Y-99096402D01*
X137266020Y-99096402D01*
X137155655Y-99093174D01*
X137042359Y-99084681D01*
X136949375Y-99072703D01*
X136943762Y-99071694D01*
X136778610Y-99027388D01*
X136650510Y-98960822D01*
X136555410Y-98868907D01*
X136489257Y-98748555D01*
X136477753Y-98716658D01*
X136466478Y-98666980D01*
X136471360Y-98617900D01*
X136495113Y-98552607D01*
X136509431Y-98520532D01*
X136556318Y-98435297D01*
X136612809Y-98375499D01*
X136674965Y-98333857D01*
X136799468Y-98279668D01*
X136958806Y-98240415D01*
X137144427Y-98217812D01*
X137278864Y-98212837D01*
X137454623Y-98211937D01*
X137454623Y-99096402D01*
X137769259Y-99096402D01*
X137770378Y-99054078D01*
X137771619Y-98932115D01*
X137772072Y-98773841D01*
X137772123Y-98650080D01*
X137772123Y-98028447D01*
X137716457Y-97972781D01*
X137691752Y-97950218D01*
X137665039Y-97934766D01*
X137627736Y-97925098D01*
X137571257Y-97919887D01*
X137487022Y-97917805D01*
X137366445Y-97917524D01*
X137359270Y-97917534D01*
G36*
X138942237Y-97917503D02*
G01*
X138788838Y-97919340D01*
X138671285Y-97923634D01*
X138584824Y-97931395D01*
X138524700Y-97943633D01*
X138486160Y-97961358D01*
X138464448Y-97985579D01*
X138454810Y-98017305D01*
X138452492Y-98057546D01*
X138452480Y-98062298D01*
X138454492Y-98107814D01*
X138464005Y-98142992D01*
X138486229Y-98169251D01*
X138526378Y-98188012D01*
X138589664Y-98200696D01*
X138681298Y-98208722D01*
X138806493Y-98213512D01*
X138970461Y-98216484D01*
X139020717Y-98217143D01*
X139507033Y-98223277D01*
X139513835Y-98353678D01*
X139520636Y-98484080D01*
X139182841Y-98484080D01*
X139050873Y-98484567D01*
X138956643Y-98486626D01*
X138892535Y-98491155D01*
X138850936Y-98499053D01*
X138824230Y-98511218D01*
X138804802Y-98528548D01*
X138804678Y-98528686D01*
X138769443Y-98596224D01*
X138770717Y-98669221D01*
X138807696Y-98731448D01*
X138815015Y-98737844D01*
X138840990Y-98754328D01*
X138876583Y-98765796D01*
X138929727Y-98773111D01*
X139008352Y-98777138D01*
X139120390Y-98778740D01*
X139192046Y-98778902D01*
X139518373Y-98778902D01*
X139518373Y-99096402D01*
X139022959Y-99096402D01*
X138859394Y-99096688D01*
X138735183Y-99097857D01*
X138644325Y-99100377D01*
X138580820Y-99104715D01*
X138538667Y-99111337D01*
X138511864Y-99120710D01*
X138494411Y-99133302D01*
X138490013Y-99137875D01*
X138457540Y-99201249D01*
X138455164Y-99273347D01*
X138481805Y-99335858D01*
X138502883Y-99355919D01*
X138524810Y-99366963D01*
X138558785Y-99375508D01*
X138610182Y-99381852D01*
X138684375Y-99386295D01*
X138786739Y-99389136D01*
X138922647Y-99390675D01*
X139097475Y-99391210D01*
X139137000Y-99391223D01*
X139314756Y-99391107D01*
X139452738Y-99390465D01*
X139556524Y-99388857D01*
X139631697Y-99385844D01*
X139683839Y-99380986D01*
X139718529Y-99373844D01*
X139741350Y-99363977D01*
X139757883Y-99350946D01*
X139766953Y-99341589D01*
X139780606Y-99325017D01*
X139791272Y-99304487D01*
X139799320Y-99274616D01*
X139805116Y-99230021D01*
X139809027Y-99165317D01*
X139811423Y-99075120D01*
X139812670Y-98954047D01*
X139813136Y-98796713D01*
X139813194Y-98664291D01*
X139813051Y-98478735D01*
X139812374Y-98333065D01*
X139810788Y-98221811D01*
X139807919Y-98139501D01*
X139803393Y-98080666D01*
X139796836Y-98039834D01*
X139787874Y-98011535D01*
X139776133Y-97990298D01*
X139766191Y-97976871D01*
X139719188Y-97917116D01*
X139136237Y-97917116D01*
X138942237Y-97917503D01*
G37*
X138942237Y-97917503D02*
X138788838Y-97919340D01*
X138671285Y-97923634D01*
X138584824Y-97931395D01*
X138524700Y-97943633D01*
X138486160Y-97961358D01*
X138464448Y-97985579D01*
X138454810Y-98017305D01*
X138452492Y-98057546D01*
X138452480Y-98062298D01*
X138454492Y-98107814D01*
X138464005Y-98142992D01*
X138486229Y-98169251D01*
X138526378Y-98188012D01*
X138589664Y-98200696D01*
X138681298Y-98208722D01*
X138806493Y-98213512D01*
X138970461Y-98216484D01*
X139020717Y-98217143D01*
X139507033Y-98223277D01*
X139513835Y-98353678D01*
X139520636Y-98484080D01*
X139182841Y-98484080D01*
X139050873Y-98484567D01*
X138956643Y-98486626D01*
X138892535Y-98491155D01*
X138850936Y-98499053D01*
X138824230Y-98511218D01*
X138804802Y-98528548D01*
X138804678Y-98528686D01*
X138769443Y-98596224D01*
X138770717Y-98669221D01*
X138807696Y-98731448D01*
X138815015Y-98737844D01*
X138840990Y-98754328D01*
X138876583Y-98765796D01*
X138929727Y-98773111D01*
X139008352Y-98777138D01*
X139120390Y-98778740D01*
X139192046Y-98778902D01*
X139518373Y-98778902D01*
X139518373Y-99096402D01*
X139022959Y-99096402D01*
X138859394Y-99096688D01*
X138735183Y-99097857D01*
X138644325Y-99100377D01*
X138580820Y-99104715D01*
X138538667Y-99111337D01*
X138511864Y-99120710D01*
X138494411Y-99133302D01*
X138490013Y-99137875D01*
X138457540Y-99201249D01*
X138455164Y-99273347D01*
X138481805Y-99335858D01*
X138502883Y-99355919D01*
X138524810Y-99366963D01*
X138558785Y-99375508D01*
X138610182Y-99381852D01*
X138684375Y-99386295D01*
X138786739Y-99389136D01*
X138922647Y-99390675D01*
X139097475Y-99391210D01*
X139137000Y-99391223D01*
X139314756Y-99391107D01*
X139452738Y-99390465D01*
X139556524Y-99388857D01*
X139631697Y-99385844D01*
X139683839Y-99380986D01*
X139718529Y-99373844D01*
X139741350Y-99363977D01*
X139757883Y-99350946D01*
X139766953Y-99341589D01*
X139780606Y-99325017D01*
X139791272Y-99304487D01*
X139799320Y-99274616D01*
X139805116Y-99230021D01*
X139809027Y-99165317D01*
X139811423Y-99075120D01*
X139812670Y-98954047D01*
X139813136Y-98796713D01*
X139813194Y-98664291D01*
X139813051Y-98478735D01*
X139812374Y-98333065D01*
X139810788Y-98221811D01*
X139807919Y-98139501D01*
X139803393Y-98080666D01*
X139796836Y-98039834D01*
X139787874Y-98011535D01*
X139776133Y-97990298D01*
X139766191Y-97976871D01*
X139719188Y-97917116D01*
X139136237Y-97917116D01*
X138942237Y-97917503D01*
G36*
X142016815Y-97925918D02*
G01*
X141969473Y-97953690D01*
X141907572Y-97999108D01*
X141827903Y-98064312D01*
X141727260Y-98151440D01*
X141602432Y-98262633D01*
X141450212Y-98400030D01*
X141275962Y-98557999D01*
X140913105Y-98887050D01*
X140901765Y-98445388D01*
X140897671Y-98293357D01*
X140893722Y-98180140D01*
X140889042Y-98099203D01*
X140882759Y-98044016D01*
X140873998Y-98008045D01*
X140861886Y-97984758D01*
X140845549Y-97967622D01*
X140836887Y-97960421D01*
X140767517Y-97922346D01*
X140701507Y-97927913D01*
X140649144Y-97960440D01*
X140595605Y-98003765D01*
X140588946Y-98636482D01*
X140587103Y-98822564D01*
X140586165Y-98968744D01*
X140586457Y-99080474D01*
X140588303Y-99163205D01*
X140592030Y-99222389D01*
X140597960Y-99263476D01*
X140606420Y-99291919D01*
X140617733Y-99313168D01*
X140630280Y-99330211D01*
X140657424Y-99361818D01*
X140684433Y-99382769D01*
X140715050Y-99390811D01*
X140753023Y-99383688D01*
X140802098Y-99359149D01*
X140866020Y-99314937D01*
X140948535Y-99248799D01*
X141053390Y-99158482D01*
X141184331Y-99041731D01*
X141332658Y-98907582D01*
X141865605Y-98424152D01*
X141876944Y-98864370D01*
X141881045Y-99016124D01*
X141885005Y-99129077D01*
X141889701Y-99209775D01*
X141896013Y-99264764D01*
X141904817Y-99300588D01*
X141916992Y-99323793D01*
X141933417Y-99340924D01*
X141941823Y-99347906D01*
X142016114Y-99386257D01*
X142086312Y-99380472D01*
X142147441Y-99331468D01*
X142161425Y-99311753D01*
X142172324Y-99288729D01*
X142180521Y-99256872D01*
X142186400Y-99210658D01*
X142190344Y-99144563D01*
X142192736Y-99053062D01*
X142193959Y-98930634D01*
X142194398Y-98771752D01*
X142194444Y-98654169D01*
X142194297Y-98470256D01*
X142193599Y-98326175D01*
X142191967Y-98216403D01*
X142189019Y-98135416D01*
X142184369Y-98077691D01*
X142177637Y-98037704D01*
X142168437Y-98009930D01*
X142156386Y-97988846D01*
X142147441Y-97976871D01*
X142124766Y-97948503D01*
X142103575Y-97927085D01*
X142080658Y-97914755D01*
X142052808Y-97913653D01*
X142016815Y-97925918D01*
G37*
X142016815Y-97925918D02*
X141969473Y-97953690D01*
X141907572Y-97999108D01*
X141827903Y-98064312D01*
X141727260Y-98151440D01*
X141602432Y-98262633D01*
X141450212Y-98400030D01*
X141275962Y-98557999D01*
X140913105Y-98887050D01*
X140901765Y-98445388D01*
X140897671Y-98293357D01*
X140893722Y-98180140D01*
X140889042Y-98099203D01*
X140882759Y-98044016D01*
X140873998Y-98008045D01*
X140861886Y-97984758D01*
X140845549Y-97967622D01*
X140836887Y-97960421D01*
X140767517Y-97922346D01*
X140701507Y-97927913D01*
X140649144Y-97960440D01*
X140595605Y-98003765D01*
X140588946Y-98636482D01*
X140587103Y-98822564D01*
X140586165Y-98968744D01*
X140586457Y-99080474D01*
X140588303Y-99163205D01*
X140592030Y-99222389D01*
X140597960Y-99263476D01*
X140606420Y-99291919D01*
X140617733Y-99313168D01*
X140630280Y-99330211D01*
X140657424Y-99361818D01*
X140684433Y-99382769D01*
X140715050Y-99390811D01*
X140753023Y-99383688D01*
X140802098Y-99359149D01*
X140866020Y-99314937D01*
X140948535Y-99248799D01*
X141053390Y-99158482D01*
X141184331Y-99041731D01*
X141332658Y-98907582D01*
X141865605Y-98424152D01*
X141876944Y-98864370D01*
X141881045Y-99016124D01*
X141885005Y-99129077D01*
X141889701Y-99209775D01*
X141896013Y-99264764D01*
X141904817Y-99300588D01*
X141916992Y-99323793D01*
X141933417Y-99340924D01*
X141941823Y-99347906D01*
X142016114Y-99386257D01*
X142086312Y-99380472D01*
X142147441Y-99331468D01*
X142161425Y-99311753D01*
X142172324Y-99288729D01*
X142180521Y-99256872D01*
X142186400Y-99210658D01*
X142190344Y-99144563D01*
X142192736Y-99053062D01*
X142193959Y-98930634D01*
X142194398Y-98771752D01*
X142194444Y-98654169D01*
X142194297Y-98470256D01*
X142193599Y-98326175D01*
X142191967Y-98216403D01*
X142189019Y-98135416D01*
X142184369Y-98077691D01*
X142177637Y-98037704D01*
X142168437Y-98009930D01*
X142156386Y-97988846D01*
X142147441Y-97976871D01*
X142124766Y-97948503D01*
X142103575Y-97927085D01*
X142080658Y-97914755D01*
X142052808Y-97913653D01*
X142016815Y-97925918D01*
G36*
X143322553Y-97928229D02*
G01*
X143184908Y-97951325D01*
X143079194Y-97987228D01*
X143010420Y-98034501D01*
X142991679Y-98061471D01*
X142972621Y-98124198D01*
X142985446Y-98180945D01*
X143025933Y-98234758D01*
X143088842Y-98259933D01*
X143180123Y-98257888D01*
X143250724Y-98244249D01*
X143407606Y-98218263D01*
X143567934Y-98215793D01*
X143747389Y-98236886D01*
X143796958Y-98245823D01*
X143963823Y-98292869D01*
X144094366Y-98362852D01*
X144187156Y-98454579D01*
X144240761Y-98566857D01*
X144251848Y-98624905D01*
X144244591Y-98742676D01*
X144197739Y-98846873D01*
X144115562Y-98935465D01*
X144002329Y-99006421D01*
X143862309Y-99057710D01*
X143699771Y-99087302D01*
X143518985Y-99093166D01*
X143324218Y-99073271D01*
X143313221Y-99071395D01*
X143235754Y-99056966D01*
X143192802Y-99043029D01*
X143174185Y-99022349D01*
X143169724Y-98987693D01*
X143169623Y-98969341D01*
X143169623Y-98892294D01*
X143307185Y-98892294D01*
X143428662Y-98883973D01*
X143511561Y-98857455D01*
X143559794Y-98810412D01*
X143577276Y-98740513D01*
X143577490Y-98731390D01*
X143567261Y-98671645D01*
X143532188Y-98628984D01*
X143466910Y-98600752D01*
X143366070Y-98584294D01*
X143268395Y-98578243D01*
X143126431Y-98574771D01*
X143023457Y-98580069D01*
X142953227Y-98599616D01*
X142909494Y-98638896D01*
X142886010Y-98703389D01*
X142876529Y-98798577D01*
X142874801Y-98923598D01*
X142877632Y-99063146D01*
X142886147Y-99158070D01*
X142900386Y-99208747D01*
X142903149Y-99212716D01*
X142981330Y-99276039D01*
X143095955Y-99326185D01*
X143239760Y-99362085D01*
X143405476Y-99382667D01*
X143585838Y-99386860D01*
X143773578Y-99373592D01*
X143883998Y-99357295D01*
X144057188Y-99308274D01*
X144218154Y-99228133D01*
X144352924Y-99124121D01*
X144373408Y-99103332D01*
X144439961Y-99015936D01*
X144500011Y-98907621D01*
X144546544Y-98794063D01*
X144572543Y-98690940D01*
X144575676Y-98651334D01*
X144562336Y-98568717D01*
X144526880Y-98465926D01*
X144476111Y-98357729D01*
X144416832Y-98258892D01*
X144364459Y-98192875D01*
X144242006Y-98094675D01*
X144083712Y-98016515D01*
X143895249Y-97960162D01*
X143682290Y-97927386D01*
X143487123Y-97919377D01*
X143322553Y-97928229D01*
G37*
X143322553Y-97928229D02*
X143184908Y-97951325D01*
X143079194Y-97987228D01*
X143010420Y-98034501D01*
X142991679Y-98061471D01*
X142972621Y-98124198D01*
X142985446Y-98180945D01*
X143025933Y-98234758D01*
X143088842Y-98259933D01*
X143180123Y-98257888D01*
X143250724Y-98244249D01*
X143407606Y-98218263D01*
X143567934Y-98215793D01*
X143747389Y-98236886D01*
X143796958Y-98245823D01*
X143963823Y-98292869D01*
X144094366Y-98362852D01*
X144187156Y-98454579D01*
X144240761Y-98566857D01*
X144251848Y-98624905D01*
X144244591Y-98742676D01*
X144197739Y-98846873D01*
X144115562Y-98935465D01*
X144002329Y-99006421D01*
X143862309Y-99057710D01*
X143699771Y-99087302D01*
X143518985Y-99093166D01*
X143324218Y-99073271D01*
X143313221Y-99071395D01*
X143235754Y-99056966D01*
X143192802Y-99043029D01*
X143174185Y-99022349D01*
X143169724Y-98987693D01*
X143169623Y-98969341D01*
X143169623Y-98892294D01*
X143307185Y-98892294D01*
X143428662Y-98883973D01*
X143511561Y-98857455D01*
X143559794Y-98810412D01*
X143577276Y-98740513D01*
X143577490Y-98731390D01*
X143567261Y-98671645D01*
X143532188Y-98628984D01*
X143466910Y-98600752D01*
X143366070Y-98584294D01*
X143268395Y-98578243D01*
X143126431Y-98574771D01*
X143023457Y-98580069D01*
X142953227Y-98599616D01*
X142909494Y-98638896D01*
X142886010Y-98703389D01*
X142876529Y-98798577D01*
X142874801Y-98923598D01*
X142877632Y-99063146D01*
X142886147Y-99158070D01*
X142900386Y-99208747D01*
X142903149Y-99212716D01*
X142981330Y-99276039D01*
X143095955Y-99326185D01*
X143239760Y-99362085D01*
X143405476Y-99382667D01*
X143585838Y-99386860D01*
X143773578Y-99373592D01*
X143883998Y-99357295D01*
X144057188Y-99308274D01*
X144218154Y-99228133D01*
X144352924Y-99124121D01*
X144373408Y-99103332D01*
X144439961Y-99015936D01*
X144500011Y-98907621D01*
X144546544Y-98794063D01*
X144572543Y-98690940D01*
X144575676Y-98651334D01*
X144562336Y-98568717D01*
X144526880Y-98465926D01*
X144476111Y-98357729D01*
X144416832Y-98258892D01*
X144364459Y-98192875D01*
X144242006Y-98094675D01*
X144083712Y-98016515D01*
X143895249Y-97960162D01*
X143682290Y-97927386D01*
X143487123Y-97919377D01*
X143322553Y-97928229D01*
G36*
X145278730Y-97962473D02*
G01*
X145265509Y-97977687D01*
X145255139Y-97997314D01*
X145247273Y-98026611D01*
X145241567Y-98070836D01*
X145237677Y-98135247D01*
X145235258Y-98225101D01*
X145233964Y-98345657D01*
X145233452Y-98502171D01*
X145233373Y-98654169D01*
X145233513Y-98842701D01*
X145234162Y-98991133D01*
X145235666Y-99104724D01*
X145238369Y-99188732D01*
X145242616Y-99248413D01*
X145248752Y-99289025D01*
X145257121Y-99315827D01*
X145268069Y-99334076D01*
X145278730Y-99345866D01*
X145345031Y-99385403D01*
X145415676Y-99381854D01*
X145478884Y-99338734D01*
X145493407Y-99321900D01*
X145504757Y-99302367D01*
X145513325Y-99274738D01*
X145519502Y-99233612D01*
X145523678Y-99173591D01*
X145526245Y-99089274D01*
X145527592Y-98975263D01*
X145528112Y-98826157D01*
X145528194Y-98657346D01*
X145528194Y-98028447D01*
X145472528Y-97972781D01*
X145403914Y-97925948D01*
X145337357Y-97924261D01*
X145278730Y-97962473D01*
G37*
X145278730Y-97962473D02*
X145265509Y-97977687D01*
X145255139Y-97997314D01*
X145247273Y-98026611D01*
X145241567Y-98070836D01*
X145237677Y-98135247D01*
X145235258Y-98225101D01*
X145233964Y-98345657D01*
X145233452Y-98502171D01*
X145233373Y-98654169D01*
X145233513Y-98842701D01*
X145234162Y-98991133D01*
X145235666Y-99104724D01*
X145238369Y-99188732D01*
X145242616Y-99248413D01*
X145248752Y-99289025D01*
X145257121Y-99315827D01*
X145268069Y-99334076D01*
X145278730Y-99345866D01*
X145345031Y-99385403D01*
X145415676Y-99381854D01*
X145478884Y-99338734D01*
X145493407Y-99321900D01*
X145504757Y-99302367D01*
X145513325Y-99274738D01*
X145519502Y-99233612D01*
X145523678Y-99173591D01*
X145526245Y-99089274D01*
X145527592Y-98975263D01*
X145528112Y-98826157D01*
X145528194Y-98657346D01*
X145528194Y-98028447D01*
X145472528Y-97972781D01*
X145403914Y-97925948D01*
X145337357Y-97924261D01*
X145278730Y-97962473D01*
G36*
X146821346Y-97919696D02*
G01*
X146671048Y-97930203D01*
X146531263Y-97946614D01*
X146410117Y-97968310D01*
X146315734Y-97994673D01*
X146256241Y-98025087D01*
X146247109Y-98034040D01*
X146215355Y-98103511D01*
X146224984Y-98174831D01*
X146274237Y-98235850D01*
X146276587Y-98237598D01*
X146305557Y-98256399D01*
X146335799Y-98266285D01*
X146377981Y-98267486D01*
X146442772Y-98260230D01*
X146540841Y-98244747D01*
X146548730Y-98243444D01*
X146694857Y-98225492D01*
X146852514Y-98216636D01*
X147010636Y-98216550D01*
X147158160Y-98224908D01*
X147284020Y-98241382D01*
X147377152Y-98265646D01*
X147383271Y-98268085D01*
X147450835Y-98305940D01*
X147474573Y-98344250D01*
X147455990Y-98381927D01*
X147396591Y-98417883D01*
X147297881Y-98451029D01*
X147161365Y-98480277D01*
X147070337Y-98494359D01*
X146881118Y-98521446D01*
X146730625Y-98546207D01*
X146612446Y-98570786D01*
X146520171Y-98597328D01*
X146447390Y-98627976D01*
X146387690Y-98664875D01*
X146334662Y-98710168D01*
X146292049Y-98754646D01*
X146241494Y-98816618D01*
X146216615Y-98869907D01*
X146208834Y-98935562D01*
X146208551Y-98959606D01*
X146214395Y-99039394D01*
X146237751Y-99098753D01*
X146278173Y-99151439D01*
X146360324Y-99231977D01*
X146451932Y-99293397D01*
X146559804Y-99337702D01*
X146690745Y-99366895D01*
X146851564Y-99382979D01*
X147049066Y-99387956D01*
X147081676Y-99387872D01*
X147213381Y-99385142D01*
X147343995Y-99378939D01*
X147459281Y-99370153D01*
X147545000Y-99359673D01*
X147551933Y-99358470D01*
X147637159Y-99338281D01*
X147709447Y-99312778D01*
X147750370Y-99289462D01*
X147788454Y-99227952D01*
X147791105Y-99156325D01*
X147758275Y-99092494D01*
X147750930Y-99085276D01*
X147720568Y-99063830D01*
X147682598Y-99054590D01*
X147623832Y-99056163D01*
X147552492Y-99064336D01*
X147472777Y-99071637D01*
X147361029Y-99077797D01*
X147230572Y-99082267D01*
X147094726Y-99084499D01*
X147058998Y-99084646D01*
X146922646Y-99084096D01*
X146822856Y-99081449D01*
X146750848Y-99075786D01*
X146697840Y-99066189D01*
X146655053Y-99051740D01*
X146629340Y-99039705D01*
X146572837Y-99006288D01*
X146536813Y-98976024D01*
X146531548Y-98967445D01*
X146542655Y-98932019D01*
X146595457Y-98897724D01*
X146686296Y-98866117D01*
X146811512Y-98838754D01*
X146848404Y-98832659D01*
X147041098Y-98802393D01*
X147194884Y-98777096D01*
X147315697Y-98754929D01*
X147409475Y-98734053D01*
X147482151Y-98712630D01*
X147539663Y-98688822D01*
X147587945Y-98660791D01*
X147632933Y-98626698D01*
X147680563Y-98584705D01*
X147696591Y-98569982D01*
X147752786Y-98515037D01*
X147782532Y-98471504D01*
X147794169Y-98421688D01*
X147796051Y-98358912D01*
X147775331Y-98235808D01*
X147713409Y-98131214D01*
X147610639Y-98045468D01*
X147467378Y-97978907D01*
X147365158Y-97949052D01*
X147254063Y-97929770D01*
X147120979Y-97918862D01*
X146974032Y-97915710D01*
X146821346Y-97919696D01*
G37*
X146821346Y-97919696D02*
X146671048Y-97930203D01*
X146531263Y-97946614D01*
X146410117Y-97968310D01*
X146315734Y-97994673D01*
X146256241Y-98025087D01*
X146247109Y-98034040D01*
X146215355Y-98103511D01*
X146224984Y-98174831D01*
X146274237Y-98235850D01*
X146276587Y-98237598D01*
X146305557Y-98256399D01*
X146335799Y-98266285D01*
X146377981Y-98267486D01*
X146442772Y-98260230D01*
X146540841Y-98244747D01*
X146548730Y-98243444D01*
X146694857Y-98225492D01*
X146852514Y-98216636D01*
X147010636Y-98216550D01*
X147158160Y-98224908D01*
X147284020Y-98241382D01*
X147377152Y-98265646D01*
X147383271Y-98268085D01*
X147450835Y-98305940D01*
X147474573Y-98344250D01*
X147455990Y-98381927D01*
X147396591Y-98417883D01*
X147297881Y-98451029D01*
X147161365Y-98480277D01*
X147070337Y-98494359D01*
X146881118Y-98521446D01*
X146730625Y-98546207D01*
X146612446Y-98570786D01*
X146520171Y-98597328D01*
X146447390Y-98627976D01*
X146387690Y-98664875D01*
X146334662Y-98710168D01*
X146292049Y-98754646D01*
X146241494Y-98816618D01*
X146216615Y-98869907D01*
X146208834Y-98935562D01*
X146208551Y-98959606D01*
X146214395Y-99039394D01*
X146237751Y-99098753D01*
X146278173Y-99151439D01*
X146360324Y-99231977D01*
X146451932Y-99293397D01*
X146559804Y-99337702D01*
X146690745Y-99366895D01*
X146851564Y-99382979D01*
X147049066Y-99387956D01*
X147081676Y-99387872D01*
X147213381Y-99385142D01*
X147343995Y-99378939D01*
X147459281Y-99370153D01*
X147545000Y-99359673D01*
X147551933Y-99358470D01*
X147637159Y-99338281D01*
X147709447Y-99312778D01*
X147750370Y-99289462D01*
X147788454Y-99227952D01*
X147791105Y-99156325D01*
X147758275Y-99092494D01*
X147750930Y-99085276D01*
X147720568Y-99063830D01*
X147682598Y-99054590D01*
X147623832Y-99056163D01*
X147552492Y-99064336D01*
X147472777Y-99071637D01*
X147361029Y-99077797D01*
X147230572Y-99082267D01*
X147094726Y-99084499D01*
X147058998Y-99084646D01*
X146922646Y-99084096D01*
X146822856Y-99081449D01*
X146750848Y-99075786D01*
X146697840Y-99066189D01*
X146655053Y-99051740D01*
X146629340Y-99039705D01*
X146572837Y-99006288D01*
X146536813Y-98976024D01*
X146531548Y-98967445D01*
X146542655Y-98932019D01*
X146595457Y-98897724D01*
X146686296Y-98866117D01*
X146811512Y-98838754D01*
X146848404Y-98832659D01*
X147041098Y-98802393D01*
X147194884Y-98777096D01*
X147315697Y-98754929D01*
X147409475Y-98734053D01*
X147482151Y-98712630D01*
X147539663Y-98688822D01*
X147587945Y-98660791D01*
X147632933Y-98626698D01*
X147680563Y-98584705D01*
X147696591Y-98569982D01*
X147752786Y-98515037D01*
X147782532Y-98471504D01*
X147794169Y-98421688D01*
X147796051Y-98358912D01*
X147775331Y-98235808D01*
X147713409Y-98131214D01*
X147610639Y-98045468D01*
X147467378Y-97978907D01*
X147365158Y-97949052D01*
X147254063Y-97929770D01*
X147120979Y-97918862D01*
X146974032Y-97915710D01*
X146821346Y-97919696D01*
G36*
X148872646Y-97917275D02*
G01*
X148733210Y-97918023D01*
X148627963Y-97919763D01*
X148551324Y-97922900D01*
X148497710Y-97927836D01*
X148461537Y-97934976D01*
X148437221Y-97944724D01*
X148419181Y-97957484D01*
X148412649Y-97963356D01*
X148372922Y-98025750D01*
X148365769Y-98097441D01*
X148391903Y-98161087D01*
X148403987Y-98173950D01*
X148423532Y-98186421D01*
X148455003Y-98196043D01*
X148504236Y-98203282D01*
X148577066Y-98208606D01*
X148679329Y-98212485D01*
X148816862Y-98215387D01*
X148942603Y-98217152D01*
X149440248Y-98223277D01*
X149447049Y-98353678D01*
X149453850Y-98484080D01*
X149116055Y-98484080D01*
X148969406Y-98485345D01*
X148862044Y-98490637D01*
X148787937Y-98502201D01*
X148741049Y-98522281D01*
X148715347Y-98553121D01*
X148704796Y-98596967D01*
X148703194Y-98637660D01*
X148708173Y-98687591D01*
X148726964Y-98724383D01*
X148765347Y-98749958D01*
X148829100Y-98766239D01*
X148924004Y-98775149D01*
X149055838Y-98778610D01*
X149127794Y-98778902D01*
X149451587Y-98778902D01*
X149451587Y-99096402D01*
X148952658Y-99096402D01*
X148789113Y-99096629D01*
X148664817Y-99097652D01*
X148573666Y-99099979D01*
X148509552Y-99104118D01*
X148466370Y-99110580D01*
X148438013Y-99119871D01*
X148418375Y-99132502D01*
X148408373Y-99141759D01*
X148374062Y-99195786D01*
X148363015Y-99243812D01*
X148378789Y-99302474D01*
X148408373Y-99345866D01*
X148424156Y-99359526D01*
X148444531Y-99370133D01*
X148474978Y-99378071D01*
X148520977Y-99383726D01*
X148588010Y-99387482D01*
X148681558Y-99389723D01*
X148807100Y-99390834D01*
X148970118Y-99391199D01*
X149054712Y-99391223D01*
X149235868Y-99391063D01*
X149377148Y-99390325D01*
X149484032Y-99388627D01*
X149562002Y-99385582D01*
X149616539Y-99380806D01*
X149653122Y-99373915D01*
X149677233Y-99364524D01*
X149694353Y-99352248D01*
X149701051Y-99345866D01*
X149714308Y-99330605D01*
X149724699Y-99310916D01*
X149732571Y-99281524D01*
X149738273Y-99237153D01*
X149742152Y-99172526D01*
X149744557Y-99082367D01*
X149745836Y-98961401D01*
X149746335Y-98804351D01*
X149746408Y-98658123D01*
X149746341Y-98470857D01*
X149745870Y-98323651D01*
X149744593Y-98211205D01*
X149742109Y-98128222D01*
X149738016Y-98069403D01*
X149731911Y-98029450D01*
X149723392Y-98003064D01*
X149712058Y-97984948D01*
X149697505Y-97969803D01*
X149693920Y-97966426D01*
X149676521Y-97951478D01*
X149656305Y-97939903D01*
X149627664Y-97931268D01*
X149584989Y-97925145D01*
X149522675Y-97921102D01*
X149435112Y-97918709D01*
X149316693Y-97917534D01*
X149161811Y-97917148D01*
X149051857Y-97917116D01*
X148872646Y-97917275D01*
G37*
X148872646Y-97917275D02*
X148733210Y-97918023D01*
X148627963Y-97919763D01*
X148551324Y-97922900D01*
X148497710Y-97927836D01*
X148461537Y-97934976D01*
X148437221Y-97944724D01*
X148419181Y-97957484D01*
X148412649Y-97963356D01*
X148372922Y-98025750D01*
X148365769Y-98097441D01*
X148391903Y-98161087D01*
X148403987Y-98173950D01*
X148423532Y-98186421D01*
X148455003Y-98196043D01*
X148504236Y-98203282D01*
X148577066Y-98208606D01*
X148679329Y-98212485D01*
X148816862Y-98215387D01*
X148942603Y-98217152D01*
X149440248Y-98223277D01*
X149447049Y-98353678D01*
X149453850Y-98484080D01*
X149116055Y-98484080D01*
X148969406Y-98485345D01*
X148862044Y-98490637D01*
X148787937Y-98502201D01*
X148741049Y-98522281D01*
X148715347Y-98553121D01*
X148704796Y-98596967D01*
X148703194Y-98637660D01*
X148708173Y-98687591D01*
X148726964Y-98724383D01*
X148765347Y-98749958D01*
X148829100Y-98766239D01*
X148924004Y-98775149D01*
X149055838Y-98778610D01*
X149127794Y-98778902D01*
X149451587Y-98778902D01*
X149451587Y-99096402D01*
X148952658Y-99096402D01*
X148789113Y-99096629D01*
X148664817Y-99097652D01*
X148573666Y-99099979D01*
X148509552Y-99104118D01*
X148466370Y-99110580D01*
X148438013Y-99119871D01*
X148418375Y-99132502D01*
X148408373Y-99141759D01*
X148374062Y-99195786D01*
X148363015Y-99243812D01*
X148378789Y-99302474D01*
X148408373Y-99345866D01*
X148424156Y-99359526D01*
X148444531Y-99370133D01*
X148474978Y-99378071D01*
X148520977Y-99383726D01*
X148588010Y-99387482D01*
X148681558Y-99389723D01*
X148807100Y-99390834D01*
X148970118Y-99391199D01*
X149054712Y-99391223D01*
X149235868Y-99391063D01*
X149377148Y-99390325D01*
X149484032Y-99388627D01*
X149562002Y-99385582D01*
X149616539Y-99380806D01*
X149653122Y-99373915D01*
X149677233Y-99364524D01*
X149694353Y-99352248D01*
X149701051Y-99345866D01*
X149714308Y-99330605D01*
X149724699Y-99310916D01*
X149732571Y-99281524D01*
X149738273Y-99237153D01*
X149742152Y-99172526D01*
X149744557Y-99082367D01*
X149745836Y-98961401D01*
X149746335Y-98804351D01*
X149746408Y-98658123D01*
X149746341Y-98470857D01*
X149745870Y-98323651D01*
X149744593Y-98211205D01*
X149742109Y-98128222D01*
X149738016Y-98069403D01*
X149731911Y-98029450D01*
X149723392Y-98003064D01*
X149712058Y-97984948D01*
X149697505Y-97969803D01*
X149693920Y-97966426D01*
X149676521Y-97951478D01*
X149656305Y-97939903D01*
X149627664Y-97931268D01*
X149584989Y-97925145D01*
X149522675Y-97921102D01*
X149435112Y-97918709D01*
X149316693Y-97917534D01*
X149161811Y-97917148D01*
X149051857Y-97917116D01*
X148872646Y-97917275D01*
G36*
X151702377Y-97917114D02*
G01*
X151623060Y-97917920D01*
X151390649Y-97923528D01*
X151196006Y-97940185D01*
X151032496Y-97969680D01*
X150893486Y-98013797D01*
X150772341Y-98074325D01*
X150662429Y-98153050D01*
X150623171Y-98187248D01*
X150558049Y-98267265D01*
X150499328Y-98375846D01*
X150454069Y-98496203D01*
X150429335Y-98611547D01*
X150426765Y-98654169D01*
X150442870Y-98772322D01*
X150486027Y-98901382D01*
X150548504Y-99023542D01*
X150622567Y-99120992D01*
X150634597Y-99132750D01*
X150736499Y-99215394D01*
X150848088Y-99279909D01*
X150975798Y-99327983D01*
X151126062Y-99361307D01*
X151305314Y-99381572D01*
X151519987Y-99390469D01*
X151618317Y-99391223D01*
X151743340Y-99390621D01*
X151831262Y-99388104D01*
X151890333Y-99382604D01*
X151928800Y-99373055D01*
X151954912Y-99358389D01*
X151968908Y-99345866D01*
X151982129Y-99330652D01*
X151992500Y-99311025D01*
X152000365Y-99281728D01*
X152006071Y-99237503D01*
X152009961Y-99173092D01*
X152012380Y-99083237D01*
X152013674Y-98962682D01*
X152014186Y-98806167D01*
X152014265Y-98654169D01*
X152014765Y-98451440D01*
X152014657Y-98289491D01*
X152012728Y-98211937D01*
X151719444Y-98211937D01*
X151719444Y-99096402D01*
X151532346Y-99096230D01*
X151419764Y-99093001D01*
X151301852Y-99084683D01*
X151203473Y-99073048D01*
X151200480Y-99072569D01*
X151041480Y-99034127D01*
X150918154Y-98974256D01*
X150824343Y-98889058D01*
X150764737Y-98796814D01*
X150728010Y-98694489D01*
X150730858Y-98598409D01*
X150773482Y-98495419D01*
X150856854Y-98388876D01*
X150972386Y-98309927D01*
X151122557Y-98257156D01*
X151222919Y-98238481D01*
X151336843Y-98225366D01*
X151457585Y-98215873D01*
X151560281Y-98211927D01*
X151566364Y-98211908D01*
X151719444Y-98211937D01*
X152012728Y-98211937D01*
X152011529Y-98163782D01*
X152002966Y-98069771D01*
X151986558Y-98002920D01*
X151959890Y-97958686D01*
X151920551Y-97932529D01*
X151866128Y-97919909D01*
X151794207Y-97916284D01*
X151702377Y-97917114D01*
G37*
X151702377Y-97917114D02*
X151623060Y-97917920D01*
X151390649Y-97923528D01*
X151196006Y-97940185D01*
X151032496Y-97969680D01*
X150893486Y-98013797D01*
X150772341Y-98074325D01*
X150662429Y-98153050D01*
X150623171Y-98187248D01*
X150558049Y-98267265D01*
X150499328Y-98375846D01*
X150454069Y-98496203D01*
X150429335Y-98611547D01*
X150426765Y-98654169D01*
X150442870Y-98772322D01*
X150486027Y-98901382D01*
X150548504Y-99023542D01*
X150622567Y-99120992D01*
X150634597Y-99132750D01*
X150736499Y-99215394D01*
X150848088Y-99279909D01*
X150975798Y-99327983D01*
X151126062Y-99361307D01*
X151305314Y-99381572D01*
X151519987Y-99390469D01*
X151618317Y-99391223D01*
X151743340Y-99390621D01*
X151831262Y-99388104D01*
X151890333Y-99382604D01*
X151928800Y-99373055D01*
X151954912Y-99358389D01*
X151968908Y-99345866D01*
X151982129Y-99330652D01*
X151992500Y-99311025D01*
X152000365Y-99281728D01*
X152006071Y-99237503D01*
X152009961Y-99173092D01*
X152012380Y-99083237D01*
X152013674Y-98962682D01*
X152014186Y-98806167D01*
X152014265Y-98654169D01*
X152014765Y-98451440D01*
X152014657Y-98289491D01*
X152012728Y-98211937D01*
X151719444Y-98211937D01*
X151719444Y-99096402D01*
X151532346Y-99096230D01*
X151419764Y-99093001D01*
X151301852Y-99084683D01*
X151203473Y-99073048D01*
X151200480Y-99072569D01*
X151041480Y-99034127D01*
X150918154Y-98974256D01*
X150824343Y-98889058D01*
X150764737Y-98796814D01*
X150728010Y-98694489D01*
X150730858Y-98598409D01*
X150773482Y-98495419D01*
X150856854Y-98388876D01*
X150972386Y-98309927D01*
X151122557Y-98257156D01*
X151222919Y-98238481D01*
X151336843Y-98225366D01*
X151457585Y-98215873D01*
X151560281Y-98211927D01*
X151566364Y-98211908D01*
X151719444Y-98211937D01*
X152012728Y-98211937D01*
X152011529Y-98163782D01*
X152002966Y-98069771D01*
X151986558Y-98002920D01*
X151959890Y-97958686D01*
X151920551Y-97932529D01*
X151866128Y-97919909D01*
X151794207Y-97916284D01*
X151702377Y-97917114D01*
G36*
X145032844Y-85104844D02*
G01*
X144827742Y-85175957D01*
X144636785Y-85287889D01*
X144466243Y-85440625D01*
X144322387Y-85634151D01*
X144257768Y-85756129D01*
X144201842Y-85926743D01*
X144174735Y-86123711D01*
X144177738Y-86326205D01*
X144211067Y-86509699D01*
X144302162Y-86733924D01*
X144434258Y-86928422D01*
X144600642Y-87089367D01*
X144794598Y-87212933D01*
X145009414Y-87295292D01*
X145238375Y-87332617D01*
X145474767Y-87321082D01*
X145591291Y-87296430D01*
X145818385Y-87208091D01*
X146020081Y-87073290D01*
X146191515Y-86896183D01*
X146327820Y-86680927D01*
X146339352Y-86657419D01*
X146379217Y-86569205D01*
X146404249Y-86494910D01*
X146417839Y-86416535D01*
X146423382Y-86316080D01*
X146424302Y-86206774D01*
X146422780Y-86075448D01*
X146415914Y-85980509D01*
X146400250Y-85903753D01*
X146372333Y-85826974D01*
X146337873Y-85751223D01*
X146209338Y-85536190D01*
X146051052Y-85362080D01*
X145869287Y-85228876D01*
X145670313Y-85136566D01*
X145460400Y-85085134D01*
X145245821Y-85074565D01*
X145032844Y-85104844D01*
G37*
X145032844Y-85104844D02*
X144827742Y-85175957D01*
X144636785Y-85287889D01*
X144466243Y-85440625D01*
X144322387Y-85634151D01*
X144257768Y-85756129D01*
X144201842Y-85926743D01*
X144174735Y-86123711D01*
X144177738Y-86326205D01*
X144211067Y-86509699D01*
X144302162Y-86733924D01*
X144434258Y-86928422D01*
X144600642Y-87089367D01*
X144794598Y-87212933D01*
X145009414Y-87295292D01*
X145238375Y-87332617D01*
X145474767Y-87321082D01*
X145591291Y-87296430D01*
X145818385Y-87208091D01*
X146020081Y-87073290D01*
X146191515Y-86896183D01*
X146327820Y-86680927D01*
X146339352Y-86657419D01*
X146379217Y-86569205D01*
X146404249Y-86494910D01*
X146417839Y-86416535D01*
X146423382Y-86316080D01*
X146424302Y-86206774D01*
X146422780Y-86075448D01*
X146415914Y-85980509D01*
X146400250Y-85903753D01*
X146372333Y-85826974D01*
X146337873Y-85751223D01*
X146209338Y-85536190D01*
X146051052Y-85362080D01*
X145869287Y-85228876D01*
X145670313Y-85136566D01*
X145460400Y-85085134D01*
X145245821Y-85074565D01*
X145032844Y-85104844D01*
G36*
X125999033Y-86935618D02*
G01*
X125766746Y-86936571D01*
X125687796Y-86937052D01*
X124602151Y-86944193D01*
X124588495Y-91109247D01*
X124586692Y-91674041D01*
X124585092Y-92186864D01*
X124583594Y-92650371D01*
X124582094Y-93067214D01*
X124580491Y-93440045D01*
X124578680Y-93771519D01*
X124576560Y-94064286D01*
X124574028Y-94321002D01*
X124570980Y-94544318D01*
X124567315Y-94736887D01*
X124562929Y-94901363D01*
X124557720Y-95040398D01*
X124551584Y-95156644D01*
X124544420Y-95252756D01*
X124536125Y-95331386D01*
X124526595Y-95395187D01*
X124515728Y-95446811D01*
X124503421Y-95488912D01*
X124489572Y-95524143D01*
X124474077Y-95555156D01*
X124456835Y-95584604D01*
X124437742Y-95615141D01*
X124416695Y-95649418D01*
X124412381Y-95656720D01*
X124340004Y-95780221D01*
X125386024Y-95773068D01*
X126432044Y-95765914D01*
X126445699Y-95536142D01*
X126453135Y-95425873D01*
X126460883Y-95362122D01*
X126471397Y-95336827D01*
X126487128Y-95341922D01*
X126500323Y-95356498D01*
X126557803Y-95409591D01*
X126651487Y-95477837D01*
X126768175Y-95553080D01*
X126894669Y-95627167D01*
X127017769Y-95691943D01*
X127112287Y-95734561D01*
X127333726Y-95804595D01*
X127587793Y-95854204D01*
X127855734Y-95881494D01*
X128118789Y-95884569D01*
X128358205Y-95861532D01*
X128362147Y-95860873D01*
X128689747Y-95778669D01*
X128996413Y-95647700D01*
X129279186Y-95470780D01*
X129535108Y-95250726D01*
X129761222Y-94990351D01*
X129954570Y-94692472D01*
X130112194Y-94359904D01*
X130198016Y-94113548D01*
X130254611Y-93907445D01*
X130296582Y-93707867D01*
X130325211Y-93502690D01*
X130341782Y-93279791D01*
X130347577Y-93027045D01*
X130345011Y-92820662D01*
X128329675Y-92820662D01*
X128320138Y-93166732D01*
X128290054Y-93464467D01*
X128238497Y-93716510D01*
X128164542Y-93925502D01*
X128067262Y-94094086D01*
X127945734Y-94224906D01*
X127805454Y-94317385D01*
X127732460Y-94351909D01*
X127669153Y-94372607D01*
X127598573Y-94382077D01*
X127503758Y-94382915D01*
X127401613Y-94379228D01*
X127200739Y-94361510D01*
X127041866Y-94326813D01*
X126991936Y-94309433D01*
X126877925Y-94258102D01*
X126757677Y-94193643D01*
X126705162Y-94161376D01*
X126568603Y-94071805D01*
X126568603Y-91232706D01*
X126718818Y-91142665D01*
X126928308Y-91040923D01*
X127142342Y-90980751D01*
X127353091Y-90961796D01*
X127552727Y-90983701D01*
X127733423Y-91046113D01*
X127887351Y-91148676D01*
X127937019Y-91197906D01*
X128056738Y-91359211D01*
X128153636Y-91554471D01*
X128228523Y-91787031D01*
X128282207Y-92060239D01*
X128315500Y-92377441D01*
X128329211Y-92741984D01*
X128329675Y-92820662D01*
X130345011Y-92820662D01*
X130343942Y-92734756D01*
X130320918Y-92285158D01*
X130274622Y-91879628D01*
X130203836Y-91512257D01*
X130107339Y-91177137D01*
X129983913Y-90868363D01*
X129939869Y-90776822D01*
X129762460Y-90478296D01*
X129548070Y-90213007D01*
X129301741Y-89985237D01*
X129028513Y-89799268D01*
X128733426Y-89659382D01*
X128556541Y-89601678D01*
X128382822Y-89567422D01*
X128173795Y-89547041D01*
X127946986Y-89540525D01*
X127719916Y-89547866D01*
X127510108Y-89569055D01*
X127341648Y-89602295D01*
X127141143Y-89667482D01*
X126946805Y-89751307D01*
X126776776Y-89845280D01*
X126686279Y-89909058D01*
X126623856Y-89956484D01*
X126580147Y-89985361D01*
X126570204Y-89989462D01*
X126567121Y-89963041D01*
X126564247Y-89887339D01*
X126561645Y-89767698D01*
X126559379Y-89609462D01*
X126557512Y-89417973D01*
X126556109Y-89198574D01*
X126555233Y-88956607D01*
X126554947Y-88710147D01*
X126555106Y-88394476D01*
X126555892Y-88128337D01*
X126557762Y-87906641D01*
X126561175Y-87724296D01*
X126566591Y-87576212D01*
X126574469Y-87457299D01*
X126585267Y-87362465D01*
X126599445Y-87286620D01*
X126617461Y-87224674D01*
X126639775Y-87171536D01*
X126666846Y-87122115D01*
X126699133Y-87071321D01*
X126703287Y-87065031D01*
X126744929Y-86999245D01*
X126770071Y-86954008D01*
X126773441Y-86944466D01*
X126747097Y-86941455D01*
X126671931Y-86939006D01*
X126553743Y-86937158D01*
X126398331Y-86935951D01*
X126211494Y-86935424D01*
X125999033Y-86935618D01*
G37*
X125999033Y-86935618D02*
X125766746Y-86936571D01*
X125687796Y-86937052D01*
X124602151Y-86944193D01*
X124588495Y-91109247D01*
X124586692Y-91674041D01*
X124585092Y-92186864D01*
X124583594Y-92650371D01*
X124582094Y-93067214D01*
X124580491Y-93440045D01*
X124578680Y-93771519D01*
X124576560Y-94064286D01*
X124574028Y-94321002D01*
X124570980Y-94544318D01*
X124567315Y-94736887D01*
X124562929Y-94901363D01*
X124557720Y-95040398D01*
X124551584Y-95156644D01*
X124544420Y-95252756D01*
X124536125Y-95331386D01*
X124526595Y-95395187D01*
X124515728Y-95446811D01*
X124503421Y-95488912D01*
X124489572Y-95524143D01*
X124474077Y-95555156D01*
X124456835Y-95584604D01*
X124437742Y-95615141D01*
X124416695Y-95649418D01*
X124412381Y-95656720D01*
X124340004Y-95780221D01*
X125386024Y-95773068D01*
X126432044Y-95765914D01*
X126445699Y-95536142D01*
X126453135Y-95425873D01*
X126460883Y-95362122D01*
X126471397Y-95336827D01*
X126487128Y-95341922D01*
X126500323Y-95356498D01*
X126557803Y-95409591D01*
X126651487Y-95477837D01*
X126768175Y-95553080D01*
X126894669Y-95627167D01*
X127017769Y-95691943D01*
X127112287Y-95734561D01*
X127333726Y-95804595D01*
X127587793Y-95854204D01*
X127855734Y-95881494D01*
X128118789Y-95884569D01*
X128358205Y-95861532D01*
X128362147Y-95860873D01*
X128689747Y-95778669D01*
X128996413Y-95647700D01*
X129279186Y-95470780D01*
X129535108Y-95250726D01*
X129761222Y-94990351D01*
X129954570Y-94692472D01*
X130112194Y-94359904D01*
X130198016Y-94113548D01*
X130254611Y-93907445D01*
X130296582Y-93707867D01*
X130325211Y-93502690D01*
X130341782Y-93279791D01*
X130347577Y-93027045D01*
X130345011Y-92820662D01*
X128329675Y-92820662D01*
X128320138Y-93166732D01*
X128290054Y-93464467D01*
X128238497Y-93716510D01*
X128164542Y-93925502D01*
X128067262Y-94094086D01*
X127945734Y-94224906D01*
X127805454Y-94317385D01*
X127732460Y-94351909D01*
X127669153Y-94372607D01*
X127598573Y-94382077D01*
X127503758Y-94382915D01*
X127401613Y-94379228D01*
X127200739Y-94361510D01*
X127041866Y-94326813D01*
X126991936Y-94309433D01*
X126877925Y-94258102D01*
X126757677Y-94193643D01*
X126705162Y-94161376D01*
X126568603Y-94071805D01*
X126568603Y-91232706D01*
X126718818Y-91142665D01*
X126928308Y-91040923D01*
X127142342Y-90980751D01*
X127353091Y-90961796D01*
X127552727Y-90983701D01*
X127733423Y-91046113D01*
X127887351Y-91148676D01*
X127937019Y-91197906D01*
X128056738Y-91359211D01*
X128153636Y-91554471D01*
X128228523Y-91787031D01*
X128282207Y-92060239D01*
X128315500Y-92377441D01*
X128329211Y-92741984D01*
X128329675Y-92820662D01*
X130345011Y-92820662D01*
X130343942Y-92734756D01*
X130320918Y-92285158D01*
X130274622Y-91879628D01*
X130203836Y-91512257D01*
X130107339Y-91177137D01*
X129983913Y-90868363D01*
X129939869Y-90776822D01*
X129762460Y-90478296D01*
X129548070Y-90213007D01*
X129301741Y-89985237D01*
X129028513Y-89799268D01*
X128733426Y-89659382D01*
X128556541Y-89601678D01*
X128382822Y-89567422D01*
X128173795Y-89547041D01*
X127946986Y-89540525D01*
X127719916Y-89547866D01*
X127510108Y-89569055D01*
X127341648Y-89602295D01*
X127141143Y-89667482D01*
X126946805Y-89751307D01*
X126776776Y-89845280D01*
X126686279Y-89909058D01*
X126623856Y-89956484D01*
X126580147Y-89985361D01*
X126570204Y-89989462D01*
X126567121Y-89963041D01*
X126564247Y-89887339D01*
X126561645Y-89767698D01*
X126559379Y-89609462D01*
X126557512Y-89417973D01*
X126556109Y-89198574D01*
X126555233Y-88956607D01*
X126554947Y-88710147D01*
X126555106Y-88394476D01*
X126555892Y-88128337D01*
X126557762Y-87906641D01*
X126561175Y-87724296D01*
X126566591Y-87576212D01*
X126574469Y-87457299D01*
X126585267Y-87362465D01*
X126599445Y-87286620D01*
X126617461Y-87224674D01*
X126639775Y-87171536D01*
X126666846Y-87122115D01*
X126699133Y-87071321D01*
X126703287Y-87065031D01*
X126744929Y-86999245D01*
X126770071Y-86954008D01*
X126773441Y-86944466D01*
X126747097Y-86941455D01*
X126671931Y-86939006D01*
X126553743Y-86937158D01*
X126398331Y-86935951D01*
X126211494Y-86935424D01*
X125999033Y-86935618D01*
G36*
X133309049Y-89536368D02*
G01*
X133173728Y-89546611D01*
X132786558Y-89598122D01*
X132443679Y-89680283D01*
X132143420Y-89794222D01*
X131884112Y-89941072D01*
X131664084Y-90121962D01*
X131481666Y-90338022D01*
X131335189Y-90590384D01*
X131228229Y-90863441D01*
X131201079Y-90950541D01*
X131177436Y-91032107D01*
X131157023Y-91112529D01*
X131139561Y-91196199D01*
X131124770Y-91287508D01*
X131112373Y-91390847D01*
X131102089Y-91510609D01*
X131093642Y-91651183D01*
X131086752Y-91816962D01*
X131081139Y-92012336D01*
X131076527Y-92241698D01*
X131072635Y-92509437D01*
X131069185Y-92819947D01*
X131065898Y-93177618D01*
X131063549Y-93458064D01*
X131047742Y-95383548D01*
X130945323Y-95568843D01*
X130896825Y-95658111D01*
X130860734Y-95727448D01*
X130843517Y-95764354D01*
X130842904Y-95766854D01*
X130869220Y-95769715D01*
X130944189Y-95772351D01*
X131061839Y-95774689D01*
X131216200Y-95776653D01*
X131401300Y-95778170D01*
X131611168Y-95779165D01*
X131839833Y-95779565D01*
X131867097Y-95779570D01*
X132891291Y-95779570D01*
X132891291Y-95547419D01*
X132893037Y-95442507D01*
X132897698Y-95362271D01*
X132904404Y-95319251D01*
X132907368Y-95315269D01*
X132934477Y-95331950D01*
X132990269Y-95375731D01*
X133062785Y-95437216D01*
X133064411Y-95438638D01*
X133196743Y-95537160D01*
X133363867Y-95636089D01*
X133546900Y-95725706D01*
X133726957Y-95796293D01*
X133806237Y-95820414D01*
X133964009Y-95851051D01*
X134157603Y-95870602D01*
X134369296Y-95878787D01*
X134581368Y-95875327D01*
X134776096Y-95859945D01*
X134912366Y-95837811D01*
X135246546Y-95739676D01*
X135547397Y-95599819D01*
X135812961Y-95419974D01*
X136041279Y-95201876D01*
X136230394Y-94947261D01*
X136378347Y-94657864D01*
X136442175Y-94482258D01*
X136482177Y-94311576D01*
X136508687Y-94106678D01*
X136520953Y-93886464D01*
X136520550Y-93854420D01*
X134673388Y-93854420D01*
X134658070Y-94018053D01*
X134607065Y-94154042D01*
X134512796Y-94280208D01*
X134476589Y-94317203D01*
X134347880Y-94417221D01*
X134199115Y-94481294D01*
X134020887Y-94512309D01*
X133833202Y-94514593D01*
X133655186Y-94499514D01*
X133518888Y-94470021D01*
X133459694Y-94447869D01*
X133353005Y-94387496D01*
X133239963Y-94302589D01*
X133136825Y-94207295D01*
X133059849Y-94115760D01*
X133039409Y-94082181D01*
X133023519Y-94035157D01*
X133012222Y-93960333D01*
X133004991Y-93850560D01*
X133001300Y-93698692D01*
X133000538Y-93554155D01*
X133001054Y-93385644D01*
X133003140Y-93263799D01*
X133007598Y-93180666D01*
X133015235Y-93128292D01*
X133026854Y-93098726D01*
X133043260Y-93084013D01*
X133048334Y-93081670D01*
X133092430Y-93074453D01*
X133179400Y-93068550D01*
X133297500Y-93064493D01*
X133434986Y-93062815D01*
X133464839Y-93062813D01*
X133648614Y-93065746D01*
X133790593Y-93074469D01*
X133903409Y-93090177D01*
X133996598Y-93113118D01*
X134227754Y-93200535D01*
X134409027Y-93308010D01*
X134541986Y-93437262D01*
X134628199Y-93590010D01*
X134669238Y-93767972D01*
X134673388Y-93854420D01*
X136520550Y-93854420D01*
X136518224Y-93669834D01*
X136499748Y-93475689D01*
X136485336Y-93397252D01*
X136393310Y-93106017D01*
X136253377Y-92838054D01*
X136068177Y-92595932D01*
X135840352Y-92382221D01*
X135572543Y-92199492D01*
X135267393Y-92050314D01*
X135007957Y-91959727D01*
X134834566Y-91912136D01*
X134668718Y-91875155D01*
X134499671Y-91847585D01*
X134316683Y-91828224D01*
X134109011Y-91815871D01*
X133865913Y-91809326D01*
X133646128Y-91807483D01*
X132994406Y-91805699D01*
X133006891Y-91609798D01*
X133042343Y-91397243D01*
X133117759Y-91214543D01*
X133229927Y-91066262D01*
X133375636Y-90956960D01*
X133503936Y-90903624D01*
X133687765Y-90870010D01*
X133906606Y-90865183D01*
X134150200Y-90887363D01*
X134408290Y-90934772D01*
X134670615Y-91005629D01*
X134926918Y-91098155D01*
X135113176Y-91182778D01*
X135202789Y-91226231D01*
X135271142Y-91256580D01*
X135305903Y-91268423D01*
X135307789Y-91268043D01*
X135319785Y-91241518D01*
X135349738Y-91171210D01*
X135394830Y-91063855D01*
X135452243Y-90926190D01*
X135519158Y-90764949D01*
X135587176Y-90600395D01*
X135859103Y-89941328D01*
X135665681Y-89909559D01*
X135581846Y-89893619D01*
X135455817Y-89866847D01*
X135298392Y-89831673D01*
X135120367Y-89790528D01*
X134932537Y-89745842D01*
X134857742Y-89727683D01*
X134534162Y-89652631D01*
X134250868Y-89596362D01*
X133997285Y-89557738D01*
X133762838Y-89535623D01*
X133536951Y-89528878D01*
X133309049Y-89536368D01*
G37*
X133309049Y-89536368D02*
X133173728Y-89546611D01*
X132786558Y-89598122D01*
X132443679Y-89680283D01*
X132143420Y-89794222D01*
X131884112Y-89941072D01*
X131664084Y-90121962D01*
X131481666Y-90338022D01*
X131335189Y-90590384D01*
X131228229Y-90863441D01*
X131201079Y-90950541D01*
X131177436Y-91032107D01*
X131157023Y-91112529D01*
X131139561Y-91196199D01*
X131124770Y-91287508D01*
X131112373Y-91390847D01*
X131102089Y-91510609D01*
X131093642Y-91651183D01*
X131086752Y-91816962D01*
X131081139Y-92012336D01*
X131076527Y-92241698D01*
X131072635Y-92509437D01*
X131069185Y-92819947D01*
X131065898Y-93177618D01*
X131063549Y-93458064D01*
X131047742Y-95383548D01*
X130945323Y-95568843D01*
X130896825Y-95658111D01*
X130860734Y-95727448D01*
X130843517Y-95764354D01*
X130842904Y-95766854D01*
X130869220Y-95769715D01*
X130944189Y-95772351D01*
X131061839Y-95774689D01*
X131216200Y-95776653D01*
X131401300Y-95778170D01*
X131611168Y-95779165D01*
X131839833Y-95779565D01*
X131867097Y-95779570D01*
X132891291Y-95779570D01*
X132891291Y-95547419D01*
X132893037Y-95442507D01*
X132897698Y-95362271D01*
X132904404Y-95319251D01*
X132907368Y-95315269D01*
X132934477Y-95331950D01*
X132990269Y-95375731D01*
X133062785Y-95437216D01*
X133064411Y-95438638D01*
X133196743Y-95537160D01*
X133363867Y-95636089D01*
X133546900Y-95725706D01*
X133726957Y-95796293D01*
X133806237Y-95820414D01*
X133964009Y-95851051D01*
X134157603Y-95870602D01*
X134369296Y-95878787D01*
X134581368Y-95875327D01*
X134776096Y-95859945D01*
X134912366Y-95837811D01*
X135246546Y-95739676D01*
X135547397Y-95599819D01*
X135812961Y-95419974D01*
X136041279Y-95201876D01*
X136230394Y-94947261D01*
X136378347Y-94657864D01*
X136442175Y-94482258D01*
X136482177Y-94311576D01*
X136508687Y-94106678D01*
X136520953Y-93886464D01*
X136520550Y-93854420D01*
X134673388Y-93854420D01*
X134658070Y-94018053D01*
X134607065Y-94154042D01*
X134512796Y-94280208D01*
X134476589Y-94317203D01*
X134347880Y-94417221D01*
X134199115Y-94481294D01*
X134020887Y-94512309D01*
X133833202Y-94514593D01*
X133655186Y-94499514D01*
X133518888Y-94470021D01*
X133459694Y-94447869D01*
X133353005Y-94387496D01*
X133239963Y-94302589D01*
X133136825Y-94207295D01*
X133059849Y-94115760D01*
X133039409Y-94082181D01*
X133023519Y-94035157D01*
X133012222Y-93960333D01*
X133004991Y-93850560D01*
X133001300Y-93698692D01*
X133000538Y-93554155D01*
X133001054Y-93385644D01*
X133003140Y-93263799D01*
X133007598Y-93180666D01*
X133015235Y-93128292D01*
X133026854Y-93098726D01*
X133043260Y-93084013D01*
X133048334Y-93081670D01*
X133092430Y-93074453D01*
X133179400Y-93068550D01*
X133297500Y-93064493D01*
X133434986Y-93062815D01*
X133464839Y-93062813D01*
X133648614Y-93065746D01*
X133790593Y-93074469D01*
X133903409Y-93090177D01*
X133996598Y-93113118D01*
X134227754Y-93200535D01*
X134409027Y-93308010D01*
X134541986Y-93437262D01*
X134628199Y-93590010D01*
X134669238Y-93767972D01*
X134673388Y-93854420D01*
X136520550Y-93854420D01*
X136518224Y-93669834D01*
X136499748Y-93475689D01*
X136485336Y-93397252D01*
X136393310Y-93106017D01*
X136253377Y-92838054D01*
X136068177Y-92595932D01*
X135840352Y-92382221D01*
X135572543Y-92199492D01*
X135267393Y-92050314D01*
X135007957Y-91959727D01*
X134834566Y-91912136D01*
X134668718Y-91875155D01*
X134499671Y-91847585D01*
X134316683Y-91828224D01*
X134109011Y-91815871D01*
X133865913Y-91809326D01*
X133646128Y-91807483D01*
X132994406Y-91805699D01*
X133006891Y-91609798D01*
X133042343Y-91397243D01*
X133117759Y-91214543D01*
X133229927Y-91066262D01*
X133375636Y-90956960D01*
X133503936Y-90903624D01*
X133687765Y-90870010D01*
X133906606Y-90865183D01*
X134150200Y-90887363D01*
X134408290Y-90934772D01*
X134670615Y-91005629D01*
X134926918Y-91098155D01*
X135113176Y-91182778D01*
X135202789Y-91226231D01*
X135271142Y-91256580D01*
X135305903Y-91268423D01*
X135307789Y-91268043D01*
X135319785Y-91241518D01*
X135349738Y-91171210D01*
X135394830Y-91063855D01*
X135452243Y-90926190D01*
X135519158Y-90764949D01*
X135587176Y-90600395D01*
X135859103Y-89941328D01*
X135665681Y-89909559D01*
X135581846Y-89893619D01*
X135455817Y-89866847D01*
X135298392Y-89831673D01*
X135120367Y-89790528D01*
X134932537Y-89745842D01*
X134857742Y-89727683D01*
X134534162Y-89652631D01*
X134250868Y-89596362D01*
X133997285Y-89557738D01*
X133762838Y-89535623D01*
X133536951Y-89528878D01*
X133309049Y-89536368D01*
G36*
X138734807Y-87340777D02*
G01*
X138440294Y-87373019D01*
X138154961Y-87430729D01*
X137867200Y-87516917D01*
X137565404Y-87634593D01*
X137237966Y-87786767D01*
X137178999Y-87816243D01*
X137043676Y-87882910D01*
X136916049Y-87942939D01*
X136808713Y-87990599D01*
X136734264Y-88020155D01*
X136722827Y-88023876D01*
X136613226Y-88056714D01*
X137103845Y-88770453D01*
X137223794Y-88944895D01*
X137333461Y-89104270D01*
X137429117Y-89243168D01*
X137507031Y-89356178D01*
X137563475Y-89437890D01*
X137594719Y-89482891D01*
X137599795Y-89490018D01*
X137620412Y-89475117D01*
X137671161Y-89430320D01*
X137742966Y-89363765D01*
X137782594Y-89326147D01*
X138007118Y-89147568D01*
X138259274Y-89011868D01*
X138476560Y-88937537D01*
X138606993Y-88914193D01*
X138770307Y-88899967D01*
X138947293Y-88895124D01*
X139118744Y-88899926D01*
X139265452Y-88914638D01*
X139323993Y-88925905D01*
X139587853Y-89016685D01*
X139825622Y-89155296D01*
X140037124Y-89341485D01*
X140222184Y-89574999D01*
X140380625Y-89855584D01*
X140512271Y-90182987D01*
X140616946Y-90556955D01*
X140679155Y-90877097D01*
X140695386Y-91018426D01*
X140706444Y-91201004D01*
X140712437Y-91411709D01*
X140713473Y-91637422D01*
X140709657Y-91865022D01*
X140701097Y-92081389D01*
X140687899Y-92273402D01*
X140670170Y-92427943D01*
X140666333Y-92451786D01*
X140581749Y-92835860D01*
X140466505Y-93175783D01*
X140319897Y-93473078D01*
X140141226Y-93729268D01*
X140014400Y-93867775D01*
X139786475Y-94055828D01*
X139536512Y-94195220D01*
X139268730Y-94285195D01*
X138987344Y-94324994D01*
X138696571Y-94313857D01*
X138400627Y-94251026D01*
X138225660Y-94189547D01*
X137983534Y-94066436D01*
X137733980Y-93889837D01*
X137594191Y-93770412D01*
X137515699Y-93701291D01*
X137454030Y-93650579D01*
X137418928Y-93626144D01*
X137414570Y-93625398D01*
X137398903Y-93650367D01*
X137358308Y-93716348D01*
X137296243Y-93817685D01*
X137216167Y-93948721D01*
X137121538Y-94103800D01*
X137015814Y-94277265D01*
X136956967Y-94373896D01*
X136507474Y-95112201D01*
X137068683Y-95389549D01*
X137271596Y-95489172D01*
X137435973Y-95567729D01*
X137571861Y-95629122D01*
X137689309Y-95677253D01*
X137798364Y-95716023D01*
X137909074Y-95749333D01*
X138031487Y-95781086D01*
X138148818Y-95808969D01*
X138253105Y-95830546D01*
X138362168Y-95846851D01*
X138486927Y-95858791D01*
X138638297Y-95867270D01*
X138827199Y-95873192D01*
X138954517Y-95875749D01*
X139136177Y-95877494D01*
X139310367Y-95876614D01*
X139465557Y-95873360D01*
X139590223Y-95867984D01*
X139672834Y-95860735D01*
X139677730Y-95860012D01*
X140106709Y-95767205D01*
X140509551Y-95626449D01*
X140886112Y-95437839D01*
X141236252Y-95201466D01*
X141559828Y-94917424D01*
X141856700Y-94585805D01*
X142071701Y-94291075D01*
X142300589Y-93905298D01*
X142485611Y-93497895D01*
X142627662Y-93065600D01*
X142727636Y-92605146D01*
X142786428Y-92113267D01*
X142804951Y-91613799D01*
X142789717Y-91130634D01*
X142741844Y-90684842D01*
X142659811Y-90268905D01*
X142542097Y-89875304D01*
X142387181Y-89496518D01*
X142368683Y-89457275D01*
X142164894Y-89090440D01*
X141914598Y-88741360D01*
X141624885Y-88417260D01*
X141302846Y-88125366D01*
X140955574Y-87872904D01*
X140631987Y-87687714D01*
X140305096Y-87542670D01*
X139977511Y-87437603D01*
X139636552Y-87369653D01*
X139269535Y-87335960D01*
X139050108Y-87330992D01*
X138734807Y-87340777D01*
G37*
X138734807Y-87340777D02*
X138440294Y-87373019D01*
X138154961Y-87430729D01*
X137867200Y-87516917D01*
X137565404Y-87634593D01*
X137237966Y-87786767D01*
X137178999Y-87816243D01*
X137043676Y-87882910D01*
X136916049Y-87942939D01*
X136808713Y-87990599D01*
X136734264Y-88020155D01*
X136722827Y-88023876D01*
X136613226Y-88056714D01*
X137103845Y-88770453D01*
X137223794Y-88944895D01*
X137333461Y-89104270D01*
X137429117Y-89243168D01*
X137507031Y-89356178D01*
X137563475Y-89437890D01*
X137594719Y-89482891D01*
X137599795Y-89490018D01*
X137620412Y-89475117D01*
X137671161Y-89430320D01*
X137742966Y-89363765D01*
X137782594Y-89326147D01*
X138007118Y-89147568D01*
X138259274Y-89011868D01*
X138476560Y-88937537D01*
X138606993Y-88914193D01*
X138770307Y-88899967D01*
X138947293Y-88895124D01*
X139118744Y-88899926D01*
X139265452Y-88914638D01*
X139323993Y-88925905D01*
X139587853Y-89016685D01*
X139825622Y-89155296D01*
X140037124Y-89341485D01*
X140222184Y-89574999D01*
X140380625Y-89855584D01*
X140512271Y-90182987D01*
X140616946Y-90556955D01*
X140679155Y-90877097D01*
X140695386Y-91018426D01*
X140706444Y-91201004D01*
X140712437Y-91411709D01*
X140713473Y-91637422D01*
X140709657Y-91865022D01*
X140701097Y-92081389D01*
X140687899Y-92273402D01*
X140670170Y-92427943D01*
X140666333Y-92451786D01*
X140581749Y-92835860D01*
X140466505Y-93175783D01*
X140319897Y-93473078D01*
X140141226Y-93729268D01*
X140014400Y-93867775D01*
X139786475Y-94055828D01*
X139536512Y-94195220D01*
X139268730Y-94285195D01*
X138987344Y-94324994D01*
X138696571Y-94313857D01*
X138400627Y-94251026D01*
X138225660Y-94189547D01*
X137983534Y-94066436D01*
X137733980Y-93889837D01*
X137594191Y-93770412D01*
X137515699Y-93701291D01*
X137454030Y-93650579D01*
X137418928Y-93626144D01*
X137414570Y-93625398D01*
X137398903Y-93650367D01*
X137358308Y-93716348D01*
X137296243Y-93817685D01*
X137216167Y-93948721D01*
X137121538Y-94103800D01*
X137015814Y-94277265D01*
X136956967Y-94373896D01*
X136507474Y-95112201D01*
X137068683Y-95389549D01*
X137271596Y-95489172D01*
X137435973Y-95567729D01*
X137571861Y-95629122D01*
X137689309Y-95677253D01*
X137798364Y-95716023D01*
X137909074Y-95749333D01*
X138031487Y-95781086D01*
X138148818Y-95808969D01*
X138253105Y-95830546D01*
X138362168Y-95846851D01*
X138486927Y-95858791D01*
X138638297Y-95867270D01*
X138827199Y-95873192D01*
X138954517Y-95875749D01*
X139136177Y-95877494D01*
X139310367Y-95876614D01*
X139465557Y-95873360D01*
X139590223Y-95867984D01*
X139672834Y-95860735D01*
X139677730Y-95860012D01*
X140106709Y-95767205D01*
X140509551Y-95626449D01*
X140886112Y-95437839D01*
X141236252Y-95201466D01*
X141559828Y-94917424D01*
X141856700Y-94585805D01*
X142071701Y-94291075D01*
X142300589Y-93905298D01*
X142485611Y-93497895D01*
X142627662Y-93065600D01*
X142727636Y-92605146D01*
X142786428Y-92113267D01*
X142804951Y-91613799D01*
X142789717Y-91130634D01*
X142741844Y-90684842D01*
X142659811Y-90268905D01*
X142542097Y-89875304D01*
X142387181Y-89496518D01*
X142368683Y-89457275D01*
X142164894Y-89090440D01*
X141914598Y-88741360D01*
X141624885Y-88417260D01*
X141302846Y-88125366D01*
X140955574Y-87872904D01*
X140631987Y-87687714D01*
X140305096Y-87542670D01*
X139977511Y-87437603D01*
X139636552Y-87369653D01*
X139269535Y-87335960D01*
X139050108Y-87330992D01*
X138734807Y-87340777D01*
G36*
X151457446Y-85974541D02*
G01*
X150931244Y-85974613D01*
X150686303Y-85974623D01*
X146765699Y-85974623D01*
X146765699Y-86205734D01*
X146741032Y-86486976D01*
X146666584Y-86746359D01*
X146541686Y-86985424D01*
X146365670Y-87205714D01*
X146306118Y-87265210D01*
X146091895Y-87433971D01*
X145855690Y-87557052D01*
X145604517Y-87634510D01*
X145345393Y-87666399D01*
X145085333Y-87652776D01*
X144831353Y-87593697D01*
X144590469Y-87489217D01*
X144369696Y-87339393D01*
X144270543Y-87249001D01*
X144085773Y-87027376D01*
X143950284Y-86783661D01*
X143865256Y-86520643D01*
X143831872Y-86241106D01*
X143831428Y-86213606D01*
X143829678Y-85974632D01*
X143724645Y-85974628D01*
X143631470Y-85987273D01*
X143546356Y-86018040D01*
X143540731Y-86021219D01*
X143521508Y-86031194D01*
X143503855Y-86038962D01*
X143487708Y-86046787D01*
X143473005Y-86056930D01*
X143459681Y-86071655D01*
X143447672Y-86093225D01*
X143436915Y-86123901D01*
X143427346Y-86165947D01*
X143418901Y-86221626D01*
X143411516Y-86293199D01*
X143405127Y-86382930D01*
X143399671Y-86493082D01*
X143395084Y-86625916D01*
X143391302Y-86783696D01*
X143388260Y-86968684D01*
X143385897Y-87183144D01*
X143384147Y-87429337D01*
X143382947Y-87709527D01*
X143382232Y-88025975D01*
X143381940Y-88380946D01*
X143382007Y-88776700D01*
X143382368Y-89215502D01*
X143382960Y-89699614D01*
X143383719Y-90231298D01*
X143384581Y-90812817D01*
X143385482Y-91446433D01*
X143385587Y-91523629D01*
X143386395Y-92161287D01*
X143387081Y-92746582D01*
X143387717Y-93281778D01*
X143388376Y-93769136D01*
X143389131Y-94210917D01*
X143390053Y-94609382D01*
X143391216Y-94966795D01*
X143392693Y-95285415D01*
X143394555Y-95567506D01*
X143396876Y-95815328D01*
X143399729Y-96031143D01*
X143403185Y-96217213D01*
X143407318Y-96375800D01*
X143412200Y-96509164D01*
X143417904Y-96619569D01*
X143424502Y-96709275D01*
X143432068Y-96780544D01*
X143440673Y-96835638D01*
X143450390Y-96876818D01*
X143461293Y-96906346D01*
X143473453Y-96926484D01*
X143486943Y-96939493D01*
X143501837Y-96947636D01*
X143518206Y-96953173D01*
X143536123Y-96958366D01*
X143555661Y-96965477D01*
X143560434Y-96967642D01*
X143575434Y-96972506D01*
X143600541Y-96976976D01*
X143637946Y-96981066D01*
X143689842Y-96984793D01*
X143758420Y-96988173D01*
X143845873Y-96991221D01*
X143954394Y-96993954D01*
X144086174Y-96996387D01*
X144243406Y-96998537D01*
X144428281Y-97000419D01*
X144642993Y-97002049D01*
X144889734Y-97003443D01*
X145170694Y-97004617D01*
X145488068Y-97005587D01*
X145844047Y-97006369D01*
X146240822Y-97006979D01*
X146680588Y-97007432D01*
X147165535Y-97007745D01*
X147697856Y-97007934D01*
X148279743Y-97008013D01*
X148913389Y-97008000D01*
X149118644Y-97007980D01*
X149766347Y-97007876D01*
X150361644Y-97007706D01*
X150906755Y-97007453D01*
X151403897Y-97007098D01*
X151855290Y-97006626D01*
X152263151Y-97006018D01*
X152629700Y-97005258D01*
X152957154Y-97004327D01*
X153247732Y-97003209D01*
X153503652Y-97001886D01*
X153727133Y-97000341D01*
X153920394Y-96998557D01*
X154085652Y-96996516D01*
X154225127Y-96994201D01*
X154341037Y-96991594D01*
X154435600Y-96988678D01*
X154511034Y-96985436D01*
X154569558Y-96981851D01*
X154613391Y-96977905D01*
X154644752Y-96973581D01*
X154665857Y-96968862D01*
X154677363Y-96964540D01*
X154697812Y-96955916D01*
X154716587Y-96949557D01*
X154733760Y-96943203D01*
X154749402Y-96934597D01*
X154763584Y-96921480D01*
X154776377Y-96901594D01*
X154787852Y-96872679D01*
X154798080Y-96832479D01*
X154807133Y-96778733D01*
X154815080Y-96709185D01*
X154821994Y-96621574D01*
X154827945Y-96513644D01*
X154833005Y-96383135D01*
X154837245Y-96227789D01*
X154840735Y-96045348D01*
X154843547Y-95833553D01*
X154844283Y-95752258D01*
X154115361Y-95752258D01*
X151538987Y-95752258D01*
X151588561Y-95677150D01*
X151637878Y-95599968D01*
X151679640Y-95526469D01*
X151714441Y-95451512D01*
X151742877Y-95369953D01*
X151765540Y-95276648D01*
X151783025Y-95166453D01*
X151795926Y-95034225D01*
X151804837Y-94874820D01*
X151810352Y-94683095D01*
X151813064Y-94453907D01*
X151813569Y-94182112D01*
X151812459Y-93862566D01*
X151811830Y-93743932D01*
X151804732Y-92472123D01*
X150999033Y-93569010D01*
X150770779Y-93880183D01*
X150573025Y-94151143D01*
X150403635Y-94385478D01*
X150260473Y-94586780D01*
X150141405Y-94758637D01*
X150044295Y-94904640D01*
X149967007Y-95028378D01*
X149907407Y-95133441D01*
X149863359Y-95223420D01*
X149832728Y-95301903D01*
X149813378Y-95372480D01*
X149803175Y-95438742D01*
X149799983Y-95504277D01*
X149801667Y-95572677D01*
X149802097Y-95581274D01*
X149810968Y-95752372D01*
X148399236Y-95752315D01*
X146987505Y-95752258D01*
X147197516Y-95540500D01*
X147254504Y-95482582D01*
X147308566Y-95426225D01*
X147362076Y-95368322D01*
X147417404Y-95305764D01*
X147476925Y-95235443D01*
X147543011Y-95154251D01*
X147618034Y-95059081D01*
X147704367Y-94946823D01*
X147804383Y-94814370D01*
X147920454Y-94658614D01*
X148054952Y-94476446D01*
X148210251Y-94264760D01*
X148388722Y-94020446D01*
X148592740Y-93740397D01*
X148824675Y-93421504D01*
X149014782Y-93159920D01*
X149253372Y-92831292D01*
X149461508Y-92543957D01*
X149641075Y-92295187D01*
X149793957Y-92082254D01*
X149922041Y-91902430D01*
X150027212Y-91752986D01*
X150111355Y-91631196D01*
X150176357Y-91534331D01*
X150224103Y-91459662D01*
X150256477Y-91404463D01*
X150275366Y-91366004D01*
X150282655Y-91341559D01*
X150280464Y-91328706D01*
X150253913Y-91294504D01*
X150196508Y-91222108D01*
X150111713Y-91115820D01*
X150002992Y-90979945D01*
X149873808Y-90818784D01*
X149727626Y-90636643D01*
X149567909Y-90437822D01*
X149398121Y-90226627D01*
X149221726Y-90007359D01*
X149042187Y-89784323D01*
X148943435Y-89661720D01*
X146491548Y-89661720D01*
X146287742Y-90030430D01*
X146287742Y-95383548D01*
X146491548Y-95752258D01*
X145286111Y-95752258D01*
X144998341Y-95752174D01*
X144760647Y-95751797D01*
X144568482Y-95750935D01*
X144417298Y-95749400D01*
X144302548Y-95747000D01*
X144219685Y-95743546D01*
X144164162Y-95738849D01*
X144131430Y-95732717D01*
X144116943Y-95724961D01*
X144116153Y-95715391D01*
X144124513Y-95703817D01*
X144124599Y-95703721D01*
X144159036Y-95653907D01*
X144204637Y-95572910D01*
X144244908Y-95492055D01*
X144321291Y-95328925D01*
X144329081Y-92495322D01*
X144336871Y-89661720D01*
X146491548Y-89661720D01*
X148943435Y-89661720D01*
X148862969Y-89561821D01*
X148687536Y-89344157D01*
X148519350Y-89135633D01*
X148361877Y-88940554D01*
X148218579Y-88763221D01*
X148092921Y-88607939D01*
X147988366Y-88479010D01*
X147908379Y-88380738D01*
X147861398Y-88323441D01*
X147678963Y-88109180D01*
X147503452Y-87915830D01*
X147341016Y-87749720D01*
X147197805Y-87617180D01*
X147096171Y-87535921D01*
X146975998Y-87449462D01*
X149739840Y-87449462D01*
X149739064Y-87611646D01*
X149746788Y-87730883D01*
X149775828Y-87841426D01*
X149820782Y-87946216D01*
X149850004Y-88005416D01*
X149881423Y-88064074D01*
X149917909Y-88126086D01*
X149962331Y-88195345D01*
X150017561Y-88275746D01*
X150086469Y-88371181D01*
X150171923Y-88485547D01*
X150276796Y-88622735D01*
X150403955Y-88786642D01*
X150556273Y-88981160D01*
X150736618Y-89210185D01*
X150947862Y-89477609D01*
X150971721Y-89507783D01*
X151804732Y-90561195D01*
X151812796Y-89394522D01*
X151814420Y-89045069D01*
X151814074Y-88749230D01*
X151811742Y-88506030D01*
X151807407Y-88314493D01*
X151801051Y-88173644D01*
X151792659Y-88082508D01*
X151789838Y-88065220D01*
X151745584Y-87883117D01*
X151687602Y-87718950D01*
X151621437Y-87586954D01*
X151581687Y-87530972D01*
X151513102Y-87449462D01*
X152814453Y-87449462D01*
X153124885Y-87449728D01*
X153384477Y-87450591D01*
X153597014Y-87452154D01*
X153766276Y-87454517D01*
X153896048Y-87457780D01*
X153990111Y-87462045D01*
X154052248Y-87467413D01*
X154086241Y-87473983D01*
X154095874Y-87481858D01*
X154095208Y-87483602D01*
X154067620Y-87525243D01*
X154021564Y-87591248D01*
X153997735Y-87624631D01*
X153973099Y-87657944D01*
X153950955Y-87687734D01*
X153931164Y-87716933D01*
X153913586Y-87748474D01*
X153898081Y-87785286D01*
X153884511Y-87830303D01*
X153872736Y-87886455D01*
X153862616Y-87956675D01*
X153854013Y-88043894D01*
X153846786Y-88151043D01*
X153840796Y-88281055D01*
X153835904Y-88436861D01*
X153831971Y-88621393D01*
X153828857Y-88837581D01*
X153826422Y-89088359D01*
X153824527Y-89376658D01*
X153823033Y-89705409D01*
X153821801Y-90077543D01*
X153820690Y-90495994D01*
X153819562Y-90963691D01*
X153818508Y-91393354D01*
X153817512Y-91872353D01*
X153816994Y-92329362D01*
X153816941Y-92761464D01*
X153817338Y-93165738D01*
X153818172Y-93539265D01*
X153819429Y-93879127D01*
X153821094Y-94182404D01*
X153823156Y-94446177D01*
X153825599Y-94667527D01*
X153828410Y-94843535D01*
X153831576Y-94971283D01*
X153835082Y-95047849D01*
X153835745Y-95055941D01*
X153859905Y-95241568D01*
X153897624Y-95390647D01*
X153955064Y-95520750D01*
X154038389Y-95649452D01*
X154048811Y-95663494D01*
X154115361Y-95752258D01*
X154844283Y-95752258D01*
X154845752Y-95590145D01*
X154847421Y-95312867D01*
X154848625Y-94999459D01*
X154849435Y-94647664D01*
X154849922Y-94255223D01*
X154850156Y-93819877D01*
X154850211Y-93339368D01*
X154850156Y-92811438D01*
X154850062Y-92233828D01*
X154850002Y-91604279D01*
X154850000Y-91479301D01*
X154849965Y-90843122D01*
X154849847Y-90259325D01*
X154849628Y-89725668D01*
X154849292Y-89239909D01*
X154848822Y-88799805D01*
X154848198Y-88403116D01*
X154847406Y-88047599D01*
X154846426Y-87731012D01*
X154845242Y-87451113D01*
X154843836Y-87205661D01*
X154842190Y-86992413D01*
X154840288Y-86809128D01*
X154838113Y-86653564D01*
X154835645Y-86523478D01*
X154832869Y-86416629D01*
X154829767Y-86330775D01*
X154826321Y-86263674D01*
X154822515Y-86213084D01*
X154818330Y-86176764D01*
X154813749Y-86152470D01*
X154808755Y-86137962D01*
X154808570Y-86137600D01*
X154798285Y-86115437D01*
X154789718Y-86095372D01*
X154780241Y-86077301D01*
X154767226Y-86061121D01*
X154748043Y-86046726D01*
X154720065Y-86034014D01*
X154680663Y-86022880D01*
X154627208Y-86013221D01*
X154557071Y-86004932D01*
X154467624Y-85997910D01*
X154356238Y-85992050D01*
X154220284Y-85987250D01*
X154057135Y-85983404D01*
X153864161Y-85980409D01*
X153638733Y-85978161D01*
X153378224Y-85976556D01*
X153080004Y-85975491D01*
X152741445Y-85974860D01*
X152359918Y-85974561D01*
X151932794Y-85974490D01*
X151457446Y-85974541D01*
G37*
X151457446Y-85974541D02*
X150931244Y-85974613D01*
X150686303Y-85974623D01*
X146765699Y-85974623D01*
X146765699Y-86205734D01*
X146741032Y-86486976D01*
X146666584Y-86746359D01*
X146541686Y-86985424D01*
X146365670Y-87205714D01*
X146306118Y-87265210D01*
X146091895Y-87433971D01*
X145855690Y-87557052D01*
X145604517Y-87634510D01*
X145345393Y-87666399D01*
X145085333Y-87652776D01*
X144831353Y-87593697D01*
X144590469Y-87489217D01*
X144369696Y-87339393D01*
X144270543Y-87249001D01*
X144085773Y-87027376D01*
X143950284Y-86783661D01*
X143865256Y-86520643D01*
X143831872Y-86241106D01*
X143831428Y-86213606D01*
X143829678Y-85974632D01*
X143724645Y-85974628D01*
X143631470Y-85987273D01*
X143546356Y-86018040D01*
X143540731Y-86021219D01*
X143521508Y-86031194D01*
X143503855Y-86038962D01*
X143487708Y-86046787D01*
X143473005Y-86056930D01*
X143459681Y-86071655D01*
X143447672Y-86093225D01*
X143436915Y-86123901D01*
X143427346Y-86165947D01*
X143418901Y-86221626D01*
X143411516Y-86293199D01*
X143405127Y-86382930D01*
X143399671Y-86493082D01*
X143395084Y-86625916D01*
X143391302Y-86783696D01*
X143388260Y-86968684D01*
X143385897Y-87183144D01*
X143384147Y-87429337D01*
X143382947Y-87709527D01*
X143382232Y-88025975D01*
X143381940Y-88380946D01*
X143382007Y-88776700D01*
X143382368Y-89215502D01*
X143382960Y-89699614D01*
X143383719Y-90231298D01*
X143384581Y-90812817D01*
X143385482Y-91446433D01*
X143385587Y-91523629D01*
X143386395Y-92161287D01*
X143387081Y-92746582D01*
X143387717Y-93281778D01*
X143388376Y-93769136D01*
X143389131Y-94210917D01*
X143390053Y-94609382D01*
X143391216Y-94966795D01*
X143392693Y-95285415D01*
X143394555Y-95567506D01*
X143396876Y-95815328D01*
X143399729Y-96031143D01*
X143403185Y-96217213D01*
X143407318Y-96375800D01*
X143412200Y-96509164D01*
X143417904Y-96619569D01*
X143424502Y-96709275D01*
X143432068Y-96780544D01*
X143440673Y-96835638D01*
X143450390Y-96876818D01*
X143461293Y-96906346D01*
X143473453Y-96926484D01*
X143486943Y-96939493D01*
X143501837Y-96947636D01*
X143518206Y-96953173D01*
X143536123Y-96958366D01*
X143555661Y-96965477D01*
X143560434Y-96967642D01*
X143575434Y-96972506D01*
X143600541Y-96976976D01*
X143637946Y-96981066D01*
X143689842Y-96984793D01*
X143758420Y-96988173D01*
X143845873Y-96991221D01*
X143954394Y-96993954D01*
X144086174Y-96996387D01*
X144243406Y-96998537D01*
X144428281Y-97000419D01*
X144642993Y-97002049D01*
X144889734Y-97003443D01*
X145170694Y-97004617D01*
X145488068Y-97005587D01*
X145844047Y-97006369D01*
X146240822Y-97006979D01*
X146680588Y-97007432D01*
X147165535Y-97007745D01*
X147697856Y-97007934D01*
X148279743Y-97008013D01*
X148913389Y-97008000D01*
X149118644Y-97007980D01*
X149766347Y-97007876D01*
X150361644Y-97007706D01*
X150906755Y-97007453D01*
X151403897Y-97007098D01*
X151855290Y-97006626D01*
X152263151Y-97006018D01*
X152629700Y-97005258D01*
X152957154Y-97004327D01*
X153247732Y-97003209D01*
X153503652Y-97001886D01*
X153727133Y-97000341D01*
X153920394Y-96998557D01*
X154085652Y-96996516D01*
X154225127Y-96994201D01*
X154341037Y-96991594D01*
X154435600Y-96988678D01*
X154511034Y-96985436D01*
X154569558Y-96981851D01*
X154613391Y-96977905D01*
X154644752Y-96973581D01*
X154665857Y-96968862D01*
X154677363Y-96964540D01*
X154697812Y-96955916D01*
X154716587Y-96949557D01*
X154733760Y-96943203D01*
X154749402Y-96934597D01*
X154763584Y-96921480D01*
X154776377Y-96901594D01*
X154787852Y-96872679D01*
X154798080Y-96832479D01*
X154807133Y-96778733D01*
X154815080Y-96709185D01*
X154821994Y-96621574D01*
X154827945Y-96513644D01*
X154833005Y-96383135D01*
X154837245Y-96227789D01*
X154840735Y-96045348D01*
X154843547Y-95833553D01*
X154844283Y-95752258D01*
X154115361Y-95752258D01*
X151538987Y-95752258D01*
X151588561Y-95677150D01*
X151637878Y-95599968D01*
X151679640Y-95526469D01*
X151714441Y-95451512D01*
X151742877Y-95369953D01*
X151765540Y-95276648D01*
X151783025Y-95166453D01*
X151795926Y-95034225D01*
X151804837Y-94874820D01*
X151810352Y-94683095D01*
X151813064Y-94453907D01*
X151813569Y-94182112D01*
X151812459Y-93862566D01*
X151811830Y-93743932D01*
X151804732Y-92472123D01*
X150999033Y-93569010D01*
X150770779Y-93880183D01*
X150573025Y-94151143D01*
X150403635Y-94385478D01*
X150260473Y-94586780D01*
X150141405Y-94758637D01*
X150044295Y-94904640D01*
X149967007Y-95028378D01*
X149907407Y-95133441D01*
X149863359Y-95223420D01*
X149832728Y-95301903D01*
X149813378Y-95372480D01*
X149803175Y-95438742D01*
X149799983Y-95504277D01*
X149801667Y-95572677D01*
X149802097Y-95581274D01*
X149810968Y-95752372D01*
X148399236Y-95752315D01*
X146987505Y-95752258D01*
X147197516Y-95540500D01*
X147254504Y-95482582D01*
X147308566Y-95426225D01*
X147362076Y-95368322D01*
X147417404Y-95305764D01*
X147476925Y-95235443D01*
X147543011Y-95154251D01*
X147618034Y-95059081D01*
X147704367Y-94946823D01*
X147804383Y-94814370D01*
X147920454Y-94658614D01*
X148054952Y-94476446D01*
X148210251Y-94264760D01*
X148388722Y-94020446D01*
X148592740Y-93740397D01*
X148824675Y-93421504D01*
X149014782Y-93159920D01*
X149253372Y-92831292D01*
X149461508Y-92543957D01*
X149641075Y-92295187D01*
X149793957Y-92082254D01*
X149922041Y-91902430D01*
X150027212Y-91752986D01*
X150111355Y-91631196D01*
X150176357Y-91534331D01*
X150224103Y-91459662D01*
X150256477Y-91404463D01*
X150275366Y-91366004D01*
X150282655Y-91341559D01*
X150280464Y-91328706D01*
X150253913Y-91294504D01*
X150196508Y-91222108D01*
X150111713Y-91115820D01*
X150002992Y-90979945D01*
X149873808Y-90818784D01*
X149727626Y-90636643D01*
X149567909Y-90437822D01*
X149398121Y-90226627D01*
X149221726Y-90007359D01*
X149042187Y-89784323D01*
X148943435Y-89661720D01*
X146491548Y-89661720D01*
X146287742Y-90030430D01*
X146287742Y-95383548D01*
X146491548Y-95752258D01*
X145286111Y-95752258D01*
X144998341Y-95752174D01*
X144760647Y-95751797D01*
X144568482Y-95750935D01*
X144417298Y-95749400D01*
X144302548Y-95747000D01*
X144219685Y-95743546D01*
X144164162Y-95738849D01*
X144131430Y-95732717D01*
X144116943Y-95724961D01*
X144116153Y-95715391D01*
X144124513Y-95703817D01*
X144124599Y-95703721D01*
X144159036Y-95653907D01*
X144204637Y-95572910D01*
X144244908Y-95492055D01*
X144321291Y-95328925D01*
X144329081Y-92495322D01*
X144336871Y-89661720D01*
X146491548Y-89661720D01*
X148943435Y-89661720D01*
X148862969Y-89561821D01*
X148687536Y-89344157D01*
X148519350Y-89135633D01*
X148361877Y-88940554D01*
X148218579Y-88763221D01*
X148092921Y-88607939D01*
X147988366Y-88479010D01*
X147908379Y-88380738D01*
X147861398Y-88323441D01*
X147678963Y-88109180D01*
X147503452Y-87915830D01*
X147341016Y-87749720D01*
X147197805Y-87617180D01*
X147096171Y-87535921D01*
X146975998Y-87449462D01*
X149739840Y-87449462D01*
X149739064Y-87611646D01*
X149746788Y-87730883D01*
X149775828Y-87841426D01*
X149820782Y-87946216D01*
X149850004Y-88005416D01*
X149881423Y-88064074D01*
X149917909Y-88126086D01*
X149962331Y-88195345D01*
X150017561Y-88275746D01*
X150086469Y-88371181D01*
X150171923Y-88485547D01*
X150276796Y-88622735D01*
X150403955Y-88786642D01*
X150556273Y-88981160D01*
X150736618Y-89210185D01*
X150947862Y-89477609D01*
X150971721Y-89507783D01*
X151804732Y-90561195D01*
X151812796Y-89394522D01*
X151814420Y-89045069D01*
X151814074Y-88749230D01*
X151811742Y-88506030D01*
X151807407Y-88314493D01*
X151801051Y-88173644D01*
X151792659Y-88082508D01*
X151789838Y-88065220D01*
X151745584Y-87883117D01*
X151687602Y-87718950D01*
X151621437Y-87586954D01*
X151581687Y-87530972D01*
X151513102Y-87449462D01*
X152814453Y-87449462D01*
X153124885Y-87449728D01*
X153384477Y-87450591D01*
X153597014Y-87452154D01*
X153766276Y-87454517D01*
X153896048Y-87457780D01*
X153990111Y-87462045D01*
X154052248Y-87467413D01*
X154086241Y-87473983D01*
X154095874Y-87481858D01*
X154095208Y-87483602D01*
X154067620Y-87525243D01*
X154021564Y-87591248D01*
X153997735Y-87624631D01*
X153973099Y-87657944D01*
X153950955Y-87687734D01*
X153931164Y-87716933D01*
X153913586Y-87748474D01*
X153898081Y-87785286D01*
X153884511Y-87830303D01*
X153872736Y-87886455D01*
X153862616Y-87956675D01*
X153854013Y-88043894D01*
X153846786Y-88151043D01*
X153840796Y-88281055D01*
X153835904Y-88436861D01*
X153831971Y-88621393D01*
X153828857Y-88837581D01*
X153826422Y-89088359D01*
X153824527Y-89376658D01*
X153823033Y-89705409D01*
X153821801Y-90077543D01*
X153820690Y-90495994D01*
X153819562Y-90963691D01*
X153818508Y-91393354D01*
X153817512Y-91872353D01*
X153816994Y-92329362D01*
X153816941Y-92761464D01*
X153817338Y-93165738D01*
X153818172Y-93539265D01*
X153819429Y-93879127D01*
X153821094Y-94182404D01*
X153823156Y-94446177D01*
X153825599Y-94667527D01*
X153828410Y-94843535D01*
X153831576Y-94971283D01*
X153835082Y-95047849D01*
X153835745Y-95055941D01*
X153859905Y-95241568D01*
X153897624Y-95390647D01*
X153955064Y-95520750D01*
X154038389Y-95649452D01*
X154048811Y-95663494D01*
X154115361Y-95752258D01*
X154844283Y-95752258D01*
X154845752Y-95590145D01*
X154847421Y-95312867D01*
X154848625Y-94999459D01*
X154849435Y-94647664D01*
X154849922Y-94255223D01*
X154850156Y-93819877D01*
X154850211Y-93339368D01*
X154850156Y-92811438D01*
X154850062Y-92233828D01*
X154850002Y-91604279D01*
X154850000Y-91479301D01*
X154849965Y-90843122D01*
X154849847Y-90259325D01*
X154849628Y-89725668D01*
X154849292Y-89239909D01*
X154848822Y-88799805D01*
X154848198Y-88403116D01*
X154847406Y-88047599D01*
X154846426Y-87731012D01*
X154845242Y-87451113D01*
X154843836Y-87205661D01*
X154842190Y-86992413D01*
X154840288Y-86809128D01*
X154838113Y-86653564D01*
X154835645Y-86523478D01*
X154832869Y-86416629D01*
X154829767Y-86330775D01*
X154826321Y-86263674D01*
X154822515Y-86213084D01*
X154818330Y-86176764D01*
X154813749Y-86152470D01*
X154808755Y-86137962D01*
X154808570Y-86137600D01*
X154798285Y-86115437D01*
X154789718Y-86095372D01*
X154780241Y-86077301D01*
X154767226Y-86061121D01*
X154748043Y-86046726D01*
X154720065Y-86034014D01*
X154680663Y-86022880D01*
X154627208Y-86013221D01*
X154557071Y-86004932D01*
X154467624Y-85997910D01*
X154356238Y-85992050D01*
X154220284Y-85987250D01*
X154057135Y-85983404D01*
X153864161Y-85980409D01*
X153638733Y-85978161D01*
X153378224Y-85976556D01*
X153080004Y-85975491D01*
X152741445Y-85974860D01*
X152359918Y-85974561D01*
X151932794Y-85974490D01*
X151457446Y-85974541D01*
%TD*%
M02*
