%TF.GenerationSoftware,KiCad,Pcbnew,(5.1.9)-1*%
%TF.CreationDate,2021-02-26T14:18:11+09:00*%
%TF.ProjectId,diesel-heater-esp32,64696573-656c-42d6-9865-617465722d65,rev?*%
%TF.SameCoordinates,Original*%
%TF.FileFunction,Copper,L2,Bot*%
%TF.FilePolarity,Positive*%
%FSLAX46Y46*%
G04 Gerber Fmt 4.6, Leading zero omitted, Abs format (unit mm)*
G04 Created by KiCad (PCBNEW (5.1.9)-1) date 2021-02-26 14:18:11*
%MOMM*%
%LPD*%
G01*
G04 APERTURE LIST*
%TA.AperFunction,ComponentPad*%
%ADD10O,1.700000X2.000000*%
%TD*%
%TA.AperFunction,ComponentPad*%
%ADD11O,1.700000X1.950000*%
%TD*%
%TA.AperFunction,ComponentPad*%
%ADD12O,1.950000X1.700000*%
%TD*%
%TA.AperFunction,ComponentPad*%
%ADD13R,1.600000X1.600000*%
%TD*%
%TA.AperFunction,ComponentPad*%
%ADD14C,1.600000*%
%TD*%
%TA.AperFunction,ComponentPad*%
%ADD15R,1.700000X1.700000*%
%TD*%
%TA.AperFunction,ComponentPad*%
%ADD16O,1.700000X1.700000*%
%TD*%
%TA.AperFunction,ViaPad*%
%ADD17C,0.800000*%
%TD*%
%TA.AperFunction,Conductor*%
%ADD18C,0.250000*%
%TD*%
%TA.AperFunction,Conductor*%
%ADD19C,0.254000*%
%TD*%
%TA.AperFunction,Conductor*%
%ADD20C,0.100000*%
%TD*%
G04 APERTURE END LIST*
D10*
%TO.P,J1,2*%
%TO.N,GND*%
X120520000Y-73780000D03*
%TO.P,J1,1*%
%TO.N,/5V*%
%TA.AperFunction,ComponentPad*%
G36*
G01*
X123870000Y-73030000D02*
X123870000Y-74530000D01*
G75*
G02*
X123620000Y-74780000I-250000J0D01*
G01*
X122420000Y-74780000D01*
G75*
G02*
X122170000Y-74530000I0J250000D01*
G01*
X122170000Y-73030000D01*
G75*
G02*
X122420000Y-72780000I250000J0D01*
G01*
X123620000Y-72780000D01*
G75*
G02*
X123870000Y-73030000I0J-250000D01*
G01*
G37*
%TD.AperFunction*%
%TD*%
%TO.P,J3,1*%
%TO.N,/3V3*%
%TA.AperFunction,ComponentPad*%
G36*
G01*
X137060000Y-73055000D02*
X137060000Y-74505000D01*
G75*
G02*
X136810000Y-74755000I-250000J0D01*
G01*
X135610000Y-74755000D01*
G75*
G02*
X135360000Y-74505000I0J250000D01*
G01*
X135360000Y-73055000D01*
G75*
G02*
X135610000Y-72805000I250000J0D01*
G01*
X136810000Y-72805000D01*
G75*
G02*
X137060000Y-73055000I0J-250000D01*
G01*
G37*
%TD.AperFunction*%
D11*
%TO.P,J3,2*%
%TO.N,GND*%
X133710000Y-73780000D03*
%TO.P,J3,3*%
%TO.N,/M_RUN*%
X131210000Y-73780000D03*
%TD*%
D12*
%TO.P,J4,5*%
%TO.N,/BTN3*%
X165600000Y-87000000D03*
%TO.P,J4,4*%
%TO.N,/BTN2*%
X165600000Y-89500000D03*
%TO.P,J4,3*%
%TO.N,/BTN1*%
X165600000Y-92000000D03*
%TO.P,J4,2*%
%TO.N,/BTN0*%
X165600000Y-94500000D03*
%TO.P,J4,1*%
%TO.N,GND*%
%TA.AperFunction,ComponentPad*%
G36*
G01*
X166325000Y-97850000D02*
X164875000Y-97850000D01*
G75*
G02*
X164625000Y-97600000I0J250000D01*
G01*
X164625000Y-96400000D01*
G75*
G02*
X164875000Y-96150000I250000J0D01*
G01*
X166325000Y-96150000D01*
G75*
G02*
X166575000Y-96400000I0J-250000D01*
G01*
X166575000Y-97600000D01*
G75*
G02*
X166325000Y-97850000I-250000J0D01*
G01*
G37*
%TD.AperFunction*%
%TD*%
%TO.P,J5,1*%
%TO.N,/VBAT*%
%TA.AperFunction,ComponentPad*%
G36*
G01*
X114060000Y-112500000D02*
X114060000Y-111000000D01*
G75*
G02*
X114310000Y-110750000I250000J0D01*
G01*
X115510000Y-110750000D01*
G75*
G02*
X115760000Y-111000000I0J-250000D01*
G01*
X115760000Y-112500000D01*
G75*
G02*
X115510000Y-112750000I-250000J0D01*
G01*
X114310000Y-112750000D01*
G75*
G02*
X114060000Y-112500000I0J250000D01*
G01*
G37*
%TD.AperFunction*%
D10*
%TO.P,J5,2*%
%TO.N,GND*%
X117410000Y-111750000D03*
%TD*%
%TO.P,J7,1*%
%TO.N,/3V3*%
%TA.AperFunction,ComponentPad*%
G36*
G01*
X166305000Y-112300000D02*
X164855000Y-112300000D01*
G75*
G02*
X164605000Y-112050000I0J250000D01*
G01*
X164605000Y-110850000D01*
G75*
G02*
X164855000Y-110600000I250000J0D01*
G01*
X166305000Y-110600000D01*
G75*
G02*
X166555000Y-110850000I0J-250000D01*
G01*
X166555000Y-112050000D01*
G75*
G02*
X166305000Y-112300000I-250000J0D01*
G01*
G37*
%TD.AperFunction*%
D12*
%TO.P,J7,2*%
%TO.N,GND*%
X165580000Y-108950000D03*
%TO.P,J7,3*%
%TO.N,/SDA*%
X165580000Y-106450000D03*
%TO.P,J7,4*%
%TO.N,/SCL*%
X165580000Y-103950000D03*
%TD*%
D10*
%TO.P,J8,2*%
%TO.N,/RT*%
X142710000Y-73780000D03*
%TO.P,J8,1*%
%TO.N,/3V3*%
%TA.AperFunction,ComponentPad*%
G36*
G01*
X146060000Y-73030000D02*
X146060000Y-74530000D01*
G75*
G02*
X145810000Y-74780000I-250000J0D01*
G01*
X144610000Y-74780000D01*
G75*
G02*
X144360000Y-74530000I0J250000D01*
G01*
X144360000Y-73030000D01*
G75*
G02*
X144610000Y-72780000I250000J0D01*
G01*
X145810000Y-72780000D01*
G75*
G02*
X146060000Y-73030000I0J-250000D01*
G01*
G37*
%TD.AperFunction*%
%TD*%
%TO.P,J9,1*%
%TO.N,/3V3*%
%TA.AperFunction,ComponentPad*%
G36*
G01*
X155060000Y-73030000D02*
X155060000Y-74530000D01*
G75*
G02*
X154810000Y-74780000I-250000J0D01*
G01*
X153610000Y-74780000D01*
G75*
G02*
X153360000Y-74530000I0J250000D01*
G01*
X153360000Y-73030000D01*
G75*
G02*
X153610000Y-72780000I250000J0D01*
G01*
X154810000Y-72780000D01*
G75*
G02*
X155060000Y-73030000I0J-250000D01*
G01*
G37*
%TD.AperFunction*%
%TO.P,J9,2*%
%TO.N,/OT*%
X151710000Y-73780000D03*
%TD*%
%TO.P,J10,1*%
%TO.N,/3V3*%
%TA.AperFunction,ComponentPad*%
G36*
G01*
X125270000Y-112475000D02*
X125270000Y-111025000D01*
G75*
G02*
X125520000Y-110775000I250000J0D01*
G01*
X126720000Y-110775000D01*
G75*
G02*
X126970000Y-111025000I0J-250000D01*
G01*
X126970000Y-112475000D01*
G75*
G02*
X126720000Y-112725000I-250000J0D01*
G01*
X125520000Y-112725000D01*
G75*
G02*
X125270000Y-112475000I0J250000D01*
G01*
G37*
%TD.AperFunction*%
D11*
%TO.P,J10,2*%
%TO.N,GND*%
X128620000Y-111750000D03*
%TO.P,J10,3*%
%TO.N,/M_INA*%
X131120000Y-111750000D03*
%TO.P,J10,4*%
%TO.N,GND*%
X133620000Y-111750000D03*
%TO.P,J10,5*%
%TO.N,/M_PWM*%
X136120000Y-111750000D03*
%TD*%
D10*
%TO.P,J11,2*%
%TO.N,GND*%
X145620000Y-111750000D03*
%TO.P,J11,1*%
%TO.N,/GP_SIG*%
%TA.AperFunction,ComponentPad*%
G36*
G01*
X142270000Y-112500000D02*
X142270000Y-111000000D01*
G75*
G02*
X142520000Y-110750000I250000J0D01*
G01*
X143720000Y-110750000D01*
G75*
G02*
X143970000Y-111000000I0J-250000D01*
G01*
X143970000Y-112500000D01*
G75*
G02*
X143720000Y-112750000I-250000J0D01*
G01*
X142520000Y-112750000D01*
G75*
G02*
X142270000Y-112500000I0J250000D01*
G01*
G37*
%TD.AperFunction*%
%TD*%
%TO.P,J12,1*%
%TO.N,/OP_SIG*%
%TA.AperFunction,ComponentPad*%
G36*
G01*
X152270000Y-112500000D02*
X152270000Y-111000000D01*
G75*
G02*
X152520000Y-110750000I250000J0D01*
G01*
X153720000Y-110750000D01*
G75*
G02*
X153970000Y-111000000I0J-250000D01*
G01*
X153970000Y-112500000D01*
G75*
G02*
X153720000Y-112750000I-250000J0D01*
G01*
X152520000Y-112750000D01*
G75*
G02*
X152270000Y-112500000I0J250000D01*
G01*
G37*
%TD.AperFunction*%
%TO.P,J12,2*%
%TO.N,GND*%
X155620000Y-111750000D03*
%TD*%
D13*
%TO.P,C1,1*%
%TO.N,/EN*%
X164730000Y-73970000D03*
D14*
%TO.P,C1,2*%
%TO.N,GND*%
X167230000Y-73970000D03*
%TD*%
D15*
%TO.P,J2,1*%
%TO.N,/5V*%
X121070000Y-79910000D03*
D16*
%TO.P,J2,2*%
%TO.N,GND*%
X123610000Y-79910000D03*
%TO.P,J2,3*%
%TO.N,/BTN0*%
X126150000Y-79910000D03*
%TO.P,J2,4*%
%TO.N,/BTN1*%
X128690000Y-79910000D03*
%TO.P,J2,5*%
%TO.N,/BTN2*%
X131230000Y-79910000D03*
%TO.P,J2,6*%
%TO.N,/GPIO_IN_2*%
X133770000Y-79910000D03*
%TO.P,J2,7*%
%TO.N,/GPIO_IN_1*%
X136310000Y-79910000D03*
%TO.P,J2,8*%
%TO.N,/M_RUN*%
X138850000Y-79910000D03*
%TO.P,J2,9*%
%TO.N,/ADC_RSV*%
X141390000Y-79910000D03*
%TO.P,J2,10*%
%TO.N,/VPWR*%
X143930000Y-79910000D03*
%TO.P,J2,11*%
%TO.N,/RT*%
X146470000Y-79910000D03*
%TO.P,J2,12*%
%TO.N,/OT*%
X149010000Y-79910000D03*
%TO.P,J2,13*%
%TO.N,Net-(J2-Pad13)*%
X151550000Y-79910000D03*
%TO.P,J2,14*%
%TO.N,Net-(J2-Pad14)*%
X154090000Y-79910000D03*
%TO.P,J2,15*%
%TO.N,/EN*%
X156630000Y-79910000D03*
%TD*%
%TO.P,J6,15*%
%TO.N,Net-(J6-Pad15)*%
X156630000Y-105310000D03*
%TO.P,J6,14*%
%TO.N,/SCL*%
X154090000Y-105310000D03*
%TO.P,J6,13*%
%TO.N,Net-(J6-Pad13)*%
X151550000Y-105310000D03*
%TO.P,J6,12*%
%TO.N,Net-(J6-Pad12)*%
X149010000Y-105310000D03*
%TO.P,J6,11*%
%TO.N,/SDA*%
X146470000Y-105310000D03*
%TO.P,J6,10*%
%TO.N,/M_INA*%
X143930000Y-105310000D03*
%TO.P,J6,9*%
%TO.N,/OP_SIG*%
X141390000Y-105310000D03*
%TO.P,J6,8*%
%TO.N,/GP_SIG*%
X138850000Y-105310000D03*
%TO.P,J6,7*%
%TO.N,Net-(J6-Pad7)*%
X136310000Y-105310000D03*
%TO.P,J6,6*%
%TO.N,/PWM_RSV1*%
X133770000Y-105310000D03*
%TO.P,J6,5*%
%TO.N,/BTN3*%
X131230000Y-105310000D03*
%TO.P,J6,4*%
%TO.N,Net-(J6-Pad4)*%
X128690000Y-105310000D03*
%TO.P,J6,3*%
%TO.N,/M_PWM*%
X126150000Y-105310000D03*
%TO.P,J6,2*%
%TO.N,Net-(J6-Pad2)*%
X123610000Y-105310000D03*
D15*
%TO.P,J6,1*%
%TO.N,/3V3*%
X121070000Y-105310000D03*
%TD*%
D17*
%TO.N,GND*%
X124980000Y-98660000D03*
X144100000Y-99250000D03*
X143750000Y-87040000D03*
%TO.N,/BTN2*%
X149370000Y-89970000D03*
%TO.N,/BTN1*%
X149370000Y-91080000D03*
%TO.N,/BTN0*%
X149370000Y-92200000D03*
%TO.N,/VBAT*%
X124820000Y-93640000D03*
%TD*%
D18*
%TO.N,/BTN2*%
X131370000Y-80050000D02*
X131230000Y-79910000D01*
X141290000Y-89970000D02*
X131230000Y-79910000D01*
X149370000Y-89970000D02*
X141290000Y-89970000D01*
%TO.N,/BTN1*%
X139860000Y-91080000D02*
X128690000Y-79910000D01*
X149370000Y-91080000D02*
X139860000Y-91080000D01*
%TO.N,/BTN0*%
X138440000Y-92200000D02*
X126150000Y-79910000D01*
X149370000Y-92200000D02*
X138440000Y-92200000D01*
%TO.N,/BTN3*%
X131230000Y-105310000D02*
X133880000Y-102660000D01*
X133880000Y-102660000D02*
X133880000Y-99280000D01*
X133880000Y-99280000D02*
X135400000Y-97760000D01*
X135400000Y-97760000D02*
X149610000Y-97760000D01*
X160370000Y-87000000D02*
X149610000Y-97760000D01*
X165600000Y-87000000D02*
X160370000Y-87000000D01*
%TO.N,/VBAT*%
X114910000Y-103550000D02*
X124820000Y-93640000D01*
X114910000Y-111750000D02*
X114910000Y-103550000D01*
%TO.N,/M_INA*%
X131120000Y-111750000D02*
X131120000Y-110860000D01*
X131120000Y-110860000D02*
X133750000Y-108230000D01*
X133750000Y-108230000D02*
X143400000Y-108230000D01*
X143930000Y-107700000D02*
X143930000Y-105310000D01*
X143400000Y-108230000D02*
X143930000Y-107700000D01*
%TD*%
D19*
%TO.N,GND*%
X168933000Y-113773000D02*
X111187000Y-113773000D01*
X111187000Y-111000000D01*
X113421928Y-111000000D01*
X113421928Y-112500000D01*
X113438992Y-112673254D01*
X113489528Y-112839850D01*
X113571595Y-112993386D01*
X113682038Y-113127962D01*
X113816614Y-113238405D01*
X113970150Y-113320472D01*
X114136746Y-113371008D01*
X114310000Y-113388072D01*
X115510000Y-113388072D01*
X115683254Y-113371008D01*
X115849850Y-113320472D01*
X116003386Y-113238405D01*
X116137962Y-113127962D01*
X116248405Y-112993386D01*
X116302914Y-112891407D01*
X116303198Y-112891795D01*
X116517954Y-113088664D01*
X116766991Y-113239854D01*
X117040739Y-113339554D01*
X117053110Y-113341476D01*
X117283000Y-113220155D01*
X117283000Y-111877000D01*
X117537000Y-111877000D01*
X117537000Y-113220155D01*
X117766890Y-113341476D01*
X117779261Y-113339554D01*
X118053009Y-113239854D01*
X118302046Y-113088664D01*
X118516802Y-112891795D01*
X118689025Y-112656812D01*
X118812096Y-112392745D01*
X118881285Y-112109742D01*
X118737232Y-111877000D01*
X117537000Y-111877000D01*
X117283000Y-111877000D01*
X117263000Y-111877000D01*
X117263000Y-111623000D01*
X117283000Y-111623000D01*
X117283000Y-110279845D01*
X117537000Y-110279845D01*
X117537000Y-111623000D01*
X118737232Y-111623000D01*
X118881285Y-111390258D01*
X118812096Y-111107255D01*
X118773761Y-111025000D01*
X124631928Y-111025000D01*
X124631928Y-112475000D01*
X124648992Y-112648254D01*
X124699528Y-112814850D01*
X124781595Y-112968386D01*
X124892038Y-113102962D01*
X125026614Y-113213405D01*
X125180150Y-113295472D01*
X125346746Y-113346008D01*
X125520000Y-113363072D01*
X126720000Y-113363072D01*
X126893254Y-113346008D01*
X127059850Y-113295472D01*
X127213386Y-113213405D01*
X127347962Y-113102962D01*
X127458405Y-112968386D01*
X127514714Y-112863039D01*
X127530951Y-112884429D01*
X127748807Y-113077496D01*
X128000142Y-113224352D01*
X128263110Y-113316476D01*
X128493000Y-113195155D01*
X128493000Y-111877000D01*
X128473000Y-111877000D01*
X128473000Y-111623000D01*
X128493000Y-111623000D01*
X128493000Y-110304845D01*
X128263110Y-110183524D01*
X128000142Y-110275648D01*
X127748807Y-110422504D01*
X127530951Y-110615571D01*
X127514714Y-110636961D01*
X127458405Y-110531614D01*
X127347962Y-110397038D01*
X127213386Y-110286595D01*
X127059850Y-110204528D01*
X126893254Y-110153992D01*
X126720000Y-110136928D01*
X125520000Y-110136928D01*
X125346746Y-110153992D01*
X125180150Y-110204528D01*
X125026614Y-110286595D01*
X124892038Y-110397038D01*
X124781595Y-110531614D01*
X124699528Y-110685150D01*
X124648992Y-110851746D01*
X124631928Y-111025000D01*
X118773761Y-111025000D01*
X118689025Y-110843188D01*
X118516802Y-110608205D01*
X118302046Y-110411336D01*
X118053009Y-110260146D01*
X117779261Y-110160446D01*
X117766890Y-110158524D01*
X117537000Y-110279845D01*
X117283000Y-110279845D01*
X117053110Y-110158524D01*
X117040739Y-110160446D01*
X116766991Y-110260146D01*
X116517954Y-110411336D01*
X116303198Y-110608205D01*
X116302914Y-110608593D01*
X116248405Y-110506614D01*
X116137962Y-110372038D01*
X116003386Y-110261595D01*
X115849850Y-110179528D01*
X115683254Y-110128992D01*
X115670000Y-110127687D01*
X115670000Y-104460000D01*
X119581928Y-104460000D01*
X119581928Y-106160000D01*
X119594188Y-106284482D01*
X119630498Y-106404180D01*
X119689463Y-106514494D01*
X119768815Y-106611185D01*
X119865506Y-106690537D01*
X119975820Y-106749502D01*
X120095518Y-106785812D01*
X120220000Y-106798072D01*
X121920000Y-106798072D01*
X122044482Y-106785812D01*
X122164180Y-106749502D01*
X122274494Y-106690537D01*
X122371185Y-106611185D01*
X122450537Y-106514494D01*
X122509502Y-106404180D01*
X122531513Y-106331620D01*
X122663368Y-106463475D01*
X122906589Y-106625990D01*
X123176842Y-106737932D01*
X123463740Y-106795000D01*
X123756260Y-106795000D01*
X124043158Y-106737932D01*
X124313411Y-106625990D01*
X124556632Y-106463475D01*
X124763475Y-106256632D01*
X124880000Y-106082240D01*
X124996525Y-106256632D01*
X125203368Y-106463475D01*
X125446589Y-106625990D01*
X125716842Y-106737932D01*
X126003740Y-106795000D01*
X126296260Y-106795000D01*
X126583158Y-106737932D01*
X126853411Y-106625990D01*
X127096632Y-106463475D01*
X127303475Y-106256632D01*
X127420000Y-106082240D01*
X127536525Y-106256632D01*
X127743368Y-106463475D01*
X127986589Y-106625990D01*
X128256842Y-106737932D01*
X128543740Y-106795000D01*
X128836260Y-106795000D01*
X129123158Y-106737932D01*
X129393411Y-106625990D01*
X129636632Y-106463475D01*
X129843475Y-106256632D01*
X129960000Y-106082240D01*
X130076525Y-106256632D01*
X130283368Y-106463475D01*
X130526589Y-106625990D01*
X130796842Y-106737932D01*
X131083740Y-106795000D01*
X131376260Y-106795000D01*
X131663158Y-106737932D01*
X131933411Y-106625990D01*
X132176632Y-106463475D01*
X132383475Y-106256632D01*
X132500000Y-106082240D01*
X132616525Y-106256632D01*
X132823368Y-106463475D01*
X133066589Y-106625990D01*
X133336842Y-106737932D01*
X133623740Y-106795000D01*
X133916260Y-106795000D01*
X134203158Y-106737932D01*
X134473411Y-106625990D01*
X134716632Y-106463475D01*
X134923475Y-106256632D01*
X135040000Y-106082240D01*
X135156525Y-106256632D01*
X135363368Y-106463475D01*
X135606589Y-106625990D01*
X135876842Y-106737932D01*
X136163740Y-106795000D01*
X136456260Y-106795000D01*
X136743158Y-106737932D01*
X137013411Y-106625990D01*
X137256632Y-106463475D01*
X137463475Y-106256632D01*
X137580000Y-106082240D01*
X137696525Y-106256632D01*
X137903368Y-106463475D01*
X138146589Y-106625990D01*
X138416842Y-106737932D01*
X138703740Y-106795000D01*
X138996260Y-106795000D01*
X139283158Y-106737932D01*
X139553411Y-106625990D01*
X139796632Y-106463475D01*
X140003475Y-106256632D01*
X140120000Y-106082240D01*
X140236525Y-106256632D01*
X140443368Y-106463475D01*
X140686589Y-106625990D01*
X140956842Y-106737932D01*
X141243740Y-106795000D01*
X141536260Y-106795000D01*
X141823158Y-106737932D01*
X142093411Y-106625990D01*
X142336632Y-106463475D01*
X142543475Y-106256632D01*
X142660000Y-106082240D01*
X142776525Y-106256632D01*
X142983368Y-106463475D01*
X143170000Y-106588179D01*
X143170000Y-107385198D01*
X143085199Y-107470000D01*
X133787325Y-107470000D01*
X133750000Y-107466324D01*
X133712675Y-107470000D01*
X133712667Y-107470000D01*
X133601014Y-107480997D01*
X133457753Y-107524454D01*
X133325724Y-107595026D01*
X133209999Y-107689999D01*
X133186201Y-107718997D01*
X130706623Y-110198576D01*
X130548966Y-110246401D01*
X130290986Y-110384294D01*
X130064866Y-110569866D01*
X129879294Y-110795987D01*
X129865538Y-110821722D01*
X129709049Y-110615571D01*
X129491193Y-110422504D01*
X129239858Y-110275648D01*
X128976890Y-110183524D01*
X128747000Y-110304845D01*
X128747000Y-111623000D01*
X128767000Y-111623000D01*
X128767000Y-111877000D01*
X128747000Y-111877000D01*
X128747000Y-113195155D01*
X128976890Y-113316476D01*
X129239858Y-113224352D01*
X129491193Y-113077496D01*
X129709049Y-112884429D01*
X129865538Y-112678278D01*
X129879294Y-112704014D01*
X130064866Y-112930134D01*
X130290987Y-113115706D01*
X130548967Y-113253599D01*
X130828890Y-113338513D01*
X131120000Y-113367185D01*
X131411111Y-113338513D01*
X131691034Y-113253599D01*
X131949014Y-113115706D01*
X132175134Y-112930134D01*
X132360706Y-112704014D01*
X132374462Y-112678278D01*
X132530951Y-112884429D01*
X132748807Y-113077496D01*
X133000142Y-113224352D01*
X133263110Y-113316476D01*
X133493000Y-113195155D01*
X133493000Y-111877000D01*
X133473000Y-111877000D01*
X133473000Y-111623000D01*
X133493000Y-111623000D01*
X133493000Y-110304845D01*
X133747000Y-110304845D01*
X133747000Y-111623000D01*
X133767000Y-111623000D01*
X133767000Y-111877000D01*
X133747000Y-111877000D01*
X133747000Y-113195155D01*
X133976890Y-113316476D01*
X134239858Y-113224352D01*
X134491193Y-113077496D01*
X134709049Y-112884429D01*
X134865538Y-112678278D01*
X134879294Y-112704014D01*
X135064866Y-112930134D01*
X135290987Y-113115706D01*
X135548967Y-113253599D01*
X135828890Y-113338513D01*
X136120000Y-113367185D01*
X136411111Y-113338513D01*
X136691034Y-113253599D01*
X136949014Y-113115706D01*
X137175134Y-112930134D01*
X137360706Y-112704014D01*
X137498599Y-112446033D01*
X137583513Y-112166110D01*
X137605000Y-111947949D01*
X137605000Y-111552050D01*
X137583513Y-111333889D01*
X137498599Y-111053966D01*
X137469754Y-111000000D01*
X141631928Y-111000000D01*
X141631928Y-112500000D01*
X141648992Y-112673254D01*
X141699528Y-112839850D01*
X141781595Y-112993386D01*
X141892038Y-113127962D01*
X142026614Y-113238405D01*
X142180150Y-113320472D01*
X142346746Y-113371008D01*
X142520000Y-113388072D01*
X143720000Y-113388072D01*
X143893254Y-113371008D01*
X144059850Y-113320472D01*
X144213386Y-113238405D01*
X144347962Y-113127962D01*
X144458405Y-112993386D01*
X144512914Y-112891407D01*
X144513198Y-112891795D01*
X144727954Y-113088664D01*
X144976991Y-113239854D01*
X145250739Y-113339554D01*
X145263110Y-113341476D01*
X145493000Y-113220155D01*
X145493000Y-111877000D01*
X145747000Y-111877000D01*
X145747000Y-113220155D01*
X145976890Y-113341476D01*
X145989261Y-113339554D01*
X146263009Y-113239854D01*
X146512046Y-113088664D01*
X146726802Y-112891795D01*
X146899025Y-112656812D01*
X147022096Y-112392745D01*
X147091285Y-112109742D01*
X146947232Y-111877000D01*
X145747000Y-111877000D01*
X145493000Y-111877000D01*
X145473000Y-111877000D01*
X145473000Y-111623000D01*
X145493000Y-111623000D01*
X145493000Y-110279845D01*
X145747000Y-110279845D01*
X145747000Y-111623000D01*
X146947232Y-111623000D01*
X147091285Y-111390258D01*
X147022096Y-111107255D01*
X146972109Y-111000000D01*
X151631928Y-111000000D01*
X151631928Y-112500000D01*
X151648992Y-112673254D01*
X151699528Y-112839850D01*
X151781595Y-112993386D01*
X151892038Y-113127962D01*
X152026614Y-113238405D01*
X152180150Y-113320472D01*
X152346746Y-113371008D01*
X152520000Y-113388072D01*
X153720000Y-113388072D01*
X153893254Y-113371008D01*
X154059850Y-113320472D01*
X154213386Y-113238405D01*
X154347962Y-113127962D01*
X154458405Y-112993386D01*
X154512914Y-112891407D01*
X154513198Y-112891795D01*
X154727954Y-113088664D01*
X154976991Y-113239854D01*
X155250739Y-113339554D01*
X155263110Y-113341476D01*
X155493000Y-113220155D01*
X155493000Y-111877000D01*
X155747000Y-111877000D01*
X155747000Y-113220155D01*
X155976890Y-113341476D01*
X155989261Y-113339554D01*
X156263009Y-113239854D01*
X156512046Y-113088664D01*
X156726802Y-112891795D01*
X156899025Y-112656812D01*
X157022096Y-112392745D01*
X157091285Y-112109742D01*
X156947232Y-111877000D01*
X155747000Y-111877000D01*
X155493000Y-111877000D01*
X155473000Y-111877000D01*
X155473000Y-111623000D01*
X155493000Y-111623000D01*
X155493000Y-110279845D01*
X155747000Y-110279845D01*
X155747000Y-111623000D01*
X156947232Y-111623000D01*
X157091285Y-111390258D01*
X157022096Y-111107255D01*
X156902200Y-110850000D01*
X163966928Y-110850000D01*
X163966928Y-112050000D01*
X163983992Y-112223254D01*
X164034528Y-112389850D01*
X164116595Y-112543386D01*
X164227038Y-112677962D01*
X164361614Y-112788405D01*
X164515150Y-112870472D01*
X164681746Y-112921008D01*
X164855000Y-112938072D01*
X166305000Y-112938072D01*
X166478254Y-112921008D01*
X166644850Y-112870472D01*
X166798386Y-112788405D01*
X166932962Y-112677962D01*
X167043405Y-112543386D01*
X167125472Y-112389850D01*
X167176008Y-112223254D01*
X167193072Y-112050000D01*
X167193072Y-110850000D01*
X167176008Y-110676746D01*
X167125472Y-110510150D01*
X167043405Y-110356614D01*
X166932962Y-110222038D01*
X166798386Y-110111595D01*
X166693039Y-110055286D01*
X166714429Y-110039049D01*
X166907496Y-109821193D01*
X167054352Y-109569858D01*
X167146476Y-109306890D01*
X167025155Y-109077000D01*
X165707000Y-109077000D01*
X165707000Y-109097000D01*
X165453000Y-109097000D01*
X165453000Y-109077000D01*
X164134845Y-109077000D01*
X164013524Y-109306890D01*
X164105648Y-109569858D01*
X164252504Y-109821193D01*
X164445571Y-110039049D01*
X164466961Y-110055286D01*
X164361614Y-110111595D01*
X164227038Y-110222038D01*
X164116595Y-110356614D01*
X164034528Y-110510150D01*
X163983992Y-110676746D01*
X163966928Y-110850000D01*
X156902200Y-110850000D01*
X156899025Y-110843188D01*
X156726802Y-110608205D01*
X156512046Y-110411336D01*
X156263009Y-110260146D01*
X155989261Y-110160446D01*
X155976890Y-110158524D01*
X155747000Y-110279845D01*
X155493000Y-110279845D01*
X155263110Y-110158524D01*
X155250739Y-110160446D01*
X154976991Y-110260146D01*
X154727954Y-110411336D01*
X154513198Y-110608205D01*
X154512914Y-110608593D01*
X154458405Y-110506614D01*
X154347962Y-110372038D01*
X154213386Y-110261595D01*
X154059850Y-110179528D01*
X153893254Y-110128992D01*
X153720000Y-110111928D01*
X152520000Y-110111928D01*
X152346746Y-110128992D01*
X152180150Y-110179528D01*
X152026614Y-110261595D01*
X151892038Y-110372038D01*
X151781595Y-110506614D01*
X151699528Y-110660150D01*
X151648992Y-110826746D01*
X151631928Y-111000000D01*
X146972109Y-111000000D01*
X146899025Y-110843188D01*
X146726802Y-110608205D01*
X146512046Y-110411336D01*
X146263009Y-110260146D01*
X145989261Y-110160446D01*
X145976890Y-110158524D01*
X145747000Y-110279845D01*
X145493000Y-110279845D01*
X145263110Y-110158524D01*
X145250739Y-110160446D01*
X144976991Y-110260146D01*
X144727954Y-110411336D01*
X144513198Y-110608205D01*
X144512914Y-110608593D01*
X144458405Y-110506614D01*
X144347962Y-110372038D01*
X144213386Y-110261595D01*
X144059850Y-110179528D01*
X143893254Y-110128992D01*
X143720000Y-110111928D01*
X142520000Y-110111928D01*
X142346746Y-110128992D01*
X142180150Y-110179528D01*
X142026614Y-110261595D01*
X141892038Y-110372038D01*
X141781595Y-110506614D01*
X141699528Y-110660150D01*
X141648992Y-110826746D01*
X141631928Y-111000000D01*
X137469754Y-111000000D01*
X137360706Y-110795986D01*
X137175134Y-110569866D01*
X136949013Y-110384294D01*
X136691033Y-110246401D01*
X136411110Y-110161487D01*
X136120000Y-110132815D01*
X135828889Y-110161487D01*
X135548966Y-110246401D01*
X135290986Y-110384294D01*
X135064866Y-110569866D01*
X134879294Y-110795987D01*
X134865538Y-110821722D01*
X134709049Y-110615571D01*
X134491193Y-110422504D01*
X134239858Y-110275648D01*
X133976890Y-110183524D01*
X133747000Y-110304845D01*
X133493000Y-110304845D01*
X133263110Y-110183524D01*
X133000142Y-110275648D01*
X132748807Y-110422504D01*
X132530951Y-110615571D01*
X132374462Y-110821722D01*
X132360706Y-110795986D01*
X132314778Y-110740023D01*
X134064802Y-108990000D01*
X143362678Y-108990000D01*
X143400000Y-108993676D01*
X143437322Y-108990000D01*
X143437333Y-108990000D01*
X143548986Y-108979003D01*
X143692247Y-108935546D01*
X143824276Y-108864974D01*
X143940001Y-108770001D01*
X143963803Y-108740998D01*
X144441003Y-108263798D01*
X144470001Y-108240001D01*
X144564974Y-108124276D01*
X144635546Y-107992247D01*
X144679003Y-107848986D01*
X144690000Y-107737333D01*
X144690000Y-107737324D01*
X144693676Y-107700001D01*
X144690000Y-107662678D01*
X144690000Y-106588178D01*
X144876632Y-106463475D01*
X145083475Y-106256632D01*
X145200000Y-106082240D01*
X145316525Y-106256632D01*
X145523368Y-106463475D01*
X145766589Y-106625990D01*
X146036842Y-106737932D01*
X146323740Y-106795000D01*
X146616260Y-106795000D01*
X146903158Y-106737932D01*
X147173411Y-106625990D01*
X147416632Y-106463475D01*
X147623475Y-106256632D01*
X147740000Y-106082240D01*
X147856525Y-106256632D01*
X148063368Y-106463475D01*
X148306589Y-106625990D01*
X148576842Y-106737932D01*
X148863740Y-106795000D01*
X149156260Y-106795000D01*
X149443158Y-106737932D01*
X149713411Y-106625990D01*
X149956632Y-106463475D01*
X150163475Y-106256632D01*
X150280000Y-106082240D01*
X150396525Y-106256632D01*
X150603368Y-106463475D01*
X150846589Y-106625990D01*
X151116842Y-106737932D01*
X151403740Y-106795000D01*
X151696260Y-106795000D01*
X151983158Y-106737932D01*
X152253411Y-106625990D01*
X152496632Y-106463475D01*
X152703475Y-106256632D01*
X152820000Y-106082240D01*
X152936525Y-106256632D01*
X153143368Y-106463475D01*
X153386589Y-106625990D01*
X153656842Y-106737932D01*
X153943740Y-106795000D01*
X154236260Y-106795000D01*
X154523158Y-106737932D01*
X154793411Y-106625990D01*
X155036632Y-106463475D01*
X155243475Y-106256632D01*
X155360000Y-106082240D01*
X155476525Y-106256632D01*
X155683368Y-106463475D01*
X155926589Y-106625990D01*
X156196842Y-106737932D01*
X156483740Y-106795000D01*
X156776260Y-106795000D01*
X157063158Y-106737932D01*
X157333411Y-106625990D01*
X157576632Y-106463475D01*
X157783475Y-106256632D01*
X157945990Y-106013411D01*
X158057932Y-105743158D01*
X158115000Y-105456260D01*
X158115000Y-105163740D01*
X158057932Y-104876842D01*
X157945990Y-104606589D01*
X157783475Y-104363368D01*
X157576632Y-104156525D01*
X157333411Y-103994010D01*
X157227162Y-103950000D01*
X163962815Y-103950000D01*
X163991487Y-104241111D01*
X164076401Y-104521034D01*
X164214294Y-104779014D01*
X164399866Y-105005134D01*
X164625986Y-105190706D01*
X164643374Y-105200000D01*
X164625986Y-105209294D01*
X164399866Y-105394866D01*
X164214294Y-105620986D01*
X164076401Y-105878966D01*
X163991487Y-106158889D01*
X163962815Y-106450000D01*
X163991487Y-106741111D01*
X164076401Y-107021034D01*
X164214294Y-107279014D01*
X164399866Y-107505134D01*
X164625986Y-107690706D01*
X164651722Y-107704462D01*
X164445571Y-107860951D01*
X164252504Y-108078807D01*
X164105648Y-108330142D01*
X164013524Y-108593110D01*
X164134845Y-108823000D01*
X165453000Y-108823000D01*
X165453000Y-108803000D01*
X165707000Y-108803000D01*
X165707000Y-108823000D01*
X167025155Y-108823000D01*
X167146476Y-108593110D01*
X167054352Y-108330142D01*
X166907496Y-108078807D01*
X166714429Y-107860951D01*
X166508278Y-107704462D01*
X166534014Y-107690706D01*
X166760134Y-107505134D01*
X166945706Y-107279014D01*
X167083599Y-107021034D01*
X167168513Y-106741111D01*
X167197185Y-106450000D01*
X167168513Y-106158889D01*
X167083599Y-105878966D01*
X166945706Y-105620986D01*
X166760134Y-105394866D01*
X166534014Y-105209294D01*
X166516626Y-105200000D01*
X166534014Y-105190706D01*
X166760134Y-105005134D01*
X166945706Y-104779014D01*
X167083599Y-104521034D01*
X167168513Y-104241111D01*
X167197185Y-103950000D01*
X167168513Y-103658889D01*
X167083599Y-103378966D01*
X166945706Y-103120986D01*
X166760134Y-102894866D01*
X166534014Y-102709294D01*
X166276034Y-102571401D01*
X165996111Y-102486487D01*
X165777950Y-102465000D01*
X165382050Y-102465000D01*
X165163889Y-102486487D01*
X164883966Y-102571401D01*
X164625986Y-102709294D01*
X164399866Y-102894866D01*
X164214294Y-103120986D01*
X164076401Y-103378966D01*
X163991487Y-103658889D01*
X163962815Y-103950000D01*
X157227162Y-103950000D01*
X157063158Y-103882068D01*
X156776260Y-103825000D01*
X156483740Y-103825000D01*
X156196842Y-103882068D01*
X155926589Y-103994010D01*
X155683368Y-104156525D01*
X155476525Y-104363368D01*
X155360000Y-104537760D01*
X155243475Y-104363368D01*
X155036632Y-104156525D01*
X154793411Y-103994010D01*
X154523158Y-103882068D01*
X154236260Y-103825000D01*
X153943740Y-103825000D01*
X153656842Y-103882068D01*
X153386589Y-103994010D01*
X153143368Y-104156525D01*
X152936525Y-104363368D01*
X152820000Y-104537760D01*
X152703475Y-104363368D01*
X152496632Y-104156525D01*
X152253411Y-103994010D01*
X151983158Y-103882068D01*
X151696260Y-103825000D01*
X151403740Y-103825000D01*
X151116842Y-103882068D01*
X150846589Y-103994010D01*
X150603368Y-104156525D01*
X150396525Y-104363368D01*
X150280000Y-104537760D01*
X150163475Y-104363368D01*
X149956632Y-104156525D01*
X149713411Y-103994010D01*
X149443158Y-103882068D01*
X149156260Y-103825000D01*
X148863740Y-103825000D01*
X148576842Y-103882068D01*
X148306589Y-103994010D01*
X148063368Y-104156525D01*
X147856525Y-104363368D01*
X147740000Y-104537760D01*
X147623475Y-104363368D01*
X147416632Y-104156525D01*
X147173411Y-103994010D01*
X146903158Y-103882068D01*
X146616260Y-103825000D01*
X146323740Y-103825000D01*
X146036842Y-103882068D01*
X145766589Y-103994010D01*
X145523368Y-104156525D01*
X145316525Y-104363368D01*
X145200000Y-104537760D01*
X145083475Y-104363368D01*
X144876632Y-104156525D01*
X144633411Y-103994010D01*
X144363158Y-103882068D01*
X144076260Y-103825000D01*
X143783740Y-103825000D01*
X143496842Y-103882068D01*
X143226589Y-103994010D01*
X142983368Y-104156525D01*
X142776525Y-104363368D01*
X142660000Y-104537760D01*
X142543475Y-104363368D01*
X142336632Y-104156525D01*
X142093411Y-103994010D01*
X141823158Y-103882068D01*
X141536260Y-103825000D01*
X141243740Y-103825000D01*
X140956842Y-103882068D01*
X140686589Y-103994010D01*
X140443368Y-104156525D01*
X140236525Y-104363368D01*
X140120000Y-104537760D01*
X140003475Y-104363368D01*
X139796632Y-104156525D01*
X139553411Y-103994010D01*
X139283158Y-103882068D01*
X138996260Y-103825000D01*
X138703740Y-103825000D01*
X138416842Y-103882068D01*
X138146589Y-103994010D01*
X137903368Y-104156525D01*
X137696525Y-104363368D01*
X137580000Y-104537760D01*
X137463475Y-104363368D01*
X137256632Y-104156525D01*
X137013411Y-103994010D01*
X136743158Y-103882068D01*
X136456260Y-103825000D01*
X136163740Y-103825000D01*
X135876842Y-103882068D01*
X135606589Y-103994010D01*
X135363368Y-104156525D01*
X135156525Y-104363368D01*
X135040000Y-104537760D01*
X134923475Y-104363368D01*
X134716632Y-104156525D01*
X134473411Y-103994010D01*
X134203158Y-103882068D01*
X133916260Y-103825000D01*
X133789802Y-103825000D01*
X134391004Y-103223798D01*
X134420001Y-103200001D01*
X134484847Y-103120986D01*
X134514974Y-103084277D01*
X134585546Y-102952247D01*
X134585546Y-102952246D01*
X134629003Y-102808986D01*
X134640000Y-102697333D01*
X134640000Y-102697323D01*
X134643676Y-102660000D01*
X134640000Y-102622677D01*
X134640000Y-99594801D01*
X135714802Y-98520000D01*
X149572678Y-98520000D01*
X149610000Y-98523676D01*
X149647322Y-98520000D01*
X149647333Y-98520000D01*
X149758986Y-98509003D01*
X149902247Y-98465546D01*
X150034276Y-98394974D01*
X150150001Y-98300001D01*
X150173804Y-98270997D01*
X150594801Y-97850000D01*
X163986928Y-97850000D01*
X163999188Y-97974482D01*
X164035498Y-98094180D01*
X164094463Y-98204494D01*
X164173815Y-98301185D01*
X164270506Y-98380537D01*
X164380820Y-98439502D01*
X164500518Y-98475812D01*
X164625000Y-98488072D01*
X165314250Y-98485000D01*
X165473000Y-98326250D01*
X165473000Y-97127000D01*
X165727000Y-97127000D01*
X165727000Y-98326250D01*
X165885750Y-98485000D01*
X166575000Y-98488072D01*
X166699482Y-98475812D01*
X166819180Y-98439502D01*
X166929494Y-98380537D01*
X167026185Y-98301185D01*
X167105537Y-98204494D01*
X167164502Y-98094180D01*
X167200812Y-97974482D01*
X167213072Y-97850000D01*
X167210000Y-97285750D01*
X167051250Y-97127000D01*
X165727000Y-97127000D01*
X165473000Y-97127000D01*
X164148750Y-97127000D01*
X163990000Y-97285750D01*
X163986928Y-97850000D01*
X150594801Y-97850000D01*
X160684802Y-87760000D01*
X164197405Y-87760000D01*
X164234294Y-87829014D01*
X164419866Y-88055134D01*
X164645986Y-88240706D01*
X164663374Y-88250000D01*
X164645986Y-88259294D01*
X164419866Y-88444866D01*
X164234294Y-88670986D01*
X164096401Y-88928966D01*
X164011487Y-89208889D01*
X163982815Y-89500000D01*
X164011487Y-89791111D01*
X164096401Y-90071034D01*
X164234294Y-90329014D01*
X164419866Y-90555134D01*
X164645986Y-90740706D01*
X164663374Y-90750000D01*
X164645986Y-90759294D01*
X164419866Y-90944866D01*
X164234294Y-91170986D01*
X164096401Y-91428966D01*
X164011487Y-91708889D01*
X163982815Y-92000000D01*
X164011487Y-92291111D01*
X164096401Y-92571034D01*
X164234294Y-92829014D01*
X164419866Y-93055134D01*
X164645986Y-93240706D01*
X164663374Y-93250000D01*
X164645986Y-93259294D01*
X164419866Y-93444866D01*
X164234294Y-93670986D01*
X164096401Y-93928966D01*
X164011487Y-94208889D01*
X163982815Y-94500000D01*
X164011487Y-94791111D01*
X164096401Y-95071034D01*
X164234294Y-95329014D01*
X164415608Y-95549945D01*
X164380820Y-95560498D01*
X164270506Y-95619463D01*
X164173815Y-95698815D01*
X164094463Y-95795506D01*
X164035498Y-95905820D01*
X163999188Y-96025518D01*
X163986928Y-96150000D01*
X163990000Y-96714250D01*
X164148750Y-96873000D01*
X165473000Y-96873000D01*
X165473000Y-96853000D01*
X165727000Y-96853000D01*
X165727000Y-96873000D01*
X167051250Y-96873000D01*
X167210000Y-96714250D01*
X167213072Y-96150000D01*
X167200812Y-96025518D01*
X167164502Y-95905820D01*
X167105537Y-95795506D01*
X167026185Y-95698815D01*
X166929494Y-95619463D01*
X166819180Y-95560498D01*
X166784392Y-95549945D01*
X166965706Y-95329014D01*
X167103599Y-95071034D01*
X167188513Y-94791111D01*
X167217185Y-94500000D01*
X167188513Y-94208889D01*
X167103599Y-93928966D01*
X166965706Y-93670986D01*
X166780134Y-93444866D01*
X166554014Y-93259294D01*
X166536626Y-93250000D01*
X166554014Y-93240706D01*
X166780134Y-93055134D01*
X166965706Y-92829014D01*
X167103599Y-92571034D01*
X167188513Y-92291111D01*
X167217185Y-92000000D01*
X167188513Y-91708889D01*
X167103599Y-91428966D01*
X166965706Y-91170986D01*
X166780134Y-90944866D01*
X166554014Y-90759294D01*
X166536626Y-90750000D01*
X166554014Y-90740706D01*
X166780134Y-90555134D01*
X166965706Y-90329014D01*
X167103599Y-90071034D01*
X167188513Y-89791111D01*
X167217185Y-89500000D01*
X167188513Y-89208889D01*
X167103599Y-88928966D01*
X166965706Y-88670986D01*
X166780134Y-88444866D01*
X166554014Y-88259294D01*
X166536626Y-88250000D01*
X166554014Y-88240706D01*
X166780134Y-88055134D01*
X166965706Y-87829014D01*
X167103599Y-87571034D01*
X167188513Y-87291111D01*
X167217185Y-87000000D01*
X167188513Y-86708889D01*
X167103599Y-86428966D01*
X166965706Y-86170986D01*
X166780134Y-85944866D01*
X166554014Y-85759294D01*
X166296034Y-85621401D01*
X166016111Y-85536487D01*
X165797950Y-85515000D01*
X165402050Y-85515000D01*
X165183889Y-85536487D01*
X164903966Y-85621401D01*
X164645986Y-85759294D01*
X164419866Y-85944866D01*
X164234294Y-86170986D01*
X164197405Y-86240000D01*
X160407323Y-86240000D01*
X160370000Y-86236324D01*
X160332677Y-86240000D01*
X160332667Y-86240000D01*
X160221014Y-86250997D01*
X160077753Y-86294454D01*
X159945723Y-86365026D01*
X159867813Y-86428966D01*
X159829999Y-86459999D01*
X159806201Y-86488997D01*
X149295199Y-97000000D01*
X135437333Y-97000000D01*
X135400000Y-96996323D01*
X135362667Y-97000000D01*
X135251014Y-97010997D01*
X135107753Y-97054454D01*
X134975724Y-97125026D01*
X134859999Y-97219999D01*
X134836201Y-97248997D01*
X133368998Y-98716201D01*
X133340000Y-98739999D01*
X133316202Y-98768997D01*
X133316201Y-98768998D01*
X133245026Y-98855724D01*
X133174454Y-98987754D01*
X133130998Y-99131015D01*
X133116324Y-99280000D01*
X133120001Y-99317332D01*
X133120000Y-102345198D01*
X131596408Y-103868791D01*
X131376260Y-103825000D01*
X131083740Y-103825000D01*
X130796842Y-103882068D01*
X130526589Y-103994010D01*
X130283368Y-104156525D01*
X130076525Y-104363368D01*
X129960000Y-104537760D01*
X129843475Y-104363368D01*
X129636632Y-104156525D01*
X129393411Y-103994010D01*
X129123158Y-103882068D01*
X128836260Y-103825000D01*
X128543740Y-103825000D01*
X128256842Y-103882068D01*
X127986589Y-103994010D01*
X127743368Y-104156525D01*
X127536525Y-104363368D01*
X127420000Y-104537760D01*
X127303475Y-104363368D01*
X127096632Y-104156525D01*
X126853411Y-103994010D01*
X126583158Y-103882068D01*
X126296260Y-103825000D01*
X126003740Y-103825000D01*
X125716842Y-103882068D01*
X125446589Y-103994010D01*
X125203368Y-104156525D01*
X124996525Y-104363368D01*
X124880000Y-104537760D01*
X124763475Y-104363368D01*
X124556632Y-104156525D01*
X124313411Y-103994010D01*
X124043158Y-103882068D01*
X123756260Y-103825000D01*
X123463740Y-103825000D01*
X123176842Y-103882068D01*
X122906589Y-103994010D01*
X122663368Y-104156525D01*
X122531513Y-104288380D01*
X122509502Y-104215820D01*
X122450537Y-104105506D01*
X122371185Y-104008815D01*
X122274494Y-103929463D01*
X122164180Y-103870498D01*
X122044482Y-103834188D01*
X121920000Y-103821928D01*
X120220000Y-103821928D01*
X120095518Y-103834188D01*
X119975820Y-103870498D01*
X119865506Y-103929463D01*
X119768815Y-104008815D01*
X119689463Y-104105506D01*
X119630498Y-104215820D01*
X119594188Y-104335518D01*
X119581928Y-104460000D01*
X115670000Y-104460000D01*
X115670000Y-103864801D01*
X124859803Y-94675000D01*
X124921939Y-94675000D01*
X125121898Y-94635226D01*
X125310256Y-94557205D01*
X125479774Y-94443937D01*
X125623937Y-94299774D01*
X125737205Y-94130256D01*
X125815226Y-93941898D01*
X125855000Y-93741939D01*
X125855000Y-93538061D01*
X125815226Y-93338102D01*
X125737205Y-93149744D01*
X125623937Y-92980226D01*
X125479774Y-92836063D01*
X125310256Y-92722795D01*
X125121898Y-92644774D01*
X124921939Y-92605000D01*
X124718061Y-92605000D01*
X124518102Y-92644774D01*
X124329744Y-92722795D01*
X124160226Y-92836063D01*
X124016063Y-92980226D01*
X123902795Y-93149744D01*
X123824774Y-93338102D01*
X123785000Y-93538061D01*
X123785000Y-93600197D01*
X114398998Y-102986201D01*
X114370000Y-103009999D01*
X114346202Y-103038997D01*
X114346201Y-103038998D01*
X114275026Y-103125724D01*
X114204454Y-103257754D01*
X114160998Y-103401015D01*
X114146324Y-103550000D01*
X114150001Y-103587332D01*
X114150000Y-110127687D01*
X114136746Y-110128992D01*
X113970150Y-110179528D01*
X113816614Y-110261595D01*
X113682038Y-110372038D01*
X113571595Y-110506614D01*
X113489528Y-110660150D01*
X113438992Y-110826746D01*
X113421928Y-111000000D01*
X111187000Y-111000000D01*
X111187000Y-79060000D01*
X119581928Y-79060000D01*
X119581928Y-80760000D01*
X119594188Y-80884482D01*
X119630498Y-81004180D01*
X119689463Y-81114494D01*
X119768815Y-81211185D01*
X119865506Y-81290537D01*
X119975820Y-81349502D01*
X120095518Y-81385812D01*
X120220000Y-81398072D01*
X121920000Y-81398072D01*
X122044482Y-81385812D01*
X122164180Y-81349502D01*
X122274494Y-81290537D01*
X122371185Y-81211185D01*
X122450537Y-81114494D01*
X122509502Y-81004180D01*
X122533966Y-80923534D01*
X122609731Y-81007588D01*
X122843080Y-81181641D01*
X123105901Y-81306825D01*
X123253110Y-81351476D01*
X123483000Y-81230155D01*
X123483000Y-80037000D01*
X123463000Y-80037000D01*
X123463000Y-79783000D01*
X123483000Y-79783000D01*
X123483000Y-78589845D01*
X123737000Y-78589845D01*
X123737000Y-79783000D01*
X123757000Y-79783000D01*
X123757000Y-80037000D01*
X123737000Y-80037000D01*
X123737000Y-81230155D01*
X123966890Y-81351476D01*
X124114099Y-81306825D01*
X124376920Y-81181641D01*
X124610269Y-81007588D01*
X124805178Y-80791355D01*
X124874805Y-80674466D01*
X124996525Y-80856632D01*
X125203368Y-81063475D01*
X125446589Y-81225990D01*
X125716842Y-81337932D01*
X126003740Y-81395000D01*
X126296260Y-81395000D01*
X126516408Y-81351209D01*
X137876201Y-92711003D01*
X137899999Y-92740001D01*
X138015724Y-92834974D01*
X138147753Y-92905546D01*
X138291014Y-92949003D01*
X138402667Y-92960000D01*
X138402675Y-92960000D01*
X138440000Y-92963676D01*
X138477325Y-92960000D01*
X148666289Y-92960000D01*
X148710226Y-93003937D01*
X148879744Y-93117205D01*
X149068102Y-93195226D01*
X149268061Y-93235000D01*
X149471939Y-93235000D01*
X149671898Y-93195226D01*
X149860256Y-93117205D01*
X150029774Y-93003937D01*
X150173937Y-92859774D01*
X150287205Y-92690256D01*
X150365226Y-92501898D01*
X150405000Y-92301939D01*
X150405000Y-92098061D01*
X150365226Y-91898102D01*
X150287205Y-91709744D01*
X150240604Y-91640000D01*
X150287205Y-91570256D01*
X150365226Y-91381898D01*
X150405000Y-91181939D01*
X150405000Y-90978061D01*
X150365226Y-90778102D01*
X150287205Y-90589744D01*
X150243945Y-90525000D01*
X150287205Y-90460256D01*
X150365226Y-90271898D01*
X150405000Y-90071939D01*
X150405000Y-89868061D01*
X150365226Y-89668102D01*
X150287205Y-89479744D01*
X150173937Y-89310226D01*
X150029774Y-89166063D01*
X149860256Y-89052795D01*
X149671898Y-88974774D01*
X149471939Y-88935000D01*
X149268061Y-88935000D01*
X149068102Y-88974774D01*
X148879744Y-89052795D01*
X148710226Y-89166063D01*
X148666289Y-89210000D01*
X141604803Y-89210000D01*
X133789801Y-81395000D01*
X133916260Y-81395000D01*
X134203158Y-81337932D01*
X134473411Y-81225990D01*
X134716632Y-81063475D01*
X134923475Y-80856632D01*
X135040000Y-80682240D01*
X135156525Y-80856632D01*
X135363368Y-81063475D01*
X135606589Y-81225990D01*
X135876842Y-81337932D01*
X136163740Y-81395000D01*
X136456260Y-81395000D01*
X136743158Y-81337932D01*
X137013411Y-81225990D01*
X137256632Y-81063475D01*
X137463475Y-80856632D01*
X137580000Y-80682240D01*
X137696525Y-80856632D01*
X137903368Y-81063475D01*
X138146589Y-81225990D01*
X138416842Y-81337932D01*
X138703740Y-81395000D01*
X138996260Y-81395000D01*
X139283158Y-81337932D01*
X139553411Y-81225990D01*
X139796632Y-81063475D01*
X140003475Y-80856632D01*
X140120000Y-80682240D01*
X140236525Y-80856632D01*
X140443368Y-81063475D01*
X140686589Y-81225990D01*
X140956842Y-81337932D01*
X141243740Y-81395000D01*
X141536260Y-81395000D01*
X141823158Y-81337932D01*
X142093411Y-81225990D01*
X142336632Y-81063475D01*
X142543475Y-80856632D01*
X142660000Y-80682240D01*
X142776525Y-80856632D01*
X142983368Y-81063475D01*
X143226589Y-81225990D01*
X143496842Y-81337932D01*
X143783740Y-81395000D01*
X144076260Y-81395000D01*
X144363158Y-81337932D01*
X144633411Y-81225990D01*
X144876632Y-81063475D01*
X145083475Y-80856632D01*
X145200000Y-80682240D01*
X145316525Y-80856632D01*
X145523368Y-81063475D01*
X145766589Y-81225990D01*
X146036842Y-81337932D01*
X146323740Y-81395000D01*
X146616260Y-81395000D01*
X146903158Y-81337932D01*
X147173411Y-81225990D01*
X147416632Y-81063475D01*
X147623475Y-80856632D01*
X147740000Y-80682240D01*
X147856525Y-80856632D01*
X148063368Y-81063475D01*
X148306589Y-81225990D01*
X148576842Y-81337932D01*
X148863740Y-81395000D01*
X149156260Y-81395000D01*
X149443158Y-81337932D01*
X149713411Y-81225990D01*
X149956632Y-81063475D01*
X150163475Y-80856632D01*
X150280000Y-80682240D01*
X150396525Y-80856632D01*
X150603368Y-81063475D01*
X150846589Y-81225990D01*
X151116842Y-81337932D01*
X151403740Y-81395000D01*
X151696260Y-81395000D01*
X151983158Y-81337932D01*
X152253411Y-81225990D01*
X152496632Y-81063475D01*
X152703475Y-80856632D01*
X152820000Y-80682240D01*
X152936525Y-80856632D01*
X153143368Y-81063475D01*
X153386589Y-81225990D01*
X153656842Y-81337932D01*
X153943740Y-81395000D01*
X154236260Y-81395000D01*
X154523158Y-81337932D01*
X154793411Y-81225990D01*
X155036632Y-81063475D01*
X155243475Y-80856632D01*
X155360000Y-80682240D01*
X155476525Y-80856632D01*
X155683368Y-81063475D01*
X155926589Y-81225990D01*
X156196842Y-81337932D01*
X156483740Y-81395000D01*
X156776260Y-81395000D01*
X157063158Y-81337932D01*
X157333411Y-81225990D01*
X157576632Y-81063475D01*
X157783475Y-80856632D01*
X157945990Y-80613411D01*
X158057932Y-80343158D01*
X158115000Y-80056260D01*
X158115000Y-79763740D01*
X158057932Y-79476842D01*
X157945990Y-79206589D01*
X157783475Y-78963368D01*
X157576632Y-78756525D01*
X157333411Y-78594010D01*
X157063158Y-78482068D01*
X156776260Y-78425000D01*
X156483740Y-78425000D01*
X156196842Y-78482068D01*
X155926589Y-78594010D01*
X155683368Y-78756525D01*
X155476525Y-78963368D01*
X155360000Y-79137760D01*
X155243475Y-78963368D01*
X155036632Y-78756525D01*
X154793411Y-78594010D01*
X154523158Y-78482068D01*
X154236260Y-78425000D01*
X153943740Y-78425000D01*
X153656842Y-78482068D01*
X153386589Y-78594010D01*
X153143368Y-78756525D01*
X152936525Y-78963368D01*
X152820000Y-79137760D01*
X152703475Y-78963368D01*
X152496632Y-78756525D01*
X152253411Y-78594010D01*
X151983158Y-78482068D01*
X151696260Y-78425000D01*
X151403740Y-78425000D01*
X151116842Y-78482068D01*
X150846589Y-78594010D01*
X150603368Y-78756525D01*
X150396525Y-78963368D01*
X150280000Y-79137760D01*
X150163475Y-78963368D01*
X149956632Y-78756525D01*
X149713411Y-78594010D01*
X149443158Y-78482068D01*
X149156260Y-78425000D01*
X148863740Y-78425000D01*
X148576842Y-78482068D01*
X148306589Y-78594010D01*
X148063368Y-78756525D01*
X147856525Y-78963368D01*
X147740000Y-79137760D01*
X147623475Y-78963368D01*
X147416632Y-78756525D01*
X147173411Y-78594010D01*
X146903158Y-78482068D01*
X146616260Y-78425000D01*
X146323740Y-78425000D01*
X146036842Y-78482068D01*
X145766589Y-78594010D01*
X145523368Y-78756525D01*
X145316525Y-78963368D01*
X145200000Y-79137760D01*
X145083475Y-78963368D01*
X144876632Y-78756525D01*
X144633411Y-78594010D01*
X144363158Y-78482068D01*
X144076260Y-78425000D01*
X143783740Y-78425000D01*
X143496842Y-78482068D01*
X143226589Y-78594010D01*
X142983368Y-78756525D01*
X142776525Y-78963368D01*
X142660000Y-79137760D01*
X142543475Y-78963368D01*
X142336632Y-78756525D01*
X142093411Y-78594010D01*
X141823158Y-78482068D01*
X141536260Y-78425000D01*
X141243740Y-78425000D01*
X140956842Y-78482068D01*
X140686589Y-78594010D01*
X140443368Y-78756525D01*
X140236525Y-78963368D01*
X140120000Y-79137760D01*
X140003475Y-78963368D01*
X139796632Y-78756525D01*
X139553411Y-78594010D01*
X139283158Y-78482068D01*
X138996260Y-78425000D01*
X138703740Y-78425000D01*
X138416842Y-78482068D01*
X138146589Y-78594010D01*
X137903368Y-78756525D01*
X137696525Y-78963368D01*
X137580000Y-79137760D01*
X137463475Y-78963368D01*
X137256632Y-78756525D01*
X137013411Y-78594010D01*
X136743158Y-78482068D01*
X136456260Y-78425000D01*
X136163740Y-78425000D01*
X135876842Y-78482068D01*
X135606589Y-78594010D01*
X135363368Y-78756525D01*
X135156525Y-78963368D01*
X135040000Y-79137760D01*
X134923475Y-78963368D01*
X134716632Y-78756525D01*
X134473411Y-78594010D01*
X134203158Y-78482068D01*
X133916260Y-78425000D01*
X133623740Y-78425000D01*
X133336842Y-78482068D01*
X133066589Y-78594010D01*
X132823368Y-78756525D01*
X132616525Y-78963368D01*
X132500000Y-79137760D01*
X132383475Y-78963368D01*
X132176632Y-78756525D01*
X131933411Y-78594010D01*
X131663158Y-78482068D01*
X131376260Y-78425000D01*
X131083740Y-78425000D01*
X130796842Y-78482068D01*
X130526589Y-78594010D01*
X130283368Y-78756525D01*
X130076525Y-78963368D01*
X129960000Y-79137760D01*
X129843475Y-78963368D01*
X129636632Y-78756525D01*
X129393411Y-78594010D01*
X129123158Y-78482068D01*
X128836260Y-78425000D01*
X128543740Y-78425000D01*
X128256842Y-78482068D01*
X127986589Y-78594010D01*
X127743368Y-78756525D01*
X127536525Y-78963368D01*
X127420000Y-79137760D01*
X127303475Y-78963368D01*
X127096632Y-78756525D01*
X126853411Y-78594010D01*
X126583158Y-78482068D01*
X126296260Y-78425000D01*
X126003740Y-78425000D01*
X125716842Y-78482068D01*
X125446589Y-78594010D01*
X125203368Y-78756525D01*
X124996525Y-78963368D01*
X124874805Y-79145534D01*
X124805178Y-79028645D01*
X124610269Y-78812412D01*
X124376920Y-78638359D01*
X124114099Y-78513175D01*
X123966890Y-78468524D01*
X123737000Y-78589845D01*
X123483000Y-78589845D01*
X123253110Y-78468524D01*
X123105901Y-78513175D01*
X122843080Y-78638359D01*
X122609731Y-78812412D01*
X122533966Y-78896466D01*
X122509502Y-78815820D01*
X122450537Y-78705506D01*
X122371185Y-78608815D01*
X122274494Y-78529463D01*
X122164180Y-78470498D01*
X122044482Y-78434188D01*
X121920000Y-78421928D01*
X120220000Y-78421928D01*
X120095518Y-78434188D01*
X119975820Y-78470498D01*
X119865506Y-78529463D01*
X119768815Y-78608815D01*
X119689463Y-78705506D01*
X119630498Y-78815820D01*
X119594188Y-78935518D01*
X119581928Y-79060000D01*
X111187000Y-79060000D01*
X111187000Y-74139742D01*
X119048715Y-74139742D01*
X119117904Y-74422745D01*
X119240975Y-74686812D01*
X119413198Y-74921795D01*
X119627954Y-75118664D01*
X119876991Y-75269854D01*
X120150739Y-75369554D01*
X120163110Y-75371476D01*
X120393000Y-75250155D01*
X120393000Y-73907000D01*
X119192768Y-73907000D01*
X119048715Y-74139742D01*
X111187000Y-74139742D01*
X111187000Y-73420258D01*
X119048715Y-73420258D01*
X119192768Y-73653000D01*
X120393000Y-73653000D01*
X120393000Y-72309845D01*
X120647000Y-72309845D01*
X120647000Y-73653000D01*
X120667000Y-73653000D01*
X120667000Y-73907000D01*
X120647000Y-73907000D01*
X120647000Y-75250155D01*
X120876890Y-75371476D01*
X120889261Y-75369554D01*
X121163009Y-75269854D01*
X121412046Y-75118664D01*
X121626802Y-74921795D01*
X121627086Y-74921407D01*
X121681595Y-75023386D01*
X121792038Y-75157962D01*
X121926614Y-75268405D01*
X122080150Y-75350472D01*
X122246746Y-75401008D01*
X122420000Y-75418072D01*
X123620000Y-75418072D01*
X123793254Y-75401008D01*
X123959850Y-75350472D01*
X124113386Y-75268405D01*
X124247962Y-75157962D01*
X124358405Y-75023386D01*
X124440472Y-74869850D01*
X124491008Y-74703254D01*
X124508072Y-74530000D01*
X124508072Y-73582050D01*
X129725000Y-73582050D01*
X129725000Y-73977949D01*
X129746487Y-74196110D01*
X129831401Y-74476033D01*
X129969294Y-74734013D01*
X130154866Y-74960134D01*
X130380986Y-75145706D01*
X130638966Y-75283599D01*
X130918889Y-75368513D01*
X131210000Y-75397185D01*
X131501110Y-75368513D01*
X131781033Y-75283599D01*
X132039013Y-75145706D01*
X132265134Y-74960134D01*
X132450706Y-74734014D01*
X132464462Y-74708278D01*
X132620951Y-74914429D01*
X132838807Y-75107496D01*
X133090142Y-75254352D01*
X133353110Y-75346476D01*
X133583000Y-75225155D01*
X133583000Y-73907000D01*
X133563000Y-73907000D01*
X133563000Y-73653000D01*
X133583000Y-73653000D01*
X133583000Y-72334845D01*
X133837000Y-72334845D01*
X133837000Y-73653000D01*
X133857000Y-73653000D01*
X133857000Y-73907000D01*
X133837000Y-73907000D01*
X133837000Y-75225155D01*
X134066890Y-75346476D01*
X134329858Y-75254352D01*
X134581193Y-75107496D01*
X134799049Y-74914429D01*
X134815286Y-74893039D01*
X134871595Y-74998386D01*
X134982038Y-75132962D01*
X135116614Y-75243405D01*
X135270150Y-75325472D01*
X135436746Y-75376008D01*
X135610000Y-75393072D01*
X136810000Y-75393072D01*
X136983254Y-75376008D01*
X137149850Y-75325472D01*
X137303386Y-75243405D01*
X137437962Y-75132962D01*
X137548405Y-74998386D01*
X137630472Y-74844850D01*
X137681008Y-74678254D01*
X137698072Y-74505000D01*
X137698072Y-73557050D01*
X141225000Y-73557050D01*
X141225000Y-74002949D01*
X141246487Y-74221110D01*
X141331401Y-74501033D01*
X141469294Y-74759013D01*
X141654866Y-74985134D01*
X141880986Y-75170706D01*
X142138966Y-75308599D01*
X142418889Y-75393513D01*
X142710000Y-75422185D01*
X143001110Y-75393513D01*
X143281033Y-75308599D01*
X143539013Y-75170706D01*
X143765134Y-74985134D01*
X143817223Y-74921663D01*
X143871595Y-75023386D01*
X143982038Y-75157962D01*
X144116614Y-75268405D01*
X144270150Y-75350472D01*
X144436746Y-75401008D01*
X144610000Y-75418072D01*
X145810000Y-75418072D01*
X145983254Y-75401008D01*
X146149850Y-75350472D01*
X146303386Y-75268405D01*
X146437962Y-75157962D01*
X146548405Y-75023386D01*
X146630472Y-74869850D01*
X146681008Y-74703254D01*
X146698072Y-74530000D01*
X146698072Y-73557050D01*
X150225000Y-73557050D01*
X150225000Y-74002949D01*
X150246487Y-74221110D01*
X150331401Y-74501033D01*
X150469294Y-74759013D01*
X150654866Y-74985134D01*
X150880986Y-75170706D01*
X151138966Y-75308599D01*
X151418889Y-75393513D01*
X151710000Y-75422185D01*
X152001110Y-75393513D01*
X152281033Y-75308599D01*
X152539013Y-75170706D01*
X152765134Y-74985134D01*
X152817223Y-74921663D01*
X152871595Y-75023386D01*
X152982038Y-75157962D01*
X153116614Y-75268405D01*
X153270150Y-75350472D01*
X153436746Y-75401008D01*
X153610000Y-75418072D01*
X154810000Y-75418072D01*
X154983254Y-75401008D01*
X155149850Y-75350472D01*
X155303386Y-75268405D01*
X155437962Y-75157962D01*
X155548405Y-75023386D01*
X155630472Y-74869850D01*
X155681008Y-74703254D01*
X155698072Y-74530000D01*
X155698072Y-73170000D01*
X163291928Y-73170000D01*
X163291928Y-74770000D01*
X163304188Y-74894482D01*
X163340498Y-75014180D01*
X163399463Y-75124494D01*
X163478815Y-75221185D01*
X163575506Y-75300537D01*
X163685820Y-75359502D01*
X163805518Y-75395812D01*
X163930000Y-75408072D01*
X165530000Y-75408072D01*
X165654482Y-75395812D01*
X165774180Y-75359502D01*
X165884494Y-75300537D01*
X165981185Y-75221185D01*
X166060537Y-75124494D01*
X166119502Y-75014180D01*
X166135117Y-74962702D01*
X166416903Y-74962702D01*
X166488486Y-75206671D01*
X166743996Y-75327571D01*
X167018184Y-75396300D01*
X167300512Y-75410217D01*
X167580130Y-75368787D01*
X167846292Y-75273603D01*
X167971514Y-75206671D01*
X168043097Y-74962702D01*
X167230000Y-74149605D01*
X166416903Y-74962702D01*
X166135117Y-74962702D01*
X166155812Y-74894482D01*
X166168072Y-74770000D01*
X166168072Y-74762785D01*
X166237298Y-74783097D01*
X167050395Y-73970000D01*
X167409605Y-73970000D01*
X168222702Y-74783097D01*
X168466671Y-74711514D01*
X168587571Y-74456004D01*
X168656300Y-74181816D01*
X168670217Y-73899488D01*
X168628787Y-73619870D01*
X168533603Y-73353708D01*
X168466671Y-73228486D01*
X168222702Y-73156903D01*
X167409605Y-73970000D01*
X167050395Y-73970000D01*
X166237298Y-73156903D01*
X166168072Y-73177215D01*
X166168072Y-73170000D01*
X166155812Y-73045518D01*
X166135118Y-72977298D01*
X166416903Y-72977298D01*
X167230000Y-73790395D01*
X168043097Y-72977298D01*
X167971514Y-72733329D01*
X167716004Y-72612429D01*
X167441816Y-72543700D01*
X167159488Y-72529783D01*
X166879870Y-72571213D01*
X166613708Y-72666397D01*
X166488486Y-72733329D01*
X166416903Y-72977298D01*
X166135118Y-72977298D01*
X166119502Y-72925820D01*
X166060537Y-72815506D01*
X165981185Y-72718815D01*
X165884494Y-72639463D01*
X165774180Y-72580498D01*
X165654482Y-72544188D01*
X165530000Y-72531928D01*
X163930000Y-72531928D01*
X163805518Y-72544188D01*
X163685820Y-72580498D01*
X163575506Y-72639463D01*
X163478815Y-72718815D01*
X163399463Y-72815506D01*
X163340498Y-72925820D01*
X163304188Y-73045518D01*
X163291928Y-73170000D01*
X155698072Y-73170000D01*
X155698072Y-73030000D01*
X155681008Y-72856746D01*
X155630472Y-72690150D01*
X155548405Y-72536614D01*
X155437962Y-72402038D01*
X155303386Y-72291595D01*
X155149850Y-72209528D01*
X154983254Y-72158992D01*
X154810000Y-72141928D01*
X153610000Y-72141928D01*
X153436746Y-72158992D01*
X153270150Y-72209528D01*
X153116614Y-72291595D01*
X152982038Y-72402038D01*
X152871595Y-72536614D01*
X152817223Y-72638337D01*
X152765134Y-72574866D01*
X152539014Y-72389294D01*
X152281034Y-72251401D01*
X152001111Y-72166487D01*
X151710000Y-72137815D01*
X151418890Y-72166487D01*
X151138967Y-72251401D01*
X150880987Y-72389294D01*
X150654866Y-72574866D01*
X150469294Y-72800986D01*
X150331401Y-73058966D01*
X150246487Y-73338889D01*
X150225000Y-73557050D01*
X146698072Y-73557050D01*
X146698072Y-73030000D01*
X146681008Y-72856746D01*
X146630472Y-72690150D01*
X146548405Y-72536614D01*
X146437962Y-72402038D01*
X146303386Y-72291595D01*
X146149850Y-72209528D01*
X145983254Y-72158992D01*
X145810000Y-72141928D01*
X144610000Y-72141928D01*
X144436746Y-72158992D01*
X144270150Y-72209528D01*
X144116614Y-72291595D01*
X143982038Y-72402038D01*
X143871595Y-72536614D01*
X143817223Y-72638337D01*
X143765134Y-72574866D01*
X143539014Y-72389294D01*
X143281034Y-72251401D01*
X143001111Y-72166487D01*
X142710000Y-72137815D01*
X142418890Y-72166487D01*
X142138967Y-72251401D01*
X141880987Y-72389294D01*
X141654866Y-72574866D01*
X141469294Y-72800986D01*
X141331401Y-73058966D01*
X141246487Y-73338889D01*
X141225000Y-73557050D01*
X137698072Y-73557050D01*
X137698072Y-73055000D01*
X137681008Y-72881746D01*
X137630472Y-72715150D01*
X137548405Y-72561614D01*
X137437962Y-72427038D01*
X137303386Y-72316595D01*
X137149850Y-72234528D01*
X136983254Y-72183992D01*
X136810000Y-72166928D01*
X135610000Y-72166928D01*
X135436746Y-72183992D01*
X135270150Y-72234528D01*
X135116614Y-72316595D01*
X134982038Y-72427038D01*
X134871595Y-72561614D01*
X134815286Y-72666961D01*
X134799049Y-72645571D01*
X134581193Y-72452504D01*
X134329858Y-72305648D01*
X134066890Y-72213524D01*
X133837000Y-72334845D01*
X133583000Y-72334845D01*
X133353110Y-72213524D01*
X133090142Y-72305648D01*
X132838807Y-72452504D01*
X132620951Y-72645571D01*
X132464462Y-72851722D01*
X132450706Y-72825986D01*
X132265134Y-72599866D01*
X132039014Y-72414294D01*
X131781034Y-72276401D01*
X131501111Y-72191487D01*
X131210000Y-72162815D01*
X130918890Y-72191487D01*
X130638967Y-72276401D01*
X130380987Y-72414294D01*
X130154866Y-72599866D01*
X129969294Y-72825986D01*
X129831401Y-73083966D01*
X129746487Y-73363889D01*
X129725000Y-73582050D01*
X124508072Y-73582050D01*
X124508072Y-73030000D01*
X124491008Y-72856746D01*
X124440472Y-72690150D01*
X124358405Y-72536614D01*
X124247962Y-72402038D01*
X124113386Y-72291595D01*
X123959850Y-72209528D01*
X123793254Y-72158992D01*
X123620000Y-72141928D01*
X122420000Y-72141928D01*
X122246746Y-72158992D01*
X122080150Y-72209528D01*
X121926614Y-72291595D01*
X121792038Y-72402038D01*
X121681595Y-72536614D01*
X121627086Y-72638593D01*
X121626802Y-72638205D01*
X121412046Y-72441336D01*
X121163009Y-72290146D01*
X120889261Y-72190446D01*
X120876890Y-72188524D01*
X120647000Y-72309845D01*
X120393000Y-72309845D01*
X120163110Y-72188524D01*
X120150739Y-72190446D01*
X119876991Y-72290146D01*
X119627954Y-72441336D01*
X119413198Y-72638205D01*
X119240975Y-72873188D01*
X119117904Y-73137255D01*
X119048715Y-73420258D01*
X111187000Y-73420258D01*
X111187000Y-71027000D01*
X168933000Y-71027000D01*
X168933000Y-113773000D01*
%TA.AperFunction,Conductor*%
D20*
G36*
X168933000Y-113773000D02*
G01*
X111187000Y-113773000D01*
X111187000Y-111000000D01*
X113421928Y-111000000D01*
X113421928Y-112500000D01*
X113438992Y-112673254D01*
X113489528Y-112839850D01*
X113571595Y-112993386D01*
X113682038Y-113127962D01*
X113816614Y-113238405D01*
X113970150Y-113320472D01*
X114136746Y-113371008D01*
X114310000Y-113388072D01*
X115510000Y-113388072D01*
X115683254Y-113371008D01*
X115849850Y-113320472D01*
X116003386Y-113238405D01*
X116137962Y-113127962D01*
X116248405Y-112993386D01*
X116302914Y-112891407D01*
X116303198Y-112891795D01*
X116517954Y-113088664D01*
X116766991Y-113239854D01*
X117040739Y-113339554D01*
X117053110Y-113341476D01*
X117283000Y-113220155D01*
X117283000Y-111877000D01*
X117537000Y-111877000D01*
X117537000Y-113220155D01*
X117766890Y-113341476D01*
X117779261Y-113339554D01*
X118053009Y-113239854D01*
X118302046Y-113088664D01*
X118516802Y-112891795D01*
X118689025Y-112656812D01*
X118812096Y-112392745D01*
X118881285Y-112109742D01*
X118737232Y-111877000D01*
X117537000Y-111877000D01*
X117283000Y-111877000D01*
X117263000Y-111877000D01*
X117263000Y-111623000D01*
X117283000Y-111623000D01*
X117283000Y-110279845D01*
X117537000Y-110279845D01*
X117537000Y-111623000D01*
X118737232Y-111623000D01*
X118881285Y-111390258D01*
X118812096Y-111107255D01*
X118773761Y-111025000D01*
X124631928Y-111025000D01*
X124631928Y-112475000D01*
X124648992Y-112648254D01*
X124699528Y-112814850D01*
X124781595Y-112968386D01*
X124892038Y-113102962D01*
X125026614Y-113213405D01*
X125180150Y-113295472D01*
X125346746Y-113346008D01*
X125520000Y-113363072D01*
X126720000Y-113363072D01*
X126893254Y-113346008D01*
X127059850Y-113295472D01*
X127213386Y-113213405D01*
X127347962Y-113102962D01*
X127458405Y-112968386D01*
X127514714Y-112863039D01*
X127530951Y-112884429D01*
X127748807Y-113077496D01*
X128000142Y-113224352D01*
X128263110Y-113316476D01*
X128493000Y-113195155D01*
X128493000Y-111877000D01*
X128473000Y-111877000D01*
X128473000Y-111623000D01*
X128493000Y-111623000D01*
X128493000Y-110304845D01*
X128263110Y-110183524D01*
X128000142Y-110275648D01*
X127748807Y-110422504D01*
X127530951Y-110615571D01*
X127514714Y-110636961D01*
X127458405Y-110531614D01*
X127347962Y-110397038D01*
X127213386Y-110286595D01*
X127059850Y-110204528D01*
X126893254Y-110153992D01*
X126720000Y-110136928D01*
X125520000Y-110136928D01*
X125346746Y-110153992D01*
X125180150Y-110204528D01*
X125026614Y-110286595D01*
X124892038Y-110397038D01*
X124781595Y-110531614D01*
X124699528Y-110685150D01*
X124648992Y-110851746D01*
X124631928Y-111025000D01*
X118773761Y-111025000D01*
X118689025Y-110843188D01*
X118516802Y-110608205D01*
X118302046Y-110411336D01*
X118053009Y-110260146D01*
X117779261Y-110160446D01*
X117766890Y-110158524D01*
X117537000Y-110279845D01*
X117283000Y-110279845D01*
X117053110Y-110158524D01*
X117040739Y-110160446D01*
X116766991Y-110260146D01*
X116517954Y-110411336D01*
X116303198Y-110608205D01*
X116302914Y-110608593D01*
X116248405Y-110506614D01*
X116137962Y-110372038D01*
X116003386Y-110261595D01*
X115849850Y-110179528D01*
X115683254Y-110128992D01*
X115670000Y-110127687D01*
X115670000Y-104460000D01*
X119581928Y-104460000D01*
X119581928Y-106160000D01*
X119594188Y-106284482D01*
X119630498Y-106404180D01*
X119689463Y-106514494D01*
X119768815Y-106611185D01*
X119865506Y-106690537D01*
X119975820Y-106749502D01*
X120095518Y-106785812D01*
X120220000Y-106798072D01*
X121920000Y-106798072D01*
X122044482Y-106785812D01*
X122164180Y-106749502D01*
X122274494Y-106690537D01*
X122371185Y-106611185D01*
X122450537Y-106514494D01*
X122509502Y-106404180D01*
X122531513Y-106331620D01*
X122663368Y-106463475D01*
X122906589Y-106625990D01*
X123176842Y-106737932D01*
X123463740Y-106795000D01*
X123756260Y-106795000D01*
X124043158Y-106737932D01*
X124313411Y-106625990D01*
X124556632Y-106463475D01*
X124763475Y-106256632D01*
X124880000Y-106082240D01*
X124996525Y-106256632D01*
X125203368Y-106463475D01*
X125446589Y-106625990D01*
X125716842Y-106737932D01*
X126003740Y-106795000D01*
X126296260Y-106795000D01*
X126583158Y-106737932D01*
X126853411Y-106625990D01*
X127096632Y-106463475D01*
X127303475Y-106256632D01*
X127420000Y-106082240D01*
X127536525Y-106256632D01*
X127743368Y-106463475D01*
X127986589Y-106625990D01*
X128256842Y-106737932D01*
X128543740Y-106795000D01*
X128836260Y-106795000D01*
X129123158Y-106737932D01*
X129393411Y-106625990D01*
X129636632Y-106463475D01*
X129843475Y-106256632D01*
X129960000Y-106082240D01*
X130076525Y-106256632D01*
X130283368Y-106463475D01*
X130526589Y-106625990D01*
X130796842Y-106737932D01*
X131083740Y-106795000D01*
X131376260Y-106795000D01*
X131663158Y-106737932D01*
X131933411Y-106625990D01*
X132176632Y-106463475D01*
X132383475Y-106256632D01*
X132500000Y-106082240D01*
X132616525Y-106256632D01*
X132823368Y-106463475D01*
X133066589Y-106625990D01*
X133336842Y-106737932D01*
X133623740Y-106795000D01*
X133916260Y-106795000D01*
X134203158Y-106737932D01*
X134473411Y-106625990D01*
X134716632Y-106463475D01*
X134923475Y-106256632D01*
X135040000Y-106082240D01*
X135156525Y-106256632D01*
X135363368Y-106463475D01*
X135606589Y-106625990D01*
X135876842Y-106737932D01*
X136163740Y-106795000D01*
X136456260Y-106795000D01*
X136743158Y-106737932D01*
X137013411Y-106625990D01*
X137256632Y-106463475D01*
X137463475Y-106256632D01*
X137580000Y-106082240D01*
X137696525Y-106256632D01*
X137903368Y-106463475D01*
X138146589Y-106625990D01*
X138416842Y-106737932D01*
X138703740Y-106795000D01*
X138996260Y-106795000D01*
X139283158Y-106737932D01*
X139553411Y-106625990D01*
X139796632Y-106463475D01*
X140003475Y-106256632D01*
X140120000Y-106082240D01*
X140236525Y-106256632D01*
X140443368Y-106463475D01*
X140686589Y-106625990D01*
X140956842Y-106737932D01*
X141243740Y-106795000D01*
X141536260Y-106795000D01*
X141823158Y-106737932D01*
X142093411Y-106625990D01*
X142336632Y-106463475D01*
X142543475Y-106256632D01*
X142660000Y-106082240D01*
X142776525Y-106256632D01*
X142983368Y-106463475D01*
X143170000Y-106588179D01*
X143170000Y-107385198D01*
X143085199Y-107470000D01*
X133787325Y-107470000D01*
X133750000Y-107466324D01*
X133712675Y-107470000D01*
X133712667Y-107470000D01*
X133601014Y-107480997D01*
X133457753Y-107524454D01*
X133325724Y-107595026D01*
X133209999Y-107689999D01*
X133186201Y-107718997D01*
X130706623Y-110198576D01*
X130548966Y-110246401D01*
X130290986Y-110384294D01*
X130064866Y-110569866D01*
X129879294Y-110795987D01*
X129865538Y-110821722D01*
X129709049Y-110615571D01*
X129491193Y-110422504D01*
X129239858Y-110275648D01*
X128976890Y-110183524D01*
X128747000Y-110304845D01*
X128747000Y-111623000D01*
X128767000Y-111623000D01*
X128767000Y-111877000D01*
X128747000Y-111877000D01*
X128747000Y-113195155D01*
X128976890Y-113316476D01*
X129239858Y-113224352D01*
X129491193Y-113077496D01*
X129709049Y-112884429D01*
X129865538Y-112678278D01*
X129879294Y-112704014D01*
X130064866Y-112930134D01*
X130290987Y-113115706D01*
X130548967Y-113253599D01*
X130828890Y-113338513D01*
X131120000Y-113367185D01*
X131411111Y-113338513D01*
X131691034Y-113253599D01*
X131949014Y-113115706D01*
X132175134Y-112930134D01*
X132360706Y-112704014D01*
X132374462Y-112678278D01*
X132530951Y-112884429D01*
X132748807Y-113077496D01*
X133000142Y-113224352D01*
X133263110Y-113316476D01*
X133493000Y-113195155D01*
X133493000Y-111877000D01*
X133473000Y-111877000D01*
X133473000Y-111623000D01*
X133493000Y-111623000D01*
X133493000Y-110304845D01*
X133747000Y-110304845D01*
X133747000Y-111623000D01*
X133767000Y-111623000D01*
X133767000Y-111877000D01*
X133747000Y-111877000D01*
X133747000Y-113195155D01*
X133976890Y-113316476D01*
X134239858Y-113224352D01*
X134491193Y-113077496D01*
X134709049Y-112884429D01*
X134865538Y-112678278D01*
X134879294Y-112704014D01*
X135064866Y-112930134D01*
X135290987Y-113115706D01*
X135548967Y-113253599D01*
X135828890Y-113338513D01*
X136120000Y-113367185D01*
X136411111Y-113338513D01*
X136691034Y-113253599D01*
X136949014Y-113115706D01*
X137175134Y-112930134D01*
X137360706Y-112704014D01*
X137498599Y-112446033D01*
X137583513Y-112166110D01*
X137605000Y-111947949D01*
X137605000Y-111552050D01*
X137583513Y-111333889D01*
X137498599Y-111053966D01*
X137469754Y-111000000D01*
X141631928Y-111000000D01*
X141631928Y-112500000D01*
X141648992Y-112673254D01*
X141699528Y-112839850D01*
X141781595Y-112993386D01*
X141892038Y-113127962D01*
X142026614Y-113238405D01*
X142180150Y-113320472D01*
X142346746Y-113371008D01*
X142520000Y-113388072D01*
X143720000Y-113388072D01*
X143893254Y-113371008D01*
X144059850Y-113320472D01*
X144213386Y-113238405D01*
X144347962Y-113127962D01*
X144458405Y-112993386D01*
X144512914Y-112891407D01*
X144513198Y-112891795D01*
X144727954Y-113088664D01*
X144976991Y-113239854D01*
X145250739Y-113339554D01*
X145263110Y-113341476D01*
X145493000Y-113220155D01*
X145493000Y-111877000D01*
X145747000Y-111877000D01*
X145747000Y-113220155D01*
X145976890Y-113341476D01*
X145989261Y-113339554D01*
X146263009Y-113239854D01*
X146512046Y-113088664D01*
X146726802Y-112891795D01*
X146899025Y-112656812D01*
X147022096Y-112392745D01*
X147091285Y-112109742D01*
X146947232Y-111877000D01*
X145747000Y-111877000D01*
X145493000Y-111877000D01*
X145473000Y-111877000D01*
X145473000Y-111623000D01*
X145493000Y-111623000D01*
X145493000Y-110279845D01*
X145747000Y-110279845D01*
X145747000Y-111623000D01*
X146947232Y-111623000D01*
X147091285Y-111390258D01*
X147022096Y-111107255D01*
X146972109Y-111000000D01*
X151631928Y-111000000D01*
X151631928Y-112500000D01*
X151648992Y-112673254D01*
X151699528Y-112839850D01*
X151781595Y-112993386D01*
X151892038Y-113127962D01*
X152026614Y-113238405D01*
X152180150Y-113320472D01*
X152346746Y-113371008D01*
X152520000Y-113388072D01*
X153720000Y-113388072D01*
X153893254Y-113371008D01*
X154059850Y-113320472D01*
X154213386Y-113238405D01*
X154347962Y-113127962D01*
X154458405Y-112993386D01*
X154512914Y-112891407D01*
X154513198Y-112891795D01*
X154727954Y-113088664D01*
X154976991Y-113239854D01*
X155250739Y-113339554D01*
X155263110Y-113341476D01*
X155493000Y-113220155D01*
X155493000Y-111877000D01*
X155747000Y-111877000D01*
X155747000Y-113220155D01*
X155976890Y-113341476D01*
X155989261Y-113339554D01*
X156263009Y-113239854D01*
X156512046Y-113088664D01*
X156726802Y-112891795D01*
X156899025Y-112656812D01*
X157022096Y-112392745D01*
X157091285Y-112109742D01*
X156947232Y-111877000D01*
X155747000Y-111877000D01*
X155493000Y-111877000D01*
X155473000Y-111877000D01*
X155473000Y-111623000D01*
X155493000Y-111623000D01*
X155493000Y-110279845D01*
X155747000Y-110279845D01*
X155747000Y-111623000D01*
X156947232Y-111623000D01*
X157091285Y-111390258D01*
X157022096Y-111107255D01*
X156902200Y-110850000D01*
X163966928Y-110850000D01*
X163966928Y-112050000D01*
X163983992Y-112223254D01*
X164034528Y-112389850D01*
X164116595Y-112543386D01*
X164227038Y-112677962D01*
X164361614Y-112788405D01*
X164515150Y-112870472D01*
X164681746Y-112921008D01*
X164855000Y-112938072D01*
X166305000Y-112938072D01*
X166478254Y-112921008D01*
X166644850Y-112870472D01*
X166798386Y-112788405D01*
X166932962Y-112677962D01*
X167043405Y-112543386D01*
X167125472Y-112389850D01*
X167176008Y-112223254D01*
X167193072Y-112050000D01*
X167193072Y-110850000D01*
X167176008Y-110676746D01*
X167125472Y-110510150D01*
X167043405Y-110356614D01*
X166932962Y-110222038D01*
X166798386Y-110111595D01*
X166693039Y-110055286D01*
X166714429Y-110039049D01*
X166907496Y-109821193D01*
X167054352Y-109569858D01*
X167146476Y-109306890D01*
X167025155Y-109077000D01*
X165707000Y-109077000D01*
X165707000Y-109097000D01*
X165453000Y-109097000D01*
X165453000Y-109077000D01*
X164134845Y-109077000D01*
X164013524Y-109306890D01*
X164105648Y-109569858D01*
X164252504Y-109821193D01*
X164445571Y-110039049D01*
X164466961Y-110055286D01*
X164361614Y-110111595D01*
X164227038Y-110222038D01*
X164116595Y-110356614D01*
X164034528Y-110510150D01*
X163983992Y-110676746D01*
X163966928Y-110850000D01*
X156902200Y-110850000D01*
X156899025Y-110843188D01*
X156726802Y-110608205D01*
X156512046Y-110411336D01*
X156263009Y-110260146D01*
X155989261Y-110160446D01*
X155976890Y-110158524D01*
X155747000Y-110279845D01*
X155493000Y-110279845D01*
X155263110Y-110158524D01*
X155250739Y-110160446D01*
X154976991Y-110260146D01*
X154727954Y-110411336D01*
X154513198Y-110608205D01*
X154512914Y-110608593D01*
X154458405Y-110506614D01*
X154347962Y-110372038D01*
X154213386Y-110261595D01*
X154059850Y-110179528D01*
X153893254Y-110128992D01*
X153720000Y-110111928D01*
X152520000Y-110111928D01*
X152346746Y-110128992D01*
X152180150Y-110179528D01*
X152026614Y-110261595D01*
X151892038Y-110372038D01*
X151781595Y-110506614D01*
X151699528Y-110660150D01*
X151648992Y-110826746D01*
X151631928Y-111000000D01*
X146972109Y-111000000D01*
X146899025Y-110843188D01*
X146726802Y-110608205D01*
X146512046Y-110411336D01*
X146263009Y-110260146D01*
X145989261Y-110160446D01*
X145976890Y-110158524D01*
X145747000Y-110279845D01*
X145493000Y-110279845D01*
X145263110Y-110158524D01*
X145250739Y-110160446D01*
X144976991Y-110260146D01*
X144727954Y-110411336D01*
X144513198Y-110608205D01*
X144512914Y-110608593D01*
X144458405Y-110506614D01*
X144347962Y-110372038D01*
X144213386Y-110261595D01*
X144059850Y-110179528D01*
X143893254Y-110128992D01*
X143720000Y-110111928D01*
X142520000Y-110111928D01*
X142346746Y-110128992D01*
X142180150Y-110179528D01*
X142026614Y-110261595D01*
X141892038Y-110372038D01*
X141781595Y-110506614D01*
X141699528Y-110660150D01*
X141648992Y-110826746D01*
X141631928Y-111000000D01*
X137469754Y-111000000D01*
X137360706Y-110795986D01*
X137175134Y-110569866D01*
X136949013Y-110384294D01*
X136691033Y-110246401D01*
X136411110Y-110161487D01*
X136120000Y-110132815D01*
X135828889Y-110161487D01*
X135548966Y-110246401D01*
X135290986Y-110384294D01*
X135064866Y-110569866D01*
X134879294Y-110795987D01*
X134865538Y-110821722D01*
X134709049Y-110615571D01*
X134491193Y-110422504D01*
X134239858Y-110275648D01*
X133976890Y-110183524D01*
X133747000Y-110304845D01*
X133493000Y-110304845D01*
X133263110Y-110183524D01*
X133000142Y-110275648D01*
X132748807Y-110422504D01*
X132530951Y-110615571D01*
X132374462Y-110821722D01*
X132360706Y-110795986D01*
X132314778Y-110740023D01*
X134064802Y-108990000D01*
X143362678Y-108990000D01*
X143400000Y-108993676D01*
X143437322Y-108990000D01*
X143437333Y-108990000D01*
X143548986Y-108979003D01*
X143692247Y-108935546D01*
X143824276Y-108864974D01*
X143940001Y-108770001D01*
X143963803Y-108740998D01*
X144441003Y-108263798D01*
X144470001Y-108240001D01*
X144564974Y-108124276D01*
X144635546Y-107992247D01*
X144679003Y-107848986D01*
X144690000Y-107737333D01*
X144690000Y-107737324D01*
X144693676Y-107700001D01*
X144690000Y-107662678D01*
X144690000Y-106588178D01*
X144876632Y-106463475D01*
X145083475Y-106256632D01*
X145200000Y-106082240D01*
X145316525Y-106256632D01*
X145523368Y-106463475D01*
X145766589Y-106625990D01*
X146036842Y-106737932D01*
X146323740Y-106795000D01*
X146616260Y-106795000D01*
X146903158Y-106737932D01*
X147173411Y-106625990D01*
X147416632Y-106463475D01*
X147623475Y-106256632D01*
X147740000Y-106082240D01*
X147856525Y-106256632D01*
X148063368Y-106463475D01*
X148306589Y-106625990D01*
X148576842Y-106737932D01*
X148863740Y-106795000D01*
X149156260Y-106795000D01*
X149443158Y-106737932D01*
X149713411Y-106625990D01*
X149956632Y-106463475D01*
X150163475Y-106256632D01*
X150280000Y-106082240D01*
X150396525Y-106256632D01*
X150603368Y-106463475D01*
X150846589Y-106625990D01*
X151116842Y-106737932D01*
X151403740Y-106795000D01*
X151696260Y-106795000D01*
X151983158Y-106737932D01*
X152253411Y-106625990D01*
X152496632Y-106463475D01*
X152703475Y-106256632D01*
X152820000Y-106082240D01*
X152936525Y-106256632D01*
X153143368Y-106463475D01*
X153386589Y-106625990D01*
X153656842Y-106737932D01*
X153943740Y-106795000D01*
X154236260Y-106795000D01*
X154523158Y-106737932D01*
X154793411Y-106625990D01*
X155036632Y-106463475D01*
X155243475Y-106256632D01*
X155360000Y-106082240D01*
X155476525Y-106256632D01*
X155683368Y-106463475D01*
X155926589Y-106625990D01*
X156196842Y-106737932D01*
X156483740Y-106795000D01*
X156776260Y-106795000D01*
X157063158Y-106737932D01*
X157333411Y-106625990D01*
X157576632Y-106463475D01*
X157783475Y-106256632D01*
X157945990Y-106013411D01*
X158057932Y-105743158D01*
X158115000Y-105456260D01*
X158115000Y-105163740D01*
X158057932Y-104876842D01*
X157945990Y-104606589D01*
X157783475Y-104363368D01*
X157576632Y-104156525D01*
X157333411Y-103994010D01*
X157227162Y-103950000D01*
X163962815Y-103950000D01*
X163991487Y-104241111D01*
X164076401Y-104521034D01*
X164214294Y-104779014D01*
X164399866Y-105005134D01*
X164625986Y-105190706D01*
X164643374Y-105200000D01*
X164625986Y-105209294D01*
X164399866Y-105394866D01*
X164214294Y-105620986D01*
X164076401Y-105878966D01*
X163991487Y-106158889D01*
X163962815Y-106450000D01*
X163991487Y-106741111D01*
X164076401Y-107021034D01*
X164214294Y-107279014D01*
X164399866Y-107505134D01*
X164625986Y-107690706D01*
X164651722Y-107704462D01*
X164445571Y-107860951D01*
X164252504Y-108078807D01*
X164105648Y-108330142D01*
X164013524Y-108593110D01*
X164134845Y-108823000D01*
X165453000Y-108823000D01*
X165453000Y-108803000D01*
X165707000Y-108803000D01*
X165707000Y-108823000D01*
X167025155Y-108823000D01*
X167146476Y-108593110D01*
X167054352Y-108330142D01*
X166907496Y-108078807D01*
X166714429Y-107860951D01*
X166508278Y-107704462D01*
X166534014Y-107690706D01*
X166760134Y-107505134D01*
X166945706Y-107279014D01*
X167083599Y-107021034D01*
X167168513Y-106741111D01*
X167197185Y-106450000D01*
X167168513Y-106158889D01*
X167083599Y-105878966D01*
X166945706Y-105620986D01*
X166760134Y-105394866D01*
X166534014Y-105209294D01*
X166516626Y-105200000D01*
X166534014Y-105190706D01*
X166760134Y-105005134D01*
X166945706Y-104779014D01*
X167083599Y-104521034D01*
X167168513Y-104241111D01*
X167197185Y-103950000D01*
X167168513Y-103658889D01*
X167083599Y-103378966D01*
X166945706Y-103120986D01*
X166760134Y-102894866D01*
X166534014Y-102709294D01*
X166276034Y-102571401D01*
X165996111Y-102486487D01*
X165777950Y-102465000D01*
X165382050Y-102465000D01*
X165163889Y-102486487D01*
X164883966Y-102571401D01*
X164625986Y-102709294D01*
X164399866Y-102894866D01*
X164214294Y-103120986D01*
X164076401Y-103378966D01*
X163991487Y-103658889D01*
X163962815Y-103950000D01*
X157227162Y-103950000D01*
X157063158Y-103882068D01*
X156776260Y-103825000D01*
X156483740Y-103825000D01*
X156196842Y-103882068D01*
X155926589Y-103994010D01*
X155683368Y-104156525D01*
X155476525Y-104363368D01*
X155360000Y-104537760D01*
X155243475Y-104363368D01*
X155036632Y-104156525D01*
X154793411Y-103994010D01*
X154523158Y-103882068D01*
X154236260Y-103825000D01*
X153943740Y-103825000D01*
X153656842Y-103882068D01*
X153386589Y-103994010D01*
X153143368Y-104156525D01*
X152936525Y-104363368D01*
X152820000Y-104537760D01*
X152703475Y-104363368D01*
X152496632Y-104156525D01*
X152253411Y-103994010D01*
X151983158Y-103882068D01*
X151696260Y-103825000D01*
X151403740Y-103825000D01*
X151116842Y-103882068D01*
X150846589Y-103994010D01*
X150603368Y-104156525D01*
X150396525Y-104363368D01*
X150280000Y-104537760D01*
X150163475Y-104363368D01*
X149956632Y-104156525D01*
X149713411Y-103994010D01*
X149443158Y-103882068D01*
X149156260Y-103825000D01*
X148863740Y-103825000D01*
X148576842Y-103882068D01*
X148306589Y-103994010D01*
X148063368Y-104156525D01*
X147856525Y-104363368D01*
X147740000Y-104537760D01*
X147623475Y-104363368D01*
X147416632Y-104156525D01*
X147173411Y-103994010D01*
X146903158Y-103882068D01*
X146616260Y-103825000D01*
X146323740Y-103825000D01*
X146036842Y-103882068D01*
X145766589Y-103994010D01*
X145523368Y-104156525D01*
X145316525Y-104363368D01*
X145200000Y-104537760D01*
X145083475Y-104363368D01*
X144876632Y-104156525D01*
X144633411Y-103994010D01*
X144363158Y-103882068D01*
X144076260Y-103825000D01*
X143783740Y-103825000D01*
X143496842Y-103882068D01*
X143226589Y-103994010D01*
X142983368Y-104156525D01*
X142776525Y-104363368D01*
X142660000Y-104537760D01*
X142543475Y-104363368D01*
X142336632Y-104156525D01*
X142093411Y-103994010D01*
X141823158Y-103882068D01*
X141536260Y-103825000D01*
X141243740Y-103825000D01*
X140956842Y-103882068D01*
X140686589Y-103994010D01*
X140443368Y-104156525D01*
X140236525Y-104363368D01*
X140120000Y-104537760D01*
X140003475Y-104363368D01*
X139796632Y-104156525D01*
X139553411Y-103994010D01*
X139283158Y-103882068D01*
X138996260Y-103825000D01*
X138703740Y-103825000D01*
X138416842Y-103882068D01*
X138146589Y-103994010D01*
X137903368Y-104156525D01*
X137696525Y-104363368D01*
X137580000Y-104537760D01*
X137463475Y-104363368D01*
X137256632Y-104156525D01*
X137013411Y-103994010D01*
X136743158Y-103882068D01*
X136456260Y-103825000D01*
X136163740Y-103825000D01*
X135876842Y-103882068D01*
X135606589Y-103994010D01*
X135363368Y-104156525D01*
X135156525Y-104363368D01*
X135040000Y-104537760D01*
X134923475Y-104363368D01*
X134716632Y-104156525D01*
X134473411Y-103994010D01*
X134203158Y-103882068D01*
X133916260Y-103825000D01*
X133789802Y-103825000D01*
X134391004Y-103223798D01*
X134420001Y-103200001D01*
X134484847Y-103120986D01*
X134514974Y-103084277D01*
X134585546Y-102952247D01*
X134585546Y-102952246D01*
X134629003Y-102808986D01*
X134640000Y-102697333D01*
X134640000Y-102697323D01*
X134643676Y-102660000D01*
X134640000Y-102622677D01*
X134640000Y-99594801D01*
X135714802Y-98520000D01*
X149572678Y-98520000D01*
X149610000Y-98523676D01*
X149647322Y-98520000D01*
X149647333Y-98520000D01*
X149758986Y-98509003D01*
X149902247Y-98465546D01*
X150034276Y-98394974D01*
X150150001Y-98300001D01*
X150173804Y-98270997D01*
X150594801Y-97850000D01*
X163986928Y-97850000D01*
X163999188Y-97974482D01*
X164035498Y-98094180D01*
X164094463Y-98204494D01*
X164173815Y-98301185D01*
X164270506Y-98380537D01*
X164380820Y-98439502D01*
X164500518Y-98475812D01*
X164625000Y-98488072D01*
X165314250Y-98485000D01*
X165473000Y-98326250D01*
X165473000Y-97127000D01*
X165727000Y-97127000D01*
X165727000Y-98326250D01*
X165885750Y-98485000D01*
X166575000Y-98488072D01*
X166699482Y-98475812D01*
X166819180Y-98439502D01*
X166929494Y-98380537D01*
X167026185Y-98301185D01*
X167105537Y-98204494D01*
X167164502Y-98094180D01*
X167200812Y-97974482D01*
X167213072Y-97850000D01*
X167210000Y-97285750D01*
X167051250Y-97127000D01*
X165727000Y-97127000D01*
X165473000Y-97127000D01*
X164148750Y-97127000D01*
X163990000Y-97285750D01*
X163986928Y-97850000D01*
X150594801Y-97850000D01*
X160684802Y-87760000D01*
X164197405Y-87760000D01*
X164234294Y-87829014D01*
X164419866Y-88055134D01*
X164645986Y-88240706D01*
X164663374Y-88250000D01*
X164645986Y-88259294D01*
X164419866Y-88444866D01*
X164234294Y-88670986D01*
X164096401Y-88928966D01*
X164011487Y-89208889D01*
X163982815Y-89500000D01*
X164011487Y-89791111D01*
X164096401Y-90071034D01*
X164234294Y-90329014D01*
X164419866Y-90555134D01*
X164645986Y-90740706D01*
X164663374Y-90750000D01*
X164645986Y-90759294D01*
X164419866Y-90944866D01*
X164234294Y-91170986D01*
X164096401Y-91428966D01*
X164011487Y-91708889D01*
X163982815Y-92000000D01*
X164011487Y-92291111D01*
X164096401Y-92571034D01*
X164234294Y-92829014D01*
X164419866Y-93055134D01*
X164645986Y-93240706D01*
X164663374Y-93250000D01*
X164645986Y-93259294D01*
X164419866Y-93444866D01*
X164234294Y-93670986D01*
X164096401Y-93928966D01*
X164011487Y-94208889D01*
X163982815Y-94500000D01*
X164011487Y-94791111D01*
X164096401Y-95071034D01*
X164234294Y-95329014D01*
X164415608Y-95549945D01*
X164380820Y-95560498D01*
X164270506Y-95619463D01*
X164173815Y-95698815D01*
X164094463Y-95795506D01*
X164035498Y-95905820D01*
X163999188Y-96025518D01*
X163986928Y-96150000D01*
X163990000Y-96714250D01*
X164148750Y-96873000D01*
X165473000Y-96873000D01*
X165473000Y-96853000D01*
X165727000Y-96853000D01*
X165727000Y-96873000D01*
X167051250Y-96873000D01*
X167210000Y-96714250D01*
X167213072Y-96150000D01*
X167200812Y-96025518D01*
X167164502Y-95905820D01*
X167105537Y-95795506D01*
X167026185Y-95698815D01*
X166929494Y-95619463D01*
X166819180Y-95560498D01*
X166784392Y-95549945D01*
X166965706Y-95329014D01*
X167103599Y-95071034D01*
X167188513Y-94791111D01*
X167217185Y-94500000D01*
X167188513Y-94208889D01*
X167103599Y-93928966D01*
X166965706Y-93670986D01*
X166780134Y-93444866D01*
X166554014Y-93259294D01*
X166536626Y-93250000D01*
X166554014Y-93240706D01*
X166780134Y-93055134D01*
X166965706Y-92829014D01*
X167103599Y-92571034D01*
X167188513Y-92291111D01*
X167217185Y-92000000D01*
X167188513Y-91708889D01*
X167103599Y-91428966D01*
X166965706Y-91170986D01*
X166780134Y-90944866D01*
X166554014Y-90759294D01*
X166536626Y-90750000D01*
X166554014Y-90740706D01*
X166780134Y-90555134D01*
X166965706Y-90329014D01*
X167103599Y-90071034D01*
X167188513Y-89791111D01*
X167217185Y-89500000D01*
X167188513Y-89208889D01*
X167103599Y-88928966D01*
X166965706Y-88670986D01*
X166780134Y-88444866D01*
X166554014Y-88259294D01*
X166536626Y-88250000D01*
X166554014Y-88240706D01*
X166780134Y-88055134D01*
X166965706Y-87829014D01*
X167103599Y-87571034D01*
X167188513Y-87291111D01*
X167217185Y-87000000D01*
X167188513Y-86708889D01*
X167103599Y-86428966D01*
X166965706Y-86170986D01*
X166780134Y-85944866D01*
X166554014Y-85759294D01*
X166296034Y-85621401D01*
X166016111Y-85536487D01*
X165797950Y-85515000D01*
X165402050Y-85515000D01*
X165183889Y-85536487D01*
X164903966Y-85621401D01*
X164645986Y-85759294D01*
X164419866Y-85944866D01*
X164234294Y-86170986D01*
X164197405Y-86240000D01*
X160407323Y-86240000D01*
X160370000Y-86236324D01*
X160332677Y-86240000D01*
X160332667Y-86240000D01*
X160221014Y-86250997D01*
X160077753Y-86294454D01*
X159945723Y-86365026D01*
X159867813Y-86428966D01*
X159829999Y-86459999D01*
X159806201Y-86488997D01*
X149295199Y-97000000D01*
X135437333Y-97000000D01*
X135400000Y-96996323D01*
X135362667Y-97000000D01*
X135251014Y-97010997D01*
X135107753Y-97054454D01*
X134975724Y-97125026D01*
X134859999Y-97219999D01*
X134836201Y-97248997D01*
X133368998Y-98716201D01*
X133340000Y-98739999D01*
X133316202Y-98768997D01*
X133316201Y-98768998D01*
X133245026Y-98855724D01*
X133174454Y-98987754D01*
X133130998Y-99131015D01*
X133116324Y-99280000D01*
X133120001Y-99317332D01*
X133120000Y-102345198D01*
X131596408Y-103868791D01*
X131376260Y-103825000D01*
X131083740Y-103825000D01*
X130796842Y-103882068D01*
X130526589Y-103994010D01*
X130283368Y-104156525D01*
X130076525Y-104363368D01*
X129960000Y-104537760D01*
X129843475Y-104363368D01*
X129636632Y-104156525D01*
X129393411Y-103994010D01*
X129123158Y-103882068D01*
X128836260Y-103825000D01*
X128543740Y-103825000D01*
X128256842Y-103882068D01*
X127986589Y-103994010D01*
X127743368Y-104156525D01*
X127536525Y-104363368D01*
X127420000Y-104537760D01*
X127303475Y-104363368D01*
X127096632Y-104156525D01*
X126853411Y-103994010D01*
X126583158Y-103882068D01*
X126296260Y-103825000D01*
X126003740Y-103825000D01*
X125716842Y-103882068D01*
X125446589Y-103994010D01*
X125203368Y-104156525D01*
X124996525Y-104363368D01*
X124880000Y-104537760D01*
X124763475Y-104363368D01*
X124556632Y-104156525D01*
X124313411Y-103994010D01*
X124043158Y-103882068D01*
X123756260Y-103825000D01*
X123463740Y-103825000D01*
X123176842Y-103882068D01*
X122906589Y-103994010D01*
X122663368Y-104156525D01*
X122531513Y-104288380D01*
X122509502Y-104215820D01*
X122450537Y-104105506D01*
X122371185Y-104008815D01*
X122274494Y-103929463D01*
X122164180Y-103870498D01*
X122044482Y-103834188D01*
X121920000Y-103821928D01*
X120220000Y-103821928D01*
X120095518Y-103834188D01*
X119975820Y-103870498D01*
X119865506Y-103929463D01*
X119768815Y-104008815D01*
X119689463Y-104105506D01*
X119630498Y-104215820D01*
X119594188Y-104335518D01*
X119581928Y-104460000D01*
X115670000Y-104460000D01*
X115670000Y-103864801D01*
X124859803Y-94675000D01*
X124921939Y-94675000D01*
X125121898Y-94635226D01*
X125310256Y-94557205D01*
X125479774Y-94443937D01*
X125623937Y-94299774D01*
X125737205Y-94130256D01*
X125815226Y-93941898D01*
X125855000Y-93741939D01*
X125855000Y-93538061D01*
X125815226Y-93338102D01*
X125737205Y-93149744D01*
X125623937Y-92980226D01*
X125479774Y-92836063D01*
X125310256Y-92722795D01*
X125121898Y-92644774D01*
X124921939Y-92605000D01*
X124718061Y-92605000D01*
X124518102Y-92644774D01*
X124329744Y-92722795D01*
X124160226Y-92836063D01*
X124016063Y-92980226D01*
X123902795Y-93149744D01*
X123824774Y-93338102D01*
X123785000Y-93538061D01*
X123785000Y-93600197D01*
X114398998Y-102986201D01*
X114370000Y-103009999D01*
X114346202Y-103038997D01*
X114346201Y-103038998D01*
X114275026Y-103125724D01*
X114204454Y-103257754D01*
X114160998Y-103401015D01*
X114146324Y-103550000D01*
X114150001Y-103587332D01*
X114150000Y-110127687D01*
X114136746Y-110128992D01*
X113970150Y-110179528D01*
X113816614Y-110261595D01*
X113682038Y-110372038D01*
X113571595Y-110506614D01*
X113489528Y-110660150D01*
X113438992Y-110826746D01*
X113421928Y-111000000D01*
X111187000Y-111000000D01*
X111187000Y-79060000D01*
X119581928Y-79060000D01*
X119581928Y-80760000D01*
X119594188Y-80884482D01*
X119630498Y-81004180D01*
X119689463Y-81114494D01*
X119768815Y-81211185D01*
X119865506Y-81290537D01*
X119975820Y-81349502D01*
X120095518Y-81385812D01*
X120220000Y-81398072D01*
X121920000Y-81398072D01*
X122044482Y-81385812D01*
X122164180Y-81349502D01*
X122274494Y-81290537D01*
X122371185Y-81211185D01*
X122450537Y-81114494D01*
X122509502Y-81004180D01*
X122533966Y-80923534D01*
X122609731Y-81007588D01*
X122843080Y-81181641D01*
X123105901Y-81306825D01*
X123253110Y-81351476D01*
X123483000Y-81230155D01*
X123483000Y-80037000D01*
X123463000Y-80037000D01*
X123463000Y-79783000D01*
X123483000Y-79783000D01*
X123483000Y-78589845D01*
X123737000Y-78589845D01*
X123737000Y-79783000D01*
X123757000Y-79783000D01*
X123757000Y-80037000D01*
X123737000Y-80037000D01*
X123737000Y-81230155D01*
X123966890Y-81351476D01*
X124114099Y-81306825D01*
X124376920Y-81181641D01*
X124610269Y-81007588D01*
X124805178Y-80791355D01*
X124874805Y-80674466D01*
X124996525Y-80856632D01*
X125203368Y-81063475D01*
X125446589Y-81225990D01*
X125716842Y-81337932D01*
X126003740Y-81395000D01*
X126296260Y-81395000D01*
X126516408Y-81351209D01*
X137876201Y-92711003D01*
X137899999Y-92740001D01*
X138015724Y-92834974D01*
X138147753Y-92905546D01*
X138291014Y-92949003D01*
X138402667Y-92960000D01*
X138402675Y-92960000D01*
X138440000Y-92963676D01*
X138477325Y-92960000D01*
X148666289Y-92960000D01*
X148710226Y-93003937D01*
X148879744Y-93117205D01*
X149068102Y-93195226D01*
X149268061Y-93235000D01*
X149471939Y-93235000D01*
X149671898Y-93195226D01*
X149860256Y-93117205D01*
X150029774Y-93003937D01*
X150173937Y-92859774D01*
X150287205Y-92690256D01*
X150365226Y-92501898D01*
X150405000Y-92301939D01*
X150405000Y-92098061D01*
X150365226Y-91898102D01*
X150287205Y-91709744D01*
X150240604Y-91640000D01*
X150287205Y-91570256D01*
X150365226Y-91381898D01*
X150405000Y-91181939D01*
X150405000Y-90978061D01*
X150365226Y-90778102D01*
X150287205Y-90589744D01*
X150243945Y-90525000D01*
X150287205Y-90460256D01*
X150365226Y-90271898D01*
X150405000Y-90071939D01*
X150405000Y-89868061D01*
X150365226Y-89668102D01*
X150287205Y-89479744D01*
X150173937Y-89310226D01*
X150029774Y-89166063D01*
X149860256Y-89052795D01*
X149671898Y-88974774D01*
X149471939Y-88935000D01*
X149268061Y-88935000D01*
X149068102Y-88974774D01*
X148879744Y-89052795D01*
X148710226Y-89166063D01*
X148666289Y-89210000D01*
X141604803Y-89210000D01*
X133789801Y-81395000D01*
X133916260Y-81395000D01*
X134203158Y-81337932D01*
X134473411Y-81225990D01*
X134716632Y-81063475D01*
X134923475Y-80856632D01*
X135040000Y-80682240D01*
X135156525Y-80856632D01*
X135363368Y-81063475D01*
X135606589Y-81225990D01*
X135876842Y-81337932D01*
X136163740Y-81395000D01*
X136456260Y-81395000D01*
X136743158Y-81337932D01*
X137013411Y-81225990D01*
X137256632Y-81063475D01*
X137463475Y-80856632D01*
X137580000Y-80682240D01*
X137696525Y-80856632D01*
X137903368Y-81063475D01*
X138146589Y-81225990D01*
X138416842Y-81337932D01*
X138703740Y-81395000D01*
X138996260Y-81395000D01*
X139283158Y-81337932D01*
X139553411Y-81225990D01*
X139796632Y-81063475D01*
X140003475Y-80856632D01*
X140120000Y-80682240D01*
X140236525Y-80856632D01*
X140443368Y-81063475D01*
X140686589Y-81225990D01*
X140956842Y-81337932D01*
X141243740Y-81395000D01*
X141536260Y-81395000D01*
X141823158Y-81337932D01*
X142093411Y-81225990D01*
X142336632Y-81063475D01*
X142543475Y-80856632D01*
X142660000Y-80682240D01*
X142776525Y-80856632D01*
X142983368Y-81063475D01*
X143226589Y-81225990D01*
X143496842Y-81337932D01*
X143783740Y-81395000D01*
X144076260Y-81395000D01*
X144363158Y-81337932D01*
X144633411Y-81225990D01*
X144876632Y-81063475D01*
X145083475Y-80856632D01*
X145200000Y-80682240D01*
X145316525Y-80856632D01*
X145523368Y-81063475D01*
X145766589Y-81225990D01*
X146036842Y-81337932D01*
X146323740Y-81395000D01*
X146616260Y-81395000D01*
X146903158Y-81337932D01*
X147173411Y-81225990D01*
X147416632Y-81063475D01*
X147623475Y-80856632D01*
X147740000Y-80682240D01*
X147856525Y-80856632D01*
X148063368Y-81063475D01*
X148306589Y-81225990D01*
X148576842Y-81337932D01*
X148863740Y-81395000D01*
X149156260Y-81395000D01*
X149443158Y-81337932D01*
X149713411Y-81225990D01*
X149956632Y-81063475D01*
X150163475Y-80856632D01*
X150280000Y-80682240D01*
X150396525Y-80856632D01*
X150603368Y-81063475D01*
X150846589Y-81225990D01*
X151116842Y-81337932D01*
X151403740Y-81395000D01*
X151696260Y-81395000D01*
X151983158Y-81337932D01*
X152253411Y-81225990D01*
X152496632Y-81063475D01*
X152703475Y-80856632D01*
X152820000Y-80682240D01*
X152936525Y-80856632D01*
X153143368Y-81063475D01*
X153386589Y-81225990D01*
X153656842Y-81337932D01*
X153943740Y-81395000D01*
X154236260Y-81395000D01*
X154523158Y-81337932D01*
X154793411Y-81225990D01*
X155036632Y-81063475D01*
X155243475Y-80856632D01*
X155360000Y-80682240D01*
X155476525Y-80856632D01*
X155683368Y-81063475D01*
X155926589Y-81225990D01*
X156196842Y-81337932D01*
X156483740Y-81395000D01*
X156776260Y-81395000D01*
X157063158Y-81337932D01*
X157333411Y-81225990D01*
X157576632Y-81063475D01*
X157783475Y-80856632D01*
X157945990Y-80613411D01*
X158057932Y-80343158D01*
X158115000Y-80056260D01*
X158115000Y-79763740D01*
X158057932Y-79476842D01*
X157945990Y-79206589D01*
X157783475Y-78963368D01*
X157576632Y-78756525D01*
X157333411Y-78594010D01*
X157063158Y-78482068D01*
X156776260Y-78425000D01*
X156483740Y-78425000D01*
X156196842Y-78482068D01*
X155926589Y-78594010D01*
X155683368Y-78756525D01*
X155476525Y-78963368D01*
X155360000Y-79137760D01*
X155243475Y-78963368D01*
X155036632Y-78756525D01*
X154793411Y-78594010D01*
X154523158Y-78482068D01*
X154236260Y-78425000D01*
X153943740Y-78425000D01*
X153656842Y-78482068D01*
X153386589Y-78594010D01*
X153143368Y-78756525D01*
X152936525Y-78963368D01*
X152820000Y-79137760D01*
X152703475Y-78963368D01*
X152496632Y-78756525D01*
X152253411Y-78594010D01*
X151983158Y-78482068D01*
X151696260Y-78425000D01*
X151403740Y-78425000D01*
X151116842Y-78482068D01*
X150846589Y-78594010D01*
X150603368Y-78756525D01*
X150396525Y-78963368D01*
X150280000Y-79137760D01*
X150163475Y-78963368D01*
X149956632Y-78756525D01*
X149713411Y-78594010D01*
X149443158Y-78482068D01*
X149156260Y-78425000D01*
X148863740Y-78425000D01*
X148576842Y-78482068D01*
X148306589Y-78594010D01*
X148063368Y-78756525D01*
X147856525Y-78963368D01*
X147740000Y-79137760D01*
X147623475Y-78963368D01*
X147416632Y-78756525D01*
X147173411Y-78594010D01*
X146903158Y-78482068D01*
X146616260Y-78425000D01*
X146323740Y-78425000D01*
X146036842Y-78482068D01*
X145766589Y-78594010D01*
X145523368Y-78756525D01*
X145316525Y-78963368D01*
X145200000Y-79137760D01*
X145083475Y-78963368D01*
X144876632Y-78756525D01*
X144633411Y-78594010D01*
X144363158Y-78482068D01*
X144076260Y-78425000D01*
X143783740Y-78425000D01*
X143496842Y-78482068D01*
X143226589Y-78594010D01*
X142983368Y-78756525D01*
X142776525Y-78963368D01*
X142660000Y-79137760D01*
X142543475Y-78963368D01*
X142336632Y-78756525D01*
X142093411Y-78594010D01*
X141823158Y-78482068D01*
X141536260Y-78425000D01*
X141243740Y-78425000D01*
X140956842Y-78482068D01*
X140686589Y-78594010D01*
X140443368Y-78756525D01*
X140236525Y-78963368D01*
X140120000Y-79137760D01*
X140003475Y-78963368D01*
X139796632Y-78756525D01*
X139553411Y-78594010D01*
X139283158Y-78482068D01*
X138996260Y-78425000D01*
X138703740Y-78425000D01*
X138416842Y-78482068D01*
X138146589Y-78594010D01*
X137903368Y-78756525D01*
X137696525Y-78963368D01*
X137580000Y-79137760D01*
X137463475Y-78963368D01*
X137256632Y-78756525D01*
X137013411Y-78594010D01*
X136743158Y-78482068D01*
X136456260Y-78425000D01*
X136163740Y-78425000D01*
X135876842Y-78482068D01*
X135606589Y-78594010D01*
X135363368Y-78756525D01*
X135156525Y-78963368D01*
X135040000Y-79137760D01*
X134923475Y-78963368D01*
X134716632Y-78756525D01*
X134473411Y-78594010D01*
X134203158Y-78482068D01*
X133916260Y-78425000D01*
X133623740Y-78425000D01*
X133336842Y-78482068D01*
X133066589Y-78594010D01*
X132823368Y-78756525D01*
X132616525Y-78963368D01*
X132500000Y-79137760D01*
X132383475Y-78963368D01*
X132176632Y-78756525D01*
X131933411Y-78594010D01*
X131663158Y-78482068D01*
X131376260Y-78425000D01*
X131083740Y-78425000D01*
X130796842Y-78482068D01*
X130526589Y-78594010D01*
X130283368Y-78756525D01*
X130076525Y-78963368D01*
X129960000Y-79137760D01*
X129843475Y-78963368D01*
X129636632Y-78756525D01*
X129393411Y-78594010D01*
X129123158Y-78482068D01*
X128836260Y-78425000D01*
X128543740Y-78425000D01*
X128256842Y-78482068D01*
X127986589Y-78594010D01*
X127743368Y-78756525D01*
X127536525Y-78963368D01*
X127420000Y-79137760D01*
X127303475Y-78963368D01*
X127096632Y-78756525D01*
X126853411Y-78594010D01*
X126583158Y-78482068D01*
X126296260Y-78425000D01*
X126003740Y-78425000D01*
X125716842Y-78482068D01*
X125446589Y-78594010D01*
X125203368Y-78756525D01*
X124996525Y-78963368D01*
X124874805Y-79145534D01*
X124805178Y-79028645D01*
X124610269Y-78812412D01*
X124376920Y-78638359D01*
X124114099Y-78513175D01*
X123966890Y-78468524D01*
X123737000Y-78589845D01*
X123483000Y-78589845D01*
X123253110Y-78468524D01*
X123105901Y-78513175D01*
X122843080Y-78638359D01*
X122609731Y-78812412D01*
X122533966Y-78896466D01*
X122509502Y-78815820D01*
X122450537Y-78705506D01*
X122371185Y-78608815D01*
X122274494Y-78529463D01*
X122164180Y-78470498D01*
X122044482Y-78434188D01*
X121920000Y-78421928D01*
X120220000Y-78421928D01*
X120095518Y-78434188D01*
X119975820Y-78470498D01*
X119865506Y-78529463D01*
X119768815Y-78608815D01*
X119689463Y-78705506D01*
X119630498Y-78815820D01*
X119594188Y-78935518D01*
X119581928Y-79060000D01*
X111187000Y-79060000D01*
X111187000Y-74139742D01*
X119048715Y-74139742D01*
X119117904Y-74422745D01*
X119240975Y-74686812D01*
X119413198Y-74921795D01*
X119627954Y-75118664D01*
X119876991Y-75269854D01*
X120150739Y-75369554D01*
X120163110Y-75371476D01*
X120393000Y-75250155D01*
X120393000Y-73907000D01*
X119192768Y-73907000D01*
X119048715Y-74139742D01*
X111187000Y-74139742D01*
X111187000Y-73420258D01*
X119048715Y-73420258D01*
X119192768Y-73653000D01*
X120393000Y-73653000D01*
X120393000Y-72309845D01*
X120647000Y-72309845D01*
X120647000Y-73653000D01*
X120667000Y-73653000D01*
X120667000Y-73907000D01*
X120647000Y-73907000D01*
X120647000Y-75250155D01*
X120876890Y-75371476D01*
X120889261Y-75369554D01*
X121163009Y-75269854D01*
X121412046Y-75118664D01*
X121626802Y-74921795D01*
X121627086Y-74921407D01*
X121681595Y-75023386D01*
X121792038Y-75157962D01*
X121926614Y-75268405D01*
X122080150Y-75350472D01*
X122246746Y-75401008D01*
X122420000Y-75418072D01*
X123620000Y-75418072D01*
X123793254Y-75401008D01*
X123959850Y-75350472D01*
X124113386Y-75268405D01*
X124247962Y-75157962D01*
X124358405Y-75023386D01*
X124440472Y-74869850D01*
X124491008Y-74703254D01*
X124508072Y-74530000D01*
X124508072Y-73582050D01*
X129725000Y-73582050D01*
X129725000Y-73977949D01*
X129746487Y-74196110D01*
X129831401Y-74476033D01*
X129969294Y-74734013D01*
X130154866Y-74960134D01*
X130380986Y-75145706D01*
X130638966Y-75283599D01*
X130918889Y-75368513D01*
X131210000Y-75397185D01*
X131501110Y-75368513D01*
X131781033Y-75283599D01*
X132039013Y-75145706D01*
X132265134Y-74960134D01*
X132450706Y-74734014D01*
X132464462Y-74708278D01*
X132620951Y-74914429D01*
X132838807Y-75107496D01*
X133090142Y-75254352D01*
X133353110Y-75346476D01*
X133583000Y-75225155D01*
X133583000Y-73907000D01*
X133563000Y-73907000D01*
X133563000Y-73653000D01*
X133583000Y-73653000D01*
X133583000Y-72334845D01*
X133837000Y-72334845D01*
X133837000Y-73653000D01*
X133857000Y-73653000D01*
X133857000Y-73907000D01*
X133837000Y-73907000D01*
X133837000Y-75225155D01*
X134066890Y-75346476D01*
X134329858Y-75254352D01*
X134581193Y-75107496D01*
X134799049Y-74914429D01*
X134815286Y-74893039D01*
X134871595Y-74998386D01*
X134982038Y-75132962D01*
X135116614Y-75243405D01*
X135270150Y-75325472D01*
X135436746Y-75376008D01*
X135610000Y-75393072D01*
X136810000Y-75393072D01*
X136983254Y-75376008D01*
X137149850Y-75325472D01*
X137303386Y-75243405D01*
X137437962Y-75132962D01*
X137548405Y-74998386D01*
X137630472Y-74844850D01*
X137681008Y-74678254D01*
X137698072Y-74505000D01*
X137698072Y-73557050D01*
X141225000Y-73557050D01*
X141225000Y-74002949D01*
X141246487Y-74221110D01*
X141331401Y-74501033D01*
X141469294Y-74759013D01*
X141654866Y-74985134D01*
X141880986Y-75170706D01*
X142138966Y-75308599D01*
X142418889Y-75393513D01*
X142710000Y-75422185D01*
X143001110Y-75393513D01*
X143281033Y-75308599D01*
X143539013Y-75170706D01*
X143765134Y-74985134D01*
X143817223Y-74921663D01*
X143871595Y-75023386D01*
X143982038Y-75157962D01*
X144116614Y-75268405D01*
X144270150Y-75350472D01*
X144436746Y-75401008D01*
X144610000Y-75418072D01*
X145810000Y-75418072D01*
X145983254Y-75401008D01*
X146149850Y-75350472D01*
X146303386Y-75268405D01*
X146437962Y-75157962D01*
X146548405Y-75023386D01*
X146630472Y-74869850D01*
X146681008Y-74703254D01*
X146698072Y-74530000D01*
X146698072Y-73557050D01*
X150225000Y-73557050D01*
X150225000Y-74002949D01*
X150246487Y-74221110D01*
X150331401Y-74501033D01*
X150469294Y-74759013D01*
X150654866Y-74985134D01*
X150880986Y-75170706D01*
X151138966Y-75308599D01*
X151418889Y-75393513D01*
X151710000Y-75422185D01*
X152001110Y-75393513D01*
X152281033Y-75308599D01*
X152539013Y-75170706D01*
X152765134Y-74985134D01*
X152817223Y-74921663D01*
X152871595Y-75023386D01*
X152982038Y-75157962D01*
X153116614Y-75268405D01*
X153270150Y-75350472D01*
X153436746Y-75401008D01*
X153610000Y-75418072D01*
X154810000Y-75418072D01*
X154983254Y-75401008D01*
X155149850Y-75350472D01*
X155303386Y-75268405D01*
X155437962Y-75157962D01*
X155548405Y-75023386D01*
X155630472Y-74869850D01*
X155681008Y-74703254D01*
X155698072Y-74530000D01*
X155698072Y-73170000D01*
X163291928Y-73170000D01*
X163291928Y-74770000D01*
X163304188Y-74894482D01*
X163340498Y-75014180D01*
X163399463Y-75124494D01*
X163478815Y-75221185D01*
X163575506Y-75300537D01*
X163685820Y-75359502D01*
X163805518Y-75395812D01*
X163930000Y-75408072D01*
X165530000Y-75408072D01*
X165654482Y-75395812D01*
X165774180Y-75359502D01*
X165884494Y-75300537D01*
X165981185Y-75221185D01*
X166060537Y-75124494D01*
X166119502Y-75014180D01*
X166135117Y-74962702D01*
X166416903Y-74962702D01*
X166488486Y-75206671D01*
X166743996Y-75327571D01*
X167018184Y-75396300D01*
X167300512Y-75410217D01*
X167580130Y-75368787D01*
X167846292Y-75273603D01*
X167971514Y-75206671D01*
X168043097Y-74962702D01*
X167230000Y-74149605D01*
X166416903Y-74962702D01*
X166135117Y-74962702D01*
X166155812Y-74894482D01*
X166168072Y-74770000D01*
X166168072Y-74762785D01*
X166237298Y-74783097D01*
X167050395Y-73970000D01*
X167409605Y-73970000D01*
X168222702Y-74783097D01*
X168466671Y-74711514D01*
X168587571Y-74456004D01*
X168656300Y-74181816D01*
X168670217Y-73899488D01*
X168628787Y-73619870D01*
X168533603Y-73353708D01*
X168466671Y-73228486D01*
X168222702Y-73156903D01*
X167409605Y-73970000D01*
X167050395Y-73970000D01*
X166237298Y-73156903D01*
X166168072Y-73177215D01*
X166168072Y-73170000D01*
X166155812Y-73045518D01*
X166135118Y-72977298D01*
X166416903Y-72977298D01*
X167230000Y-73790395D01*
X168043097Y-72977298D01*
X167971514Y-72733329D01*
X167716004Y-72612429D01*
X167441816Y-72543700D01*
X167159488Y-72529783D01*
X166879870Y-72571213D01*
X166613708Y-72666397D01*
X166488486Y-72733329D01*
X166416903Y-72977298D01*
X166135118Y-72977298D01*
X166119502Y-72925820D01*
X166060537Y-72815506D01*
X165981185Y-72718815D01*
X165884494Y-72639463D01*
X165774180Y-72580498D01*
X165654482Y-72544188D01*
X165530000Y-72531928D01*
X163930000Y-72531928D01*
X163805518Y-72544188D01*
X163685820Y-72580498D01*
X163575506Y-72639463D01*
X163478815Y-72718815D01*
X163399463Y-72815506D01*
X163340498Y-72925820D01*
X163304188Y-73045518D01*
X163291928Y-73170000D01*
X155698072Y-73170000D01*
X155698072Y-73030000D01*
X155681008Y-72856746D01*
X155630472Y-72690150D01*
X155548405Y-72536614D01*
X155437962Y-72402038D01*
X155303386Y-72291595D01*
X155149850Y-72209528D01*
X154983254Y-72158992D01*
X154810000Y-72141928D01*
X153610000Y-72141928D01*
X153436746Y-72158992D01*
X153270150Y-72209528D01*
X153116614Y-72291595D01*
X152982038Y-72402038D01*
X152871595Y-72536614D01*
X152817223Y-72638337D01*
X152765134Y-72574866D01*
X152539014Y-72389294D01*
X152281034Y-72251401D01*
X152001111Y-72166487D01*
X151710000Y-72137815D01*
X151418890Y-72166487D01*
X151138967Y-72251401D01*
X150880987Y-72389294D01*
X150654866Y-72574866D01*
X150469294Y-72800986D01*
X150331401Y-73058966D01*
X150246487Y-73338889D01*
X150225000Y-73557050D01*
X146698072Y-73557050D01*
X146698072Y-73030000D01*
X146681008Y-72856746D01*
X146630472Y-72690150D01*
X146548405Y-72536614D01*
X146437962Y-72402038D01*
X146303386Y-72291595D01*
X146149850Y-72209528D01*
X145983254Y-72158992D01*
X145810000Y-72141928D01*
X144610000Y-72141928D01*
X144436746Y-72158992D01*
X144270150Y-72209528D01*
X144116614Y-72291595D01*
X143982038Y-72402038D01*
X143871595Y-72536614D01*
X143817223Y-72638337D01*
X143765134Y-72574866D01*
X143539014Y-72389294D01*
X143281034Y-72251401D01*
X143001111Y-72166487D01*
X142710000Y-72137815D01*
X142418890Y-72166487D01*
X142138967Y-72251401D01*
X141880987Y-72389294D01*
X141654866Y-72574866D01*
X141469294Y-72800986D01*
X141331401Y-73058966D01*
X141246487Y-73338889D01*
X141225000Y-73557050D01*
X137698072Y-73557050D01*
X137698072Y-73055000D01*
X137681008Y-72881746D01*
X137630472Y-72715150D01*
X137548405Y-72561614D01*
X137437962Y-72427038D01*
X137303386Y-72316595D01*
X137149850Y-72234528D01*
X136983254Y-72183992D01*
X136810000Y-72166928D01*
X135610000Y-72166928D01*
X135436746Y-72183992D01*
X135270150Y-72234528D01*
X135116614Y-72316595D01*
X134982038Y-72427038D01*
X134871595Y-72561614D01*
X134815286Y-72666961D01*
X134799049Y-72645571D01*
X134581193Y-72452504D01*
X134329858Y-72305648D01*
X134066890Y-72213524D01*
X133837000Y-72334845D01*
X133583000Y-72334845D01*
X133353110Y-72213524D01*
X133090142Y-72305648D01*
X132838807Y-72452504D01*
X132620951Y-72645571D01*
X132464462Y-72851722D01*
X132450706Y-72825986D01*
X132265134Y-72599866D01*
X132039014Y-72414294D01*
X131781034Y-72276401D01*
X131501111Y-72191487D01*
X131210000Y-72162815D01*
X130918890Y-72191487D01*
X130638967Y-72276401D01*
X130380987Y-72414294D01*
X130154866Y-72599866D01*
X129969294Y-72825986D01*
X129831401Y-73083966D01*
X129746487Y-73363889D01*
X129725000Y-73582050D01*
X124508072Y-73582050D01*
X124508072Y-73030000D01*
X124491008Y-72856746D01*
X124440472Y-72690150D01*
X124358405Y-72536614D01*
X124247962Y-72402038D01*
X124113386Y-72291595D01*
X123959850Y-72209528D01*
X123793254Y-72158992D01*
X123620000Y-72141928D01*
X122420000Y-72141928D01*
X122246746Y-72158992D01*
X122080150Y-72209528D01*
X121926614Y-72291595D01*
X121792038Y-72402038D01*
X121681595Y-72536614D01*
X121627086Y-72638593D01*
X121626802Y-72638205D01*
X121412046Y-72441336D01*
X121163009Y-72290146D01*
X120889261Y-72190446D01*
X120876890Y-72188524D01*
X120647000Y-72309845D01*
X120393000Y-72309845D01*
X120163110Y-72188524D01*
X120150739Y-72190446D01*
X119876991Y-72290146D01*
X119627954Y-72441336D01*
X119413198Y-72638205D01*
X119240975Y-72873188D01*
X119117904Y-73137255D01*
X119048715Y-73420258D01*
X111187000Y-73420258D01*
X111187000Y-71027000D01*
X168933000Y-71027000D01*
X168933000Y-113773000D01*
G37*
%TD.AperFunction*%
%TD*%
M02*
