M48
; DRILL file {KiCad (5.1.9)-1} date 02/26/21 14:18:07
; FORMAT={-:-/ absolute / metric / decimal}
; #@! TF.CreationDate,2021-02-26T14:18:07+09:00
; #@! TF.GenerationSoftware,Kicad,Pcbnew,(5.1.9)-1
FMAT,2
METRIC
T1C0.400
T2C0.800
T3C0.950
T4C1.000
%
G90
G05
T1
X124.82Y-93.64
X124.98Y-98.66
X143.75Y-87.04
X144.1Y-99.25
X149.37Y-89.97
X149.37Y-91.08
X149.37Y-92.2
T2
X164.73Y-73.97
X167.23Y-73.97
T3
X126.12Y-111.75
X128.62Y-111.75
X131.12Y-111.75
X131.21Y-73.78
X133.62Y-111.75
X133.71Y-73.78
X136.12Y-111.75
X136.21Y-73.78
X165.58Y-103.95
X165.58Y-106.45
X165.58Y-108.95
X165.58Y-111.45
X165.6Y-87.0
X165.6Y-89.5
X165.6Y-92.0
X165.6Y-94.5
X165.6Y-97.0
T4
X114.91Y-111.75
X117.41Y-111.75
X120.52Y-73.78
X121.07Y-79.91
X121.07Y-105.31
X123.02Y-73.78
X123.61Y-79.91
X123.61Y-105.31
X126.15Y-79.91
X126.15Y-105.31
X128.69Y-79.91
X128.69Y-105.31
X131.23Y-79.91
X131.23Y-105.31
X133.77Y-79.91
X133.77Y-105.31
X136.31Y-79.91
X136.31Y-105.31
X138.85Y-79.91
X138.85Y-105.31
X141.39Y-79.91
X141.39Y-105.31
X142.71Y-73.78
X143.12Y-111.75
X143.93Y-79.91
X143.93Y-105.31
X145.21Y-73.78
X145.62Y-111.75
X146.47Y-79.91
X146.47Y-105.31
X149.01Y-79.91
X149.01Y-105.31
X151.55Y-79.91
X151.55Y-105.31
X151.71Y-73.78
X153.12Y-111.75
X154.09Y-79.91
X154.09Y-105.31
X154.21Y-73.78
X155.62Y-111.75
X156.63Y-79.91
X156.63Y-105.31
T0
M30
